%TF.GenerationSoftware,KiCad,Pcbnew,(5.1.9-0-10_14)*%
%TF.CreationDate,2023-02-10T00:43:38-05:00*%
%TF.ProjectId,LiControl,4c69436f-6e74-4726-9f6c-2e6b69636164,rev?*%
%TF.SameCoordinates,Original*%
%TF.FileFunction,Legend,Bot*%
%TF.FilePolarity,Positive*%
%FSLAX46Y46*%
G04 Gerber Fmt 4.6, Leading zero omitted, Abs format (unit mm)*
G04 Created by KiCad (PCBNEW (5.1.9-0-10_14)) date 2023-02-10 00:43:38*
%MOMM*%
%LPD*%
G01*
G04 APERTURE LIST*
%ADD10C,0.150000*%
%ADD11C,0.120000*%
G04 APERTURE END LIST*
D10*
X98720238Y-108457142D02*
X98720238Y-109469047D01*
X98779761Y-109588095D01*
X98839285Y-109647619D01*
X98958333Y-109707142D01*
X99136904Y-109707142D01*
X99255952Y-109647619D01*
X98720238Y-109230952D02*
X98839285Y-109290476D01*
X99077380Y-109290476D01*
X99196428Y-109230952D01*
X99255952Y-109171428D01*
X99315476Y-109052380D01*
X99315476Y-108695238D01*
X99255952Y-108576190D01*
X99196428Y-108516666D01*
X99077380Y-108457142D01*
X98839285Y-108457142D01*
X98720238Y-108516666D01*
X98125000Y-109290476D02*
X98125000Y-108457142D01*
X98125000Y-108040476D02*
X98184523Y-108100000D01*
X98125000Y-108159523D01*
X98065476Y-108100000D01*
X98125000Y-108040476D01*
X98125000Y-108159523D01*
X97708333Y-108457142D02*
X97232142Y-108457142D01*
X97529761Y-108040476D02*
X97529761Y-109111904D01*
X97470238Y-109230952D01*
X97351190Y-109290476D01*
X97232142Y-109290476D01*
X96815476Y-109290476D02*
X96815476Y-108040476D01*
X96279761Y-109290476D02*
X96279761Y-108635714D01*
X96339285Y-108516666D01*
X96458333Y-108457142D01*
X96636904Y-108457142D01*
X96755952Y-108516666D01*
X96815476Y-108576190D01*
X95148809Y-108457142D02*
X95148809Y-109290476D01*
X95684523Y-108457142D02*
X95684523Y-109111904D01*
X95625000Y-109230952D01*
X95505952Y-109290476D01*
X95327380Y-109290476D01*
X95208333Y-109230952D01*
X95148809Y-109171428D01*
X94553571Y-109290476D02*
X94553571Y-108040476D01*
X94553571Y-108516666D02*
X94434523Y-108457142D01*
X94196428Y-108457142D01*
X94077380Y-108516666D01*
X94017857Y-108576190D01*
X93958333Y-108695238D01*
X93958333Y-109052380D01*
X94017857Y-109171428D01*
X94077380Y-109230952D01*
X94196428Y-109290476D01*
X94434523Y-109290476D01*
X94553571Y-109230952D01*
X93422619Y-109171428D02*
X93363095Y-109230952D01*
X93422619Y-109290476D01*
X93482142Y-109230952D01*
X93422619Y-109171428D01*
X93422619Y-109290476D01*
X92291666Y-109230952D02*
X92410714Y-109290476D01*
X92648809Y-109290476D01*
X92767857Y-109230952D01*
X92827380Y-109171428D01*
X92886904Y-109052380D01*
X92886904Y-108695238D01*
X92827380Y-108576190D01*
X92767857Y-108516666D01*
X92648809Y-108457142D01*
X92410714Y-108457142D01*
X92291666Y-108516666D01*
X91577380Y-109290476D02*
X91696428Y-109230952D01*
X91755952Y-109171428D01*
X91815476Y-109052380D01*
X91815476Y-108695238D01*
X91755952Y-108576190D01*
X91696428Y-108516666D01*
X91577380Y-108457142D01*
X91398809Y-108457142D01*
X91279761Y-108516666D01*
X91220238Y-108576190D01*
X91160714Y-108695238D01*
X91160714Y-109052380D01*
X91220238Y-109171428D01*
X91279761Y-109230952D01*
X91398809Y-109290476D01*
X91577380Y-109290476D01*
X90625000Y-109290476D02*
X90625000Y-108457142D01*
X90625000Y-108576190D02*
X90565476Y-108516666D01*
X90446428Y-108457142D01*
X90267857Y-108457142D01*
X90148809Y-108516666D01*
X90089285Y-108635714D01*
X90089285Y-109290476D01*
X90089285Y-108635714D02*
X90029761Y-108516666D01*
X89910714Y-108457142D01*
X89732142Y-108457142D01*
X89613095Y-108516666D01*
X89553571Y-108635714D01*
X89553571Y-109290476D01*
X88065476Y-107980952D02*
X89136904Y-109588095D01*
X98392857Y-111315476D02*
X98392857Y-110065476D01*
X98392857Y-111255952D02*
X98511904Y-111315476D01*
X98750000Y-111315476D01*
X98869047Y-111255952D01*
X98928571Y-111196428D01*
X98988095Y-111077380D01*
X98988095Y-110720238D01*
X98928571Y-110601190D01*
X98869047Y-110541666D01*
X98750000Y-110482142D01*
X98511904Y-110482142D01*
X98392857Y-110541666D01*
X97619047Y-111315476D02*
X97738095Y-111255952D01*
X97797619Y-111196428D01*
X97857142Y-111077380D01*
X97857142Y-110720238D01*
X97797619Y-110601190D01*
X97738095Y-110541666D01*
X97619047Y-110482142D01*
X97440476Y-110482142D01*
X97321428Y-110541666D01*
X97261904Y-110601190D01*
X97202380Y-110720238D01*
X97202380Y-111077380D01*
X97261904Y-111196428D01*
X97321428Y-111255952D01*
X97440476Y-111315476D01*
X97619047Y-111315476D01*
X96666666Y-110482142D02*
X96666666Y-111732142D01*
X96666666Y-110541666D02*
X96547619Y-110482142D01*
X96309523Y-110482142D01*
X96190476Y-110541666D01*
X96130952Y-110601190D01*
X96071428Y-110720238D01*
X96071428Y-111077380D01*
X96130952Y-111196428D01*
X96190476Y-111255952D01*
X96309523Y-111315476D01*
X96547619Y-111315476D01*
X96666666Y-111255952D01*
X95535714Y-110482142D02*
X95535714Y-111732142D01*
X95535714Y-110541666D02*
X95416666Y-110482142D01*
X95178571Y-110482142D01*
X95059523Y-110541666D01*
X95000000Y-110601190D01*
X94940476Y-110720238D01*
X94940476Y-111077380D01*
X95000000Y-111196428D01*
X95059523Y-111255952D01*
X95178571Y-111315476D01*
X95416666Y-111315476D01*
X95535714Y-111255952D01*
X93928571Y-111255952D02*
X94047619Y-111315476D01*
X94285714Y-111315476D01*
X94404761Y-111255952D01*
X94464285Y-111136904D01*
X94464285Y-110660714D01*
X94404761Y-110541666D01*
X94285714Y-110482142D01*
X94047619Y-110482142D01*
X93928571Y-110541666D01*
X93869047Y-110660714D01*
X93869047Y-110779761D01*
X94464285Y-110898809D01*
X93154761Y-111315476D02*
X93273809Y-111255952D01*
X93333333Y-111136904D01*
X93333333Y-110065476D01*
X92678571Y-111315476D02*
X92678571Y-110065476D01*
X92142857Y-111315476D02*
X92142857Y-110660714D01*
X92202380Y-110541666D01*
X92321428Y-110482142D01*
X92500000Y-110482142D01*
X92619047Y-110541666D01*
X92678571Y-110601190D01*
X91011904Y-110482142D02*
X91011904Y-111315476D01*
X91547619Y-110482142D02*
X91547619Y-111136904D01*
X91488095Y-111255952D01*
X91369047Y-111315476D01*
X91190476Y-111315476D01*
X91071428Y-111255952D01*
X91011904Y-111196428D01*
X90416666Y-111315476D02*
X90416666Y-110065476D01*
X90416666Y-110541666D02*
X90297619Y-110482142D01*
X90059523Y-110482142D01*
X89940476Y-110541666D01*
X89880952Y-110601190D01*
X89821428Y-110720238D01*
X89821428Y-111077380D01*
X89880952Y-111196428D01*
X89940476Y-111255952D01*
X90059523Y-111315476D01*
X90297619Y-111315476D01*
X90416666Y-111255952D01*
X88392857Y-110005952D02*
X89464285Y-111613095D01*
X99553571Y-113340476D02*
X99553571Y-112090476D01*
X99136904Y-112983333D01*
X98720238Y-112090476D01*
X98720238Y-113340476D01*
X97589285Y-112507142D02*
X97589285Y-113340476D01*
X98125000Y-112507142D02*
X98125000Y-113161904D01*
X98065476Y-113280952D01*
X97946428Y-113340476D01*
X97767857Y-113340476D01*
X97648809Y-113280952D01*
X97589285Y-113221428D01*
X96458333Y-113340476D02*
X96458333Y-112090476D01*
X96458333Y-113280952D02*
X96577380Y-113340476D01*
X96815476Y-113340476D01*
X96934523Y-113280952D01*
X96994047Y-113221428D01*
X97053571Y-113102380D01*
X97053571Y-112745238D01*
X96994047Y-112626190D01*
X96934523Y-112566666D01*
X96815476Y-112507142D01*
X96577380Y-112507142D01*
X96458333Y-112566666D01*
X95327380Y-113340476D02*
X95327380Y-112090476D01*
X95327380Y-113280952D02*
X95446428Y-113340476D01*
X95684523Y-113340476D01*
X95803571Y-113280952D01*
X95863095Y-113221428D01*
X95922619Y-113102380D01*
X95922619Y-112745238D01*
X95863095Y-112626190D01*
X95803571Y-112566666D01*
X95684523Y-112507142D01*
X95446428Y-112507142D01*
X95327380Y-112566666D01*
X94255952Y-113280952D02*
X94375000Y-113340476D01*
X94613095Y-113340476D01*
X94732142Y-113280952D01*
X94791666Y-113161904D01*
X94791666Y-112685714D01*
X94732142Y-112566666D01*
X94613095Y-112507142D01*
X94375000Y-112507142D01*
X94255952Y-112566666D01*
X94196428Y-112685714D01*
X94196428Y-112804761D01*
X94791666Y-112923809D01*
X93660714Y-113340476D02*
X93660714Y-112507142D01*
X93660714Y-112745238D02*
X93601190Y-112626190D01*
X93541666Y-112566666D01*
X93422619Y-112507142D01*
X93303571Y-112507142D01*
X92946428Y-113280952D02*
X92827380Y-113340476D01*
X92589285Y-113340476D01*
X92470238Y-113280952D01*
X92410714Y-113161904D01*
X92410714Y-113102380D01*
X92470238Y-112983333D01*
X92589285Y-112923809D01*
X92767857Y-112923809D01*
X92886904Y-112864285D01*
X92946428Y-112745238D01*
X92946428Y-112685714D01*
X92886904Y-112566666D01*
X92767857Y-112507142D01*
X92589285Y-112507142D01*
X92470238Y-112566666D01*
X91875000Y-113340476D02*
X91875000Y-112090476D01*
X91458333Y-112983333D01*
X91041666Y-112090476D01*
X91041666Y-113340476D01*
X90446428Y-113340476D02*
X90446428Y-112090476D01*
X89851190Y-113340476D02*
X89851190Y-112090476D01*
X89434523Y-112983333D01*
X89017857Y-112090476D01*
X89017857Y-113340476D01*
X88482142Y-112983333D02*
X87886904Y-112983333D01*
X88601190Y-113340476D02*
X88184523Y-112090476D01*
X87767857Y-113340476D01*
X136275000Y-60511904D02*
X136322619Y-60607142D01*
X136322619Y-60750000D01*
X136275000Y-60892857D01*
X136179761Y-60988095D01*
X136084523Y-61035714D01*
X135894047Y-61083333D01*
X135751190Y-61083333D01*
X135560714Y-61035714D01*
X135465476Y-60988095D01*
X135370238Y-60892857D01*
X135322619Y-60750000D01*
X135322619Y-60654761D01*
X135370238Y-60511904D01*
X135417857Y-60464285D01*
X135751190Y-60464285D01*
X135751190Y-60654761D01*
X135322619Y-60035714D02*
X136322619Y-60035714D01*
X135322619Y-59464285D01*
X136322619Y-59464285D01*
X135322619Y-58988095D02*
X136322619Y-58988095D01*
X136322619Y-58750000D01*
X136275000Y-58607142D01*
X136179761Y-58511904D01*
X136084523Y-58464285D01*
X135894047Y-58416666D01*
X135751190Y-58416666D01*
X135560714Y-58464285D01*
X135465476Y-58511904D01*
X135370238Y-58607142D01*
X135322619Y-58750000D01*
X135322619Y-58988095D01*
X133672619Y-60916666D02*
X134672619Y-60916666D01*
X134672619Y-60535714D01*
X134625000Y-60440476D01*
X134577380Y-60392857D01*
X134482142Y-60345238D01*
X134339285Y-60345238D01*
X134244047Y-60392857D01*
X134196428Y-60440476D01*
X134148809Y-60535714D01*
X134148809Y-60916666D01*
X134672619Y-59726190D02*
X134672619Y-59535714D01*
X134625000Y-59440476D01*
X134529761Y-59345238D01*
X134339285Y-59297619D01*
X134005952Y-59297619D01*
X133815476Y-59345238D01*
X133720238Y-59440476D01*
X133672619Y-59535714D01*
X133672619Y-59726190D01*
X133720238Y-59821428D01*
X133815476Y-59916666D01*
X134005952Y-59964285D01*
X134339285Y-59964285D01*
X134529761Y-59916666D01*
X134625000Y-59821428D01*
X134672619Y-59726190D01*
X134672619Y-59011904D02*
X134672619Y-58440476D01*
X133672619Y-58726190D02*
X134672619Y-58726190D01*
X133022619Y-59940476D02*
X133022619Y-60416666D01*
X132546428Y-60464285D01*
X132594047Y-60416666D01*
X132641666Y-60321428D01*
X132641666Y-60083333D01*
X132594047Y-59988095D01*
X132546428Y-59940476D01*
X132451190Y-59892857D01*
X132213095Y-59892857D01*
X132117857Y-59940476D01*
X132070238Y-59988095D01*
X132022619Y-60083333D01*
X132022619Y-60321428D01*
X132070238Y-60416666D01*
X132117857Y-60464285D01*
X133022619Y-59607142D02*
X132022619Y-59273809D01*
X133022619Y-58940476D01*
X131325000Y-60511904D02*
X131372619Y-60607142D01*
X131372619Y-60750000D01*
X131325000Y-60892857D01*
X131229761Y-60988095D01*
X131134523Y-61035714D01*
X130944047Y-61083333D01*
X130801190Y-61083333D01*
X130610714Y-61035714D01*
X130515476Y-60988095D01*
X130420238Y-60892857D01*
X130372619Y-60750000D01*
X130372619Y-60654761D01*
X130420238Y-60511904D01*
X130467857Y-60464285D01*
X130801190Y-60464285D01*
X130801190Y-60654761D01*
X130372619Y-60035714D02*
X131372619Y-60035714D01*
X130372619Y-59464285D01*
X131372619Y-59464285D01*
X130372619Y-58988095D02*
X131372619Y-58988095D01*
X131372619Y-58750000D01*
X131325000Y-58607142D01*
X131229761Y-58511904D01*
X131134523Y-58464285D01*
X130944047Y-58416666D01*
X130801190Y-58416666D01*
X130610714Y-58464285D01*
X130515476Y-58511904D01*
X130420238Y-58607142D01*
X130372619Y-58750000D01*
X130372619Y-58988095D01*
X129246428Y-62011904D02*
X129198809Y-61869047D01*
X129151190Y-61821428D01*
X129055952Y-61773809D01*
X128913095Y-61773809D01*
X128817857Y-61821428D01*
X128770238Y-61869047D01*
X128722619Y-61964285D01*
X128722619Y-62345238D01*
X129722619Y-62345238D01*
X129722619Y-62011904D01*
X129675000Y-61916666D01*
X129627380Y-61869047D01*
X129532142Y-61821428D01*
X129436904Y-61821428D01*
X129341666Y-61869047D01*
X129294047Y-61916666D01*
X129246428Y-62011904D01*
X129246428Y-62345238D01*
X129722619Y-61345238D02*
X128913095Y-61345238D01*
X128817857Y-61297619D01*
X128770238Y-61250000D01*
X128722619Y-61154761D01*
X128722619Y-60964285D01*
X128770238Y-60869047D01*
X128817857Y-60821428D01*
X128913095Y-60773809D01*
X129722619Y-60773809D01*
X129722619Y-60440476D02*
X129722619Y-59869047D01*
X128722619Y-60154761D02*
X129722619Y-60154761D01*
X129722619Y-59678571D02*
X129722619Y-59107142D01*
X128722619Y-59392857D02*
X129722619Y-59392857D01*
X129722619Y-58583333D02*
X129722619Y-58392857D01*
X129675000Y-58297619D01*
X129579761Y-58202380D01*
X129389285Y-58154761D01*
X129055952Y-58154761D01*
X128865476Y-58202380D01*
X128770238Y-58297619D01*
X128722619Y-58392857D01*
X128722619Y-58583333D01*
X128770238Y-58678571D01*
X128865476Y-58773809D01*
X129055952Y-58821428D01*
X129389285Y-58821428D01*
X129579761Y-58773809D01*
X129675000Y-58678571D01*
X129722619Y-58583333D01*
X128722619Y-57726190D02*
X129722619Y-57726190D01*
X128722619Y-57154761D01*
X129722619Y-57154761D01*
X127072619Y-62035714D02*
X128072619Y-62035714D01*
X127358333Y-61702380D01*
X128072619Y-61369047D01*
X127072619Y-61369047D01*
X128072619Y-60702380D02*
X128072619Y-60511904D01*
X128025000Y-60416666D01*
X127929761Y-60321428D01*
X127739285Y-60273809D01*
X127405952Y-60273809D01*
X127215476Y-60321428D01*
X127120238Y-60416666D01*
X127072619Y-60511904D01*
X127072619Y-60702380D01*
X127120238Y-60797619D01*
X127215476Y-60892857D01*
X127405952Y-60940476D01*
X127739285Y-60940476D01*
X127929761Y-60892857D01*
X128025000Y-60797619D01*
X128072619Y-60702380D01*
X127072619Y-59845238D02*
X128072619Y-59845238D01*
X128072619Y-59607142D01*
X128025000Y-59464285D01*
X127929761Y-59369047D01*
X127834523Y-59321428D01*
X127644047Y-59273809D01*
X127501190Y-59273809D01*
X127310714Y-59321428D01*
X127215476Y-59369047D01*
X127120238Y-59464285D01*
X127072619Y-59607142D01*
X127072619Y-59845238D01*
X127596428Y-58845238D02*
X127596428Y-58511904D01*
X127072619Y-58369047D02*
X127072619Y-58845238D01*
X128072619Y-58845238D01*
X128072619Y-58369047D01*
X127072619Y-57416666D02*
X127072619Y-57988095D01*
X127072619Y-57702380D02*
X128072619Y-57702380D01*
X127929761Y-57797619D01*
X127834523Y-57892857D01*
X127786904Y-57988095D01*
X125422619Y-62035714D02*
X126422619Y-62035714D01*
X125708333Y-61702380D01*
X126422619Y-61369047D01*
X125422619Y-61369047D01*
X126422619Y-60702380D02*
X126422619Y-60511904D01*
X126375000Y-60416666D01*
X126279761Y-60321428D01*
X126089285Y-60273809D01*
X125755952Y-60273809D01*
X125565476Y-60321428D01*
X125470238Y-60416666D01*
X125422619Y-60511904D01*
X125422619Y-60702380D01*
X125470238Y-60797619D01*
X125565476Y-60892857D01*
X125755952Y-60940476D01*
X126089285Y-60940476D01*
X126279761Y-60892857D01*
X126375000Y-60797619D01*
X126422619Y-60702380D01*
X125422619Y-59845238D02*
X126422619Y-59845238D01*
X126422619Y-59607142D01*
X126375000Y-59464285D01*
X126279761Y-59369047D01*
X126184523Y-59321428D01*
X125994047Y-59273809D01*
X125851190Y-59273809D01*
X125660714Y-59321428D01*
X125565476Y-59369047D01*
X125470238Y-59464285D01*
X125422619Y-59607142D01*
X125422619Y-59845238D01*
X125946428Y-58845238D02*
X125946428Y-58511904D01*
X125422619Y-58369047D02*
X125422619Y-58845238D01*
X126422619Y-58845238D01*
X126422619Y-58369047D01*
X126327380Y-57988095D02*
X126375000Y-57940476D01*
X126422619Y-57845238D01*
X126422619Y-57607142D01*
X126375000Y-57511904D01*
X126327380Y-57464285D01*
X126232142Y-57416666D01*
X126136904Y-57416666D01*
X125994047Y-57464285D01*
X125422619Y-58035714D01*
X125422619Y-57416666D01*
X124725000Y-60511904D02*
X124772619Y-60607142D01*
X124772619Y-60750000D01*
X124725000Y-60892857D01*
X124629761Y-60988095D01*
X124534523Y-61035714D01*
X124344047Y-61083333D01*
X124201190Y-61083333D01*
X124010714Y-61035714D01*
X123915476Y-60988095D01*
X123820238Y-60892857D01*
X123772619Y-60750000D01*
X123772619Y-60654761D01*
X123820238Y-60511904D01*
X123867857Y-60464285D01*
X124201190Y-60464285D01*
X124201190Y-60654761D01*
X123772619Y-60035714D02*
X124772619Y-60035714D01*
X123772619Y-59464285D01*
X124772619Y-59464285D01*
X123772619Y-58988095D02*
X124772619Y-58988095D01*
X124772619Y-58750000D01*
X124725000Y-58607142D01*
X124629761Y-58511904D01*
X124534523Y-58464285D01*
X124344047Y-58416666D01*
X124201190Y-58416666D01*
X124010714Y-58464285D01*
X123915476Y-58511904D01*
X123820238Y-58607142D01*
X123772619Y-58750000D01*
X123772619Y-58988095D01*
D11*
%TO.C,R17*%
X96422936Y-83485000D02*
X96877064Y-83485000D01*
X96422936Y-82015000D02*
X96877064Y-82015000D01*
%TO.C,C9*%
X111485000Y-73011252D02*
X111485000Y-72488748D01*
X110015000Y-73011252D02*
X110015000Y-72488748D01*
%TO.C,C12*%
X115485000Y-90988748D02*
X115485000Y-91511252D01*
X114015000Y-90988748D02*
X114015000Y-91511252D01*
%TO.C,C13*%
X114115000Y-67488748D02*
X114115000Y-68011252D01*
X115585000Y-67488748D02*
X115585000Y-68011252D01*
%TO.C,C15*%
X115485000Y-86511252D02*
X115485000Y-85988748D01*
X114015000Y-86511252D02*
X114015000Y-85988748D01*
%TO.C,C16*%
X114265000Y-63011252D02*
X114265000Y-62488748D01*
X115735000Y-63011252D02*
X115735000Y-62488748D01*
%TO.C,C19*%
X109485000Y-81511252D02*
X109485000Y-80988748D01*
X108015000Y-81511252D02*
X108015000Y-80988748D01*
%TO.C,C20*%
X107515000Y-59261252D02*
X107515000Y-58738748D01*
X108985000Y-59261252D02*
X108985000Y-58738748D01*
%TO.C,D2*%
X107000000Y-78000000D02*
X105000000Y-78000000D01*
X105000000Y-78000000D02*
X105000000Y-74100000D01*
X107000000Y-78000000D02*
X107000000Y-74100000D01*
%TO.C,Q7*%
X111860000Y-89920000D02*
X110400000Y-89920000D01*
X111860000Y-93080000D02*
X109700000Y-93080000D01*
X111860000Y-93080000D02*
X111860000Y-92150000D01*
X111860000Y-89920000D02*
X111860000Y-90850000D01*
%TO.C,Q8*%
X111860000Y-66170000D02*
X110400000Y-66170000D01*
X111860000Y-69330000D02*
X109700000Y-69330000D01*
X111860000Y-69330000D02*
X111860000Y-68400000D01*
X111860000Y-66170000D02*
X111860000Y-67100000D01*
%TO.C,Q9*%
X111860000Y-84920000D02*
X110400000Y-84920000D01*
X111860000Y-88080000D02*
X109700000Y-88080000D01*
X111860000Y-88080000D02*
X111860000Y-87150000D01*
X111860000Y-84920000D02*
X111860000Y-85850000D01*
%TO.C,Q10*%
X105020000Y-84990000D02*
X105950000Y-84990000D01*
X108180000Y-84990000D02*
X107250000Y-84990000D01*
X108180000Y-84990000D02*
X108180000Y-87150000D01*
X105020000Y-84990000D02*
X105020000Y-86450000D01*
%TO.C,Q11*%
X111860000Y-61170000D02*
X110400000Y-61170000D01*
X111860000Y-64330000D02*
X109700000Y-64330000D01*
X111860000Y-64330000D02*
X111860000Y-63400000D01*
X111860000Y-61170000D02*
X111860000Y-62100000D01*
%TO.C,Q12*%
X105020000Y-62240000D02*
X105020000Y-63700000D01*
X108180000Y-62240000D02*
X108180000Y-64400000D01*
X108180000Y-62240000D02*
X107250000Y-62240000D01*
X105020000Y-62240000D02*
X105950000Y-62240000D01*
%TO.C,R22*%
X114227064Y-76265000D02*
X113772936Y-76265000D01*
X114227064Y-77735000D02*
X113772936Y-77735000D01*
%TO.C,R23*%
X109977064Y-77735000D02*
X109522936Y-77735000D01*
X109977064Y-76265000D02*
X109522936Y-76265000D01*
%TO.C,R25*%
X106372936Y-70265000D02*
X106827064Y-70265000D01*
X106372936Y-71735000D02*
X106827064Y-71735000D01*
%TO.C,R26*%
X106827064Y-89265000D02*
X106372936Y-89265000D01*
X106827064Y-90735000D02*
X106372936Y-90735000D01*
%TO.C,R27*%
X106827064Y-66765000D02*
X106372936Y-66765000D01*
X106827064Y-68235000D02*
X106372936Y-68235000D01*
%TO.C,R28*%
X106485000Y-81022936D02*
X106485000Y-81477064D01*
X105015000Y-81022936D02*
X105015000Y-81477064D01*
%TO.C,R29*%
X105485000Y-59727064D02*
X105485000Y-59272936D01*
X104015000Y-59727064D02*
X104015000Y-59272936D01*
%TO.C,R31*%
X115235000Y-72977064D02*
X115235000Y-72522936D01*
X113765000Y-72977064D02*
X113765000Y-72522936D01*
%TO.C,R32*%
X112272936Y-82515000D02*
X112727064Y-82515000D01*
X112272936Y-83985000D02*
X112727064Y-83985000D01*
%TO.C,R33*%
X111265000Y-59227064D02*
X111265000Y-58772936D01*
X112735000Y-59227064D02*
X112735000Y-58772936D01*
%TO.C,R34*%
X112727064Y-79765000D02*
X112272936Y-79765000D01*
X112727064Y-81235000D02*
X112272936Y-81235000D01*
%TO.C,R35*%
X116485000Y-59227064D02*
X116485000Y-58772936D01*
X115015000Y-59227064D02*
X115015000Y-58772936D01*
%TO.C,C1*%
X123235000Y-110511252D02*
X123235000Y-109988748D01*
X121765000Y-110511252D02*
X121765000Y-109988748D01*
%TO.C,C2*%
X126738748Y-91235000D02*
X127261252Y-91235000D01*
X126738748Y-89765000D02*
X127261252Y-89765000D01*
%TO.C,C3*%
X98238748Y-86485000D02*
X98761252Y-86485000D01*
X98238748Y-85015000D02*
X98761252Y-85015000D01*
%TO.C,C4*%
X131238748Y-91235000D02*
X131761252Y-91235000D01*
X131238748Y-89765000D02*
X131761252Y-89765000D01*
%TO.C,C5*%
X97011252Y-73235000D02*
X96488748Y-73235000D01*
X97011252Y-71765000D02*
X96488748Y-71765000D01*
%TO.C,C6*%
X122238748Y-93015000D02*
X122761252Y-93015000D01*
X122238748Y-94485000D02*
X122761252Y-94485000D01*
%TO.C,C7*%
X99885000Y-96761252D02*
X99885000Y-96238748D01*
X98415000Y-96761252D02*
X98415000Y-96238748D01*
%TO.C,C8*%
X110988748Y-95015000D02*
X111511252Y-95015000D01*
X110988748Y-96485000D02*
X111511252Y-96485000D01*
%TO.C,C10*%
X95615000Y-96761252D02*
X95615000Y-96238748D01*
X97085000Y-96761252D02*
X97085000Y-96238748D01*
%TO.C,C11*%
X98761252Y-92265000D02*
X98238748Y-92265000D01*
X98761252Y-93735000D02*
X98238748Y-93735000D01*
%TO.C,C14*%
X97085000Y-89288748D02*
X97085000Y-89811252D01*
X95615000Y-89288748D02*
X95615000Y-89811252D01*
%TO.C,C17*%
X98235000Y-68738748D02*
X98235000Y-69261252D01*
X96765000Y-68738748D02*
X96765000Y-69261252D01*
%TO.C,C18*%
X99885000Y-89288748D02*
X99885000Y-89811252D01*
X98415000Y-89288748D02*
X98415000Y-89811252D01*
%TO.C,C21*%
X135511252Y-67015000D02*
X134988748Y-67015000D01*
X135511252Y-68485000D02*
X134988748Y-68485000D01*
%TO.C,D1*%
X100250000Y-103500000D02*
X98250000Y-103500000D01*
X98250000Y-103500000D02*
X98250000Y-99600000D01*
X100250000Y-103500000D02*
X100250000Y-99600000D01*
%TO.C,D3*%
X95000000Y-99000000D02*
X95000000Y-102900000D01*
X97000000Y-99000000D02*
X97000000Y-102900000D01*
X95000000Y-99000000D02*
X97000000Y-99000000D01*
%TO.C,Q1*%
X117420000Y-106740000D02*
X118350000Y-106740000D01*
X120580000Y-106740000D02*
X119650000Y-106740000D01*
X120580000Y-106740000D02*
X120580000Y-108900000D01*
X117420000Y-106740000D02*
X117420000Y-108200000D01*
%TO.C,Q2*%
X125420000Y-85490000D02*
X126350000Y-85490000D01*
X128580000Y-85490000D02*
X127650000Y-85490000D01*
X128580000Y-85490000D02*
X128580000Y-87650000D01*
X125420000Y-85490000D02*
X125420000Y-86950000D01*
%TO.C,Q3*%
X129920000Y-85490000D02*
X130850000Y-85490000D01*
X133080000Y-85490000D02*
X132150000Y-85490000D01*
X133080000Y-85490000D02*
X133080000Y-87650000D01*
X129920000Y-85490000D02*
X129920000Y-86950000D01*
%TO.C,Q4*%
X98230000Y-79760000D02*
X97300000Y-79760000D01*
X95070000Y-79760000D02*
X96000000Y-79760000D01*
X95070000Y-79760000D02*
X95070000Y-77600000D01*
X98230000Y-79760000D02*
X98230000Y-78300000D01*
%TO.C,Q5*%
X108740000Y-111830000D02*
X110200000Y-111830000D01*
X108740000Y-108670000D02*
X110900000Y-108670000D01*
X108740000Y-108670000D02*
X108740000Y-109600000D01*
X108740000Y-111830000D02*
X108740000Y-110900000D01*
%TO.C,Q6*%
X120920000Y-85490000D02*
X121850000Y-85490000D01*
X124080000Y-85490000D02*
X123150000Y-85490000D01*
X124080000Y-85490000D02*
X124080000Y-87650000D01*
X120920000Y-85490000D02*
X120920000Y-86950000D01*
%TO.C,R1*%
X126772936Y-96265000D02*
X127227064Y-96265000D01*
X126772936Y-97735000D02*
X127227064Y-97735000D01*
%TO.C,R2*%
X127227064Y-93015000D02*
X126772936Y-93015000D01*
X127227064Y-94485000D02*
X126772936Y-94485000D01*
%TO.C,R3*%
X131515000Y-97977064D02*
X131515000Y-97522936D01*
X132985000Y-97977064D02*
X132985000Y-97522936D01*
%TO.C,R4*%
X131727064Y-93015000D02*
X131272936Y-93015000D01*
X131727064Y-94485000D02*
X131272936Y-94485000D01*
%TO.C,R5*%
X117727064Y-111735000D02*
X117272936Y-111735000D01*
X117727064Y-110265000D02*
X117272936Y-110265000D01*
%TO.C,R6*%
X97977064Y-65235000D02*
X97522936Y-65235000D01*
X97977064Y-63765000D02*
X97522936Y-63765000D01*
%TO.C,R7*%
X127477064Y-81515000D02*
X127022936Y-81515000D01*
X127477064Y-82985000D02*
X127022936Y-82985000D01*
%TO.C,R8*%
X94735000Y-68772936D02*
X94735000Y-69227064D01*
X93265000Y-68772936D02*
X93265000Y-69227064D01*
%TO.C,R9*%
X96422936Y-74515000D02*
X96877064Y-74515000D01*
X96422936Y-75985000D02*
X96877064Y-75985000D01*
%TO.C,R10*%
X121765000Y-106477064D02*
X121765000Y-106022936D01*
X123235000Y-106477064D02*
X123235000Y-106022936D01*
%TO.C,R11*%
X111265000Y-106022936D02*
X111265000Y-106477064D01*
X112735000Y-106022936D02*
X112735000Y-106477064D01*
%TO.C,R12*%
X131727064Y-82985000D02*
X131272936Y-82985000D01*
X131727064Y-81515000D02*
X131272936Y-81515000D01*
%TO.C,R13*%
X122272936Y-97735000D02*
X122727064Y-97735000D01*
X122272936Y-96265000D02*
X122727064Y-96265000D01*
%TO.C,R14*%
X122727064Y-91235000D02*
X122272936Y-91235000D01*
X122727064Y-89765000D02*
X122272936Y-89765000D01*
%TO.C,R15*%
X114765000Y-106477064D02*
X114765000Y-106022936D01*
X116235000Y-106477064D02*
X116235000Y-106022936D01*
%TO.C,R16*%
X113015000Y-110022936D02*
X113015000Y-110477064D01*
X114485000Y-110022936D02*
X114485000Y-110477064D01*
%TO.C,R18*%
X107765000Y-106022936D02*
X107765000Y-106477064D01*
X109235000Y-106022936D02*
X109235000Y-106477064D01*
%TO.C,R19*%
X123227064Y-81515000D02*
X122772936Y-81515000D01*
X123227064Y-82985000D02*
X122772936Y-82985000D01*
%TO.C,R20*%
X111477064Y-97515000D02*
X111022936Y-97515000D01*
X111477064Y-98985000D02*
X111022936Y-98985000D01*
%TO.C,R21*%
X107227064Y-97735000D02*
X106772936Y-97735000D01*
X107227064Y-96265000D02*
X106772936Y-96265000D01*
%TO.C,R24*%
X106772936Y-92765000D02*
X107227064Y-92765000D01*
X106772936Y-94235000D02*
X107227064Y-94235000D01*
%TO.C,R30*%
X115585000Y-96477064D02*
X115585000Y-96022936D01*
X114115000Y-96477064D02*
X114115000Y-96022936D01*
%TO.C,R36*%
X127265000Y-66772936D02*
X127265000Y-67227064D01*
X128735000Y-66772936D02*
X128735000Y-67227064D01*
%TO.C,R37*%
X130227064Y-76485000D02*
X129772936Y-76485000D01*
X130227064Y-75015000D02*
X129772936Y-75015000D01*
%TO.C,R38*%
X131015000Y-67227064D02*
X131015000Y-66772936D01*
X132485000Y-67227064D02*
X132485000Y-66772936D01*
%TO.C,R39*%
X133772936Y-75015000D02*
X134227064Y-75015000D01*
X133772936Y-76485000D02*
X134227064Y-76485000D01*
%TO.C,R40*%
X137985000Y-71477064D02*
X137985000Y-71022936D01*
X136515000Y-71477064D02*
X136515000Y-71022936D01*
%TO.C,R17*%
D10*
X100392857Y-83202380D02*
X100726190Y-82726190D01*
X100964285Y-83202380D02*
X100964285Y-82202380D01*
X100583333Y-82202380D01*
X100488095Y-82250000D01*
X100440476Y-82297619D01*
X100392857Y-82392857D01*
X100392857Y-82535714D01*
X100440476Y-82630952D01*
X100488095Y-82678571D01*
X100583333Y-82726190D01*
X100964285Y-82726190D01*
X99440476Y-83202380D02*
X100011904Y-83202380D01*
X99726190Y-83202380D02*
X99726190Y-82202380D01*
X99821428Y-82345238D01*
X99916666Y-82440476D01*
X100011904Y-82488095D01*
X99107142Y-82202380D02*
X98440476Y-82202380D01*
X98869047Y-83202380D01*
%TO.C,C9*%
X110916666Y-75607142D02*
X110964285Y-75654761D01*
X111107142Y-75702380D01*
X111202380Y-75702380D01*
X111345238Y-75654761D01*
X111440476Y-75559523D01*
X111488095Y-75464285D01*
X111535714Y-75273809D01*
X111535714Y-75130952D01*
X111488095Y-74940476D01*
X111440476Y-74845238D01*
X111345238Y-74750000D01*
X111202380Y-74702380D01*
X111107142Y-74702380D01*
X110964285Y-74750000D01*
X110916666Y-74797619D01*
X110440476Y-75702380D02*
X110250000Y-75702380D01*
X110154761Y-75654761D01*
X110107142Y-75607142D01*
X110011904Y-75464285D01*
X109964285Y-75273809D01*
X109964285Y-74892857D01*
X110011904Y-74797619D01*
X110059523Y-74750000D01*
X110154761Y-74702380D01*
X110345238Y-74702380D01*
X110440476Y-74750000D01*
X110488095Y-74797619D01*
X110535714Y-74892857D01*
X110535714Y-75130952D01*
X110488095Y-75226190D01*
X110440476Y-75273809D01*
X110345238Y-75321428D01*
X110154761Y-75321428D01*
X110059523Y-75273809D01*
X110011904Y-75226190D01*
X109964285Y-75130952D01*
%TO.C,C12*%
X115542857Y-94057142D02*
X115590476Y-94104761D01*
X115733333Y-94152380D01*
X115828571Y-94152380D01*
X115971428Y-94104761D01*
X116066666Y-94009523D01*
X116114285Y-93914285D01*
X116161904Y-93723809D01*
X116161904Y-93580952D01*
X116114285Y-93390476D01*
X116066666Y-93295238D01*
X115971428Y-93200000D01*
X115828571Y-93152380D01*
X115733333Y-93152380D01*
X115590476Y-93200000D01*
X115542857Y-93247619D01*
X114590476Y-94152380D02*
X115161904Y-94152380D01*
X114876190Y-94152380D02*
X114876190Y-93152380D01*
X114971428Y-93295238D01*
X115066666Y-93390476D01*
X115161904Y-93438095D01*
X114209523Y-93247619D02*
X114161904Y-93200000D01*
X114066666Y-93152380D01*
X113828571Y-93152380D01*
X113733333Y-93200000D01*
X113685714Y-93247619D01*
X113638095Y-93342857D01*
X113638095Y-93438095D01*
X113685714Y-93580952D01*
X114257142Y-94152380D01*
X113638095Y-94152380D01*
%TO.C,C13*%
X115642857Y-70607142D02*
X115690476Y-70654761D01*
X115833333Y-70702380D01*
X115928571Y-70702380D01*
X116071428Y-70654761D01*
X116166666Y-70559523D01*
X116214285Y-70464285D01*
X116261904Y-70273809D01*
X116261904Y-70130952D01*
X116214285Y-69940476D01*
X116166666Y-69845238D01*
X116071428Y-69750000D01*
X115928571Y-69702380D01*
X115833333Y-69702380D01*
X115690476Y-69750000D01*
X115642857Y-69797619D01*
X114690476Y-70702380D02*
X115261904Y-70702380D01*
X114976190Y-70702380D02*
X114976190Y-69702380D01*
X115071428Y-69845238D01*
X115166666Y-69940476D01*
X115261904Y-69988095D01*
X114357142Y-69702380D02*
X113738095Y-69702380D01*
X114071428Y-70083333D01*
X113928571Y-70083333D01*
X113833333Y-70130952D01*
X113785714Y-70178571D01*
X113738095Y-70273809D01*
X113738095Y-70511904D01*
X113785714Y-70607142D01*
X113833333Y-70654761D01*
X113928571Y-70702380D01*
X114214285Y-70702380D01*
X114309523Y-70654761D01*
X114357142Y-70607142D01*
%TO.C,C15*%
X115392857Y-89107142D02*
X115440476Y-89154761D01*
X115583333Y-89202380D01*
X115678571Y-89202380D01*
X115821428Y-89154761D01*
X115916666Y-89059523D01*
X115964285Y-88964285D01*
X116011904Y-88773809D01*
X116011904Y-88630952D01*
X115964285Y-88440476D01*
X115916666Y-88345238D01*
X115821428Y-88250000D01*
X115678571Y-88202380D01*
X115583333Y-88202380D01*
X115440476Y-88250000D01*
X115392857Y-88297619D01*
X114440476Y-89202380D02*
X115011904Y-89202380D01*
X114726190Y-89202380D02*
X114726190Y-88202380D01*
X114821428Y-88345238D01*
X114916666Y-88440476D01*
X115011904Y-88488095D01*
X113535714Y-88202380D02*
X114011904Y-88202380D01*
X114059523Y-88678571D01*
X114011904Y-88630952D01*
X113916666Y-88583333D01*
X113678571Y-88583333D01*
X113583333Y-88630952D01*
X113535714Y-88678571D01*
X113488095Y-88773809D01*
X113488095Y-89011904D01*
X113535714Y-89107142D01*
X113583333Y-89154761D01*
X113678571Y-89202380D01*
X113916666Y-89202380D01*
X114011904Y-89154761D01*
X114059523Y-89107142D01*
%TO.C,C16*%
X115642857Y-65607142D02*
X115690476Y-65654761D01*
X115833333Y-65702380D01*
X115928571Y-65702380D01*
X116071428Y-65654761D01*
X116166666Y-65559523D01*
X116214285Y-65464285D01*
X116261904Y-65273809D01*
X116261904Y-65130952D01*
X116214285Y-64940476D01*
X116166666Y-64845238D01*
X116071428Y-64750000D01*
X115928571Y-64702380D01*
X115833333Y-64702380D01*
X115690476Y-64750000D01*
X115642857Y-64797619D01*
X114690476Y-65702380D02*
X115261904Y-65702380D01*
X114976190Y-65702380D02*
X114976190Y-64702380D01*
X115071428Y-64845238D01*
X115166666Y-64940476D01*
X115261904Y-64988095D01*
X113833333Y-64702380D02*
X114023809Y-64702380D01*
X114119047Y-64750000D01*
X114166666Y-64797619D01*
X114261904Y-64940476D01*
X114309523Y-65130952D01*
X114309523Y-65511904D01*
X114261904Y-65607142D01*
X114214285Y-65654761D01*
X114119047Y-65702380D01*
X113928571Y-65702380D01*
X113833333Y-65654761D01*
X113785714Y-65607142D01*
X113738095Y-65511904D01*
X113738095Y-65273809D01*
X113785714Y-65178571D01*
X113833333Y-65130952D01*
X113928571Y-65083333D01*
X114119047Y-65083333D01*
X114214285Y-65130952D01*
X114261904Y-65178571D01*
X114309523Y-65273809D01*
%TO.C,C19*%
X109642857Y-84107142D02*
X109690476Y-84154761D01*
X109833333Y-84202380D01*
X109928571Y-84202380D01*
X110071428Y-84154761D01*
X110166666Y-84059523D01*
X110214285Y-83964285D01*
X110261904Y-83773809D01*
X110261904Y-83630952D01*
X110214285Y-83440476D01*
X110166666Y-83345238D01*
X110071428Y-83250000D01*
X109928571Y-83202380D01*
X109833333Y-83202380D01*
X109690476Y-83250000D01*
X109642857Y-83297619D01*
X108690476Y-84202380D02*
X109261904Y-84202380D01*
X108976190Y-84202380D02*
X108976190Y-83202380D01*
X109071428Y-83345238D01*
X109166666Y-83440476D01*
X109261904Y-83488095D01*
X108214285Y-84202380D02*
X108023809Y-84202380D01*
X107928571Y-84154761D01*
X107880952Y-84107142D01*
X107785714Y-83964285D01*
X107738095Y-83773809D01*
X107738095Y-83392857D01*
X107785714Y-83297619D01*
X107833333Y-83250000D01*
X107928571Y-83202380D01*
X108119047Y-83202380D01*
X108214285Y-83250000D01*
X108261904Y-83297619D01*
X108309523Y-83392857D01*
X108309523Y-83630952D01*
X108261904Y-83726190D01*
X108214285Y-83773809D01*
X108119047Y-83821428D01*
X107928571Y-83821428D01*
X107833333Y-83773809D01*
X107785714Y-83726190D01*
X107738095Y-83630952D01*
%TO.C,C20*%
X106857142Y-58357142D02*
X106904761Y-58309523D01*
X106952380Y-58166666D01*
X106952380Y-58071428D01*
X106904761Y-57928571D01*
X106809523Y-57833333D01*
X106714285Y-57785714D01*
X106523809Y-57738095D01*
X106380952Y-57738095D01*
X106190476Y-57785714D01*
X106095238Y-57833333D01*
X106000000Y-57928571D01*
X105952380Y-58071428D01*
X105952380Y-58166666D01*
X106000000Y-58309523D01*
X106047619Y-58357142D01*
X106047619Y-58738095D02*
X106000000Y-58785714D01*
X105952380Y-58880952D01*
X105952380Y-59119047D01*
X106000000Y-59214285D01*
X106047619Y-59261904D01*
X106142857Y-59309523D01*
X106238095Y-59309523D01*
X106380952Y-59261904D01*
X106952380Y-58690476D01*
X106952380Y-59309523D01*
X105952380Y-59928571D02*
X105952380Y-60023809D01*
X106000000Y-60119047D01*
X106047619Y-60166666D01*
X106142857Y-60214285D01*
X106333333Y-60261904D01*
X106571428Y-60261904D01*
X106761904Y-60214285D01*
X106857142Y-60166666D01*
X106904761Y-60119047D01*
X106952380Y-60023809D01*
X106952380Y-59928571D01*
X106904761Y-59833333D01*
X106857142Y-59785714D01*
X106761904Y-59738095D01*
X106571428Y-59690476D01*
X106333333Y-59690476D01*
X106142857Y-59738095D01*
X106047619Y-59785714D01*
X106000000Y-59833333D01*
X105952380Y-59928571D01*
%TO.C,D2*%
X108988095Y-75452380D02*
X108988095Y-74452380D01*
X108750000Y-74452380D01*
X108607142Y-74500000D01*
X108511904Y-74595238D01*
X108464285Y-74690476D01*
X108416666Y-74880952D01*
X108416666Y-75023809D01*
X108464285Y-75214285D01*
X108511904Y-75309523D01*
X108607142Y-75404761D01*
X108750000Y-75452380D01*
X108988095Y-75452380D01*
X108035714Y-74547619D02*
X107988095Y-74500000D01*
X107892857Y-74452380D01*
X107654761Y-74452380D01*
X107559523Y-74500000D01*
X107511904Y-74547619D01*
X107464285Y-74642857D01*
X107464285Y-74738095D01*
X107511904Y-74880952D01*
X108083333Y-75452380D01*
X107464285Y-75452380D01*
%TO.C,Q7*%
X109297619Y-91404761D02*
X109250000Y-91309523D01*
X109154761Y-91214285D01*
X109011904Y-91071428D01*
X108964285Y-90976190D01*
X108964285Y-90880952D01*
X109202380Y-90928571D02*
X109154761Y-90833333D01*
X109059523Y-90738095D01*
X108869047Y-90690476D01*
X108535714Y-90690476D01*
X108345238Y-90738095D01*
X108250000Y-90833333D01*
X108202380Y-90928571D01*
X108202380Y-91119047D01*
X108250000Y-91214285D01*
X108345238Y-91309523D01*
X108535714Y-91357142D01*
X108869047Y-91357142D01*
X109059523Y-91309523D01*
X109154761Y-91214285D01*
X109202380Y-91119047D01*
X109202380Y-90928571D01*
X108202380Y-91690476D02*
X108202380Y-92357142D01*
X109202380Y-91928571D01*
%TO.C,Q8*%
X110845238Y-70797619D02*
X110940476Y-70750000D01*
X111035714Y-70654761D01*
X111178571Y-70511904D01*
X111273809Y-70464285D01*
X111369047Y-70464285D01*
X111321428Y-70702380D02*
X111416666Y-70654761D01*
X111511904Y-70559523D01*
X111559523Y-70369047D01*
X111559523Y-70035714D01*
X111511904Y-69845238D01*
X111416666Y-69750000D01*
X111321428Y-69702380D01*
X111130952Y-69702380D01*
X111035714Y-69750000D01*
X110940476Y-69845238D01*
X110892857Y-70035714D01*
X110892857Y-70369047D01*
X110940476Y-70559523D01*
X111035714Y-70654761D01*
X111130952Y-70702380D01*
X111321428Y-70702380D01*
X110321428Y-70130952D02*
X110416666Y-70083333D01*
X110464285Y-70035714D01*
X110511904Y-69940476D01*
X110511904Y-69892857D01*
X110464285Y-69797619D01*
X110416666Y-69750000D01*
X110321428Y-69702380D01*
X110130952Y-69702380D01*
X110035714Y-69750000D01*
X109988095Y-69797619D01*
X109940476Y-69892857D01*
X109940476Y-69940476D01*
X109988095Y-70035714D01*
X110035714Y-70083333D01*
X110130952Y-70130952D01*
X110321428Y-70130952D01*
X110416666Y-70178571D01*
X110464285Y-70226190D01*
X110511904Y-70321428D01*
X110511904Y-70511904D01*
X110464285Y-70607142D01*
X110416666Y-70654761D01*
X110321428Y-70702380D01*
X110130952Y-70702380D01*
X110035714Y-70654761D01*
X109988095Y-70607142D01*
X109940476Y-70511904D01*
X109940476Y-70321428D01*
X109988095Y-70226190D01*
X110035714Y-70178571D01*
X110130952Y-70130952D01*
%TO.C,Q9*%
X111095238Y-89497619D02*
X111190476Y-89450000D01*
X111285714Y-89354761D01*
X111428571Y-89211904D01*
X111523809Y-89164285D01*
X111619047Y-89164285D01*
X111571428Y-89402380D02*
X111666666Y-89354761D01*
X111761904Y-89259523D01*
X111809523Y-89069047D01*
X111809523Y-88735714D01*
X111761904Y-88545238D01*
X111666666Y-88450000D01*
X111571428Y-88402380D01*
X111380952Y-88402380D01*
X111285714Y-88450000D01*
X111190476Y-88545238D01*
X111142857Y-88735714D01*
X111142857Y-89069047D01*
X111190476Y-89259523D01*
X111285714Y-89354761D01*
X111380952Y-89402380D01*
X111571428Y-89402380D01*
X110666666Y-89402380D02*
X110476190Y-89402380D01*
X110380952Y-89354761D01*
X110333333Y-89307142D01*
X110238095Y-89164285D01*
X110190476Y-88973809D01*
X110190476Y-88592857D01*
X110238095Y-88497619D01*
X110285714Y-88450000D01*
X110380952Y-88402380D01*
X110571428Y-88402380D01*
X110666666Y-88450000D01*
X110714285Y-88497619D01*
X110761904Y-88592857D01*
X110761904Y-88830952D01*
X110714285Y-88926190D01*
X110666666Y-88973809D01*
X110571428Y-89021428D01*
X110380952Y-89021428D01*
X110285714Y-88973809D01*
X110238095Y-88926190D01*
X110190476Y-88830952D01*
%TO.C,Q10*%
X107071428Y-88747619D02*
X107166666Y-88700000D01*
X107261904Y-88604761D01*
X107404761Y-88461904D01*
X107500000Y-88414285D01*
X107595238Y-88414285D01*
X107547619Y-88652380D02*
X107642857Y-88604761D01*
X107738095Y-88509523D01*
X107785714Y-88319047D01*
X107785714Y-87985714D01*
X107738095Y-87795238D01*
X107642857Y-87700000D01*
X107547619Y-87652380D01*
X107357142Y-87652380D01*
X107261904Y-87700000D01*
X107166666Y-87795238D01*
X107119047Y-87985714D01*
X107119047Y-88319047D01*
X107166666Y-88509523D01*
X107261904Y-88604761D01*
X107357142Y-88652380D01*
X107547619Y-88652380D01*
X106166666Y-88652380D02*
X106738095Y-88652380D01*
X106452380Y-88652380D02*
X106452380Y-87652380D01*
X106547619Y-87795238D01*
X106642857Y-87890476D01*
X106738095Y-87938095D01*
X105547619Y-87652380D02*
X105452380Y-87652380D01*
X105357142Y-87700000D01*
X105309523Y-87747619D01*
X105261904Y-87842857D01*
X105214285Y-88033333D01*
X105214285Y-88271428D01*
X105261904Y-88461904D01*
X105309523Y-88557142D01*
X105357142Y-88604761D01*
X105452380Y-88652380D01*
X105547619Y-88652380D01*
X105642857Y-88604761D01*
X105690476Y-88557142D01*
X105738095Y-88461904D01*
X105785714Y-88271428D01*
X105785714Y-88033333D01*
X105738095Y-87842857D01*
X105690476Y-87747619D01*
X105642857Y-87700000D01*
X105547619Y-87652380D01*
%TO.C,Q11*%
X111321428Y-65797619D02*
X111416666Y-65750000D01*
X111511904Y-65654761D01*
X111654761Y-65511904D01*
X111750000Y-65464285D01*
X111845238Y-65464285D01*
X111797619Y-65702380D02*
X111892857Y-65654761D01*
X111988095Y-65559523D01*
X112035714Y-65369047D01*
X112035714Y-65035714D01*
X111988095Y-64845238D01*
X111892857Y-64750000D01*
X111797619Y-64702380D01*
X111607142Y-64702380D01*
X111511904Y-64750000D01*
X111416666Y-64845238D01*
X111369047Y-65035714D01*
X111369047Y-65369047D01*
X111416666Y-65559523D01*
X111511904Y-65654761D01*
X111607142Y-65702380D01*
X111797619Y-65702380D01*
X110416666Y-65702380D02*
X110988095Y-65702380D01*
X110702380Y-65702380D02*
X110702380Y-64702380D01*
X110797619Y-64845238D01*
X110892857Y-64940476D01*
X110988095Y-64988095D01*
X109464285Y-65702380D02*
X110035714Y-65702380D01*
X109750000Y-65702380D02*
X109750000Y-64702380D01*
X109845238Y-64845238D01*
X109940476Y-64940476D01*
X110035714Y-64988095D01*
%TO.C,Q12*%
X108071428Y-66047619D02*
X108166666Y-66000000D01*
X108261904Y-65904761D01*
X108404761Y-65761904D01*
X108500000Y-65714285D01*
X108595238Y-65714285D01*
X108547619Y-65952380D02*
X108642857Y-65904761D01*
X108738095Y-65809523D01*
X108785714Y-65619047D01*
X108785714Y-65285714D01*
X108738095Y-65095238D01*
X108642857Y-65000000D01*
X108547619Y-64952380D01*
X108357142Y-64952380D01*
X108261904Y-65000000D01*
X108166666Y-65095238D01*
X108119047Y-65285714D01*
X108119047Y-65619047D01*
X108166666Y-65809523D01*
X108261904Y-65904761D01*
X108357142Y-65952380D01*
X108547619Y-65952380D01*
X107166666Y-65952380D02*
X107738095Y-65952380D01*
X107452380Y-65952380D02*
X107452380Y-64952380D01*
X107547619Y-65095238D01*
X107642857Y-65190476D01*
X107738095Y-65238095D01*
X106785714Y-65047619D02*
X106738095Y-65000000D01*
X106642857Y-64952380D01*
X106404761Y-64952380D01*
X106309523Y-65000000D01*
X106261904Y-65047619D01*
X106214285Y-65142857D01*
X106214285Y-65238095D01*
X106261904Y-65380952D01*
X106833333Y-65952380D01*
X106214285Y-65952380D01*
%TO.C,R22*%
X114142857Y-79202380D02*
X114476190Y-78726190D01*
X114714285Y-79202380D02*
X114714285Y-78202380D01*
X114333333Y-78202380D01*
X114238095Y-78250000D01*
X114190476Y-78297619D01*
X114142857Y-78392857D01*
X114142857Y-78535714D01*
X114190476Y-78630952D01*
X114238095Y-78678571D01*
X114333333Y-78726190D01*
X114714285Y-78726190D01*
X113761904Y-78297619D02*
X113714285Y-78250000D01*
X113619047Y-78202380D01*
X113380952Y-78202380D01*
X113285714Y-78250000D01*
X113238095Y-78297619D01*
X113190476Y-78392857D01*
X113190476Y-78488095D01*
X113238095Y-78630952D01*
X113809523Y-79202380D01*
X113190476Y-79202380D01*
X112809523Y-78297619D02*
X112761904Y-78250000D01*
X112666666Y-78202380D01*
X112428571Y-78202380D01*
X112333333Y-78250000D01*
X112285714Y-78297619D01*
X112238095Y-78392857D01*
X112238095Y-78488095D01*
X112285714Y-78630952D01*
X112857142Y-79202380D01*
X112238095Y-79202380D01*
%TO.C,R23*%
X110392857Y-79202380D02*
X110726190Y-78726190D01*
X110964285Y-79202380D02*
X110964285Y-78202380D01*
X110583333Y-78202380D01*
X110488095Y-78250000D01*
X110440476Y-78297619D01*
X110392857Y-78392857D01*
X110392857Y-78535714D01*
X110440476Y-78630952D01*
X110488095Y-78678571D01*
X110583333Y-78726190D01*
X110964285Y-78726190D01*
X110011904Y-78297619D02*
X109964285Y-78250000D01*
X109869047Y-78202380D01*
X109630952Y-78202380D01*
X109535714Y-78250000D01*
X109488095Y-78297619D01*
X109440476Y-78392857D01*
X109440476Y-78488095D01*
X109488095Y-78630952D01*
X110059523Y-79202380D01*
X109440476Y-79202380D01*
X109107142Y-78202380D02*
X108488095Y-78202380D01*
X108821428Y-78583333D01*
X108678571Y-78583333D01*
X108583333Y-78630952D01*
X108535714Y-78678571D01*
X108488095Y-78773809D01*
X108488095Y-79011904D01*
X108535714Y-79107142D01*
X108583333Y-79154761D01*
X108678571Y-79202380D01*
X108964285Y-79202380D01*
X109059523Y-79154761D01*
X109107142Y-79107142D01*
%TO.C,R25*%
X107142857Y-73202380D02*
X107476190Y-72726190D01*
X107714285Y-73202380D02*
X107714285Y-72202380D01*
X107333333Y-72202380D01*
X107238095Y-72250000D01*
X107190476Y-72297619D01*
X107142857Y-72392857D01*
X107142857Y-72535714D01*
X107190476Y-72630952D01*
X107238095Y-72678571D01*
X107333333Y-72726190D01*
X107714285Y-72726190D01*
X106761904Y-72297619D02*
X106714285Y-72250000D01*
X106619047Y-72202380D01*
X106380952Y-72202380D01*
X106285714Y-72250000D01*
X106238095Y-72297619D01*
X106190476Y-72392857D01*
X106190476Y-72488095D01*
X106238095Y-72630952D01*
X106809523Y-73202380D01*
X106190476Y-73202380D01*
X105285714Y-72202380D02*
X105761904Y-72202380D01*
X105809523Y-72678571D01*
X105761904Y-72630952D01*
X105666666Y-72583333D01*
X105428571Y-72583333D01*
X105333333Y-72630952D01*
X105285714Y-72678571D01*
X105238095Y-72773809D01*
X105238095Y-73011904D01*
X105285714Y-73107142D01*
X105333333Y-73154761D01*
X105428571Y-73202380D01*
X105666666Y-73202380D01*
X105761904Y-73154761D01*
X105809523Y-73107142D01*
%TO.C,R26*%
X107142857Y-92152380D02*
X107476190Y-91676190D01*
X107714285Y-92152380D02*
X107714285Y-91152380D01*
X107333333Y-91152380D01*
X107238095Y-91200000D01*
X107190476Y-91247619D01*
X107142857Y-91342857D01*
X107142857Y-91485714D01*
X107190476Y-91580952D01*
X107238095Y-91628571D01*
X107333333Y-91676190D01*
X107714285Y-91676190D01*
X106761904Y-91247619D02*
X106714285Y-91200000D01*
X106619047Y-91152380D01*
X106380952Y-91152380D01*
X106285714Y-91200000D01*
X106238095Y-91247619D01*
X106190476Y-91342857D01*
X106190476Y-91438095D01*
X106238095Y-91580952D01*
X106809523Y-92152380D01*
X106190476Y-92152380D01*
X105333333Y-91152380D02*
X105523809Y-91152380D01*
X105619047Y-91200000D01*
X105666666Y-91247619D01*
X105761904Y-91390476D01*
X105809523Y-91580952D01*
X105809523Y-91961904D01*
X105761904Y-92057142D01*
X105714285Y-92104761D01*
X105619047Y-92152380D01*
X105428571Y-92152380D01*
X105333333Y-92104761D01*
X105285714Y-92057142D01*
X105238095Y-91961904D01*
X105238095Y-91723809D01*
X105285714Y-91628571D01*
X105333333Y-91580952D01*
X105428571Y-91533333D01*
X105619047Y-91533333D01*
X105714285Y-91580952D01*
X105761904Y-91628571D01*
X105809523Y-91723809D01*
%TO.C,R27*%
X107142857Y-69702380D02*
X107476190Y-69226190D01*
X107714285Y-69702380D02*
X107714285Y-68702380D01*
X107333333Y-68702380D01*
X107238095Y-68750000D01*
X107190476Y-68797619D01*
X107142857Y-68892857D01*
X107142857Y-69035714D01*
X107190476Y-69130952D01*
X107238095Y-69178571D01*
X107333333Y-69226190D01*
X107714285Y-69226190D01*
X106761904Y-68797619D02*
X106714285Y-68750000D01*
X106619047Y-68702380D01*
X106380952Y-68702380D01*
X106285714Y-68750000D01*
X106238095Y-68797619D01*
X106190476Y-68892857D01*
X106190476Y-68988095D01*
X106238095Y-69130952D01*
X106809523Y-69702380D01*
X106190476Y-69702380D01*
X105857142Y-68702380D02*
X105190476Y-68702380D01*
X105619047Y-69702380D01*
%TO.C,R28*%
X105892857Y-84202380D02*
X106226190Y-83726190D01*
X106464285Y-84202380D02*
X106464285Y-83202380D01*
X106083333Y-83202380D01*
X105988095Y-83250000D01*
X105940476Y-83297619D01*
X105892857Y-83392857D01*
X105892857Y-83535714D01*
X105940476Y-83630952D01*
X105988095Y-83678571D01*
X106083333Y-83726190D01*
X106464285Y-83726190D01*
X105511904Y-83297619D02*
X105464285Y-83250000D01*
X105369047Y-83202380D01*
X105130952Y-83202380D01*
X105035714Y-83250000D01*
X104988095Y-83297619D01*
X104940476Y-83392857D01*
X104940476Y-83488095D01*
X104988095Y-83630952D01*
X105559523Y-84202380D01*
X104940476Y-84202380D01*
X104369047Y-83630952D02*
X104464285Y-83583333D01*
X104511904Y-83535714D01*
X104559523Y-83440476D01*
X104559523Y-83392857D01*
X104511904Y-83297619D01*
X104464285Y-83250000D01*
X104369047Y-83202380D01*
X104178571Y-83202380D01*
X104083333Y-83250000D01*
X104035714Y-83297619D01*
X103988095Y-83392857D01*
X103988095Y-83440476D01*
X104035714Y-83535714D01*
X104083333Y-83583333D01*
X104178571Y-83630952D01*
X104369047Y-83630952D01*
X104464285Y-83678571D01*
X104511904Y-83726190D01*
X104559523Y-83821428D01*
X104559523Y-84011904D01*
X104511904Y-84107142D01*
X104464285Y-84154761D01*
X104369047Y-84202380D01*
X104178571Y-84202380D01*
X104083333Y-84154761D01*
X104035714Y-84107142D01*
X103988095Y-84011904D01*
X103988095Y-83821428D01*
X104035714Y-83726190D01*
X104083333Y-83678571D01*
X104178571Y-83630952D01*
%TO.C,R29*%
X103452380Y-58857142D02*
X102976190Y-58523809D01*
X103452380Y-58285714D02*
X102452380Y-58285714D01*
X102452380Y-58666666D01*
X102500000Y-58761904D01*
X102547619Y-58809523D01*
X102642857Y-58857142D01*
X102785714Y-58857142D01*
X102880952Y-58809523D01*
X102928571Y-58761904D01*
X102976190Y-58666666D01*
X102976190Y-58285714D01*
X102547619Y-59238095D02*
X102500000Y-59285714D01*
X102452380Y-59380952D01*
X102452380Y-59619047D01*
X102500000Y-59714285D01*
X102547619Y-59761904D01*
X102642857Y-59809523D01*
X102738095Y-59809523D01*
X102880952Y-59761904D01*
X103452380Y-59190476D01*
X103452380Y-59809523D01*
X103452380Y-60285714D02*
X103452380Y-60476190D01*
X103404761Y-60571428D01*
X103357142Y-60619047D01*
X103214285Y-60714285D01*
X103023809Y-60761904D01*
X102642857Y-60761904D01*
X102547619Y-60714285D01*
X102500000Y-60666666D01*
X102452380Y-60571428D01*
X102452380Y-60380952D01*
X102500000Y-60285714D01*
X102547619Y-60238095D01*
X102642857Y-60190476D01*
X102880952Y-60190476D01*
X102976190Y-60238095D01*
X103023809Y-60285714D01*
X103071428Y-60380952D01*
X103071428Y-60571428D01*
X103023809Y-60666666D01*
X102976190Y-60714285D01*
X102880952Y-60761904D01*
%TO.C,R31*%
X115142857Y-75702380D02*
X115476190Y-75226190D01*
X115714285Y-75702380D02*
X115714285Y-74702380D01*
X115333333Y-74702380D01*
X115238095Y-74750000D01*
X115190476Y-74797619D01*
X115142857Y-74892857D01*
X115142857Y-75035714D01*
X115190476Y-75130952D01*
X115238095Y-75178571D01*
X115333333Y-75226190D01*
X115714285Y-75226190D01*
X114809523Y-74702380D02*
X114190476Y-74702380D01*
X114523809Y-75083333D01*
X114380952Y-75083333D01*
X114285714Y-75130952D01*
X114238095Y-75178571D01*
X114190476Y-75273809D01*
X114190476Y-75511904D01*
X114238095Y-75607142D01*
X114285714Y-75654761D01*
X114380952Y-75702380D01*
X114666666Y-75702380D01*
X114761904Y-75654761D01*
X114809523Y-75607142D01*
X113238095Y-75702380D02*
X113809523Y-75702380D01*
X113523809Y-75702380D02*
X113523809Y-74702380D01*
X113619047Y-74845238D01*
X113714285Y-74940476D01*
X113809523Y-74988095D01*
%TO.C,R32*%
X116142857Y-83702380D02*
X116476190Y-83226190D01*
X116714285Y-83702380D02*
X116714285Y-82702380D01*
X116333333Y-82702380D01*
X116238095Y-82750000D01*
X116190476Y-82797619D01*
X116142857Y-82892857D01*
X116142857Y-83035714D01*
X116190476Y-83130952D01*
X116238095Y-83178571D01*
X116333333Y-83226190D01*
X116714285Y-83226190D01*
X115809523Y-82702380D02*
X115190476Y-82702380D01*
X115523809Y-83083333D01*
X115380952Y-83083333D01*
X115285714Y-83130952D01*
X115238095Y-83178571D01*
X115190476Y-83273809D01*
X115190476Y-83511904D01*
X115238095Y-83607142D01*
X115285714Y-83654761D01*
X115380952Y-83702380D01*
X115666666Y-83702380D01*
X115761904Y-83654761D01*
X115809523Y-83607142D01*
X114809523Y-82797619D02*
X114761904Y-82750000D01*
X114666666Y-82702380D01*
X114428571Y-82702380D01*
X114333333Y-82750000D01*
X114285714Y-82797619D01*
X114238095Y-82892857D01*
X114238095Y-82988095D01*
X114285714Y-83130952D01*
X114857142Y-83702380D01*
X114238095Y-83702380D01*
%TO.C,R33*%
X110952380Y-58357142D02*
X110476190Y-58023809D01*
X110952380Y-57785714D02*
X109952380Y-57785714D01*
X109952380Y-58166666D01*
X110000000Y-58261904D01*
X110047619Y-58309523D01*
X110142857Y-58357142D01*
X110285714Y-58357142D01*
X110380952Y-58309523D01*
X110428571Y-58261904D01*
X110476190Y-58166666D01*
X110476190Y-57785714D01*
X109952380Y-58690476D02*
X109952380Y-59309523D01*
X110333333Y-58976190D01*
X110333333Y-59119047D01*
X110380952Y-59214285D01*
X110428571Y-59261904D01*
X110523809Y-59309523D01*
X110761904Y-59309523D01*
X110857142Y-59261904D01*
X110904761Y-59214285D01*
X110952380Y-59119047D01*
X110952380Y-58833333D01*
X110904761Y-58738095D01*
X110857142Y-58690476D01*
X109952380Y-59642857D02*
X109952380Y-60261904D01*
X110333333Y-59928571D01*
X110333333Y-60071428D01*
X110380952Y-60166666D01*
X110428571Y-60214285D01*
X110523809Y-60261904D01*
X110761904Y-60261904D01*
X110857142Y-60214285D01*
X110904761Y-60166666D01*
X110952380Y-60071428D01*
X110952380Y-59785714D01*
X110904761Y-59690476D01*
X110857142Y-59642857D01*
%TO.C,R34*%
X116142857Y-81452380D02*
X116476190Y-80976190D01*
X116714285Y-81452380D02*
X116714285Y-80452380D01*
X116333333Y-80452380D01*
X116238095Y-80500000D01*
X116190476Y-80547619D01*
X116142857Y-80642857D01*
X116142857Y-80785714D01*
X116190476Y-80880952D01*
X116238095Y-80928571D01*
X116333333Y-80976190D01*
X116714285Y-80976190D01*
X115809523Y-80452380D02*
X115190476Y-80452380D01*
X115523809Y-80833333D01*
X115380952Y-80833333D01*
X115285714Y-80880952D01*
X115238095Y-80928571D01*
X115190476Y-81023809D01*
X115190476Y-81261904D01*
X115238095Y-81357142D01*
X115285714Y-81404761D01*
X115380952Y-81452380D01*
X115666666Y-81452380D01*
X115761904Y-81404761D01*
X115809523Y-81357142D01*
X114333333Y-80785714D02*
X114333333Y-81452380D01*
X114571428Y-80404761D02*
X114809523Y-81119047D01*
X114190476Y-81119047D01*
%TO.C,R35*%
X114452380Y-58357142D02*
X113976190Y-58023809D01*
X114452380Y-57785714D02*
X113452380Y-57785714D01*
X113452380Y-58166666D01*
X113500000Y-58261904D01*
X113547619Y-58309523D01*
X113642857Y-58357142D01*
X113785714Y-58357142D01*
X113880952Y-58309523D01*
X113928571Y-58261904D01*
X113976190Y-58166666D01*
X113976190Y-57785714D01*
X113452380Y-58690476D02*
X113452380Y-59309523D01*
X113833333Y-58976190D01*
X113833333Y-59119047D01*
X113880952Y-59214285D01*
X113928571Y-59261904D01*
X114023809Y-59309523D01*
X114261904Y-59309523D01*
X114357142Y-59261904D01*
X114404761Y-59214285D01*
X114452380Y-59119047D01*
X114452380Y-58833333D01*
X114404761Y-58738095D01*
X114357142Y-58690476D01*
X113452380Y-60214285D02*
X113452380Y-59738095D01*
X113928571Y-59690476D01*
X113880952Y-59738095D01*
X113833333Y-59833333D01*
X113833333Y-60071428D01*
X113880952Y-60166666D01*
X113928571Y-60214285D01*
X114023809Y-60261904D01*
X114261904Y-60261904D01*
X114357142Y-60214285D01*
X114404761Y-60166666D01*
X114452380Y-60071428D01*
X114452380Y-59833333D01*
X114404761Y-59738095D01*
X114357142Y-59690476D01*
%TO.C,C1*%
X121107142Y-110083333D02*
X121154761Y-110035714D01*
X121202380Y-109892857D01*
X121202380Y-109797619D01*
X121154761Y-109654761D01*
X121059523Y-109559523D01*
X120964285Y-109511904D01*
X120773809Y-109464285D01*
X120630952Y-109464285D01*
X120440476Y-109511904D01*
X120345238Y-109559523D01*
X120250000Y-109654761D01*
X120202380Y-109797619D01*
X120202380Y-109892857D01*
X120250000Y-110035714D01*
X120297619Y-110083333D01*
X121202380Y-111035714D02*
X121202380Y-110464285D01*
X121202380Y-110750000D02*
X120202380Y-110750000D01*
X120345238Y-110654761D01*
X120440476Y-110559523D01*
X120488095Y-110464285D01*
%TO.C,C2*%
X127166666Y-92507142D02*
X127214285Y-92554761D01*
X127357142Y-92602380D01*
X127452380Y-92602380D01*
X127595238Y-92554761D01*
X127690476Y-92459523D01*
X127738095Y-92364285D01*
X127785714Y-92173809D01*
X127785714Y-92030952D01*
X127738095Y-91840476D01*
X127690476Y-91745238D01*
X127595238Y-91650000D01*
X127452380Y-91602380D01*
X127357142Y-91602380D01*
X127214285Y-91650000D01*
X127166666Y-91697619D01*
X126785714Y-91697619D02*
X126738095Y-91650000D01*
X126642857Y-91602380D01*
X126404761Y-91602380D01*
X126309523Y-91650000D01*
X126261904Y-91697619D01*
X126214285Y-91792857D01*
X126214285Y-91888095D01*
X126261904Y-92030952D01*
X126833333Y-92602380D01*
X126214285Y-92602380D01*
%TO.C,C3*%
X95916666Y-86107142D02*
X95964285Y-86154761D01*
X96107142Y-86202380D01*
X96202380Y-86202380D01*
X96345238Y-86154761D01*
X96440476Y-86059523D01*
X96488095Y-85964285D01*
X96535714Y-85773809D01*
X96535714Y-85630952D01*
X96488095Y-85440476D01*
X96440476Y-85345238D01*
X96345238Y-85250000D01*
X96202380Y-85202380D01*
X96107142Y-85202380D01*
X95964285Y-85250000D01*
X95916666Y-85297619D01*
X95583333Y-85202380D02*
X94964285Y-85202380D01*
X95297619Y-85583333D01*
X95154761Y-85583333D01*
X95059523Y-85630952D01*
X95011904Y-85678571D01*
X94964285Y-85773809D01*
X94964285Y-86011904D01*
X95011904Y-86107142D01*
X95059523Y-86154761D01*
X95154761Y-86202380D01*
X95440476Y-86202380D01*
X95535714Y-86154761D01*
X95583333Y-86107142D01*
%TO.C,C4*%
X131666666Y-92507142D02*
X131714285Y-92554761D01*
X131857142Y-92602380D01*
X131952380Y-92602380D01*
X132095238Y-92554761D01*
X132190476Y-92459523D01*
X132238095Y-92364285D01*
X132285714Y-92173809D01*
X132285714Y-92030952D01*
X132238095Y-91840476D01*
X132190476Y-91745238D01*
X132095238Y-91650000D01*
X131952380Y-91602380D01*
X131857142Y-91602380D01*
X131714285Y-91650000D01*
X131666666Y-91697619D01*
X130809523Y-91935714D02*
X130809523Y-92602380D01*
X131047619Y-91554761D02*
X131285714Y-92269047D01*
X130666666Y-92269047D01*
%TO.C,C5*%
X94266666Y-72857142D02*
X94314285Y-72904761D01*
X94457142Y-72952380D01*
X94552380Y-72952380D01*
X94695238Y-72904761D01*
X94790476Y-72809523D01*
X94838095Y-72714285D01*
X94885714Y-72523809D01*
X94885714Y-72380952D01*
X94838095Y-72190476D01*
X94790476Y-72095238D01*
X94695238Y-72000000D01*
X94552380Y-71952380D01*
X94457142Y-71952380D01*
X94314285Y-72000000D01*
X94266666Y-72047619D01*
X93361904Y-71952380D02*
X93838095Y-71952380D01*
X93885714Y-72428571D01*
X93838095Y-72380952D01*
X93742857Y-72333333D01*
X93504761Y-72333333D01*
X93409523Y-72380952D01*
X93361904Y-72428571D01*
X93314285Y-72523809D01*
X93314285Y-72761904D01*
X93361904Y-72857142D01*
X93409523Y-72904761D01*
X93504761Y-72952380D01*
X93742857Y-72952380D01*
X93838095Y-72904761D01*
X93885714Y-72857142D01*
%TO.C,C6*%
X122566666Y-95857142D02*
X122614285Y-95904761D01*
X122757142Y-95952380D01*
X122852380Y-95952380D01*
X122995238Y-95904761D01*
X123090476Y-95809523D01*
X123138095Y-95714285D01*
X123185714Y-95523809D01*
X123185714Y-95380952D01*
X123138095Y-95190476D01*
X123090476Y-95095238D01*
X122995238Y-95000000D01*
X122852380Y-94952380D01*
X122757142Y-94952380D01*
X122614285Y-95000000D01*
X122566666Y-95047619D01*
X121709523Y-94952380D02*
X121900000Y-94952380D01*
X121995238Y-95000000D01*
X122042857Y-95047619D01*
X122138095Y-95190476D01*
X122185714Y-95380952D01*
X122185714Y-95761904D01*
X122138095Y-95857142D01*
X122090476Y-95904761D01*
X121995238Y-95952380D01*
X121804761Y-95952380D01*
X121709523Y-95904761D01*
X121661904Y-95857142D01*
X121614285Y-95761904D01*
X121614285Y-95523809D01*
X121661904Y-95428571D01*
X121709523Y-95380952D01*
X121804761Y-95333333D01*
X121995238Y-95333333D01*
X122090476Y-95380952D01*
X122138095Y-95428571D01*
X122185714Y-95523809D01*
%TO.C,C7*%
X101357142Y-96333333D02*
X101404761Y-96285714D01*
X101452380Y-96142857D01*
X101452380Y-96047619D01*
X101404761Y-95904761D01*
X101309523Y-95809523D01*
X101214285Y-95761904D01*
X101023809Y-95714285D01*
X100880952Y-95714285D01*
X100690476Y-95761904D01*
X100595238Y-95809523D01*
X100500000Y-95904761D01*
X100452380Y-96047619D01*
X100452380Y-96142857D01*
X100500000Y-96285714D01*
X100547619Y-96333333D01*
X100452380Y-96666666D02*
X100452380Y-97333333D01*
X101452380Y-96904761D01*
%TO.C,C8*%
X111416666Y-94607142D02*
X111464285Y-94654761D01*
X111607142Y-94702380D01*
X111702380Y-94702380D01*
X111845238Y-94654761D01*
X111940476Y-94559523D01*
X111988095Y-94464285D01*
X112035714Y-94273809D01*
X112035714Y-94130952D01*
X111988095Y-93940476D01*
X111940476Y-93845238D01*
X111845238Y-93750000D01*
X111702380Y-93702380D01*
X111607142Y-93702380D01*
X111464285Y-93750000D01*
X111416666Y-93797619D01*
X110845238Y-94130952D02*
X110940476Y-94083333D01*
X110988095Y-94035714D01*
X111035714Y-93940476D01*
X111035714Y-93892857D01*
X110988095Y-93797619D01*
X110940476Y-93750000D01*
X110845238Y-93702380D01*
X110654761Y-93702380D01*
X110559523Y-93750000D01*
X110511904Y-93797619D01*
X110464285Y-93892857D01*
X110464285Y-93940476D01*
X110511904Y-94035714D01*
X110559523Y-94083333D01*
X110654761Y-94130952D01*
X110845238Y-94130952D01*
X110940476Y-94178571D01*
X110988095Y-94226190D01*
X111035714Y-94321428D01*
X111035714Y-94511904D01*
X110988095Y-94607142D01*
X110940476Y-94654761D01*
X110845238Y-94702380D01*
X110654761Y-94702380D01*
X110559523Y-94654761D01*
X110511904Y-94607142D01*
X110464285Y-94511904D01*
X110464285Y-94321428D01*
X110511904Y-94226190D01*
X110559523Y-94178571D01*
X110654761Y-94130952D01*
%TO.C,C10*%
X95107142Y-95857142D02*
X95154761Y-95809523D01*
X95202380Y-95666666D01*
X95202380Y-95571428D01*
X95154761Y-95428571D01*
X95059523Y-95333333D01*
X94964285Y-95285714D01*
X94773809Y-95238095D01*
X94630952Y-95238095D01*
X94440476Y-95285714D01*
X94345238Y-95333333D01*
X94250000Y-95428571D01*
X94202380Y-95571428D01*
X94202380Y-95666666D01*
X94250000Y-95809523D01*
X94297619Y-95857142D01*
X95202380Y-96809523D02*
X95202380Y-96238095D01*
X95202380Y-96523809D02*
X94202380Y-96523809D01*
X94345238Y-96428571D01*
X94440476Y-96333333D01*
X94488095Y-96238095D01*
X94202380Y-97428571D02*
X94202380Y-97523809D01*
X94250000Y-97619047D01*
X94297619Y-97666666D01*
X94392857Y-97714285D01*
X94583333Y-97761904D01*
X94821428Y-97761904D01*
X95011904Y-97714285D01*
X95107142Y-97666666D01*
X95154761Y-97619047D01*
X95202380Y-97523809D01*
X95202380Y-97428571D01*
X95154761Y-97333333D01*
X95107142Y-97285714D01*
X95011904Y-97238095D01*
X94821428Y-97190476D01*
X94583333Y-97190476D01*
X94392857Y-97238095D01*
X94297619Y-97285714D01*
X94250000Y-97333333D01*
X94202380Y-97428571D01*
%TO.C,C11*%
X95892857Y-93357142D02*
X95940476Y-93404761D01*
X96083333Y-93452380D01*
X96178571Y-93452380D01*
X96321428Y-93404761D01*
X96416666Y-93309523D01*
X96464285Y-93214285D01*
X96511904Y-93023809D01*
X96511904Y-92880952D01*
X96464285Y-92690476D01*
X96416666Y-92595238D01*
X96321428Y-92500000D01*
X96178571Y-92452380D01*
X96083333Y-92452380D01*
X95940476Y-92500000D01*
X95892857Y-92547619D01*
X94940476Y-93452380D02*
X95511904Y-93452380D01*
X95226190Y-93452380D02*
X95226190Y-92452380D01*
X95321428Y-92595238D01*
X95416666Y-92690476D01*
X95511904Y-92738095D01*
X93988095Y-93452380D02*
X94559523Y-93452380D01*
X94273809Y-93452380D02*
X94273809Y-92452380D01*
X94369047Y-92595238D01*
X94464285Y-92690476D01*
X94559523Y-92738095D01*
%TO.C,C14*%
X95107142Y-88907142D02*
X95154761Y-88859523D01*
X95202380Y-88716666D01*
X95202380Y-88621428D01*
X95154761Y-88478571D01*
X95059523Y-88383333D01*
X94964285Y-88335714D01*
X94773809Y-88288095D01*
X94630952Y-88288095D01*
X94440476Y-88335714D01*
X94345238Y-88383333D01*
X94250000Y-88478571D01*
X94202380Y-88621428D01*
X94202380Y-88716666D01*
X94250000Y-88859523D01*
X94297619Y-88907142D01*
X95202380Y-89859523D02*
X95202380Y-89288095D01*
X95202380Y-89573809D02*
X94202380Y-89573809D01*
X94345238Y-89478571D01*
X94440476Y-89383333D01*
X94488095Y-89288095D01*
X94535714Y-90716666D02*
X95202380Y-90716666D01*
X94154761Y-90478571D02*
X94869047Y-90240476D01*
X94869047Y-90859523D01*
%TO.C,C17*%
X96107142Y-68357142D02*
X96154761Y-68309523D01*
X96202380Y-68166666D01*
X96202380Y-68071428D01*
X96154761Y-67928571D01*
X96059523Y-67833333D01*
X95964285Y-67785714D01*
X95773809Y-67738095D01*
X95630952Y-67738095D01*
X95440476Y-67785714D01*
X95345238Y-67833333D01*
X95250000Y-67928571D01*
X95202380Y-68071428D01*
X95202380Y-68166666D01*
X95250000Y-68309523D01*
X95297619Y-68357142D01*
X96202380Y-69309523D02*
X96202380Y-68738095D01*
X96202380Y-69023809D02*
X95202380Y-69023809D01*
X95345238Y-68928571D01*
X95440476Y-68833333D01*
X95488095Y-68738095D01*
X95202380Y-69642857D02*
X95202380Y-70309523D01*
X96202380Y-69880952D01*
%TO.C,C18*%
X101107142Y-88907142D02*
X101154761Y-88859523D01*
X101202380Y-88716666D01*
X101202380Y-88621428D01*
X101154761Y-88478571D01*
X101059523Y-88383333D01*
X100964285Y-88335714D01*
X100773809Y-88288095D01*
X100630952Y-88288095D01*
X100440476Y-88335714D01*
X100345238Y-88383333D01*
X100250000Y-88478571D01*
X100202380Y-88621428D01*
X100202380Y-88716666D01*
X100250000Y-88859523D01*
X100297619Y-88907142D01*
X101202380Y-89859523D02*
X101202380Y-89288095D01*
X101202380Y-89573809D02*
X100202380Y-89573809D01*
X100345238Y-89478571D01*
X100440476Y-89383333D01*
X100488095Y-89288095D01*
X100630952Y-90430952D02*
X100583333Y-90335714D01*
X100535714Y-90288095D01*
X100440476Y-90240476D01*
X100392857Y-90240476D01*
X100297619Y-90288095D01*
X100250000Y-90335714D01*
X100202380Y-90430952D01*
X100202380Y-90621428D01*
X100250000Y-90716666D01*
X100297619Y-90764285D01*
X100392857Y-90811904D01*
X100440476Y-90811904D01*
X100535714Y-90764285D01*
X100583333Y-90716666D01*
X100630952Y-90621428D01*
X100630952Y-90430952D01*
X100678571Y-90335714D01*
X100726190Y-90288095D01*
X100821428Y-90240476D01*
X101011904Y-90240476D01*
X101107142Y-90288095D01*
X101154761Y-90335714D01*
X101202380Y-90430952D01*
X101202380Y-90621428D01*
X101154761Y-90716666D01*
X101107142Y-90764285D01*
X101011904Y-90811904D01*
X100821428Y-90811904D01*
X100726190Y-90764285D01*
X100678571Y-90716666D01*
X100630952Y-90621428D01*
%TO.C,C21*%
X139142857Y-68107142D02*
X139190476Y-68154761D01*
X139333333Y-68202380D01*
X139428571Y-68202380D01*
X139571428Y-68154761D01*
X139666666Y-68059523D01*
X139714285Y-67964285D01*
X139761904Y-67773809D01*
X139761904Y-67630952D01*
X139714285Y-67440476D01*
X139666666Y-67345238D01*
X139571428Y-67250000D01*
X139428571Y-67202380D01*
X139333333Y-67202380D01*
X139190476Y-67250000D01*
X139142857Y-67297619D01*
X138761904Y-67297619D02*
X138714285Y-67250000D01*
X138619047Y-67202380D01*
X138380952Y-67202380D01*
X138285714Y-67250000D01*
X138238095Y-67297619D01*
X138190476Y-67392857D01*
X138190476Y-67488095D01*
X138238095Y-67630952D01*
X138809523Y-68202380D01*
X138190476Y-68202380D01*
X137238095Y-68202380D02*
X137809523Y-68202380D01*
X137523809Y-68202380D02*
X137523809Y-67202380D01*
X137619047Y-67345238D01*
X137714285Y-67440476D01*
X137809523Y-67488095D01*
%TO.C,D1*%
X101702380Y-100761904D02*
X100702380Y-100761904D01*
X100702380Y-101000000D01*
X100750000Y-101142857D01*
X100845238Y-101238095D01*
X100940476Y-101285714D01*
X101130952Y-101333333D01*
X101273809Y-101333333D01*
X101464285Y-101285714D01*
X101559523Y-101238095D01*
X101654761Y-101142857D01*
X101702380Y-101000000D01*
X101702380Y-100761904D01*
X101702380Y-102285714D02*
X101702380Y-101714285D01*
X101702380Y-102000000D02*
X100702380Y-102000000D01*
X100845238Y-101904761D01*
X100940476Y-101809523D01*
X100988095Y-101714285D01*
%TO.C,D3*%
X94452380Y-100261904D02*
X93452380Y-100261904D01*
X93452380Y-100500000D01*
X93500000Y-100642857D01*
X93595238Y-100738095D01*
X93690476Y-100785714D01*
X93880952Y-100833333D01*
X94023809Y-100833333D01*
X94214285Y-100785714D01*
X94309523Y-100738095D01*
X94404761Y-100642857D01*
X94452380Y-100500000D01*
X94452380Y-100261904D01*
X93452380Y-101166666D02*
X93452380Y-101785714D01*
X93833333Y-101452380D01*
X93833333Y-101595238D01*
X93880952Y-101690476D01*
X93928571Y-101738095D01*
X94023809Y-101785714D01*
X94261904Y-101785714D01*
X94357142Y-101738095D01*
X94404761Y-101690476D01*
X94452380Y-101595238D01*
X94452380Y-101309523D01*
X94404761Y-101214285D01*
X94357142Y-101166666D01*
%TO.C,Q1*%
X119095238Y-105547619D02*
X119190476Y-105500000D01*
X119285714Y-105404761D01*
X119428571Y-105261904D01*
X119523809Y-105214285D01*
X119619047Y-105214285D01*
X119571428Y-105452380D02*
X119666666Y-105404761D01*
X119761904Y-105309523D01*
X119809523Y-105119047D01*
X119809523Y-104785714D01*
X119761904Y-104595238D01*
X119666666Y-104500000D01*
X119571428Y-104452380D01*
X119380952Y-104452380D01*
X119285714Y-104500000D01*
X119190476Y-104595238D01*
X119142857Y-104785714D01*
X119142857Y-105119047D01*
X119190476Y-105309523D01*
X119285714Y-105404761D01*
X119380952Y-105452380D01*
X119571428Y-105452380D01*
X118190476Y-105452380D02*
X118761904Y-105452380D01*
X118476190Y-105452380D02*
X118476190Y-104452380D01*
X118571428Y-104595238D01*
X118666666Y-104690476D01*
X118761904Y-104738095D01*
%TO.C,Q2*%
X127845238Y-89297619D02*
X127940476Y-89250000D01*
X128035714Y-89154761D01*
X128178571Y-89011904D01*
X128273809Y-88964285D01*
X128369047Y-88964285D01*
X128321428Y-89202380D02*
X128416666Y-89154761D01*
X128511904Y-89059523D01*
X128559523Y-88869047D01*
X128559523Y-88535714D01*
X128511904Y-88345238D01*
X128416666Y-88250000D01*
X128321428Y-88202380D01*
X128130952Y-88202380D01*
X128035714Y-88250000D01*
X127940476Y-88345238D01*
X127892857Y-88535714D01*
X127892857Y-88869047D01*
X127940476Y-89059523D01*
X128035714Y-89154761D01*
X128130952Y-89202380D01*
X128321428Y-89202380D01*
X127511904Y-88297619D02*
X127464285Y-88250000D01*
X127369047Y-88202380D01*
X127130952Y-88202380D01*
X127035714Y-88250000D01*
X126988095Y-88297619D01*
X126940476Y-88392857D01*
X126940476Y-88488095D01*
X126988095Y-88630952D01*
X127559523Y-89202380D01*
X126940476Y-89202380D01*
%TO.C,Q3*%
X132345238Y-89297619D02*
X132440476Y-89250000D01*
X132535714Y-89154761D01*
X132678571Y-89011904D01*
X132773809Y-88964285D01*
X132869047Y-88964285D01*
X132821428Y-89202380D02*
X132916666Y-89154761D01*
X133011904Y-89059523D01*
X133059523Y-88869047D01*
X133059523Y-88535714D01*
X133011904Y-88345238D01*
X132916666Y-88250000D01*
X132821428Y-88202380D01*
X132630952Y-88202380D01*
X132535714Y-88250000D01*
X132440476Y-88345238D01*
X132392857Y-88535714D01*
X132392857Y-88869047D01*
X132440476Y-89059523D01*
X132535714Y-89154761D01*
X132630952Y-89202380D01*
X132821428Y-89202380D01*
X132059523Y-88202380D02*
X131440476Y-88202380D01*
X131773809Y-88583333D01*
X131630952Y-88583333D01*
X131535714Y-88630952D01*
X131488095Y-88678571D01*
X131440476Y-88773809D01*
X131440476Y-89011904D01*
X131488095Y-89107142D01*
X131535714Y-89154761D01*
X131630952Y-89202380D01*
X131916666Y-89202380D01*
X132011904Y-89154761D01*
X132059523Y-89107142D01*
%TO.C,Q4*%
X94697619Y-78904761D02*
X94650000Y-78809523D01*
X94554761Y-78714285D01*
X94411904Y-78571428D01*
X94364285Y-78476190D01*
X94364285Y-78380952D01*
X94602380Y-78428571D02*
X94554761Y-78333333D01*
X94459523Y-78238095D01*
X94269047Y-78190476D01*
X93935714Y-78190476D01*
X93745238Y-78238095D01*
X93650000Y-78333333D01*
X93602380Y-78428571D01*
X93602380Y-78619047D01*
X93650000Y-78714285D01*
X93745238Y-78809523D01*
X93935714Y-78857142D01*
X94269047Y-78857142D01*
X94459523Y-78809523D01*
X94554761Y-78714285D01*
X94602380Y-78619047D01*
X94602380Y-78428571D01*
X93935714Y-79714285D02*
X94602380Y-79714285D01*
X93554761Y-79476190D02*
X94269047Y-79238095D01*
X94269047Y-79857142D01*
%TO.C,Q5*%
X107547619Y-110154761D02*
X107500000Y-110059523D01*
X107404761Y-109964285D01*
X107261904Y-109821428D01*
X107214285Y-109726190D01*
X107214285Y-109630952D01*
X107452380Y-109678571D02*
X107404761Y-109583333D01*
X107309523Y-109488095D01*
X107119047Y-109440476D01*
X106785714Y-109440476D01*
X106595238Y-109488095D01*
X106500000Y-109583333D01*
X106452380Y-109678571D01*
X106452380Y-109869047D01*
X106500000Y-109964285D01*
X106595238Y-110059523D01*
X106785714Y-110107142D01*
X107119047Y-110107142D01*
X107309523Y-110059523D01*
X107404761Y-109964285D01*
X107452380Y-109869047D01*
X107452380Y-109678571D01*
X106452380Y-111011904D02*
X106452380Y-110535714D01*
X106928571Y-110488095D01*
X106880952Y-110535714D01*
X106833333Y-110630952D01*
X106833333Y-110869047D01*
X106880952Y-110964285D01*
X106928571Y-111011904D01*
X107023809Y-111059523D01*
X107261904Y-111059523D01*
X107357142Y-111011904D01*
X107404761Y-110964285D01*
X107452380Y-110869047D01*
X107452380Y-110630952D01*
X107404761Y-110535714D01*
X107357142Y-110488095D01*
%TO.C,Q6*%
X123345238Y-89297619D02*
X123440476Y-89250000D01*
X123535714Y-89154761D01*
X123678571Y-89011904D01*
X123773809Y-88964285D01*
X123869047Y-88964285D01*
X123821428Y-89202380D02*
X123916666Y-89154761D01*
X124011904Y-89059523D01*
X124059523Y-88869047D01*
X124059523Y-88535714D01*
X124011904Y-88345238D01*
X123916666Y-88250000D01*
X123821428Y-88202380D01*
X123630952Y-88202380D01*
X123535714Y-88250000D01*
X123440476Y-88345238D01*
X123392857Y-88535714D01*
X123392857Y-88869047D01*
X123440476Y-89059523D01*
X123535714Y-89154761D01*
X123630952Y-89202380D01*
X123821428Y-89202380D01*
X122535714Y-88202380D02*
X122726190Y-88202380D01*
X122821428Y-88250000D01*
X122869047Y-88297619D01*
X122964285Y-88440476D01*
X123011904Y-88630952D01*
X123011904Y-89011904D01*
X122964285Y-89107142D01*
X122916666Y-89154761D01*
X122821428Y-89202380D01*
X122630952Y-89202380D01*
X122535714Y-89154761D01*
X122488095Y-89107142D01*
X122440476Y-89011904D01*
X122440476Y-88773809D01*
X122488095Y-88678571D01*
X122535714Y-88630952D01*
X122630952Y-88583333D01*
X122821428Y-88583333D01*
X122916666Y-88630952D01*
X122964285Y-88678571D01*
X123011904Y-88773809D01*
%TO.C,R1*%
X127666666Y-99202380D02*
X128000000Y-98726190D01*
X128238095Y-99202380D02*
X128238095Y-98202380D01*
X127857142Y-98202380D01*
X127761904Y-98250000D01*
X127714285Y-98297619D01*
X127666666Y-98392857D01*
X127666666Y-98535714D01*
X127714285Y-98630952D01*
X127761904Y-98678571D01*
X127857142Y-98726190D01*
X128238095Y-98726190D01*
X126714285Y-99202380D02*
X127285714Y-99202380D01*
X127000000Y-99202380D02*
X127000000Y-98202380D01*
X127095238Y-98345238D01*
X127190476Y-98440476D01*
X127285714Y-98488095D01*
%TO.C,R2*%
X127166666Y-95852380D02*
X127500000Y-95376190D01*
X127738095Y-95852380D02*
X127738095Y-94852380D01*
X127357142Y-94852380D01*
X127261904Y-94900000D01*
X127214285Y-94947619D01*
X127166666Y-95042857D01*
X127166666Y-95185714D01*
X127214285Y-95280952D01*
X127261904Y-95328571D01*
X127357142Y-95376190D01*
X127738095Y-95376190D01*
X126785714Y-94947619D02*
X126738095Y-94900000D01*
X126642857Y-94852380D01*
X126404761Y-94852380D01*
X126309523Y-94900000D01*
X126261904Y-94947619D01*
X126214285Y-95042857D01*
X126214285Y-95138095D01*
X126261904Y-95280952D01*
X126833333Y-95852380D01*
X126214285Y-95852380D01*
%TO.C,R3*%
X130952380Y-97583333D02*
X130476190Y-97250000D01*
X130952380Y-97011904D02*
X129952380Y-97011904D01*
X129952380Y-97392857D01*
X130000000Y-97488095D01*
X130047619Y-97535714D01*
X130142857Y-97583333D01*
X130285714Y-97583333D01*
X130380952Y-97535714D01*
X130428571Y-97488095D01*
X130476190Y-97392857D01*
X130476190Y-97011904D01*
X129952380Y-97916666D02*
X129952380Y-98535714D01*
X130333333Y-98202380D01*
X130333333Y-98345238D01*
X130380952Y-98440476D01*
X130428571Y-98488095D01*
X130523809Y-98535714D01*
X130761904Y-98535714D01*
X130857142Y-98488095D01*
X130904761Y-98440476D01*
X130952380Y-98345238D01*
X130952380Y-98059523D01*
X130904761Y-97964285D01*
X130857142Y-97916666D01*
%TO.C,R4*%
X131666666Y-95852380D02*
X132000000Y-95376190D01*
X132238095Y-95852380D02*
X132238095Y-94852380D01*
X131857142Y-94852380D01*
X131761904Y-94900000D01*
X131714285Y-94947619D01*
X131666666Y-95042857D01*
X131666666Y-95185714D01*
X131714285Y-95280952D01*
X131761904Y-95328571D01*
X131857142Y-95376190D01*
X132238095Y-95376190D01*
X130809523Y-95185714D02*
X130809523Y-95852380D01*
X131047619Y-94804761D02*
X131285714Y-95519047D01*
X130666666Y-95519047D01*
%TO.C,R5*%
X117516666Y-113202380D02*
X117850000Y-112726190D01*
X118088095Y-113202380D02*
X118088095Y-112202380D01*
X117707142Y-112202380D01*
X117611904Y-112250000D01*
X117564285Y-112297619D01*
X117516666Y-112392857D01*
X117516666Y-112535714D01*
X117564285Y-112630952D01*
X117611904Y-112678571D01*
X117707142Y-112726190D01*
X118088095Y-112726190D01*
X116611904Y-112202380D02*
X117088095Y-112202380D01*
X117135714Y-112678571D01*
X117088095Y-112630952D01*
X116992857Y-112583333D01*
X116754761Y-112583333D01*
X116659523Y-112630952D01*
X116611904Y-112678571D01*
X116564285Y-112773809D01*
X116564285Y-113011904D01*
X116611904Y-113107142D01*
X116659523Y-113154761D01*
X116754761Y-113202380D01*
X116992857Y-113202380D01*
X117088095Y-113154761D01*
X117135714Y-113107142D01*
%TO.C,R6*%
X95166666Y-64952380D02*
X95500000Y-64476190D01*
X95738095Y-64952380D02*
X95738095Y-63952380D01*
X95357142Y-63952380D01*
X95261904Y-64000000D01*
X95214285Y-64047619D01*
X95166666Y-64142857D01*
X95166666Y-64285714D01*
X95214285Y-64380952D01*
X95261904Y-64428571D01*
X95357142Y-64476190D01*
X95738095Y-64476190D01*
X94309523Y-63952380D02*
X94500000Y-63952380D01*
X94595238Y-64000000D01*
X94642857Y-64047619D01*
X94738095Y-64190476D01*
X94785714Y-64380952D01*
X94785714Y-64761904D01*
X94738095Y-64857142D01*
X94690476Y-64904761D01*
X94595238Y-64952380D01*
X94404761Y-64952380D01*
X94309523Y-64904761D01*
X94261904Y-64857142D01*
X94214285Y-64761904D01*
X94214285Y-64523809D01*
X94261904Y-64428571D01*
X94309523Y-64380952D01*
X94404761Y-64333333D01*
X94595238Y-64333333D01*
X94690476Y-64380952D01*
X94738095Y-64428571D01*
X94785714Y-64523809D01*
%TO.C,R7*%
X127166666Y-80952380D02*
X127500000Y-80476190D01*
X127738095Y-80952380D02*
X127738095Y-79952380D01*
X127357142Y-79952380D01*
X127261904Y-80000000D01*
X127214285Y-80047619D01*
X127166666Y-80142857D01*
X127166666Y-80285714D01*
X127214285Y-80380952D01*
X127261904Y-80428571D01*
X127357142Y-80476190D01*
X127738095Y-80476190D01*
X126833333Y-79952380D02*
X126166666Y-79952380D01*
X126595238Y-80952380D01*
%TO.C,R8*%
X92802380Y-68833333D02*
X92326190Y-68500000D01*
X92802380Y-68261904D02*
X91802380Y-68261904D01*
X91802380Y-68642857D01*
X91850000Y-68738095D01*
X91897619Y-68785714D01*
X91992857Y-68833333D01*
X92135714Y-68833333D01*
X92230952Y-68785714D01*
X92278571Y-68738095D01*
X92326190Y-68642857D01*
X92326190Y-68261904D01*
X92230952Y-69404761D02*
X92183333Y-69309523D01*
X92135714Y-69261904D01*
X92040476Y-69214285D01*
X91992857Y-69214285D01*
X91897619Y-69261904D01*
X91850000Y-69309523D01*
X91802380Y-69404761D01*
X91802380Y-69595238D01*
X91850000Y-69690476D01*
X91897619Y-69738095D01*
X91992857Y-69785714D01*
X92040476Y-69785714D01*
X92135714Y-69738095D01*
X92183333Y-69690476D01*
X92230952Y-69595238D01*
X92230952Y-69404761D01*
X92278571Y-69309523D01*
X92326190Y-69261904D01*
X92421428Y-69214285D01*
X92611904Y-69214285D01*
X92707142Y-69261904D01*
X92754761Y-69309523D01*
X92802380Y-69404761D01*
X92802380Y-69595238D01*
X92754761Y-69690476D01*
X92707142Y-69738095D01*
X92611904Y-69785714D01*
X92421428Y-69785714D01*
X92326190Y-69738095D01*
X92278571Y-69690476D01*
X92230952Y-69595238D01*
%TO.C,R9*%
X94166666Y-75702380D02*
X94500000Y-75226190D01*
X94738095Y-75702380D02*
X94738095Y-74702380D01*
X94357142Y-74702380D01*
X94261904Y-74750000D01*
X94214285Y-74797619D01*
X94166666Y-74892857D01*
X94166666Y-75035714D01*
X94214285Y-75130952D01*
X94261904Y-75178571D01*
X94357142Y-75226190D01*
X94738095Y-75226190D01*
X93690476Y-75702380D02*
X93500000Y-75702380D01*
X93404761Y-75654761D01*
X93357142Y-75607142D01*
X93261904Y-75464285D01*
X93214285Y-75273809D01*
X93214285Y-74892857D01*
X93261904Y-74797619D01*
X93309523Y-74750000D01*
X93404761Y-74702380D01*
X93595238Y-74702380D01*
X93690476Y-74750000D01*
X93738095Y-74797619D01*
X93785714Y-74892857D01*
X93785714Y-75130952D01*
X93738095Y-75226190D01*
X93690476Y-75273809D01*
X93595238Y-75321428D01*
X93404761Y-75321428D01*
X93309523Y-75273809D01*
X93261904Y-75226190D01*
X93214285Y-75130952D01*
%TO.C,R10*%
X122952380Y-102357142D02*
X122476190Y-102023809D01*
X122952380Y-101785714D02*
X121952380Y-101785714D01*
X121952380Y-102166666D01*
X122000000Y-102261904D01*
X122047619Y-102309523D01*
X122142857Y-102357142D01*
X122285714Y-102357142D01*
X122380952Y-102309523D01*
X122428571Y-102261904D01*
X122476190Y-102166666D01*
X122476190Y-101785714D01*
X122952380Y-103309523D02*
X122952380Y-102738095D01*
X122952380Y-103023809D02*
X121952380Y-103023809D01*
X122095238Y-102928571D01*
X122190476Y-102833333D01*
X122238095Y-102738095D01*
X121952380Y-103928571D02*
X121952380Y-104023809D01*
X122000000Y-104119047D01*
X122047619Y-104166666D01*
X122142857Y-104214285D01*
X122333333Y-104261904D01*
X122571428Y-104261904D01*
X122761904Y-104214285D01*
X122857142Y-104166666D01*
X122904761Y-104119047D01*
X122952380Y-104023809D01*
X122952380Y-103928571D01*
X122904761Y-103833333D01*
X122857142Y-103785714D01*
X122761904Y-103738095D01*
X122571428Y-103690476D01*
X122333333Y-103690476D01*
X122142857Y-103738095D01*
X122047619Y-103785714D01*
X122000000Y-103833333D01*
X121952380Y-103928571D01*
%TO.C,R11*%
X112452380Y-102607142D02*
X111976190Y-102273809D01*
X112452380Y-102035714D02*
X111452380Y-102035714D01*
X111452380Y-102416666D01*
X111500000Y-102511904D01*
X111547619Y-102559523D01*
X111642857Y-102607142D01*
X111785714Y-102607142D01*
X111880952Y-102559523D01*
X111928571Y-102511904D01*
X111976190Y-102416666D01*
X111976190Y-102035714D01*
X112452380Y-103559523D02*
X112452380Y-102988095D01*
X112452380Y-103273809D02*
X111452380Y-103273809D01*
X111595238Y-103178571D01*
X111690476Y-103083333D01*
X111738095Y-102988095D01*
X112452380Y-104511904D02*
X112452380Y-103940476D01*
X112452380Y-104226190D02*
X111452380Y-104226190D01*
X111595238Y-104130952D01*
X111690476Y-104035714D01*
X111738095Y-103940476D01*
%TO.C,R12*%
X132142857Y-80952380D02*
X132476190Y-80476190D01*
X132714285Y-80952380D02*
X132714285Y-79952380D01*
X132333333Y-79952380D01*
X132238095Y-80000000D01*
X132190476Y-80047619D01*
X132142857Y-80142857D01*
X132142857Y-80285714D01*
X132190476Y-80380952D01*
X132238095Y-80428571D01*
X132333333Y-80476190D01*
X132714285Y-80476190D01*
X131190476Y-80952380D02*
X131761904Y-80952380D01*
X131476190Y-80952380D02*
X131476190Y-79952380D01*
X131571428Y-80095238D01*
X131666666Y-80190476D01*
X131761904Y-80238095D01*
X130809523Y-80047619D02*
X130761904Y-80000000D01*
X130666666Y-79952380D01*
X130428571Y-79952380D01*
X130333333Y-80000000D01*
X130285714Y-80047619D01*
X130238095Y-80142857D01*
X130238095Y-80238095D01*
X130285714Y-80380952D01*
X130857142Y-80952380D01*
X130238095Y-80952380D01*
%TO.C,R13*%
X123892857Y-99252380D02*
X124226190Y-98776190D01*
X124464285Y-99252380D02*
X124464285Y-98252380D01*
X124083333Y-98252380D01*
X123988095Y-98300000D01*
X123940476Y-98347619D01*
X123892857Y-98442857D01*
X123892857Y-98585714D01*
X123940476Y-98680952D01*
X123988095Y-98728571D01*
X124083333Y-98776190D01*
X124464285Y-98776190D01*
X122940476Y-99252380D02*
X123511904Y-99252380D01*
X123226190Y-99252380D02*
X123226190Y-98252380D01*
X123321428Y-98395238D01*
X123416666Y-98490476D01*
X123511904Y-98538095D01*
X122607142Y-98252380D02*
X121988095Y-98252380D01*
X122321428Y-98633333D01*
X122178571Y-98633333D01*
X122083333Y-98680952D01*
X122035714Y-98728571D01*
X121988095Y-98823809D01*
X121988095Y-99061904D01*
X122035714Y-99157142D01*
X122083333Y-99204761D01*
X122178571Y-99252380D01*
X122464285Y-99252380D01*
X122559523Y-99204761D01*
X122607142Y-99157142D01*
%TO.C,R14*%
X123042857Y-92502380D02*
X123376190Y-92026190D01*
X123614285Y-92502380D02*
X123614285Y-91502380D01*
X123233333Y-91502380D01*
X123138095Y-91550000D01*
X123090476Y-91597619D01*
X123042857Y-91692857D01*
X123042857Y-91835714D01*
X123090476Y-91930952D01*
X123138095Y-91978571D01*
X123233333Y-92026190D01*
X123614285Y-92026190D01*
X122090476Y-92502380D02*
X122661904Y-92502380D01*
X122376190Y-92502380D02*
X122376190Y-91502380D01*
X122471428Y-91645238D01*
X122566666Y-91740476D01*
X122661904Y-91788095D01*
X121233333Y-91835714D02*
X121233333Y-92502380D01*
X121471428Y-91454761D02*
X121709523Y-92169047D01*
X121090476Y-92169047D01*
%TO.C,R15*%
X115952380Y-102357142D02*
X115476190Y-102023809D01*
X115952380Y-101785714D02*
X114952380Y-101785714D01*
X114952380Y-102166666D01*
X115000000Y-102261904D01*
X115047619Y-102309523D01*
X115142857Y-102357142D01*
X115285714Y-102357142D01*
X115380952Y-102309523D01*
X115428571Y-102261904D01*
X115476190Y-102166666D01*
X115476190Y-101785714D01*
X115952380Y-103309523D02*
X115952380Y-102738095D01*
X115952380Y-103023809D02*
X114952380Y-103023809D01*
X115095238Y-102928571D01*
X115190476Y-102833333D01*
X115238095Y-102738095D01*
X114952380Y-104214285D02*
X114952380Y-103738095D01*
X115428571Y-103690476D01*
X115380952Y-103738095D01*
X115333333Y-103833333D01*
X115333333Y-104071428D01*
X115380952Y-104166666D01*
X115428571Y-104214285D01*
X115523809Y-104261904D01*
X115761904Y-104261904D01*
X115857142Y-104214285D01*
X115904761Y-104166666D01*
X115952380Y-104071428D01*
X115952380Y-103833333D01*
X115904761Y-103738095D01*
X115857142Y-103690476D01*
%TO.C,R16*%
X112552380Y-109607142D02*
X112076190Y-109273809D01*
X112552380Y-109035714D02*
X111552380Y-109035714D01*
X111552380Y-109416666D01*
X111600000Y-109511904D01*
X111647619Y-109559523D01*
X111742857Y-109607142D01*
X111885714Y-109607142D01*
X111980952Y-109559523D01*
X112028571Y-109511904D01*
X112076190Y-109416666D01*
X112076190Y-109035714D01*
X112552380Y-110559523D02*
X112552380Y-109988095D01*
X112552380Y-110273809D02*
X111552380Y-110273809D01*
X111695238Y-110178571D01*
X111790476Y-110083333D01*
X111838095Y-109988095D01*
X111552380Y-111416666D02*
X111552380Y-111226190D01*
X111600000Y-111130952D01*
X111647619Y-111083333D01*
X111790476Y-110988095D01*
X111980952Y-110940476D01*
X112361904Y-110940476D01*
X112457142Y-110988095D01*
X112504761Y-111035714D01*
X112552380Y-111130952D01*
X112552380Y-111321428D01*
X112504761Y-111416666D01*
X112457142Y-111464285D01*
X112361904Y-111511904D01*
X112123809Y-111511904D01*
X112028571Y-111464285D01*
X111980952Y-111416666D01*
X111933333Y-111321428D01*
X111933333Y-111130952D01*
X111980952Y-111035714D01*
X112028571Y-110988095D01*
X112123809Y-110940476D01*
%TO.C,R18*%
X108952380Y-102357142D02*
X108476190Y-102023809D01*
X108952380Y-101785714D02*
X107952380Y-101785714D01*
X107952380Y-102166666D01*
X108000000Y-102261904D01*
X108047619Y-102309523D01*
X108142857Y-102357142D01*
X108285714Y-102357142D01*
X108380952Y-102309523D01*
X108428571Y-102261904D01*
X108476190Y-102166666D01*
X108476190Y-101785714D01*
X108952380Y-103309523D02*
X108952380Y-102738095D01*
X108952380Y-103023809D02*
X107952380Y-103023809D01*
X108095238Y-102928571D01*
X108190476Y-102833333D01*
X108238095Y-102738095D01*
X108380952Y-103880952D02*
X108333333Y-103785714D01*
X108285714Y-103738095D01*
X108190476Y-103690476D01*
X108142857Y-103690476D01*
X108047619Y-103738095D01*
X108000000Y-103785714D01*
X107952380Y-103880952D01*
X107952380Y-104071428D01*
X108000000Y-104166666D01*
X108047619Y-104214285D01*
X108142857Y-104261904D01*
X108190476Y-104261904D01*
X108285714Y-104214285D01*
X108333333Y-104166666D01*
X108380952Y-104071428D01*
X108380952Y-103880952D01*
X108428571Y-103785714D01*
X108476190Y-103738095D01*
X108571428Y-103690476D01*
X108761904Y-103690476D01*
X108857142Y-103738095D01*
X108904761Y-103785714D01*
X108952380Y-103880952D01*
X108952380Y-104071428D01*
X108904761Y-104166666D01*
X108857142Y-104214285D01*
X108761904Y-104261904D01*
X108571428Y-104261904D01*
X108476190Y-104214285D01*
X108428571Y-104166666D01*
X108380952Y-104071428D01*
%TO.C,R19*%
X123642857Y-80952380D02*
X123976190Y-80476190D01*
X124214285Y-80952380D02*
X124214285Y-79952380D01*
X123833333Y-79952380D01*
X123738095Y-80000000D01*
X123690476Y-80047619D01*
X123642857Y-80142857D01*
X123642857Y-80285714D01*
X123690476Y-80380952D01*
X123738095Y-80428571D01*
X123833333Y-80476190D01*
X124214285Y-80476190D01*
X122690476Y-80952380D02*
X123261904Y-80952380D01*
X122976190Y-80952380D02*
X122976190Y-79952380D01*
X123071428Y-80095238D01*
X123166666Y-80190476D01*
X123261904Y-80238095D01*
X122214285Y-80952380D02*
X122023809Y-80952380D01*
X121928571Y-80904761D01*
X121880952Y-80857142D01*
X121785714Y-80714285D01*
X121738095Y-80523809D01*
X121738095Y-80142857D01*
X121785714Y-80047619D01*
X121833333Y-80000000D01*
X121928571Y-79952380D01*
X122119047Y-79952380D01*
X122214285Y-80000000D01*
X122261904Y-80047619D01*
X122309523Y-80142857D01*
X122309523Y-80380952D01*
X122261904Y-80476190D01*
X122214285Y-80523809D01*
X122119047Y-80571428D01*
X121928571Y-80571428D01*
X121833333Y-80523809D01*
X121785714Y-80476190D01*
X121738095Y-80380952D01*
%TO.C,R20*%
X111892857Y-100452380D02*
X112226190Y-99976190D01*
X112464285Y-100452380D02*
X112464285Y-99452380D01*
X112083333Y-99452380D01*
X111988095Y-99500000D01*
X111940476Y-99547619D01*
X111892857Y-99642857D01*
X111892857Y-99785714D01*
X111940476Y-99880952D01*
X111988095Y-99928571D01*
X112083333Y-99976190D01*
X112464285Y-99976190D01*
X111511904Y-99547619D02*
X111464285Y-99500000D01*
X111369047Y-99452380D01*
X111130952Y-99452380D01*
X111035714Y-99500000D01*
X110988095Y-99547619D01*
X110940476Y-99642857D01*
X110940476Y-99738095D01*
X110988095Y-99880952D01*
X111559523Y-100452380D01*
X110940476Y-100452380D01*
X110321428Y-99452380D02*
X110226190Y-99452380D01*
X110130952Y-99500000D01*
X110083333Y-99547619D01*
X110035714Y-99642857D01*
X109988095Y-99833333D01*
X109988095Y-100071428D01*
X110035714Y-100261904D01*
X110083333Y-100357142D01*
X110130952Y-100404761D01*
X110226190Y-100452380D01*
X110321428Y-100452380D01*
X110416666Y-100404761D01*
X110464285Y-100357142D01*
X110511904Y-100261904D01*
X110559523Y-100071428D01*
X110559523Y-99833333D01*
X110511904Y-99642857D01*
X110464285Y-99547619D01*
X110416666Y-99500000D01*
X110321428Y-99452380D01*
%TO.C,R21*%
X107642857Y-99202380D02*
X107976190Y-98726190D01*
X108214285Y-99202380D02*
X108214285Y-98202380D01*
X107833333Y-98202380D01*
X107738095Y-98250000D01*
X107690476Y-98297619D01*
X107642857Y-98392857D01*
X107642857Y-98535714D01*
X107690476Y-98630952D01*
X107738095Y-98678571D01*
X107833333Y-98726190D01*
X108214285Y-98726190D01*
X107261904Y-98297619D02*
X107214285Y-98250000D01*
X107119047Y-98202380D01*
X106880952Y-98202380D01*
X106785714Y-98250000D01*
X106738095Y-98297619D01*
X106690476Y-98392857D01*
X106690476Y-98488095D01*
X106738095Y-98630952D01*
X107309523Y-99202380D01*
X106690476Y-99202380D01*
X105738095Y-99202380D02*
X106309523Y-99202380D01*
X106023809Y-99202380D02*
X106023809Y-98202380D01*
X106119047Y-98345238D01*
X106214285Y-98440476D01*
X106309523Y-98488095D01*
%TO.C,R24*%
X107642857Y-95602380D02*
X107976190Y-95126190D01*
X108214285Y-95602380D02*
X108214285Y-94602380D01*
X107833333Y-94602380D01*
X107738095Y-94650000D01*
X107690476Y-94697619D01*
X107642857Y-94792857D01*
X107642857Y-94935714D01*
X107690476Y-95030952D01*
X107738095Y-95078571D01*
X107833333Y-95126190D01*
X108214285Y-95126190D01*
X107261904Y-94697619D02*
X107214285Y-94650000D01*
X107119047Y-94602380D01*
X106880952Y-94602380D01*
X106785714Y-94650000D01*
X106738095Y-94697619D01*
X106690476Y-94792857D01*
X106690476Y-94888095D01*
X106738095Y-95030952D01*
X107309523Y-95602380D01*
X106690476Y-95602380D01*
X105833333Y-94935714D02*
X105833333Y-95602380D01*
X106071428Y-94554761D02*
X106309523Y-95269047D01*
X105690476Y-95269047D01*
%TO.C,R30*%
X115452380Y-98857142D02*
X114976190Y-98523809D01*
X115452380Y-98285714D02*
X114452380Y-98285714D01*
X114452380Y-98666666D01*
X114500000Y-98761904D01*
X114547619Y-98809523D01*
X114642857Y-98857142D01*
X114785714Y-98857142D01*
X114880952Y-98809523D01*
X114928571Y-98761904D01*
X114976190Y-98666666D01*
X114976190Y-98285714D01*
X114452380Y-99190476D02*
X114452380Y-99809523D01*
X114833333Y-99476190D01*
X114833333Y-99619047D01*
X114880952Y-99714285D01*
X114928571Y-99761904D01*
X115023809Y-99809523D01*
X115261904Y-99809523D01*
X115357142Y-99761904D01*
X115404761Y-99714285D01*
X115452380Y-99619047D01*
X115452380Y-99333333D01*
X115404761Y-99238095D01*
X115357142Y-99190476D01*
X114452380Y-100428571D02*
X114452380Y-100523809D01*
X114500000Y-100619047D01*
X114547619Y-100666666D01*
X114642857Y-100714285D01*
X114833333Y-100761904D01*
X115071428Y-100761904D01*
X115261904Y-100714285D01*
X115357142Y-100666666D01*
X115404761Y-100619047D01*
X115452380Y-100523809D01*
X115452380Y-100428571D01*
X115404761Y-100333333D01*
X115357142Y-100285714D01*
X115261904Y-100238095D01*
X115071428Y-100190476D01*
X114833333Y-100190476D01*
X114642857Y-100238095D01*
X114547619Y-100285714D01*
X114500000Y-100333333D01*
X114452380Y-100428571D01*
%TO.C,R36*%
X126802380Y-66357142D02*
X126326190Y-66023809D01*
X126802380Y-65785714D02*
X125802380Y-65785714D01*
X125802380Y-66166666D01*
X125850000Y-66261904D01*
X125897619Y-66309523D01*
X125992857Y-66357142D01*
X126135714Y-66357142D01*
X126230952Y-66309523D01*
X126278571Y-66261904D01*
X126326190Y-66166666D01*
X126326190Y-65785714D01*
X125802380Y-66690476D02*
X125802380Y-67309523D01*
X126183333Y-66976190D01*
X126183333Y-67119047D01*
X126230952Y-67214285D01*
X126278571Y-67261904D01*
X126373809Y-67309523D01*
X126611904Y-67309523D01*
X126707142Y-67261904D01*
X126754761Y-67214285D01*
X126802380Y-67119047D01*
X126802380Y-66833333D01*
X126754761Y-66738095D01*
X126707142Y-66690476D01*
X125802380Y-68166666D02*
X125802380Y-67976190D01*
X125850000Y-67880952D01*
X125897619Y-67833333D01*
X126040476Y-67738095D01*
X126230952Y-67690476D01*
X126611904Y-67690476D01*
X126707142Y-67738095D01*
X126754761Y-67785714D01*
X126802380Y-67880952D01*
X126802380Y-68071428D01*
X126754761Y-68166666D01*
X126707142Y-68214285D01*
X126611904Y-68261904D01*
X126373809Y-68261904D01*
X126278571Y-68214285D01*
X126230952Y-68166666D01*
X126183333Y-68071428D01*
X126183333Y-67880952D01*
X126230952Y-67785714D01*
X126278571Y-67738095D01*
X126373809Y-67690476D01*
%TO.C,R37*%
X127392857Y-76202380D02*
X127726190Y-75726190D01*
X127964285Y-76202380D02*
X127964285Y-75202380D01*
X127583333Y-75202380D01*
X127488095Y-75250000D01*
X127440476Y-75297619D01*
X127392857Y-75392857D01*
X127392857Y-75535714D01*
X127440476Y-75630952D01*
X127488095Y-75678571D01*
X127583333Y-75726190D01*
X127964285Y-75726190D01*
X127059523Y-75202380D02*
X126440476Y-75202380D01*
X126773809Y-75583333D01*
X126630952Y-75583333D01*
X126535714Y-75630952D01*
X126488095Y-75678571D01*
X126440476Y-75773809D01*
X126440476Y-76011904D01*
X126488095Y-76107142D01*
X126535714Y-76154761D01*
X126630952Y-76202380D01*
X126916666Y-76202380D01*
X127011904Y-76154761D01*
X127059523Y-76107142D01*
X126107142Y-75202380D02*
X125440476Y-75202380D01*
X125869047Y-76202380D01*
%TO.C,R38*%
X130452380Y-66357142D02*
X129976190Y-66023809D01*
X130452380Y-65785714D02*
X129452380Y-65785714D01*
X129452380Y-66166666D01*
X129500000Y-66261904D01*
X129547619Y-66309523D01*
X129642857Y-66357142D01*
X129785714Y-66357142D01*
X129880952Y-66309523D01*
X129928571Y-66261904D01*
X129976190Y-66166666D01*
X129976190Y-65785714D01*
X129452380Y-66690476D02*
X129452380Y-67309523D01*
X129833333Y-66976190D01*
X129833333Y-67119047D01*
X129880952Y-67214285D01*
X129928571Y-67261904D01*
X130023809Y-67309523D01*
X130261904Y-67309523D01*
X130357142Y-67261904D01*
X130404761Y-67214285D01*
X130452380Y-67119047D01*
X130452380Y-66833333D01*
X130404761Y-66738095D01*
X130357142Y-66690476D01*
X129880952Y-67880952D02*
X129833333Y-67785714D01*
X129785714Y-67738095D01*
X129690476Y-67690476D01*
X129642857Y-67690476D01*
X129547619Y-67738095D01*
X129500000Y-67785714D01*
X129452380Y-67880952D01*
X129452380Y-68071428D01*
X129500000Y-68166666D01*
X129547619Y-68214285D01*
X129642857Y-68261904D01*
X129690476Y-68261904D01*
X129785714Y-68214285D01*
X129833333Y-68166666D01*
X129880952Y-68071428D01*
X129880952Y-67880952D01*
X129928571Y-67785714D01*
X129976190Y-67738095D01*
X130071428Y-67690476D01*
X130261904Y-67690476D01*
X130357142Y-67738095D01*
X130404761Y-67785714D01*
X130452380Y-67880952D01*
X130452380Y-68071428D01*
X130404761Y-68166666D01*
X130357142Y-68214285D01*
X130261904Y-68261904D01*
X130071428Y-68261904D01*
X129976190Y-68214285D01*
X129928571Y-68166666D01*
X129880952Y-68071428D01*
%TO.C,R39*%
X137892857Y-76202380D02*
X138226190Y-75726190D01*
X138464285Y-76202380D02*
X138464285Y-75202380D01*
X138083333Y-75202380D01*
X137988095Y-75250000D01*
X137940476Y-75297619D01*
X137892857Y-75392857D01*
X137892857Y-75535714D01*
X137940476Y-75630952D01*
X137988095Y-75678571D01*
X138083333Y-75726190D01*
X138464285Y-75726190D01*
X137559523Y-75202380D02*
X136940476Y-75202380D01*
X137273809Y-75583333D01*
X137130952Y-75583333D01*
X137035714Y-75630952D01*
X136988095Y-75678571D01*
X136940476Y-75773809D01*
X136940476Y-76011904D01*
X136988095Y-76107142D01*
X137035714Y-76154761D01*
X137130952Y-76202380D01*
X137416666Y-76202380D01*
X137511904Y-76154761D01*
X137559523Y-76107142D01*
X136464285Y-76202380D02*
X136273809Y-76202380D01*
X136178571Y-76154761D01*
X136130952Y-76107142D01*
X136035714Y-75964285D01*
X135988095Y-75773809D01*
X135988095Y-75392857D01*
X136035714Y-75297619D01*
X136083333Y-75250000D01*
X136178571Y-75202380D01*
X136369047Y-75202380D01*
X136464285Y-75250000D01*
X136511904Y-75297619D01*
X136559523Y-75392857D01*
X136559523Y-75630952D01*
X136511904Y-75726190D01*
X136464285Y-75773809D01*
X136369047Y-75821428D01*
X136178571Y-75821428D01*
X136083333Y-75773809D01*
X136035714Y-75726190D01*
X135988095Y-75630952D01*
%TO.C,R40*%
X139452380Y-70607142D02*
X138976190Y-70273809D01*
X139452380Y-70035714D02*
X138452380Y-70035714D01*
X138452380Y-70416666D01*
X138500000Y-70511904D01*
X138547619Y-70559523D01*
X138642857Y-70607142D01*
X138785714Y-70607142D01*
X138880952Y-70559523D01*
X138928571Y-70511904D01*
X138976190Y-70416666D01*
X138976190Y-70035714D01*
X138785714Y-71464285D02*
X139452380Y-71464285D01*
X138404761Y-71226190D02*
X139119047Y-70988095D01*
X139119047Y-71607142D01*
X138452380Y-72178571D02*
X138452380Y-72273809D01*
X138500000Y-72369047D01*
X138547619Y-72416666D01*
X138642857Y-72464285D01*
X138833333Y-72511904D01*
X139071428Y-72511904D01*
X139261904Y-72464285D01*
X139357142Y-72416666D01*
X139404761Y-72369047D01*
X139452380Y-72273809D01*
X139452380Y-72178571D01*
X139404761Y-72083333D01*
X139357142Y-72035714D01*
X139261904Y-71988095D01*
X139071428Y-71940476D01*
X138833333Y-71940476D01*
X138642857Y-71988095D01*
X138547619Y-72035714D01*
X138500000Y-72083333D01*
X138452380Y-72178571D01*
%TD*%
M02*
