M48
; DRILL file {KiCad (5.1.9-0-10_14)} date Friday, February 10, 2023 at 12:43:35 AM
; FORMAT={-:-/ absolute / metric / decimal}
; #@! TF.CreationDate,2023-02-10T00:43:35-05:00
; #@! TF.GenerationSoftware,Kicad,Pcbnew,(5.1.9-0-10_14)
FMAT,2
METRIC
T1C0.400
T2C0.760
T3C0.800
T4C1.000
T5C1.200
T6C3.200
%
G90
G05
T1
X91.75Y-65.75
X94.25Y-102.75
X94.5Y-87.5
X96.525Y-94.275
X97.562Y-81.438
X97.7Y-71.05
X97.7Y-95.55
X97.75Y-87.25
X97.75Y-90.5
X98.0Y-66.75
X98.0Y-79.25
X100.75Y-78.5
X104.25Y-106.75
X104.5Y-76.75
X105.688Y-66.062
X105.688Y-88.188
X107.0Y-83.5
X108.5Y-108.5
X109.5Y-59.5
X110.5Y-80.3
X113.25Y-104.25
X113.5Y-63.5
X113.5Y-88.0
X113.756Y-98.256
X114.75Y-80.0
X115.25Y-78.75
X115.25Y-111.0
X116.25Y-86.75
X116.25Y-89.0
X119.25Y-69.0
X120.0Y-88.25
X120.0Y-89.5
X120.75Y-60.5
X120.75Y-84.25
X121.125Y-108.125
X121.5Y-98.5
X121.5Y-102.75
X121.55Y-88.7
X121.75Y-84.0
X124.5Y-83.75
X126.05Y-88.7
X126.25Y-98.5
X126.25Y-101.75
X128.0Y-83.75
X130.55Y-88.8
X132.25Y-77.0
X132.5Y-83.75
X134.0Y-86.75
T2
X125.61Y-73.04
X126.88Y-70.5
X128.15Y-73.04
X129.42Y-70.5
X130.69Y-73.04
X131.96Y-70.5
X133.23Y-73.04
X134.5Y-70.5
T3
X134.5Y-113.0
X140.0Y-107.5
T4
X102.76Y-62.69
X102.76Y-65.23
X102.76Y-67.77
X102.76Y-70.31
X102.76Y-72.85
X102.76Y-75.39
X102.76Y-77.93
X102.76Y-80.47
X102.76Y-83.01
X102.76Y-85.55
X102.76Y-88.09
X102.76Y-90.63
X102.76Y-93.17
X102.76Y-95.71
X102.76Y-98.25
X118.0Y-62.69
X118.0Y-65.23
X118.0Y-67.77
X118.0Y-70.31
X118.0Y-72.85
X118.0Y-75.39
X118.0Y-77.93
X118.0Y-80.47
X118.0Y-83.01
X118.0Y-85.55
X118.0Y-88.09
X118.0Y-90.63
X118.0Y-93.17
X118.0Y-95.71
X118.0Y-98.25
T5
X89.75Y-60.0
X90.25Y-79.0
X90.25Y-82.5
X90.25Y-86.0
X90.25Y-89.5
X90.25Y-93.0
X90.25Y-96.5
X90.25Y-100.0
X93.25Y-60.0
X96.75Y-60.0
X127.25Y-104.0
X127.25Y-107.5
X127.25Y-111.0
X137.25Y-79.0
X137.25Y-82.5
X137.25Y-86.0
X137.25Y-89.5
X137.25Y-93.0
X137.25Y-96.5
X137.25Y-100.0
T6
X124.34Y-64.15
X135.77Y-64.15
T0
M30
