M48
; DRILL file {KiCad (5.1.9-0-10_14)} date Sunday, May 28, 2023 at 11:00:16 PM
; FORMAT={-:-/ absolute / metric / decimal}
; #@! TF.CreationDate,2023-05-28T23:00:16-04:00
; #@! TF.GenerationSoftware,Kicad,Pcbnew,(5.1.9-0-10_14)
FMAT,2
METRIC
T1C0.400
T2C0.760
T3C1.000
T4C1.200
T5C3.200
%
G90
G05
T1
X86.75Y-70.0
X92.5Y-102.0
X94.25Y-69.25
X95.5Y-121.25
X95.75Y-92.75
X96.0Y-74.75
X97.5Y-113.75
X97.75Y-88.5
X98.75Y-114.25
X100.5Y-72.5
X100.5Y-123.75
X101.95Y-102.55
X102.0Y-110.25
X102.25Y-117.5
X102.75Y-101.0
X103.5Y-117.5
X104.0Y-110.5
X104.75Y-117.5
X105.25Y-118.75
X106.0Y-117.5
X107.0Y-119.75
X107.25Y-118.5
X108.25Y-121.25
X108.5Y-119.75
X110.0Y-73.5
X110.5Y-77.75
X111.0Y-94.25
X111.438Y-85.312
X111.5Y-99.75
X111.75Y-83.0
X112.25Y-142.0
X112.25Y-145.5
X112.5Y-119.5
X114.0Y-107.25
X115.75Y-96.5
X116.0Y-71.75
X116.0Y-82.75
X116.25Y-92.25
X116.5Y-74.5
X116.75Y-78.75
X116.75Y-121.5
X116.75Y-122.75
X117.0Y-105.25
X117.0Y-110.5
X117.5Y-137.25
X117.5Y-142.25
X119.5Y-89.5
X120.0Y-111.25
X120.75Y-117.5
X122.2Y-115.0
T2
X88.86Y-83.54
X90.13Y-81.0
X91.4Y-83.54
X92.67Y-81.0
X93.94Y-83.54
X95.21Y-81.0
X96.48Y-83.54
X97.75Y-81.0
T3
X89.21Y-90.67
X89.21Y-93.21
X89.21Y-95.75
X91.75Y-90.67
X91.75Y-93.21
X91.75Y-95.75
X106.76Y-72.69
X106.76Y-75.23
X106.76Y-77.77
X106.76Y-80.31
X106.76Y-82.85
X106.76Y-85.39
X106.76Y-87.93
X106.76Y-90.47
X106.76Y-93.01
X106.76Y-95.55
X106.76Y-98.09
X106.76Y-100.63
X106.76Y-103.17
X106.76Y-105.71
X106.76Y-108.25
X122.0Y-72.69
X122.0Y-75.23
X122.0Y-77.77
X122.0Y-80.31
X122.0Y-82.85
X122.0Y-85.39
X122.0Y-87.93
X122.0Y-90.47
X122.0Y-93.01
X122.0Y-95.55
X122.0Y-98.09
X122.0Y-100.63
X122.0Y-103.17
X122.0Y-105.71
X122.0Y-108.25
T4
X89.5Y-103.75
X89.5Y-107.25
X89.5Y-110.75
X89.5Y-114.25
X89.5Y-119.75
X89.5Y-123.25
X89.5Y-126.75
X89.5Y-130.25
X89.5Y-133.75
X89.5Y-137.25
X89.5Y-140.75
X89.5Y-144.25
X121.5Y-119.75
X121.5Y-123.25
X121.5Y-126.75
X121.5Y-130.25
X121.5Y-133.75
X121.5Y-137.25
X121.5Y-140.75
X121.5Y-144.25
T5
X87.59Y-74.65
X99.02Y-74.65
T0
M30
