%TF.GenerationSoftware,KiCad,Pcbnew,(5.1.9-0-10_14)*%
%TF.CreationDate,2023-05-28T23:00:20-04:00*%
%TF.ProjectId,LiControl,4c69436f-6e74-4726-9f6c-2e6b69636164,rev?*%
%TF.SameCoordinates,Original*%
%TF.FileFunction,Legend,Bot*%
%TF.FilePolarity,Positive*%
%FSLAX46Y46*%
G04 Gerber Fmt 4.6, Leading zero omitted, Abs format (unit mm)*
G04 Created by KiCad (PCBNEW (5.1.9-0-10_14)) date 2023-05-28 23:00:20*
%MOMM*%
%LPD*%
G01*
G04 APERTURE LIST*
%ADD10C,0.150000*%
%ADD11C,0.120000*%
%ADD12C,0.010000*%
G04 APERTURE END LIST*
D10*
X111254761Y-139307738D02*
X110980952Y-140457738D01*
X110761904Y-139636309D01*
X110542857Y-140457738D01*
X110269047Y-139307738D01*
X109885714Y-140129166D02*
X109338095Y-140129166D01*
X109995238Y-140457738D02*
X109611904Y-139307738D01*
X109228571Y-140457738D01*
X108188095Y-140457738D02*
X108571428Y-139910119D01*
X108845238Y-140457738D02*
X108845238Y-139307738D01*
X108407142Y-139307738D01*
X108297619Y-139362500D01*
X108242857Y-139417261D01*
X108188095Y-139526785D01*
X108188095Y-139691071D01*
X108242857Y-139800595D01*
X108297619Y-139855357D01*
X108407142Y-139910119D01*
X108845238Y-139910119D01*
X107695238Y-140457738D02*
X107695238Y-139307738D01*
X107038095Y-140457738D01*
X107038095Y-139307738D01*
X106490476Y-140457738D02*
X106490476Y-139307738D01*
X105942857Y-140457738D02*
X105942857Y-139307738D01*
X105285714Y-140457738D01*
X105285714Y-139307738D01*
X104135714Y-139362500D02*
X104245238Y-139307738D01*
X104409523Y-139307738D01*
X104573809Y-139362500D01*
X104683333Y-139472023D01*
X104738095Y-139581547D01*
X104792857Y-139800595D01*
X104792857Y-139964880D01*
X104738095Y-140183928D01*
X104683333Y-140293452D01*
X104573809Y-140402976D01*
X104409523Y-140457738D01*
X104300000Y-140457738D01*
X104135714Y-140402976D01*
X104080952Y-140348214D01*
X104080952Y-139964880D01*
X104300000Y-139964880D01*
X103588095Y-140348214D02*
X103533333Y-140402976D01*
X103588095Y-140457738D01*
X103642857Y-140402976D01*
X103588095Y-140348214D01*
X103588095Y-140457738D01*
X103588095Y-139745833D02*
X103533333Y-139800595D01*
X103588095Y-139855357D01*
X103642857Y-139800595D01*
X103588095Y-139745833D01*
X103588095Y-139855357D01*
X102164285Y-140457738D02*
X102164285Y-139307738D01*
X102164285Y-139855357D02*
X101507142Y-139855357D01*
X101507142Y-140457738D02*
X101507142Y-139307738D01*
X100959523Y-139855357D02*
X100576190Y-139855357D01*
X100411904Y-140457738D02*
X100959523Y-140457738D01*
X100959523Y-139307738D01*
X100411904Y-139307738D01*
X99973809Y-140129166D02*
X99426190Y-140129166D01*
X100083333Y-140457738D02*
X99700000Y-139307738D01*
X99316666Y-140457738D01*
X99097619Y-139307738D02*
X98440476Y-139307738D01*
X98769047Y-140457738D02*
X98769047Y-139307738D01*
X97235714Y-140402976D02*
X97071428Y-140457738D01*
X96797619Y-140457738D01*
X96688095Y-140402976D01*
X96633333Y-140348214D01*
X96578571Y-140238690D01*
X96578571Y-140129166D01*
X96633333Y-140019642D01*
X96688095Y-139964880D01*
X96797619Y-139910119D01*
X97016666Y-139855357D01*
X97126190Y-139800595D01*
X97180952Y-139745833D01*
X97235714Y-139636309D01*
X97235714Y-139526785D01*
X97180952Y-139417261D01*
X97126190Y-139362500D01*
X97016666Y-139307738D01*
X96742857Y-139307738D01*
X96578571Y-139362500D01*
X96085714Y-140457738D02*
X96085714Y-139307738D01*
X95538095Y-140457738D02*
X95538095Y-139307738D01*
X94880952Y-140457738D01*
X94880952Y-139307738D01*
X94333333Y-140457738D02*
X94333333Y-139307738D01*
X93676190Y-140457738D02*
X94169047Y-139800595D01*
X93676190Y-139307738D02*
X94333333Y-139964880D01*
X110214285Y-142332738D02*
X110214285Y-141182738D01*
X109830952Y-142004166D01*
X109447619Y-141182738D01*
X109447619Y-142332738D01*
X108900000Y-141182738D02*
X108900000Y-142113690D01*
X108845238Y-142223214D01*
X108790476Y-142277976D01*
X108680952Y-142332738D01*
X108461904Y-142332738D01*
X108352380Y-142277976D01*
X108297619Y-142223214D01*
X108242857Y-142113690D01*
X108242857Y-141182738D01*
X107750000Y-142277976D02*
X107585714Y-142332738D01*
X107311904Y-142332738D01*
X107202380Y-142277976D01*
X107147619Y-142223214D01*
X107092857Y-142113690D01*
X107092857Y-142004166D01*
X107147619Y-141894642D01*
X107202380Y-141839880D01*
X107311904Y-141785119D01*
X107530952Y-141730357D01*
X107640476Y-141675595D01*
X107695238Y-141620833D01*
X107750000Y-141511309D01*
X107750000Y-141401785D01*
X107695238Y-141292261D01*
X107640476Y-141237500D01*
X107530952Y-141182738D01*
X107257142Y-141182738D01*
X107092857Y-141237500D01*
X106764285Y-141182738D02*
X106107142Y-141182738D01*
X106435714Y-142332738D02*
X106435714Y-141182738D01*
X104847619Y-142332738D02*
X104847619Y-141182738D01*
X104190476Y-142332738D01*
X104190476Y-141182738D01*
X103423809Y-141182738D02*
X103204761Y-141182738D01*
X103095238Y-141237500D01*
X102985714Y-141347023D01*
X102930952Y-141566071D01*
X102930952Y-141949404D01*
X102985714Y-142168452D01*
X103095238Y-142277976D01*
X103204761Y-142332738D01*
X103423809Y-142332738D01*
X103533333Y-142277976D01*
X103642857Y-142168452D01*
X103697619Y-141949404D01*
X103697619Y-141566071D01*
X103642857Y-141347023D01*
X103533333Y-141237500D01*
X103423809Y-141182738D01*
X102602380Y-141182738D02*
X101945238Y-141182738D01*
X102273809Y-142332738D02*
X102273809Y-141182738D01*
X100028571Y-142223214D02*
X100083333Y-142277976D01*
X100247619Y-142332738D01*
X100357142Y-142332738D01*
X100521428Y-142277976D01*
X100630952Y-142168452D01*
X100685714Y-142058928D01*
X100740476Y-141839880D01*
X100740476Y-141675595D01*
X100685714Y-141456547D01*
X100630952Y-141347023D01*
X100521428Y-141237500D01*
X100357142Y-141182738D01*
X100247619Y-141182738D01*
X100083333Y-141237500D01*
X100028571Y-141292261D01*
X99316666Y-141182738D02*
X99097619Y-141182738D01*
X98988095Y-141237500D01*
X98878571Y-141347023D01*
X98823809Y-141566071D01*
X98823809Y-141949404D01*
X98878571Y-142168452D01*
X98988095Y-142277976D01*
X99097619Y-142332738D01*
X99316666Y-142332738D01*
X99426190Y-142277976D01*
X99535714Y-142168452D01*
X99590476Y-141949404D01*
X99590476Y-141566071D01*
X99535714Y-141347023D01*
X99426190Y-141237500D01*
X99316666Y-141182738D01*
X98330952Y-142332738D02*
X98330952Y-141182738D01*
X97673809Y-142332738D01*
X97673809Y-141182738D01*
X97290476Y-141182738D02*
X96633333Y-141182738D01*
X96961904Y-142332738D02*
X96961904Y-141182738D01*
X96304761Y-142004166D02*
X95757142Y-142004166D01*
X96414285Y-142332738D02*
X96030952Y-141182738D01*
X95647619Y-142332738D01*
X94607142Y-142223214D02*
X94661904Y-142277976D01*
X94826190Y-142332738D01*
X94935714Y-142332738D01*
X95100000Y-142277976D01*
X95209523Y-142168452D01*
X95264285Y-142058928D01*
X95319047Y-141839880D01*
X95319047Y-141675595D01*
X95264285Y-141456547D01*
X95209523Y-141347023D01*
X95100000Y-141237500D01*
X94935714Y-141182738D01*
X94826190Y-141182738D01*
X94661904Y-141237500D01*
X94607142Y-141292261D01*
X94278571Y-141182738D02*
X93621428Y-141182738D01*
X93950000Y-142332738D02*
X93950000Y-141182738D01*
X111309523Y-144098214D02*
X111364285Y-144152976D01*
X111528571Y-144207738D01*
X111638095Y-144207738D01*
X111802380Y-144152976D01*
X111911904Y-144043452D01*
X111966666Y-143933928D01*
X112021428Y-143714880D01*
X112021428Y-143550595D01*
X111966666Y-143331547D01*
X111911904Y-143222023D01*
X111802380Y-143112500D01*
X111638095Y-143057738D01*
X111528571Y-143057738D01*
X111364285Y-143112500D01*
X111309523Y-143167261D01*
X110816666Y-144207738D02*
X110816666Y-143057738D01*
X110816666Y-143605357D02*
X110159523Y-143605357D01*
X110159523Y-144207738D02*
X110159523Y-143057738D01*
X109666666Y-143879166D02*
X109119047Y-143879166D01*
X109776190Y-144207738D02*
X109392857Y-143057738D01*
X109009523Y-144207738D01*
X108680952Y-144152976D02*
X108516666Y-144207738D01*
X108242857Y-144207738D01*
X108133333Y-144152976D01*
X108078571Y-144098214D01*
X108023809Y-143988690D01*
X108023809Y-143879166D01*
X108078571Y-143769642D01*
X108133333Y-143714880D01*
X108242857Y-143660119D01*
X108461904Y-143605357D01*
X108571428Y-143550595D01*
X108626190Y-143495833D01*
X108680952Y-143386309D01*
X108680952Y-143276785D01*
X108626190Y-143167261D01*
X108571428Y-143112500D01*
X108461904Y-143057738D01*
X108188095Y-143057738D01*
X108023809Y-143112500D01*
X107585714Y-144152976D02*
X107421428Y-144207738D01*
X107147619Y-144207738D01*
X107038095Y-144152976D01*
X106983333Y-144098214D01*
X106928571Y-143988690D01*
X106928571Y-143879166D01*
X106983333Y-143769642D01*
X107038095Y-143714880D01*
X107147619Y-143660119D01*
X107366666Y-143605357D01*
X107476190Y-143550595D01*
X107530952Y-143495833D01*
X107585714Y-143386309D01*
X107585714Y-143276785D01*
X107530952Y-143167261D01*
X107476190Y-143112500D01*
X107366666Y-143057738D01*
X107092857Y-143057738D01*
X106928571Y-143112500D01*
X106435714Y-144207738D02*
X106435714Y-143057738D01*
X105942857Y-144152976D02*
X105778571Y-144207738D01*
X105504761Y-144207738D01*
X105395238Y-144152976D01*
X105340476Y-144098214D01*
X105285714Y-143988690D01*
X105285714Y-143879166D01*
X105340476Y-143769642D01*
X105395238Y-143714880D01*
X105504761Y-143660119D01*
X105723809Y-143605357D01*
X105833333Y-143550595D01*
X105888095Y-143495833D01*
X105942857Y-143386309D01*
X105942857Y-143276785D01*
X105888095Y-143167261D01*
X105833333Y-143112500D01*
X105723809Y-143057738D01*
X105450000Y-143057738D01*
X105285714Y-143112500D01*
X104792857Y-144098214D02*
X104738095Y-144152976D01*
X104792857Y-144207738D01*
X104847619Y-144152976D01*
X104792857Y-144098214D01*
X104792857Y-144207738D01*
X104792857Y-143769642D02*
X104847619Y-143112500D01*
X104792857Y-143057738D01*
X104738095Y-143112500D01*
X104792857Y-143769642D01*
X104792857Y-143057738D01*
X102711904Y-144098214D02*
X102766666Y-144152976D01*
X102930952Y-144207738D01*
X103040476Y-144207738D01*
X103204761Y-144152976D01*
X103314285Y-144043452D01*
X103369047Y-143933928D01*
X103423809Y-143714880D01*
X103423809Y-143550595D01*
X103369047Y-143331547D01*
X103314285Y-143222023D01*
X103204761Y-143112500D01*
X103040476Y-143057738D01*
X102930952Y-143057738D01*
X102766666Y-143112500D01*
X102711904Y-143167261D01*
X102000000Y-143057738D02*
X101780952Y-143057738D01*
X101671428Y-143112500D01*
X101561904Y-143222023D01*
X101507142Y-143441071D01*
X101507142Y-143824404D01*
X101561904Y-144043452D01*
X101671428Y-144152976D01*
X101780952Y-144207738D01*
X102000000Y-144207738D01*
X102109523Y-144152976D01*
X102219047Y-144043452D01*
X102273809Y-143824404D01*
X102273809Y-143441071D01*
X102219047Y-143222023D01*
X102109523Y-143112500D01*
X102000000Y-143057738D01*
X101014285Y-144207738D02*
X101014285Y-143057738D01*
X100357142Y-144207738D01*
X100357142Y-143057738D01*
X99809523Y-144207738D02*
X99809523Y-143057738D01*
X99152380Y-144207738D01*
X99152380Y-143057738D01*
X98604761Y-143605357D02*
X98221428Y-143605357D01*
X98057142Y-144207738D02*
X98604761Y-144207738D01*
X98604761Y-143057738D01*
X98057142Y-143057738D01*
X96907142Y-144098214D02*
X96961904Y-144152976D01*
X97126190Y-144207738D01*
X97235714Y-144207738D01*
X97400000Y-144152976D01*
X97509523Y-144043452D01*
X97564285Y-143933928D01*
X97619047Y-143714880D01*
X97619047Y-143550595D01*
X97564285Y-143331547D01*
X97509523Y-143222023D01*
X97400000Y-143112500D01*
X97235714Y-143057738D01*
X97126190Y-143057738D01*
X96961904Y-143112500D01*
X96907142Y-143167261D01*
X96578571Y-143057738D02*
X95921428Y-143057738D01*
X96250000Y-144207738D02*
X96250000Y-143057738D01*
X95592857Y-144152976D02*
X95428571Y-144207738D01*
X95154761Y-144207738D01*
X95045238Y-144152976D01*
X94990476Y-144098214D01*
X94935714Y-143988690D01*
X94935714Y-143879166D01*
X94990476Y-143769642D01*
X95045238Y-143714880D01*
X95154761Y-143660119D01*
X95373809Y-143605357D01*
X95483333Y-143550595D01*
X95538095Y-143495833D01*
X95592857Y-143386309D01*
X95592857Y-143276785D01*
X95538095Y-143167261D01*
X95483333Y-143112500D01*
X95373809Y-143057738D01*
X95100000Y-143057738D01*
X94935714Y-143112500D01*
X93730952Y-143057738D02*
X93073809Y-143057738D01*
X93402380Y-144207738D02*
X93402380Y-143057738D01*
X92471428Y-143057738D02*
X92252380Y-143057738D01*
X92142857Y-143112500D01*
X92033333Y-143222023D01*
X91978571Y-143441071D01*
X91978571Y-143824404D01*
X92033333Y-144043452D01*
X92142857Y-144152976D01*
X92252380Y-144207738D01*
X92471428Y-144207738D01*
X92580952Y-144152976D01*
X92690476Y-144043452D01*
X92745238Y-143824404D01*
X92745238Y-143441071D01*
X92690476Y-143222023D01*
X92580952Y-143112500D01*
X92471428Y-143057738D01*
X111090476Y-145644642D02*
X110214285Y-145644642D01*
X110652380Y-146082738D02*
X110652380Y-145206547D01*
X109064285Y-146082738D02*
X109721428Y-146082738D01*
X109392857Y-146082738D02*
X109392857Y-144932738D01*
X109502380Y-145097023D01*
X109611904Y-145206547D01*
X109721428Y-145261309D01*
X108626190Y-145042261D02*
X108571428Y-144987500D01*
X108461904Y-144932738D01*
X108188095Y-144932738D01*
X108078571Y-144987500D01*
X108023809Y-145042261D01*
X107969047Y-145151785D01*
X107969047Y-145261309D01*
X108023809Y-145425595D01*
X108680952Y-146082738D01*
X107969047Y-146082738D01*
X107640476Y-144932738D02*
X107257142Y-146082738D01*
X106873809Y-144932738D01*
X105723809Y-144932738D02*
X105450000Y-146082738D01*
X105230952Y-145261309D01*
X105011904Y-146082738D01*
X104738095Y-144932738D01*
X104300000Y-146082738D02*
X104300000Y-144932738D01*
X104300000Y-145480357D02*
X103642857Y-145480357D01*
X103642857Y-146082738D02*
X103642857Y-144932738D01*
X103095238Y-146082738D02*
X103095238Y-144932738D01*
X102000000Y-146082738D02*
X102547619Y-146082738D01*
X102547619Y-144932738D01*
X101616666Y-145480357D02*
X101233333Y-145480357D01*
X101069047Y-146082738D02*
X101616666Y-146082738D01*
X101616666Y-144932738D01*
X101069047Y-144932738D01*
X99316666Y-145480357D02*
X99152380Y-145535119D01*
X99097619Y-145589880D01*
X99042857Y-145699404D01*
X99042857Y-145863690D01*
X99097619Y-145973214D01*
X99152380Y-146027976D01*
X99261904Y-146082738D01*
X99700000Y-146082738D01*
X99700000Y-144932738D01*
X99316666Y-144932738D01*
X99207142Y-144987500D01*
X99152380Y-145042261D01*
X99097619Y-145151785D01*
X99097619Y-145261309D01*
X99152380Y-145370833D01*
X99207142Y-145425595D01*
X99316666Y-145480357D01*
X99700000Y-145480357D01*
X97892857Y-146082738D02*
X98276190Y-145535119D01*
X98550000Y-146082738D02*
X98550000Y-144932738D01*
X98111904Y-144932738D01*
X98002380Y-144987500D01*
X97947619Y-145042261D01*
X97892857Y-145151785D01*
X97892857Y-145316071D01*
X97947619Y-145425595D01*
X98002380Y-145480357D01*
X98111904Y-145535119D01*
X98550000Y-145535119D01*
X97454761Y-145754166D02*
X96907142Y-145754166D01*
X97564285Y-146082738D02*
X97180952Y-144932738D01*
X96797619Y-146082738D01*
X96414285Y-146082738D02*
X96414285Y-144932738D01*
X95757142Y-146082738D02*
X96250000Y-145425595D01*
X95757142Y-144932738D02*
X96414285Y-145589880D01*
X95264285Y-146082738D02*
X95264285Y-144932738D01*
X94716666Y-146082738D02*
X94716666Y-144932738D01*
X94059523Y-146082738D01*
X94059523Y-144932738D01*
X92909523Y-144987500D02*
X93019047Y-144932738D01*
X93183333Y-144932738D01*
X93347619Y-144987500D01*
X93457142Y-145097023D01*
X93511904Y-145206547D01*
X93566666Y-145425595D01*
X93566666Y-145589880D01*
X93511904Y-145808928D01*
X93457142Y-145918452D01*
X93347619Y-146027976D01*
X93183333Y-146082738D01*
X93073809Y-146082738D01*
X92909523Y-146027976D01*
X92854761Y-145973214D01*
X92854761Y-145589880D01*
X93073809Y-145589880D01*
D11*
X96750000Y-120000000D02*
X97250000Y-119500000D01*
X97750000Y-119500000D02*
X96750000Y-119500000D01*
X97250000Y-119500000D02*
X97750000Y-120000000D01*
X97750000Y-120000000D02*
X96750000Y-120000000D01*
X113750000Y-142250000D02*
X113750000Y-143250000D01*
X113750000Y-143250000D02*
X113250000Y-142750000D01*
X113250000Y-142750000D02*
X113750000Y-142250000D01*
X113250000Y-142250000D02*
X113250000Y-143250000D01*
X107500000Y-136750000D02*
X106500000Y-136750000D01*
X106500000Y-136750000D02*
X107000000Y-136250000D01*
X107000000Y-136250000D02*
X107500000Y-136750000D01*
X107500000Y-136250000D02*
X106500000Y-136250000D01*
X103750000Y-119500000D02*
X104750000Y-119500000D01*
X104750000Y-119500000D02*
X104250000Y-120000000D01*
X104250000Y-120000000D02*
X103750000Y-119500000D01*
X103750000Y-120000000D02*
X104750000Y-120000000D01*
X113750000Y-145750000D02*
X113750000Y-146750000D01*
X113750000Y-146750000D02*
X113250000Y-146250000D01*
X113250000Y-146250000D02*
X113750000Y-145750000D01*
X113250000Y-145750000D02*
X113250000Y-146750000D01*
X118250000Y-137000000D02*
X119250000Y-137000000D01*
X119250000Y-137000000D02*
X118750000Y-137500000D01*
X118750000Y-137500000D02*
X118250000Y-137000000D01*
X118250000Y-137500000D02*
X119250000Y-137500000D01*
D10*
X94092976Y-91271428D02*
X94140595Y-91347619D01*
X94283452Y-91423809D01*
X94378690Y-91423809D01*
X94521547Y-91347619D01*
X94616785Y-91195238D01*
X94664404Y-91042857D01*
X94712023Y-90738095D01*
X94712023Y-90509523D01*
X94664404Y-90204761D01*
X94616785Y-90052380D01*
X94521547Y-89900000D01*
X94378690Y-89823809D01*
X94283452Y-89823809D01*
X94140595Y-89900000D01*
X94092976Y-89976190D01*
X93712023Y-91347619D02*
X93569166Y-91423809D01*
X93331071Y-91423809D01*
X93235833Y-91347619D01*
X93188214Y-91271428D01*
X93140595Y-91119047D01*
X93140595Y-90966666D01*
X93188214Y-90814285D01*
X93235833Y-90738095D01*
X93331071Y-90661904D01*
X93521547Y-90585714D01*
X93616785Y-90509523D01*
X93664404Y-90433333D01*
X93712023Y-90280952D01*
X93712023Y-90128571D01*
X93664404Y-89976190D01*
X93616785Y-89900000D01*
X93521547Y-89823809D01*
X93283452Y-89823809D01*
X93140595Y-89900000D01*
X94092976Y-93821428D02*
X94140595Y-93897619D01*
X94283452Y-93973809D01*
X94378690Y-93973809D01*
X94521547Y-93897619D01*
X94616785Y-93745238D01*
X94664404Y-93592857D01*
X94712023Y-93288095D01*
X94712023Y-93059523D01*
X94664404Y-92754761D01*
X94616785Y-92602380D01*
X94521547Y-92450000D01*
X94378690Y-92373809D01*
X94283452Y-92373809D01*
X94140595Y-92450000D01*
X94092976Y-92526190D01*
X93664404Y-93973809D02*
X93664404Y-92373809D01*
X93092976Y-93973809D02*
X93521547Y-93059523D01*
X93092976Y-92373809D02*
X93664404Y-93288095D01*
X94664404Y-96523809D02*
X94664404Y-94923809D01*
X94331071Y-96066666D01*
X93997738Y-94923809D01*
X93997738Y-96523809D01*
X93521547Y-96523809D02*
X93521547Y-94923809D01*
X87140595Y-89900000D02*
X87235833Y-89823809D01*
X87378690Y-89823809D01*
X87521547Y-89900000D01*
X87616785Y-90052380D01*
X87664404Y-90204761D01*
X87712023Y-90509523D01*
X87712023Y-90738095D01*
X87664404Y-91042857D01*
X87616785Y-91195238D01*
X87521547Y-91347619D01*
X87378690Y-91423809D01*
X87283452Y-91423809D01*
X87140595Y-91347619D01*
X87092976Y-91271428D01*
X87092976Y-90738095D01*
X87283452Y-90738095D01*
X87664404Y-93973809D02*
X87664404Y-92373809D01*
X87331071Y-93516666D01*
X86997738Y-92373809D01*
X86997738Y-93973809D01*
X86331071Y-92373809D02*
X86140595Y-92373809D01*
X86045357Y-92450000D01*
X85950119Y-92602380D01*
X85902500Y-92907142D01*
X85902500Y-93440476D01*
X85950119Y-93745238D01*
X86045357Y-93897619D01*
X86140595Y-93973809D01*
X86331071Y-93973809D01*
X86426309Y-93897619D01*
X86521547Y-93745238D01*
X86569166Y-93440476D01*
X86569166Y-92907142D01*
X86521547Y-92602380D01*
X86426309Y-92450000D01*
X86331071Y-92373809D01*
X87188214Y-94923809D02*
X87664404Y-94923809D01*
X87712023Y-95685714D01*
X87664404Y-95609523D01*
X87569166Y-95533333D01*
X87331071Y-95533333D01*
X87235833Y-95609523D01*
X87188214Y-95685714D01*
X87140595Y-95838095D01*
X87140595Y-96219047D01*
X87188214Y-96371428D01*
X87235833Y-96447619D01*
X87331071Y-96523809D01*
X87569166Y-96523809D01*
X87664404Y-96447619D01*
X87712023Y-96371428D01*
X86854880Y-94923809D02*
X86521547Y-96523809D01*
X86188214Y-94923809D01*
D11*
X115750000Y-132000000D02*
X114750000Y-133000000D01*
X115250000Y-132500000D02*
X116250000Y-132500000D01*
X115250000Y-133500000D02*
X115250000Y-132500000D01*
X116250000Y-132500000D02*
X115250000Y-133500000D01*
D10*
X125516666Y-146350000D02*
X124516666Y-146350000D01*
X124316666Y-146416666D01*
X124183333Y-146550000D01*
X124116666Y-146750000D01*
X124116666Y-146883333D01*
X124116666Y-145483333D02*
X124183333Y-145616666D01*
X124250000Y-145683333D01*
X124383333Y-145750000D01*
X124783333Y-145750000D01*
X124916666Y-145683333D01*
X124983333Y-145616666D01*
X125050000Y-145483333D01*
X125050000Y-145283333D01*
X124983333Y-145150000D01*
X124916666Y-145083333D01*
X124783333Y-145016666D01*
X124383333Y-145016666D01*
X124250000Y-145083333D01*
X124183333Y-145150000D01*
X124116666Y-145283333D01*
X124116666Y-145483333D01*
X124116666Y-144416666D02*
X125516666Y-144416666D01*
X124116666Y-143816666D02*
X124850000Y-143816666D01*
X124983333Y-143883333D01*
X125050000Y-144016666D01*
X125050000Y-144216666D01*
X124983333Y-144350000D01*
X124916666Y-144416666D01*
X125050000Y-143150000D02*
X124116666Y-143150000D01*
X124916666Y-143150000D02*
X124983333Y-143083333D01*
X125050000Y-142950000D01*
X125050000Y-142750000D01*
X124983333Y-142616666D01*
X124850000Y-142550000D01*
X124116666Y-142550000D01*
X124183333Y-140883333D02*
X124116666Y-140683333D01*
X124116666Y-140350000D01*
X124183333Y-140216666D01*
X124250000Y-140150000D01*
X124383333Y-140083333D01*
X124516666Y-140083333D01*
X124650000Y-140150000D01*
X124716666Y-140216666D01*
X124783333Y-140350000D01*
X124850000Y-140616666D01*
X124916666Y-140750000D01*
X124983333Y-140816666D01*
X125116666Y-140883333D01*
X125250000Y-140883333D01*
X125383333Y-140816666D01*
X125450000Y-140750000D01*
X125516666Y-140616666D01*
X125516666Y-140283333D01*
X125450000Y-140083333D01*
X125050000Y-138883333D02*
X124116666Y-138883333D01*
X125050000Y-139483333D02*
X124316666Y-139483333D01*
X124183333Y-139416666D01*
X124116666Y-139283333D01*
X124116666Y-139083333D01*
X124183333Y-138950000D01*
X124250000Y-138883333D01*
X124116666Y-138016666D02*
X124183333Y-138150000D01*
X124316666Y-138216666D01*
X125516666Y-138216666D01*
X124116666Y-137283333D02*
X124183333Y-137416666D01*
X124316666Y-137483333D01*
X125516666Y-137483333D01*
X124116666Y-136749999D02*
X125050000Y-136749999D01*
X125516666Y-136749999D02*
X125450000Y-136816666D01*
X125383333Y-136749999D01*
X125450000Y-136683333D01*
X125516666Y-136749999D01*
X125383333Y-136749999D01*
X125050000Y-136216666D02*
X124116666Y-135883333D01*
X125050000Y-135550000D01*
X124116666Y-134416666D02*
X124850000Y-134416666D01*
X124983333Y-134483333D01*
X125050000Y-134616666D01*
X125050000Y-134883333D01*
X124983333Y-135016666D01*
X124183333Y-134416666D02*
X124116666Y-134550000D01*
X124116666Y-134883333D01*
X124183333Y-135016666D01*
X124316666Y-135083333D01*
X124450000Y-135083333D01*
X124583333Y-135016666D01*
X124650000Y-134883333D01*
X124650000Y-134550000D01*
X124716666Y-134416666D01*
X125050000Y-133750000D02*
X124116666Y-133750000D01*
X124916666Y-133750000D02*
X124983333Y-133683333D01*
X125050000Y-133550000D01*
X125050000Y-133350000D01*
X124983333Y-133216666D01*
X124850000Y-133150000D01*
X124116666Y-133150000D01*
X123583333Y-131016666D02*
X123650000Y-131083333D01*
X123850000Y-131216666D01*
X123983333Y-131283333D01*
X124183333Y-131350000D01*
X124516666Y-131416666D01*
X124783333Y-131416666D01*
X125116666Y-131350000D01*
X125316666Y-131283333D01*
X125450000Y-131216666D01*
X125650000Y-131083333D01*
X125716666Y-131016666D01*
X124116666Y-129883333D02*
X124850000Y-129883333D01*
X124983333Y-129950000D01*
X125050000Y-130083333D01*
X125050000Y-130350000D01*
X124983333Y-130483333D01*
X124183333Y-129883333D02*
X124116666Y-130016666D01*
X124116666Y-130350000D01*
X124183333Y-130483333D01*
X124316666Y-130550000D01*
X124450000Y-130550000D01*
X124583333Y-130483333D01*
X124650000Y-130350000D01*
X124650000Y-130016666D01*
X124716666Y-129883333D01*
X124116666Y-129216666D02*
X125516666Y-129216666D01*
X124650000Y-129083333D02*
X124116666Y-128683333D01*
X125050000Y-128683333D02*
X124516666Y-129216666D01*
X124116666Y-127483333D02*
X124850000Y-127483333D01*
X124983333Y-127550000D01*
X125050000Y-127683333D01*
X125050000Y-127950000D01*
X124983333Y-128083333D01*
X124183333Y-127483333D02*
X124116666Y-127616666D01*
X124116666Y-127950000D01*
X124183333Y-128083333D01*
X124316666Y-128150000D01*
X124450000Y-128150000D01*
X124583333Y-128083333D01*
X124650000Y-127950000D01*
X124650000Y-127616666D01*
X124716666Y-127483333D01*
X125516666Y-125683333D02*
X125250000Y-125816666D01*
X124116666Y-125083333D02*
X125050000Y-125083333D01*
X124916666Y-125083333D02*
X124983333Y-125016666D01*
X125050000Y-124883333D01*
X125050000Y-124683333D01*
X124983333Y-124550000D01*
X124850000Y-124483333D01*
X124116666Y-124483333D01*
X124850000Y-124483333D02*
X124983333Y-124416666D01*
X125050000Y-124283333D01*
X125050000Y-124083333D01*
X124983333Y-123950000D01*
X124850000Y-123883333D01*
X124116666Y-123883333D01*
X125050000Y-122616666D02*
X124116666Y-122616666D01*
X125050000Y-123216666D02*
X124316666Y-123216666D01*
X124183333Y-123150000D01*
X124116666Y-123016666D01*
X124116666Y-122816666D01*
X124183333Y-122683333D01*
X124250000Y-122616666D01*
X124116666Y-121350000D02*
X125516666Y-121350000D01*
X124183333Y-121350000D02*
X124116666Y-121483333D01*
X124116666Y-121750000D01*
X124183333Y-121883333D01*
X124250000Y-121950000D01*
X124383333Y-122016666D01*
X124783333Y-122016666D01*
X124916666Y-121950000D01*
X124983333Y-121883333D01*
X125050000Y-121750000D01*
X125050000Y-121483333D01*
X124983333Y-121350000D01*
X124116666Y-120083333D02*
X125516666Y-120083333D01*
X124183333Y-120083333D02*
X124116666Y-120216666D01*
X124116666Y-120483333D01*
X124183333Y-120616666D01*
X124250000Y-120683333D01*
X124383333Y-120750000D01*
X124783333Y-120750000D01*
X124916666Y-120683333D01*
X124983333Y-120616666D01*
X125050000Y-120483333D01*
X125050000Y-120216666D01*
X124983333Y-120083333D01*
X124183333Y-118883333D02*
X124116666Y-119016666D01*
X124116666Y-119283333D01*
X124183333Y-119416666D01*
X124316666Y-119483333D01*
X124850000Y-119483333D01*
X124983333Y-119416666D01*
X125050000Y-119283333D01*
X125050000Y-119016666D01*
X124983333Y-118883333D01*
X124850000Y-118816666D01*
X124716666Y-118816666D01*
X124583333Y-119483333D01*
X124116666Y-118216666D02*
X125050000Y-118216666D01*
X124783333Y-118216666D02*
X124916666Y-118150000D01*
X124983333Y-118083333D01*
X125050000Y-117950000D01*
X125050000Y-117816666D01*
X125516666Y-117283333D02*
X125250000Y-117416666D01*
X123583333Y-116816666D02*
X123650000Y-116750000D01*
X123850000Y-116616666D01*
X123983333Y-116550000D01*
X124183333Y-116483333D01*
X124516666Y-116416666D01*
X124783333Y-116416666D01*
X125116666Y-116483333D01*
X125316666Y-116550000D01*
X125450000Y-116616666D01*
X125650000Y-116750000D01*
X125716666Y-116816666D01*
X124250000Y-115750000D02*
X124183333Y-115683333D01*
X124116666Y-115750000D01*
X124183333Y-115816666D01*
X124250000Y-115750000D01*
X124116666Y-115750000D01*
X124983333Y-115750000D02*
X124916666Y-115683333D01*
X124850000Y-115750000D01*
X124916666Y-115816666D01*
X124983333Y-115750000D01*
X124850000Y-115750000D01*
X125050000Y-113416666D02*
X123916666Y-113416666D01*
X123783333Y-113483333D01*
X123716666Y-113550000D01*
X123650000Y-113683333D01*
X123650000Y-113883333D01*
X123716666Y-114016666D01*
X124183333Y-113416666D02*
X124116666Y-113550000D01*
X124116666Y-113816666D01*
X124183333Y-113950000D01*
X124250000Y-114016666D01*
X124383333Y-114083333D01*
X124783333Y-114083333D01*
X124916666Y-114016666D01*
X124983333Y-113950000D01*
X125050000Y-113816666D01*
X125050000Y-113550000D01*
X124983333Y-113416666D01*
X124116666Y-112750000D02*
X125050000Y-112750000D01*
X125516666Y-112750000D02*
X125450000Y-112816666D01*
X125383333Y-112750000D01*
X125450000Y-112683333D01*
X125516666Y-112750000D01*
X125383333Y-112750000D01*
X125050000Y-112283333D02*
X125050000Y-111750000D01*
X125516666Y-112083333D02*
X124316666Y-112083333D01*
X124183333Y-112016666D01*
X124116666Y-111883333D01*
X124116666Y-111750000D01*
X124116666Y-111283333D02*
X125516666Y-111283333D01*
X124116666Y-110683333D02*
X124850000Y-110683333D01*
X124983333Y-110750000D01*
X125050000Y-110883333D01*
X125050000Y-111083333D01*
X124983333Y-111216666D01*
X124916666Y-111283333D01*
X125050000Y-109416666D02*
X124116666Y-109416666D01*
X125050000Y-110016666D02*
X124316666Y-110016666D01*
X124183333Y-109950000D01*
X124116666Y-109816666D01*
X124116666Y-109616666D01*
X124183333Y-109483333D01*
X124250000Y-109416666D01*
X124116666Y-108750000D02*
X125516666Y-108750000D01*
X124983333Y-108750000D02*
X125050000Y-108616666D01*
X125050000Y-108350000D01*
X124983333Y-108216666D01*
X124916666Y-108150000D01*
X124783333Y-108083333D01*
X124383333Y-108083333D01*
X124250000Y-108150000D01*
X124183333Y-108216666D01*
X124116666Y-108350000D01*
X124116666Y-108616666D01*
X124183333Y-108750000D01*
X124250000Y-107483333D02*
X124183333Y-107416666D01*
X124116666Y-107483333D01*
X124183333Y-107550000D01*
X124250000Y-107483333D01*
X124116666Y-107483333D01*
X124183333Y-106216666D02*
X124116666Y-106350000D01*
X124116666Y-106616666D01*
X124183333Y-106750000D01*
X124250000Y-106816666D01*
X124383333Y-106883333D01*
X124783333Y-106883333D01*
X124916666Y-106816666D01*
X124983333Y-106750000D01*
X125050000Y-106616666D01*
X125050000Y-106350000D01*
X124983333Y-106216666D01*
X124116666Y-105416666D02*
X124183333Y-105550000D01*
X124250000Y-105616666D01*
X124383333Y-105683333D01*
X124783333Y-105683333D01*
X124916666Y-105616666D01*
X124983333Y-105550000D01*
X125050000Y-105416666D01*
X125050000Y-105216666D01*
X124983333Y-105083333D01*
X124916666Y-105016666D01*
X124783333Y-104950000D01*
X124383333Y-104950000D01*
X124250000Y-105016666D01*
X124183333Y-105083333D01*
X124116666Y-105216666D01*
X124116666Y-105416666D01*
X124116666Y-104350000D02*
X125050000Y-104350000D01*
X124916666Y-104350000D02*
X124983333Y-104283333D01*
X125050000Y-104150000D01*
X125050000Y-103950000D01*
X124983333Y-103816666D01*
X124850000Y-103750000D01*
X124116666Y-103750000D01*
X124850000Y-103750000D02*
X124983333Y-103683333D01*
X125050000Y-103550000D01*
X125050000Y-103350000D01*
X124983333Y-103216666D01*
X124850000Y-103150000D01*
X124116666Y-103150000D01*
X125583333Y-101483333D02*
X123783333Y-102683333D01*
X124116666Y-100416666D02*
X125516666Y-100416666D01*
X124183333Y-100416666D02*
X124116666Y-100550000D01*
X124116666Y-100816666D01*
X124183333Y-100950000D01*
X124250000Y-101016666D01*
X124383333Y-101083333D01*
X124783333Y-101083333D01*
X124916666Y-101016666D01*
X124983333Y-100950000D01*
X125050000Y-100816666D01*
X125050000Y-100550000D01*
X124983333Y-100416666D01*
X124116666Y-99550000D02*
X124183333Y-99683333D01*
X124250000Y-99750000D01*
X124383333Y-99816666D01*
X124783333Y-99816666D01*
X124916666Y-99750000D01*
X124983333Y-99683333D01*
X125050000Y-99550000D01*
X125050000Y-99350000D01*
X124983333Y-99216666D01*
X124916666Y-99150000D01*
X124783333Y-99083333D01*
X124383333Y-99083333D01*
X124250000Y-99150000D01*
X124183333Y-99216666D01*
X124116666Y-99350000D01*
X124116666Y-99550000D01*
X125050000Y-98483333D02*
X123650000Y-98483333D01*
X124983333Y-98483333D02*
X125050000Y-98350000D01*
X125050000Y-98083333D01*
X124983333Y-97950000D01*
X124916666Y-97883333D01*
X124783333Y-97816666D01*
X124383333Y-97816666D01*
X124250000Y-97883333D01*
X124183333Y-97950000D01*
X124116666Y-98083333D01*
X124116666Y-98350000D01*
X124183333Y-98483333D01*
X125050000Y-97216666D02*
X123650000Y-97216666D01*
X124983333Y-97216666D02*
X125050000Y-97083333D01*
X125050000Y-96816666D01*
X124983333Y-96683333D01*
X124916666Y-96616666D01*
X124783333Y-96550000D01*
X124383333Y-96550000D01*
X124250000Y-96616666D01*
X124183333Y-96683333D01*
X124116666Y-96816666D01*
X124116666Y-97083333D01*
X124183333Y-97216666D01*
X124183333Y-95416666D02*
X124116666Y-95550000D01*
X124116666Y-95816666D01*
X124183333Y-95950000D01*
X124316666Y-96016666D01*
X124850000Y-96016666D01*
X124983333Y-95950000D01*
X125050000Y-95816666D01*
X125050000Y-95550000D01*
X124983333Y-95416666D01*
X124850000Y-95350000D01*
X124716666Y-95350000D01*
X124583333Y-96016666D01*
X124116666Y-94550000D02*
X124183333Y-94683333D01*
X124316666Y-94750000D01*
X125516666Y-94750000D01*
X124116666Y-94016666D02*
X125516666Y-94016666D01*
X124116666Y-93416666D02*
X124850000Y-93416666D01*
X124983333Y-93483333D01*
X125050000Y-93616666D01*
X125050000Y-93816666D01*
X124983333Y-93950000D01*
X124916666Y-94016666D01*
X125050000Y-92150000D02*
X124116666Y-92150000D01*
X125050000Y-92750000D02*
X124316666Y-92750000D01*
X124183333Y-92683333D01*
X124116666Y-92550000D01*
X124116666Y-92350000D01*
X124183333Y-92216666D01*
X124250000Y-92150000D01*
X124116666Y-91483333D02*
X125516666Y-91483333D01*
X124983333Y-91483333D02*
X125050000Y-91350000D01*
X125050000Y-91083333D01*
X124983333Y-90950000D01*
X124916666Y-90883333D01*
X124783333Y-90816666D01*
X124383333Y-90816666D01*
X124250000Y-90883333D01*
X124183333Y-90950000D01*
X124116666Y-91083333D01*
X124116666Y-91350000D01*
X124183333Y-91483333D01*
X125583333Y-89216666D02*
X123783333Y-90416666D01*
X124116666Y-88750000D02*
X125516666Y-88750000D01*
X124516666Y-88283333D01*
X125516666Y-87816666D01*
X124116666Y-87816666D01*
X125050000Y-86550000D02*
X124116666Y-86550000D01*
X125050000Y-87150000D02*
X124316666Y-87150000D01*
X124183333Y-87083333D01*
X124116666Y-86950000D01*
X124116666Y-86750000D01*
X124183333Y-86616666D01*
X124250000Y-86550000D01*
X124116666Y-85283333D02*
X125516666Y-85283333D01*
X124183333Y-85283333D02*
X124116666Y-85416666D01*
X124116666Y-85683333D01*
X124183333Y-85816666D01*
X124250000Y-85883333D01*
X124383333Y-85950000D01*
X124783333Y-85950000D01*
X124916666Y-85883333D01*
X124983333Y-85816666D01*
X125050000Y-85683333D01*
X125050000Y-85416666D01*
X124983333Y-85283333D01*
X124116666Y-84016666D02*
X125516666Y-84016666D01*
X124183333Y-84016666D02*
X124116666Y-84150000D01*
X124116666Y-84416666D01*
X124183333Y-84550000D01*
X124250000Y-84616666D01*
X124383333Y-84683333D01*
X124783333Y-84683333D01*
X124916666Y-84616666D01*
X124983333Y-84550000D01*
X125050000Y-84416666D01*
X125050000Y-84150000D01*
X124983333Y-84016666D01*
X124183333Y-82816666D02*
X124116666Y-82950000D01*
X124116666Y-83216666D01*
X124183333Y-83350000D01*
X124316666Y-83416666D01*
X124850000Y-83416666D01*
X124983333Y-83350000D01*
X125050000Y-83216666D01*
X125050000Y-82950000D01*
X124983333Y-82816666D01*
X124850000Y-82750000D01*
X124716666Y-82750000D01*
X124583333Y-83416666D01*
X124116666Y-82150000D02*
X125050000Y-82150000D01*
X124783333Y-82150000D02*
X124916666Y-82083333D01*
X124983333Y-82016666D01*
X125050000Y-81883333D01*
X125050000Y-81750000D01*
X124183333Y-81350000D02*
X124116666Y-81216666D01*
X124116666Y-80950000D01*
X124183333Y-80816666D01*
X124316666Y-80750000D01*
X124383333Y-80750000D01*
X124516666Y-80816666D01*
X124583333Y-80950000D01*
X124583333Y-81150000D01*
X124650000Y-81283333D01*
X124783333Y-81350000D01*
X124850000Y-81350000D01*
X124983333Y-81283333D01*
X125050000Y-81150000D01*
X125050000Y-80950000D01*
X124983333Y-80816666D01*
X124116666Y-80150000D02*
X125516666Y-80150000D01*
X124516666Y-79683333D01*
X125516666Y-79216666D01*
X124116666Y-79216666D01*
X124116666Y-78550000D02*
X125516666Y-78550000D01*
X124116666Y-77883333D02*
X125516666Y-77883333D01*
X124516666Y-77416666D01*
X125516666Y-76950000D01*
X124116666Y-76950000D01*
X124516666Y-76350000D02*
X124516666Y-75683333D01*
X124116666Y-76483333D02*
X125516666Y-76016666D01*
X124116666Y-75550000D01*
X100025000Y-72011904D02*
X100072619Y-72107142D01*
X100072619Y-72250000D01*
X100025000Y-72392857D01*
X99929761Y-72488095D01*
X99834523Y-72535714D01*
X99644047Y-72583333D01*
X99501190Y-72583333D01*
X99310714Y-72535714D01*
X99215476Y-72488095D01*
X99120238Y-72392857D01*
X99072619Y-72250000D01*
X99072619Y-72154761D01*
X99120238Y-72011904D01*
X99167857Y-71964285D01*
X99501190Y-71964285D01*
X99501190Y-72154761D01*
X99072619Y-71535714D02*
X100072619Y-71535714D01*
X99072619Y-70964285D01*
X100072619Y-70964285D01*
X99072619Y-70488095D02*
X100072619Y-70488095D01*
X100072619Y-70250000D01*
X100025000Y-70107142D01*
X99929761Y-70011904D01*
X99834523Y-69964285D01*
X99644047Y-69916666D01*
X99501190Y-69916666D01*
X99310714Y-69964285D01*
X99215476Y-70011904D01*
X99120238Y-70107142D01*
X99072619Y-70250000D01*
X99072619Y-70488095D01*
X97422619Y-72416666D02*
X98422619Y-72416666D01*
X98422619Y-72035714D01*
X98375000Y-71940476D01*
X98327380Y-71892857D01*
X98232142Y-71845238D01*
X98089285Y-71845238D01*
X97994047Y-71892857D01*
X97946428Y-71940476D01*
X97898809Y-72035714D01*
X97898809Y-72416666D01*
X98422619Y-71226190D02*
X98422619Y-71035714D01*
X98375000Y-70940476D01*
X98279761Y-70845238D01*
X98089285Y-70797619D01*
X97755952Y-70797619D01*
X97565476Y-70845238D01*
X97470238Y-70940476D01*
X97422619Y-71035714D01*
X97422619Y-71226190D01*
X97470238Y-71321428D01*
X97565476Y-71416666D01*
X97755952Y-71464285D01*
X98089285Y-71464285D01*
X98279761Y-71416666D01*
X98375000Y-71321428D01*
X98422619Y-71226190D01*
X98422619Y-70511904D02*
X98422619Y-69940476D01*
X97422619Y-70226190D02*
X98422619Y-70226190D01*
X96772619Y-71440476D02*
X96772619Y-71916666D01*
X96296428Y-71964285D01*
X96344047Y-71916666D01*
X96391666Y-71821428D01*
X96391666Y-71583333D01*
X96344047Y-71488095D01*
X96296428Y-71440476D01*
X96201190Y-71392857D01*
X95963095Y-71392857D01*
X95867857Y-71440476D01*
X95820238Y-71488095D01*
X95772619Y-71583333D01*
X95772619Y-71821428D01*
X95820238Y-71916666D01*
X95867857Y-71964285D01*
X96772619Y-71107142D02*
X95772619Y-70773809D01*
X96772619Y-70440476D01*
X95075000Y-72011904D02*
X95122619Y-72107142D01*
X95122619Y-72250000D01*
X95075000Y-72392857D01*
X94979761Y-72488095D01*
X94884523Y-72535714D01*
X94694047Y-72583333D01*
X94551190Y-72583333D01*
X94360714Y-72535714D01*
X94265476Y-72488095D01*
X94170238Y-72392857D01*
X94122619Y-72250000D01*
X94122619Y-72154761D01*
X94170238Y-72011904D01*
X94217857Y-71964285D01*
X94551190Y-71964285D01*
X94551190Y-72154761D01*
X94122619Y-71535714D02*
X95122619Y-71535714D01*
X94122619Y-70964285D01*
X95122619Y-70964285D01*
X94122619Y-70488095D02*
X95122619Y-70488095D01*
X95122619Y-70250000D01*
X95075000Y-70107142D01*
X94979761Y-70011904D01*
X94884523Y-69964285D01*
X94694047Y-69916666D01*
X94551190Y-69916666D01*
X94360714Y-69964285D01*
X94265476Y-70011904D01*
X94170238Y-70107142D01*
X94122619Y-70250000D01*
X94122619Y-70488095D01*
X92996428Y-73511904D02*
X92948809Y-73369047D01*
X92901190Y-73321428D01*
X92805952Y-73273809D01*
X92663095Y-73273809D01*
X92567857Y-73321428D01*
X92520238Y-73369047D01*
X92472619Y-73464285D01*
X92472619Y-73845238D01*
X93472619Y-73845238D01*
X93472619Y-73511904D01*
X93425000Y-73416666D01*
X93377380Y-73369047D01*
X93282142Y-73321428D01*
X93186904Y-73321428D01*
X93091666Y-73369047D01*
X93044047Y-73416666D01*
X92996428Y-73511904D01*
X92996428Y-73845238D01*
X93472619Y-72845238D02*
X92663095Y-72845238D01*
X92567857Y-72797619D01*
X92520238Y-72750000D01*
X92472619Y-72654761D01*
X92472619Y-72464285D01*
X92520238Y-72369047D01*
X92567857Y-72321428D01*
X92663095Y-72273809D01*
X93472619Y-72273809D01*
X93472619Y-71940476D02*
X93472619Y-71369047D01*
X92472619Y-71654761D02*
X93472619Y-71654761D01*
X93472619Y-71178571D02*
X93472619Y-70607142D01*
X92472619Y-70892857D02*
X93472619Y-70892857D01*
X93472619Y-70083333D02*
X93472619Y-69892857D01*
X93425000Y-69797619D01*
X93329761Y-69702380D01*
X93139285Y-69654761D01*
X92805952Y-69654761D01*
X92615476Y-69702380D01*
X92520238Y-69797619D01*
X92472619Y-69892857D01*
X92472619Y-70083333D01*
X92520238Y-70178571D01*
X92615476Y-70273809D01*
X92805952Y-70321428D01*
X93139285Y-70321428D01*
X93329761Y-70273809D01*
X93425000Y-70178571D01*
X93472619Y-70083333D01*
X92472619Y-69226190D02*
X93472619Y-69226190D01*
X92472619Y-68654761D01*
X93472619Y-68654761D01*
X90822619Y-73535714D02*
X91822619Y-73535714D01*
X91108333Y-73202380D01*
X91822619Y-72869047D01*
X90822619Y-72869047D01*
X91822619Y-72202380D02*
X91822619Y-72011904D01*
X91775000Y-71916666D01*
X91679761Y-71821428D01*
X91489285Y-71773809D01*
X91155952Y-71773809D01*
X90965476Y-71821428D01*
X90870238Y-71916666D01*
X90822619Y-72011904D01*
X90822619Y-72202380D01*
X90870238Y-72297619D01*
X90965476Y-72392857D01*
X91155952Y-72440476D01*
X91489285Y-72440476D01*
X91679761Y-72392857D01*
X91775000Y-72297619D01*
X91822619Y-72202380D01*
X90822619Y-71345238D02*
X91822619Y-71345238D01*
X91822619Y-71107142D01*
X91775000Y-70964285D01*
X91679761Y-70869047D01*
X91584523Y-70821428D01*
X91394047Y-70773809D01*
X91251190Y-70773809D01*
X91060714Y-70821428D01*
X90965476Y-70869047D01*
X90870238Y-70964285D01*
X90822619Y-71107142D01*
X90822619Y-71345238D01*
X91346428Y-70345238D02*
X91346428Y-70011904D01*
X90822619Y-69869047D02*
X90822619Y-70345238D01*
X91822619Y-70345238D01*
X91822619Y-69869047D01*
X90822619Y-68916666D02*
X90822619Y-69488095D01*
X90822619Y-69202380D02*
X91822619Y-69202380D01*
X91679761Y-69297619D01*
X91584523Y-69392857D01*
X91536904Y-69488095D01*
X89172619Y-73535714D02*
X90172619Y-73535714D01*
X89458333Y-73202380D01*
X90172619Y-72869047D01*
X89172619Y-72869047D01*
X90172619Y-72202380D02*
X90172619Y-72011904D01*
X90125000Y-71916666D01*
X90029761Y-71821428D01*
X89839285Y-71773809D01*
X89505952Y-71773809D01*
X89315476Y-71821428D01*
X89220238Y-71916666D01*
X89172619Y-72011904D01*
X89172619Y-72202380D01*
X89220238Y-72297619D01*
X89315476Y-72392857D01*
X89505952Y-72440476D01*
X89839285Y-72440476D01*
X90029761Y-72392857D01*
X90125000Y-72297619D01*
X90172619Y-72202380D01*
X89172619Y-71345238D02*
X90172619Y-71345238D01*
X90172619Y-71107142D01*
X90125000Y-70964285D01*
X90029761Y-70869047D01*
X89934523Y-70821428D01*
X89744047Y-70773809D01*
X89601190Y-70773809D01*
X89410714Y-70821428D01*
X89315476Y-70869047D01*
X89220238Y-70964285D01*
X89172619Y-71107142D01*
X89172619Y-71345238D01*
X89696428Y-70345238D02*
X89696428Y-70011904D01*
X89172619Y-69869047D02*
X89172619Y-70345238D01*
X90172619Y-70345238D01*
X90172619Y-69869047D01*
X90077380Y-69488095D02*
X90125000Y-69440476D01*
X90172619Y-69345238D01*
X90172619Y-69107142D01*
X90125000Y-69011904D01*
X90077380Y-68964285D01*
X89982142Y-68916666D01*
X89886904Y-68916666D01*
X89744047Y-68964285D01*
X89172619Y-69535714D01*
X89172619Y-68916666D01*
X88475000Y-72011904D02*
X88522619Y-72107142D01*
X88522619Y-72250000D01*
X88475000Y-72392857D01*
X88379761Y-72488095D01*
X88284523Y-72535714D01*
X88094047Y-72583333D01*
X87951190Y-72583333D01*
X87760714Y-72535714D01*
X87665476Y-72488095D01*
X87570238Y-72392857D01*
X87522619Y-72250000D01*
X87522619Y-72154761D01*
X87570238Y-72011904D01*
X87617857Y-71964285D01*
X87951190Y-71964285D01*
X87951190Y-72154761D01*
X87522619Y-71535714D02*
X88522619Y-71535714D01*
X87522619Y-70964285D01*
X88522619Y-70964285D01*
X87522619Y-70488095D02*
X88522619Y-70488095D01*
X88522619Y-70250000D01*
X88475000Y-70107142D01*
X88379761Y-70011904D01*
X88284523Y-69964285D01*
X88094047Y-69916666D01*
X87951190Y-69916666D01*
X87760714Y-69964285D01*
X87665476Y-70011904D01*
X87570238Y-70107142D01*
X87522619Y-70250000D01*
X87522619Y-70488095D01*
D12*
%TO.C,REF\u002A\u002A*%
G36*
X118669918Y-118599744D02*
G01*
X118697568Y-118655201D01*
X118748480Y-118704148D01*
X118767338Y-118717629D01*
X118792015Y-118732314D01*
X118818816Y-118741842D01*
X118854587Y-118747293D01*
X118906169Y-118749747D01*
X118974267Y-118750286D01*
X119067588Y-118747852D01*
X119137657Y-118739394D01*
X119189931Y-118723174D01*
X119229869Y-118697454D01*
X119262929Y-118660497D01*
X119264886Y-118657782D01*
X119284908Y-118621360D01*
X119294815Y-118577502D01*
X119297257Y-118521724D01*
X119297257Y-118431048D01*
X119385283Y-118431010D01*
X119434308Y-118430166D01*
X119463065Y-118425024D01*
X119480311Y-118411587D01*
X119494808Y-118385858D01*
X119497769Y-118379679D01*
X119511648Y-118350764D01*
X119520414Y-118328376D01*
X119521171Y-118311729D01*
X119511023Y-118300036D01*
X119487073Y-118292510D01*
X119446426Y-118288366D01*
X119386186Y-118286815D01*
X119303455Y-118287071D01*
X119195339Y-118288349D01*
X119163000Y-118288748D01*
X119051524Y-118290185D01*
X118978603Y-118291472D01*
X118978603Y-118430971D01*
X119040499Y-118431755D01*
X119080997Y-118435240D01*
X119107708Y-118443124D01*
X119128244Y-118457105D01*
X119138260Y-118466597D01*
X119167567Y-118505404D01*
X119169952Y-118539763D01*
X119145750Y-118575216D01*
X119144857Y-118576114D01*
X119126153Y-118590539D01*
X119100732Y-118599313D01*
X119061584Y-118603739D01*
X119001697Y-118605118D01*
X118988430Y-118605143D01*
X118905901Y-118601812D01*
X118848691Y-118590969D01*
X118813766Y-118571340D01*
X118798094Y-118541650D01*
X118796514Y-118524491D01*
X118803926Y-118483766D01*
X118828330Y-118455832D01*
X118872980Y-118439017D01*
X118941130Y-118431650D01*
X118978603Y-118430971D01*
X118978603Y-118291472D01*
X118965245Y-118291708D01*
X118900333Y-118293677D01*
X118852958Y-118296450D01*
X118819290Y-118300388D01*
X118795498Y-118305849D01*
X118777753Y-118313192D01*
X118762224Y-118322777D01*
X118756381Y-118326887D01*
X118701185Y-118381405D01*
X118669890Y-118450336D01*
X118661165Y-118530072D01*
X118669918Y-118599744D01*
G37*
X118669918Y-118599744D02*
X118697568Y-118655201D01*
X118748480Y-118704148D01*
X118767338Y-118717629D01*
X118792015Y-118732314D01*
X118818816Y-118741842D01*
X118854587Y-118747293D01*
X118906169Y-118749747D01*
X118974267Y-118750286D01*
X119067588Y-118747852D01*
X119137657Y-118739394D01*
X119189931Y-118723174D01*
X119229869Y-118697454D01*
X119262929Y-118660497D01*
X119264886Y-118657782D01*
X119284908Y-118621360D01*
X119294815Y-118577502D01*
X119297257Y-118521724D01*
X119297257Y-118431048D01*
X119385283Y-118431010D01*
X119434308Y-118430166D01*
X119463065Y-118425024D01*
X119480311Y-118411587D01*
X119494808Y-118385858D01*
X119497769Y-118379679D01*
X119511648Y-118350764D01*
X119520414Y-118328376D01*
X119521171Y-118311729D01*
X119511023Y-118300036D01*
X119487073Y-118292510D01*
X119446426Y-118288366D01*
X119386186Y-118286815D01*
X119303455Y-118287071D01*
X119195339Y-118288349D01*
X119163000Y-118288748D01*
X119051524Y-118290185D01*
X118978603Y-118291472D01*
X118978603Y-118430971D01*
X119040499Y-118431755D01*
X119080997Y-118435240D01*
X119107708Y-118443124D01*
X119128244Y-118457105D01*
X119138260Y-118466597D01*
X119167567Y-118505404D01*
X119169952Y-118539763D01*
X119145750Y-118575216D01*
X119144857Y-118576114D01*
X119126153Y-118590539D01*
X119100732Y-118599313D01*
X119061584Y-118603739D01*
X119001697Y-118605118D01*
X118988430Y-118605143D01*
X118905901Y-118601812D01*
X118848691Y-118590969D01*
X118813766Y-118571340D01*
X118798094Y-118541650D01*
X118796514Y-118524491D01*
X118803926Y-118483766D01*
X118828330Y-118455832D01*
X118872980Y-118439017D01*
X118941130Y-118431650D01*
X118978603Y-118430971D01*
X118978603Y-118291472D01*
X118965245Y-118291708D01*
X118900333Y-118293677D01*
X118852958Y-118296450D01*
X118819290Y-118300388D01*
X118795498Y-118305849D01*
X118777753Y-118313192D01*
X118762224Y-118322777D01*
X118756381Y-118326887D01*
X118701185Y-118381405D01*
X118669890Y-118450336D01*
X118661165Y-118530072D01*
X118669918Y-118599744D01*
G36*
X118677780Y-119716093D02*
G01*
X118704723Y-119762672D01*
X118731466Y-119795057D01*
X118759484Y-119818742D01*
X118793748Y-119835059D01*
X118839227Y-119845339D01*
X118900892Y-119850914D01*
X118983711Y-119853116D01*
X119043246Y-119853371D01*
X119262391Y-119853371D01*
X119290044Y-119791686D01*
X119317697Y-119730000D01*
X119077670Y-119722743D01*
X118988028Y-119719744D01*
X118922962Y-119716598D01*
X118878026Y-119712701D01*
X118848770Y-119707447D01*
X118830748Y-119700231D01*
X118819511Y-119690450D01*
X118817079Y-119687312D01*
X118798083Y-119639761D01*
X118805600Y-119591697D01*
X118825543Y-119563086D01*
X118839675Y-119551447D01*
X118858220Y-119543391D01*
X118886334Y-119538271D01*
X118929173Y-119535441D01*
X118991895Y-119534256D01*
X119057261Y-119534057D01*
X119139268Y-119534018D01*
X119197316Y-119532614D01*
X119236465Y-119527914D01*
X119261780Y-119517987D01*
X119278323Y-119500903D01*
X119291156Y-119474732D01*
X119304491Y-119439775D01*
X119319007Y-119401596D01*
X119061389Y-119406141D01*
X118968519Y-119407971D01*
X118899889Y-119410112D01*
X118850711Y-119413181D01*
X118816198Y-119417794D01*
X118791562Y-119424568D01*
X118772016Y-119434119D01*
X118754770Y-119445634D01*
X118699680Y-119501190D01*
X118667822Y-119568980D01*
X118660191Y-119642713D01*
X118677780Y-119716093D01*
G37*
X118677780Y-119716093D02*
X118704723Y-119762672D01*
X118731466Y-119795057D01*
X118759484Y-119818742D01*
X118793748Y-119835059D01*
X118839227Y-119845339D01*
X118900892Y-119850914D01*
X118983711Y-119853116D01*
X119043246Y-119853371D01*
X119262391Y-119853371D01*
X119290044Y-119791686D01*
X119317697Y-119730000D01*
X119077670Y-119722743D01*
X118988028Y-119719744D01*
X118922962Y-119716598D01*
X118878026Y-119712701D01*
X118848770Y-119707447D01*
X118830748Y-119700231D01*
X118819511Y-119690450D01*
X118817079Y-119687312D01*
X118798083Y-119639761D01*
X118805600Y-119591697D01*
X118825543Y-119563086D01*
X118839675Y-119551447D01*
X118858220Y-119543391D01*
X118886334Y-119538271D01*
X118929173Y-119535441D01*
X118991895Y-119534256D01*
X119057261Y-119534057D01*
X119139268Y-119534018D01*
X119197316Y-119532614D01*
X119236465Y-119527914D01*
X119261780Y-119517987D01*
X119278323Y-119500903D01*
X119291156Y-119474732D01*
X119304491Y-119439775D01*
X119319007Y-119401596D01*
X119061389Y-119406141D01*
X118968519Y-119407971D01*
X118899889Y-119410112D01*
X118850711Y-119413181D01*
X118816198Y-119417794D01*
X118791562Y-119424568D01*
X118772016Y-119434119D01*
X118754770Y-119445634D01*
X118699680Y-119501190D01*
X118667822Y-119568980D01*
X118660191Y-119642713D01*
X118677780Y-119716093D01*
G36*
X118671962Y-118041115D02*
G01*
X118707733Y-118109145D01*
X118765301Y-118159351D01*
X118802312Y-118177185D01*
X118857882Y-118191063D01*
X118928096Y-118198167D01*
X119004727Y-118198840D01*
X119079552Y-118193427D01*
X119144342Y-118182270D01*
X119190873Y-118165714D01*
X119198887Y-118160626D01*
X119258707Y-118100355D01*
X119294535Y-118028769D01*
X119305020Y-117951092D01*
X119288810Y-117872548D01*
X119279092Y-117850689D01*
X119249143Y-117808122D01*
X119209433Y-117770763D01*
X119204397Y-117767232D01*
X119180124Y-117752881D01*
X119154178Y-117743394D01*
X119120022Y-117737790D01*
X119071119Y-117735086D01*
X119000935Y-117734299D01*
X118985200Y-117734286D01*
X118980192Y-117734322D01*
X118980192Y-117879429D01*
X119046430Y-117880273D01*
X119090386Y-117883596D01*
X119118779Y-117890583D01*
X119138325Y-117902416D01*
X119144857Y-117908457D01*
X119169680Y-117943186D01*
X119168548Y-117976903D01*
X119147016Y-118010995D01*
X119124029Y-118031329D01*
X119090478Y-118043371D01*
X119037569Y-118050134D01*
X119031399Y-118050598D01*
X118935513Y-118051752D01*
X118864299Y-118039688D01*
X118818194Y-118014570D01*
X118797635Y-117976560D01*
X118796514Y-117962992D01*
X118802152Y-117927364D01*
X118821686Y-117902994D01*
X118859042Y-117888093D01*
X118918150Y-117880875D01*
X118980192Y-117879429D01*
X118980192Y-117734322D01*
X118910413Y-117734826D01*
X118858159Y-117737096D01*
X118821949Y-117742068D01*
X118795299Y-117750713D01*
X118771722Y-117764005D01*
X118767338Y-117766943D01*
X118708249Y-117816313D01*
X118673947Y-117870109D01*
X118660331Y-117935602D01*
X118659665Y-117957842D01*
X118671962Y-118041115D01*
G37*
X118671962Y-118041115D02*
X118707733Y-118109145D01*
X118765301Y-118159351D01*
X118802312Y-118177185D01*
X118857882Y-118191063D01*
X118928096Y-118198167D01*
X119004727Y-118198840D01*
X119079552Y-118193427D01*
X119144342Y-118182270D01*
X119190873Y-118165714D01*
X119198887Y-118160626D01*
X119258707Y-118100355D01*
X119294535Y-118028769D01*
X119305020Y-117951092D01*
X119288810Y-117872548D01*
X119279092Y-117850689D01*
X119249143Y-117808122D01*
X119209433Y-117770763D01*
X119204397Y-117767232D01*
X119180124Y-117752881D01*
X119154178Y-117743394D01*
X119120022Y-117737790D01*
X119071119Y-117735086D01*
X119000935Y-117734299D01*
X118985200Y-117734286D01*
X118980192Y-117734322D01*
X118980192Y-117879429D01*
X119046430Y-117880273D01*
X119090386Y-117883596D01*
X119118779Y-117890583D01*
X119138325Y-117902416D01*
X119144857Y-117908457D01*
X119169680Y-117943186D01*
X119168548Y-117976903D01*
X119147016Y-118010995D01*
X119124029Y-118031329D01*
X119090478Y-118043371D01*
X119037569Y-118050134D01*
X119031399Y-118050598D01*
X118935513Y-118051752D01*
X118864299Y-118039688D01*
X118818194Y-118014570D01*
X118797635Y-117976560D01*
X118796514Y-117962992D01*
X118802152Y-117927364D01*
X118821686Y-117902994D01*
X118859042Y-117888093D01*
X118918150Y-117880875D01*
X118980192Y-117879429D01*
X118980192Y-117734322D01*
X118910413Y-117734826D01*
X118858159Y-117737096D01*
X118821949Y-117742068D01*
X118795299Y-117750713D01*
X118771722Y-117764005D01*
X118767338Y-117766943D01*
X118708249Y-117816313D01*
X118673947Y-117870109D01*
X118660331Y-117935602D01*
X118659665Y-117957842D01*
X118671962Y-118041115D01*
G36*
X118681239Y-119168303D02*
G01*
X118719735Y-119225527D01*
X118775335Y-119269749D01*
X118846086Y-119296167D01*
X118898162Y-119301510D01*
X118919893Y-119300903D01*
X118936531Y-119295822D01*
X118951437Y-119281855D01*
X118967973Y-119254589D01*
X118989498Y-119209612D01*
X119019374Y-119142511D01*
X119019524Y-119142171D01*
X119047813Y-119080407D01*
X119072933Y-119029759D01*
X119092179Y-118995404D01*
X119102848Y-118982518D01*
X119102934Y-118982514D01*
X119126166Y-118993872D01*
X119151774Y-119020431D01*
X119170221Y-119050923D01*
X119173886Y-119066370D01*
X119161212Y-119108515D01*
X119129471Y-119144808D01*
X119094572Y-119162517D01*
X119068845Y-119179552D01*
X119039546Y-119212922D01*
X119014235Y-119252149D01*
X119000471Y-119286756D01*
X118999714Y-119293993D01*
X119012160Y-119302139D01*
X119043972Y-119302630D01*
X119086866Y-119296643D01*
X119132558Y-119285357D01*
X119172761Y-119269950D01*
X119174322Y-119269171D01*
X119239062Y-119222804D01*
X119283097Y-119162711D01*
X119304711Y-119094465D01*
X119302185Y-119023638D01*
X119273804Y-118955804D01*
X119271808Y-118952788D01*
X119223448Y-118899427D01*
X119160352Y-118864340D01*
X119077387Y-118844922D01*
X119054078Y-118842316D01*
X118944055Y-118837701D01*
X118892748Y-118843233D01*
X118892748Y-118982514D01*
X118924753Y-118984324D01*
X118934093Y-118994222D01*
X118927105Y-119018898D01*
X118910587Y-119057795D01*
X118889881Y-119101275D01*
X118889333Y-119102356D01*
X118869949Y-119139209D01*
X118857013Y-119154000D01*
X118843451Y-119150353D01*
X118825632Y-119134995D01*
X118799845Y-119095923D01*
X118797950Y-119053846D01*
X118816717Y-119016103D01*
X118852915Y-118990034D01*
X118892748Y-118982514D01*
X118892748Y-118843233D01*
X118856027Y-118847194D01*
X118786212Y-118871550D01*
X118737302Y-118905456D01*
X118687878Y-118966653D01*
X118663359Y-119034063D01*
X118661797Y-119102880D01*
X118681239Y-119168303D01*
G37*
X118681239Y-119168303D02*
X118719735Y-119225527D01*
X118775335Y-119269749D01*
X118846086Y-119296167D01*
X118898162Y-119301510D01*
X118919893Y-119300903D01*
X118936531Y-119295822D01*
X118951437Y-119281855D01*
X118967973Y-119254589D01*
X118989498Y-119209612D01*
X119019374Y-119142511D01*
X119019524Y-119142171D01*
X119047813Y-119080407D01*
X119072933Y-119029759D01*
X119092179Y-118995404D01*
X119102848Y-118982518D01*
X119102934Y-118982514D01*
X119126166Y-118993872D01*
X119151774Y-119020431D01*
X119170221Y-119050923D01*
X119173886Y-119066370D01*
X119161212Y-119108515D01*
X119129471Y-119144808D01*
X119094572Y-119162517D01*
X119068845Y-119179552D01*
X119039546Y-119212922D01*
X119014235Y-119252149D01*
X119000471Y-119286756D01*
X118999714Y-119293993D01*
X119012160Y-119302139D01*
X119043972Y-119302630D01*
X119086866Y-119296643D01*
X119132558Y-119285357D01*
X119172761Y-119269950D01*
X119174322Y-119269171D01*
X119239062Y-119222804D01*
X119283097Y-119162711D01*
X119304711Y-119094465D01*
X119302185Y-119023638D01*
X119273804Y-118955804D01*
X119271808Y-118952788D01*
X119223448Y-118899427D01*
X119160352Y-118864340D01*
X119077387Y-118844922D01*
X119054078Y-118842316D01*
X118944055Y-118837701D01*
X118892748Y-118843233D01*
X118892748Y-118982514D01*
X118924753Y-118984324D01*
X118934093Y-118994222D01*
X118927105Y-119018898D01*
X118910587Y-119057795D01*
X118889881Y-119101275D01*
X118889333Y-119102356D01*
X118869949Y-119139209D01*
X118857013Y-119154000D01*
X118843451Y-119150353D01*
X118825632Y-119134995D01*
X118799845Y-119095923D01*
X118797950Y-119053846D01*
X118816717Y-119016103D01*
X118852915Y-118990034D01*
X118892748Y-118982514D01*
X118892748Y-118843233D01*
X118856027Y-118847194D01*
X118786212Y-118871550D01*
X118737302Y-118905456D01*
X118687878Y-118966653D01*
X118663359Y-119034063D01*
X118661797Y-119102880D01*
X118681239Y-119168303D01*
G36*
X118601289Y-120375886D02*
G01*
X118660613Y-120380139D01*
X118695572Y-120385025D01*
X118710820Y-120391795D01*
X118711015Y-120401702D01*
X118709195Y-120404914D01*
X118696015Y-120447644D01*
X118696785Y-120503227D01*
X118710333Y-120559737D01*
X118727861Y-120595082D01*
X118755861Y-120631321D01*
X118787549Y-120657813D01*
X118827813Y-120675999D01*
X118881543Y-120687322D01*
X118953626Y-120693222D01*
X119048951Y-120695143D01*
X119067237Y-120695177D01*
X119272646Y-120695200D01*
X119288580Y-120649491D01*
X119299420Y-120617027D01*
X119304468Y-120599215D01*
X119304514Y-120598691D01*
X119290828Y-120596937D01*
X119253076Y-120595444D01*
X119196224Y-120594326D01*
X119125234Y-120593697D01*
X119082073Y-120593600D01*
X118996973Y-120593398D01*
X118935981Y-120592358D01*
X118894177Y-120589831D01*
X118866642Y-120585164D01*
X118848456Y-120577707D01*
X118834698Y-120566811D01*
X118828073Y-120560007D01*
X118801375Y-120513272D01*
X118799375Y-120462272D01*
X118821955Y-120416001D01*
X118830107Y-120407444D01*
X118845436Y-120394893D01*
X118863618Y-120386188D01*
X118889909Y-120380631D01*
X118929562Y-120377526D01*
X118987832Y-120376176D01*
X119068173Y-120375886D01*
X119272646Y-120375886D01*
X119288580Y-120330177D01*
X119299420Y-120297713D01*
X119304468Y-120279901D01*
X119304514Y-120279377D01*
X119290623Y-120278037D01*
X119251439Y-120276828D01*
X119190700Y-120275801D01*
X119112141Y-120275002D01*
X119019498Y-120274481D01*
X118916509Y-120274286D01*
X118519342Y-120274286D01*
X118499444Y-120321457D01*
X118479547Y-120368629D01*
X118601289Y-120375886D01*
G37*
X118601289Y-120375886D02*
X118660613Y-120380139D01*
X118695572Y-120385025D01*
X118710820Y-120391795D01*
X118711015Y-120401702D01*
X118709195Y-120404914D01*
X118696015Y-120447644D01*
X118696785Y-120503227D01*
X118710333Y-120559737D01*
X118727861Y-120595082D01*
X118755861Y-120631321D01*
X118787549Y-120657813D01*
X118827813Y-120675999D01*
X118881543Y-120687322D01*
X118953626Y-120693222D01*
X119048951Y-120695143D01*
X119067237Y-120695177D01*
X119272646Y-120695200D01*
X119288580Y-120649491D01*
X119299420Y-120617027D01*
X119304468Y-120599215D01*
X119304514Y-120598691D01*
X119290828Y-120596937D01*
X119253076Y-120595444D01*
X119196224Y-120594326D01*
X119125234Y-120593697D01*
X119082073Y-120593600D01*
X118996973Y-120593398D01*
X118935981Y-120592358D01*
X118894177Y-120589831D01*
X118866642Y-120585164D01*
X118848456Y-120577707D01*
X118834698Y-120566811D01*
X118828073Y-120560007D01*
X118801375Y-120513272D01*
X118799375Y-120462272D01*
X118821955Y-120416001D01*
X118830107Y-120407444D01*
X118845436Y-120394893D01*
X118863618Y-120386188D01*
X118889909Y-120380631D01*
X118929562Y-120377526D01*
X118987832Y-120376176D01*
X119068173Y-120375886D01*
X119272646Y-120375886D01*
X119288580Y-120330177D01*
X119299420Y-120297713D01*
X119304468Y-120279901D01*
X119304514Y-120279377D01*
X119290623Y-120278037D01*
X119251439Y-120276828D01*
X119190700Y-120275801D01*
X119112141Y-120275002D01*
X119019498Y-120274481D01*
X118916509Y-120274286D01*
X118519342Y-120274286D01*
X118499444Y-120321457D01*
X118479547Y-120368629D01*
X118601289Y-120375886D01*
G36*
X118700968Y-121039744D02*
G01*
X118722087Y-121096616D01*
X118722493Y-121097267D01*
X118748380Y-121132440D01*
X118778633Y-121158407D01*
X118818058Y-121176670D01*
X118871462Y-121188732D01*
X118943651Y-121196096D01*
X119039432Y-121200264D01*
X119053078Y-121200629D01*
X119258842Y-121205876D01*
X119281678Y-121161716D01*
X119297110Y-121129763D01*
X119304423Y-121110470D01*
X119304514Y-121109578D01*
X119291022Y-121106239D01*
X119254626Y-121103587D01*
X119201452Y-121101956D01*
X119158393Y-121101600D01*
X119088641Y-121101592D01*
X119044837Y-121098403D01*
X119023944Y-121087288D01*
X119022925Y-121063501D01*
X119038741Y-121022296D01*
X119067815Y-120960086D01*
X119091963Y-120914341D01*
X119112913Y-120890813D01*
X119135747Y-120883896D01*
X119136877Y-120883886D01*
X119176212Y-120895299D01*
X119197462Y-120929092D01*
X119200539Y-120980809D01*
X119200006Y-121018061D01*
X119210735Y-121037703D01*
X119236505Y-121049952D01*
X119269337Y-121057002D01*
X119287966Y-121046842D01*
X119290632Y-121043017D01*
X119301340Y-121007001D01*
X119302856Y-120956566D01*
X119295759Y-120904626D01*
X119282788Y-120867822D01*
X119239585Y-120816938D01*
X119179446Y-120788014D01*
X119132462Y-120782286D01*
X119090082Y-120786657D01*
X119055488Y-120802475D01*
X119024763Y-120833797D01*
X118993990Y-120884678D01*
X118959252Y-120959176D01*
X118957288Y-120963714D01*
X118926287Y-121030821D01*
X118900862Y-121072232D01*
X118878014Y-121089981D01*
X118854745Y-121086107D01*
X118828056Y-121062643D01*
X118821914Y-121055627D01*
X118798100Y-121008630D01*
X118799103Y-120959933D01*
X118822451Y-120917522D01*
X118865675Y-120889384D01*
X118874160Y-120886769D01*
X118915308Y-120861308D01*
X118935128Y-120829001D01*
X118954770Y-120782286D01*
X118903950Y-120782286D01*
X118830082Y-120796496D01*
X118762327Y-120838675D01*
X118739661Y-120860624D01*
X118710569Y-120910517D01*
X118697400Y-120973967D01*
X118700968Y-121039744D01*
G37*
X118700968Y-121039744D02*
X118722087Y-121096616D01*
X118722493Y-121097267D01*
X118748380Y-121132440D01*
X118778633Y-121158407D01*
X118818058Y-121176670D01*
X118871462Y-121188732D01*
X118943651Y-121196096D01*
X119039432Y-121200264D01*
X119053078Y-121200629D01*
X119258842Y-121205876D01*
X119281678Y-121161716D01*
X119297110Y-121129763D01*
X119304423Y-121110470D01*
X119304514Y-121109578D01*
X119291022Y-121106239D01*
X119254626Y-121103587D01*
X119201452Y-121101956D01*
X119158393Y-121101600D01*
X119088641Y-121101592D01*
X119044837Y-121098403D01*
X119023944Y-121087288D01*
X119022925Y-121063501D01*
X119038741Y-121022296D01*
X119067815Y-120960086D01*
X119091963Y-120914341D01*
X119112913Y-120890813D01*
X119135747Y-120883896D01*
X119136877Y-120883886D01*
X119176212Y-120895299D01*
X119197462Y-120929092D01*
X119200539Y-120980809D01*
X119200006Y-121018061D01*
X119210735Y-121037703D01*
X119236505Y-121049952D01*
X119269337Y-121057002D01*
X119287966Y-121046842D01*
X119290632Y-121043017D01*
X119301340Y-121007001D01*
X119302856Y-120956566D01*
X119295759Y-120904626D01*
X119282788Y-120867822D01*
X119239585Y-120816938D01*
X119179446Y-120788014D01*
X119132462Y-120782286D01*
X119090082Y-120786657D01*
X119055488Y-120802475D01*
X119024763Y-120833797D01*
X118993990Y-120884678D01*
X118959252Y-120959176D01*
X118957288Y-120963714D01*
X118926287Y-121030821D01*
X118900862Y-121072232D01*
X118878014Y-121089981D01*
X118854745Y-121086107D01*
X118828056Y-121062643D01*
X118821914Y-121055627D01*
X118798100Y-121008630D01*
X118799103Y-120959933D01*
X118822451Y-120917522D01*
X118865675Y-120889384D01*
X118874160Y-120886769D01*
X118915308Y-120861308D01*
X118935128Y-120829001D01*
X118954770Y-120782286D01*
X118903950Y-120782286D01*
X118830082Y-120796496D01*
X118762327Y-120838675D01*
X118739661Y-120860624D01*
X118710569Y-120910517D01*
X118697400Y-120973967D01*
X118700968Y-121039744D01*
G36*
X118699755Y-121529926D02*
G01*
X118724084Y-121595858D01*
X118767117Y-121649273D01*
X118797409Y-121670164D01*
X118852994Y-121692939D01*
X118893186Y-121692466D01*
X118920217Y-121668562D01*
X118924813Y-121659717D01*
X118939144Y-121621530D01*
X118935472Y-121602028D01*
X118911407Y-121595422D01*
X118898114Y-121595086D01*
X118849210Y-121582992D01*
X118814999Y-121551471D01*
X118798476Y-121507659D01*
X118802634Y-121458695D01*
X118824227Y-121418894D01*
X118836544Y-121405450D01*
X118851487Y-121395921D01*
X118874075Y-121389485D01*
X118909328Y-121385317D01*
X118962266Y-121382597D01*
X119037907Y-121380502D01*
X119061857Y-121379960D01*
X119143790Y-121377981D01*
X119201455Y-121375731D01*
X119239608Y-121372357D01*
X119263004Y-121367006D01*
X119276398Y-121358824D01*
X119284545Y-121346959D01*
X119288144Y-121339362D01*
X119300452Y-121307102D01*
X119304514Y-121288111D01*
X119290948Y-121281836D01*
X119249934Y-121278006D01*
X119180999Y-121276600D01*
X119083669Y-121277598D01*
X119068657Y-121277908D01*
X118979859Y-121280101D01*
X118915019Y-121282693D01*
X118869067Y-121286382D01*
X118836935Y-121291864D01*
X118813553Y-121299835D01*
X118793852Y-121310993D01*
X118785410Y-121316830D01*
X118748057Y-121350296D01*
X118719003Y-121387727D01*
X118716467Y-121392309D01*
X118696443Y-121459426D01*
X118699755Y-121529926D01*
G37*
X118699755Y-121529926D02*
X118724084Y-121595858D01*
X118767117Y-121649273D01*
X118797409Y-121670164D01*
X118852994Y-121692939D01*
X118893186Y-121692466D01*
X118920217Y-121668562D01*
X118924813Y-121659717D01*
X118939144Y-121621530D01*
X118935472Y-121602028D01*
X118911407Y-121595422D01*
X118898114Y-121595086D01*
X118849210Y-121582992D01*
X118814999Y-121551471D01*
X118798476Y-121507659D01*
X118802634Y-121458695D01*
X118824227Y-121418894D01*
X118836544Y-121405450D01*
X118851487Y-121395921D01*
X118874075Y-121389485D01*
X118909328Y-121385317D01*
X118962266Y-121382597D01*
X119037907Y-121380502D01*
X119061857Y-121379960D01*
X119143790Y-121377981D01*
X119201455Y-121375731D01*
X119239608Y-121372357D01*
X119263004Y-121367006D01*
X119276398Y-121358824D01*
X119284545Y-121346959D01*
X119288144Y-121339362D01*
X119300452Y-121307102D01*
X119304514Y-121288111D01*
X119290948Y-121281836D01*
X119249934Y-121278006D01*
X119180999Y-121276600D01*
X119083669Y-121277598D01*
X119068657Y-121277908D01*
X118979859Y-121280101D01*
X118915019Y-121282693D01*
X118869067Y-121286382D01*
X118836935Y-121291864D01*
X118813553Y-121299835D01*
X118793852Y-121310993D01*
X118785410Y-121316830D01*
X118748057Y-121350296D01*
X118719003Y-121387727D01*
X118716467Y-121392309D01*
X118696443Y-121459426D01*
X118699755Y-121529926D01*
G36*
X118815358Y-122190117D02*
G01*
X118923837Y-122189933D01*
X119007287Y-122189219D01*
X119069704Y-122187675D01*
X119115085Y-122185001D01*
X119147429Y-122180894D01*
X119170733Y-122175055D01*
X119188995Y-122167182D01*
X119199418Y-122161221D01*
X119255945Y-122111855D01*
X119291377Y-122049264D01*
X119304090Y-121980013D01*
X119292463Y-121910668D01*
X119271568Y-121869375D01*
X119235422Y-121826025D01*
X119191276Y-121796481D01*
X119133462Y-121778655D01*
X119056313Y-121770463D01*
X118999714Y-121769302D01*
X118995647Y-121769458D01*
X118995647Y-121870857D01*
X119060550Y-121871476D01*
X119103514Y-121874314D01*
X119131622Y-121880840D01*
X119151953Y-121892523D01*
X119167288Y-121906483D01*
X119196890Y-121953365D01*
X119199419Y-122003701D01*
X119174705Y-122051276D01*
X119171356Y-122054979D01*
X119153935Y-122070783D01*
X119133209Y-122080693D01*
X119102362Y-122086058D01*
X119054577Y-122088228D01*
X119001748Y-122088571D01*
X118935381Y-122087827D01*
X118891106Y-122084748D01*
X118862009Y-122078061D01*
X118841173Y-122066496D01*
X118830107Y-122057013D01*
X118802198Y-122012960D01*
X118798843Y-121962224D01*
X118820159Y-121913796D01*
X118828073Y-121904450D01*
X118845647Y-121888540D01*
X118866587Y-121878610D01*
X118897782Y-121873278D01*
X118946122Y-121871163D01*
X118995647Y-121870857D01*
X118995647Y-121769458D01*
X118908568Y-121772810D01*
X118840086Y-121784726D01*
X118788600Y-121807135D01*
X118748443Y-121842124D01*
X118727861Y-121869375D01*
X118705625Y-121918907D01*
X118695304Y-121976316D01*
X118698067Y-122029682D01*
X118709212Y-122059543D01*
X118712383Y-122071261D01*
X118700557Y-122079037D01*
X118668866Y-122084465D01*
X118620593Y-122088571D01*
X118566829Y-122093067D01*
X118534482Y-122099313D01*
X118515985Y-122110676D01*
X118503770Y-122130528D01*
X118498362Y-122143000D01*
X118478601Y-122190171D01*
X118815358Y-122190117D01*
G37*
X118815358Y-122190117D02*
X118923837Y-122189933D01*
X119007287Y-122189219D01*
X119069704Y-122187675D01*
X119115085Y-122185001D01*
X119147429Y-122180894D01*
X119170733Y-122175055D01*
X119188995Y-122167182D01*
X119199418Y-122161221D01*
X119255945Y-122111855D01*
X119291377Y-122049264D01*
X119304090Y-121980013D01*
X119292463Y-121910668D01*
X119271568Y-121869375D01*
X119235422Y-121826025D01*
X119191276Y-121796481D01*
X119133462Y-121778655D01*
X119056313Y-121770463D01*
X118999714Y-121769302D01*
X118995647Y-121769458D01*
X118995647Y-121870857D01*
X119060550Y-121871476D01*
X119103514Y-121874314D01*
X119131622Y-121880840D01*
X119151953Y-121892523D01*
X119167288Y-121906483D01*
X119196890Y-121953365D01*
X119199419Y-122003701D01*
X119174705Y-122051276D01*
X119171356Y-122054979D01*
X119153935Y-122070783D01*
X119133209Y-122080693D01*
X119102362Y-122086058D01*
X119054577Y-122088228D01*
X119001748Y-122088571D01*
X118935381Y-122087827D01*
X118891106Y-122084748D01*
X118862009Y-122078061D01*
X118841173Y-122066496D01*
X118830107Y-122057013D01*
X118802198Y-122012960D01*
X118798843Y-121962224D01*
X118820159Y-121913796D01*
X118828073Y-121904450D01*
X118845647Y-121888540D01*
X118866587Y-121878610D01*
X118897782Y-121873278D01*
X118946122Y-121871163D01*
X118995647Y-121870857D01*
X118995647Y-121769458D01*
X118908568Y-121772810D01*
X118840086Y-121784726D01*
X118788600Y-121807135D01*
X118748443Y-121842124D01*
X118727861Y-121869375D01*
X118705625Y-121918907D01*
X118695304Y-121976316D01*
X118698067Y-122029682D01*
X118709212Y-122059543D01*
X118712383Y-122071261D01*
X118700557Y-122079037D01*
X118668866Y-122084465D01*
X118620593Y-122088571D01*
X118566829Y-122093067D01*
X118534482Y-122099313D01*
X118515985Y-122110676D01*
X118503770Y-122130528D01*
X118498362Y-122143000D01*
X118478601Y-122190171D01*
X118815358Y-122190117D01*
G36*
X118708663Y-122779833D02*
G01*
X118746850Y-122782048D01*
X118804886Y-122783784D01*
X118878180Y-122784899D01*
X118955055Y-122785257D01*
X119215196Y-122785257D01*
X119261127Y-122739326D01*
X119289429Y-122707675D01*
X119300893Y-122679890D01*
X119300168Y-122641915D01*
X119298321Y-122626840D01*
X119292948Y-122579726D01*
X119289869Y-122540756D01*
X119289585Y-122531257D01*
X119291445Y-122499233D01*
X119296114Y-122453432D01*
X119298321Y-122435674D01*
X119301735Y-122392057D01*
X119294320Y-122362745D01*
X119271427Y-122333680D01*
X119261127Y-122323188D01*
X119215196Y-122277257D01*
X118728602Y-122277257D01*
X118711758Y-122314226D01*
X118699282Y-122346059D01*
X118694914Y-122364683D01*
X118708718Y-122369458D01*
X118747286Y-122373921D01*
X118806356Y-122377775D01*
X118881663Y-122380722D01*
X118945286Y-122382143D01*
X119195657Y-122386114D01*
X119200556Y-122420759D01*
X119197131Y-122452268D01*
X119186041Y-122467708D01*
X119165308Y-122472023D01*
X119121145Y-122475708D01*
X119059146Y-122478469D01*
X118984909Y-122480012D01*
X118946706Y-122480235D01*
X118726783Y-122480457D01*
X118710849Y-122526166D01*
X118700015Y-122558518D01*
X118694962Y-122576115D01*
X118694914Y-122576623D01*
X118708648Y-122578388D01*
X118746730Y-122580329D01*
X118804482Y-122582282D01*
X118877227Y-122584084D01*
X118945286Y-122585343D01*
X119195657Y-122589314D01*
X119195657Y-122676400D01*
X118967240Y-122680396D01*
X118738822Y-122684392D01*
X118716868Y-122726847D01*
X118701793Y-122758192D01*
X118694951Y-122776744D01*
X118694914Y-122777279D01*
X118708663Y-122779833D01*
G37*
X118708663Y-122779833D02*
X118746850Y-122782048D01*
X118804886Y-122783784D01*
X118878180Y-122784899D01*
X118955055Y-122785257D01*
X119215196Y-122785257D01*
X119261127Y-122739326D01*
X119289429Y-122707675D01*
X119300893Y-122679890D01*
X119300168Y-122641915D01*
X119298321Y-122626840D01*
X119292948Y-122579726D01*
X119289869Y-122540756D01*
X119289585Y-122531257D01*
X119291445Y-122499233D01*
X119296114Y-122453432D01*
X119298321Y-122435674D01*
X119301735Y-122392057D01*
X119294320Y-122362745D01*
X119271427Y-122333680D01*
X119261127Y-122323188D01*
X119215196Y-122277257D01*
X118728602Y-122277257D01*
X118711758Y-122314226D01*
X118699282Y-122346059D01*
X118694914Y-122364683D01*
X118708718Y-122369458D01*
X118747286Y-122373921D01*
X118806356Y-122377775D01*
X118881663Y-122380722D01*
X118945286Y-122382143D01*
X119195657Y-122386114D01*
X119200556Y-122420759D01*
X119197131Y-122452268D01*
X119186041Y-122467708D01*
X119165308Y-122472023D01*
X119121145Y-122475708D01*
X119059146Y-122478469D01*
X118984909Y-122480012D01*
X118946706Y-122480235D01*
X118726783Y-122480457D01*
X118710849Y-122526166D01*
X118700015Y-122558518D01*
X118694962Y-122576115D01*
X118694914Y-122576623D01*
X118708648Y-122578388D01*
X118746730Y-122580329D01*
X118804482Y-122582282D01*
X118877227Y-122584084D01*
X118945286Y-122585343D01*
X119195657Y-122589314D01*
X119195657Y-122676400D01*
X118967240Y-122680396D01*
X118738822Y-122684392D01*
X118716868Y-122726847D01*
X118701793Y-122758192D01*
X118694951Y-122776744D01*
X118694914Y-122777279D01*
X118708663Y-122779833D01*
G36*
X118706335Y-123144876D02*
G01*
X118725344Y-123186667D01*
X118748378Y-123219469D01*
X118774133Y-123243503D01*
X118807358Y-123260097D01*
X118852800Y-123270577D01*
X118915207Y-123276271D01*
X118999327Y-123278507D01*
X119054721Y-123278743D01*
X119270826Y-123278743D01*
X119287670Y-123241774D01*
X119299981Y-123212656D01*
X119304514Y-123198231D01*
X119291025Y-123195472D01*
X119254653Y-123193282D01*
X119201542Y-123191942D01*
X119159372Y-123191657D01*
X119098447Y-123190434D01*
X119050115Y-123187136D01*
X119020518Y-123182321D01*
X119014229Y-123178496D01*
X119020652Y-123152783D01*
X119037125Y-123112418D01*
X119059458Y-123065679D01*
X119083457Y-123020845D01*
X119104930Y-122986193D01*
X119119685Y-122970002D01*
X119119845Y-122969938D01*
X119147152Y-122971330D01*
X119173219Y-122983818D01*
X119194392Y-123005743D01*
X119201474Y-123037743D01*
X119200649Y-123065092D01*
X119200042Y-123103826D01*
X119209116Y-123124158D01*
X119233092Y-123136369D01*
X119237613Y-123137909D01*
X119271806Y-123143203D01*
X119292568Y-123129047D01*
X119302462Y-123092148D01*
X119304292Y-123052289D01*
X119290727Y-122980562D01*
X119271355Y-122943432D01*
X119225845Y-122897576D01*
X119169983Y-122873256D01*
X119110957Y-122871073D01*
X119055953Y-122891629D01*
X119021486Y-122922549D01*
X119002189Y-122953420D01*
X118977759Y-123001942D01*
X118952985Y-123058485D01*
X118949199Y-123067910D01*
X118921791Y-123130019D01*
X118897634Y-123165822D01*
X118873619Y-123177337D01*
X118846635Y-123166580D01*
X118825543Y-123148114D01*
X118799572Y-123104469D01*
X118797624Y-123056446D01*
X118817637Y-123012406D01*
X118857551Y-122980709D01*
X118867848Y-122976549D01*
X118905724Y-122952327D01*
X118933842Y-122916965D01*
X118956917Y-122872343D01*
X118891485Y-122872343D01*
X118851506Y-122874969D01*
X118819997Y-122886230D01*
X118786378Y-122911199D01*
X118760484Y-122935169D01*
X118723817Y-122972441D01*
X118704121Y-123001401D01*
X118696220Y-123032505D01*
X118694914Y-123067713D01*
X118706335Y-123144876D01*
G37*
X118706335Y-123144876D02*
X118725344Y-123186667D01*
X118748378Y-123219469D01*
X118774133Y-123243503D01*
X118807358Y-123260097D01*
X118852800Y-123270577D01*
X118915207Y-123276271D01*
X118999327Y-123278507D01*
X119054721Y-123278743D01*
X119270826Y-123278743D01*
X119287670Y-123241774D01*
X119299981Y-123212656D01*
X119304514Y-123198231D01*
X119291025Y-123195472D01*
X119254653Y-123193282D01*
X119201542Y-123191942D01*
X119159372Y-123191657D01*
X119098447Y-123190434D01*
X119050115Y-123187136D01*
X119020518Y-123182321D01*
X119014229Y-123178496D01*
X119020652Y-123152783D01*
X119037125Y-123112418D01*
X119059458Y-123065679D01*
X119083457Y-123020845D01*
X119104930Y-122986193D01*
X119119685Y-122970002D01*
X119119845Y-122969938D01*
X119147152Y-122971330D01*
X119173219Y-122983818D01*
X119194392Y-123005743D01*
X119201474Y-123037743D01*
X119200649Y-123065092D01*
X119200042Y-123103826D01*
X119209116Y-123124158D01*
X119233092Y-123136369D01*
X119237613Y-123137909D01*
X119271806Y-123143203D01*
X119292568Y-123129047D01*
X119302462Y-123092148D01*
X119304292Y-123052289D01*
X119290727Y-122980562D01*
X119271355Y-122943432D01*
X119225845Y-122897576D01*
X119169983Y-122873256D01*
X119110957Y-122871073D01*
X119055953Y-122891629D01*
X119021486Y-122922549D01*
X119002189Y-122953420D01*
X118977759Y-123001942D01*
X118952985Y-123058485D01*
X118949199Y-123067910D01*
X118921791Y-123130019D01*
X118897634Y-123165822D01*
X118873619Y-123177337D01*
X118846635Y-123166580D01*
X118825543Y-123148114D01*
X118799572Y-123104469D01*
X118797624Y-123056446D01*
X118817637Y-123012406D01*
X118857551Y-122980709D01*
X118867848Y-122976549D01*
X118905724Y-122952327D01*
X118933842Y-122916965D01*
X118956917Y-122872343D01*
X118891485Y-122872343D01*
X118851506Y-122874969D01*
X118819997Y-122886230D01*
X118786378Y-122911199D01*
X118760484Y-122935169D01*
X118723817Y-122972441D01*
X118704121Y-123001401D01*
X118696220Y-123032505D01*
X118694914Y-123067713D01*
X118706335Y-123144876D01*
G36*
X118708752Y-123652600D02*
G01*
X118716334Y-123669948D01*
X118749128Y-123711356D01*
X118796547Y-123746765D01*
X118847151Y-123768664D01*
X118872098Y-123772229D01*
X118906927Y-123760279D01*
X118925357Y-123734067D01*
X118936516Y-123705964D01*
X118938572Y-123693095D01*
X118923649Y-123686829D01*
X118891175Y-123674456D01*
X118876502Y-123669028D01*
X118825744Y-123638590D01*
X118800427Y-123594520D01*
X118801206Y-123538010D01*
X118802203Y-123533825D01*
X118816507Y-123503655D01*
X118844393Y-123481476D01*
X118889287Y-123466327D01*
X118954615Y-123457250D01*
X119043804Y-123453286D01*
X119091261Y-123452914D01*
X119166071Y-123452730D01*
X119217069Y-123451522D01*
X119249471Y-123448309D01*
X119268495Y-123442109D01*
X119279356Y-123431940D01*
X119287272Y-123416819D01*
X119287670Y-123415946D01*
X119299981Y-123386828D01*
X119304514Y-123372403D01*
X119290809Y-123370186D01*
X119252925Y-123368289D01*
X119195715Y-123366847D01*
X119124027Y-123365998D01*
X119071565Y-123365829D01*
X118970047Y-123366692D01*
X118893032Y-123370070D01*
X118836023Y-123377142D01*
X118794526Y-123389088D01*
X118764043Y-123407090D01*
X118740080Y-123432327D01*
X118723355Y-123457247D01*
X118701097Y-123517171D01*
X118696076Y-123586911D01*
X118708752Y-123652600D01*
G37*
X118708752Y-123652600D02*
X118716334Y-123669948D01*
X118749128Y-123711356D01*
X118796547Y-123746765D01*
X118847151Y-123768664D01*
X118872098Y-123772229D01*
X118906927Y-123760279D01*
X118925357Y-123734067D01*
X118936516Y-123705964D01*
X118938572Y-123693095D01*
X118923649Y-123686829D01*
X118891175Y-123674456D01*
X118876502Y-123669028D01*
X118825744Y-123638590D01*
X118800427Y-123594520D01*
X118801206Y-123538010D01*
X118802203Y-123533825D01*
X118816507Y-123503655D01*
X118844393Y-123481476D01*
X118889287Y-123466327D01*
X118954615Y-123457250D01*
X119043804Y-123453286D01*
X119091261Y-123452914D01*
X119166071Y-123452730D01*
X119217069Y-123451522D01*
X119249471Y-123448309D01*
X119268495Y-123442109D01*
X119279356Y-123431940D01*
X119287272Y-123416819D01*
X119287670Y-123415946D01*
X119299981Y-123386828D01*
X119304514Y-123372403D01*
X119290809Y-123370186D01*
X119252925Y-123368289D01*
X119195715Y-123366847D01*
X119124027Y-123365998D01*
X119071565Y-123365829D01*
X118970047Y-123366692D01*
X118893032Y-123370070D01*
X118836023Y-123377142D01*
X118794526Y-123389088D01*
X118764043Y-123407090D01*
X118740080Y-123432327D01*
X118723355Y-123457247D01*
X118701097Y-123517171D01*
X118696076Y-123586911D01*
X118708752Y-123652600D01*
G36*
X118716966Y-124153595D02*
G01*
X118754497Y-124211021D01*
X118788096Y-124238719D01*
X118849064Y-124260662D01*
X118897308Y-124262405D01*
X118961816Y-124258457D01*
X119026934Y-124109686D01*
X119060202Y-124037349D01*
X119086964Y-123990084D01*
X119110144Y-123965507D01*
X119132667Y-123961237D01*
X119157455Y-123974889D01*
X119173886Y-123989943D01*
X119200235Y-124033746D01*
X119202081Y-124081389D01*
X119181546Y-124125145D01*
X119140752Y-124157289D01*
X119126347Y-124163038D01*
X119081356Y-124190576D01*
X119062182Y-124222258D01*
X119045779Y-124265714D01*
X119107966Y-124265714D01*
X119150283Y-124261872D01*
X119185969Y-124246823D01*
X119226943Y-124215280D01*
X119232267Y-124210592D01*
X119268720Y-124175506D01*
X119288283Y-124145347D01*
X119297283Y-124107615D01*
X119300230Y-124076335D01*
X119300965Y-124020385D01*
X119291660Y-123980555D01*
X119277846Y-123955708D01*
X119247467Y-123916656D01*
X119214613Y-123889625D01*
X119173294Y-123872517D01*
X119117521Y-123863238D01*
X119041305Y-123859693D01*
X119002622Y-123859410D01*
X118956247Y-123860372D01*
X118956247Y-123948007D01*
X118981126Y-123949023D01*
X118985200Y-123951556D01*
X118979665Y-123968274D01*
X118965017Y-124004249D01*
X118944190Y-124052331D01*
X118939714Y-124062386D01*
X118908814Y-124123152D01*
X118881657Y-124156632D01*
X118856220Y-124163990D01*
X118830481Y-124146391D01*
X118819109Y-124131856D01*
X118796364Y-124079410D01*
X118800122Y-124030322D01*
X118827884Y-123989227D01*
X118877152Y-123960758D01*
X118916257Y-123951631D01*
X118956247Y-123948007D01*
X118956247Y-123860372D01*
X118912249Y-123861285D01*
X118845384Y-123868196D01*
X118796695Y-123881884D01*
X118760849Y-123904096D01*
X118732513Y-123936574D01*
X118723355Y-123950733D01*
X118699507Y-124015053D01*
X118698006Y-124085473D01*
X118716966Y-124153595D01*
G37*
X118716966Y-124153595D02*
X118754497Y-124211021D01*
X118788096Y-124238719D01*
X118849064Y-124260662D01*
X118897308Y-124262405D01*
X118961816Y-124258457D01*
X119026934Y-124109686D01*
X119060202Y-124037349D01*
X119086964Y-123990084D01*
X119110144Y-123965507D01*
X119132667Y-123961237D01*
X119157455Y-123974889D01*
X119173886Y-123989943D01*
X119200235Y-124033746D01*
X119202081Y-124081389D01*
X119181546Y-124125145D01*
X119140752Y-124157289D01*
X119126347Y-124163038D01*
X119081356Y-124190576D01*
X119062182Y-124222258D01*
X119045779Y-124265714D01*
X119107966Y-124265714D01*
X119150283Y-124261872D01*
X119185969Y-124246823D01*
X119226943Y-124215280D01*
X119232267Y-124210592D01*
X119268720Y-124175506D01*
X119288283Y-124145347D01*
X119297283Y-124107615D01*
X119300230Y-124076335D01*
X119300965Y-124020385D01*
X119291660Y-123980555D01*
X119277846Y-123955708D01*
X119247467Y-123916656D01*
X119214613Y-123889625D01*
X119173294Y-123872517D01*
X119117521Y-123863238D01*
X119041305Y-123859693D01*
X119002622Y-123859410D01*
X118956247Y-123860372D01*
X118956247Y-123948007D01*
X118981126Y-123949023D01*
X118985200Y-123951556D01*
X118979665Y-123968274D01*
X118965017Y-124004249D01*
X118944190Y-124052331D01*
X118939714Y-124062386D01*
X118908814Y-124123152D01*
X118881657Y-124156632D01*
X118856220Y-124163990D01*
X118830481Y-124146391D01*
X118819109Y-124131856D01*
X118796364Y-124079410D01*
X118800122Y-124030322D01*
X118827884Y-123989227D01*
X118877152Y-123960758D01*
X118916257Y-123951631D01*
X118956247Y-123948007D01*
X118956247Y-123860372D01*
X118912249Y-123861285D01*
X118845384Y-123868196D01*
X118796695Y-123881884D01*
X118760849Y-123904096D01*
X118732513Y-123936574D01*
X118723355Y-123950733D01*
X118699507Y-124015053D01*
X118698006Y-124085473D01*
X118716966Y-124153595D01*
G36*
X113992348Y-121103910D02*
G01*
X113992778Y-121182454D01*
X113993942Y-121239298D01*
X113996207Y-121278105D01*
X113999940Y-121302538D01*
X114005506Y-121316262D01*
X114013273Y-121322940D01*
X114023605Y-121326236D01*
X114024943Y-121326556D01*
X114049079Y-121331562D01*
X114096701Y-121340829D01*
X114162741Y-121353392D01*
X114242128Y-121368287D01*
X114329796Y-121384551D01*
X114332875Y-121385119D01*
X114418789Y-121401410D01*
X114494696Y-121416652D01*
X114556045Y-121429861D01*
X114598282Y-121440054D01*
X114616855Y-121446248D01*
X114617184Y-121446543D01*
X114626253Y-121464788D01*
X114641367Y-121502405D01*
X114659262Y-121551271D01*
X114659358Y-121551543D01*
X114682493Y-121613093D01*
X114711965Y-121685657D01*
X114741597Y-121754057D01*
X114743062Y-121757294D01*
X114793626Y-121868702D01*
X114625160Y-122115399D01*
X114573803Y-122191077D01*
X114527889Y-122259631D01*
X114490030Y-122317088D01*
X114462837Y-122359476D01*
X114448921Y-122382825D01*
X114447889Y-122385042D01*
X114452484Y-122402010D01*
X114474655Y-122433701D01*
X114515447Y-122481352D01*
X114575905Y-122546198D01*
X114640227Y-122612397D01*
X114703612Y-122676214D01*
X114761451Y-122733329D01*
X114810175Y-122780305D01*
X114846210Y-122813703D01*
X114865984Y-122830085D01*
X114867002Y-122830694D01*
X114880572Y-122832505D01*
X114902733Y-122825683D01*
X114936478Y-122808540D01*
X114984800Y-122779393D01*
X115050692Y-122736555D01*
X115135517Y-122679448D01*
X115210177Y-122628766D01*
X115277140Y-122583461D01*
X115332516Y-122546150D01*
X115372420Y-122519452D01*
X115392962Y-122505985D01*
X115394356Y-122505137D01*
X115414038Y-122506781D01*
X115452293Y-122519245D01*
X115501889Y-122540048D01*
X115517728Y-122547462D01*
X115588290Y-122579814D01*
X115668353Y-122614328D01*
X115737629Y-122642365D01*
X115789045Y-122662568D01*
X115828119Y-122678615D01*
X115848541Y-122687888D01*
X115850114Y-122689041D01*
X115852721Y-122706096D01*
X115859863Y-122746298D01*
X115870523Y-122804302D01*
X115883685Y-122874763D01*
X115898333Y-122952335D01*
X115913449Y-123031672D01*
X115928018Y-123107431D01*
X115941022Y-123174264D01*
X115951445Y-123226828D01*
X115958270Y-123259776D01*
X115960199Y-123267857D01*
X115964962Y-123276205D01*
X115975718Y-123282506D01*
X115996098Y-123287045D01*
X116029734Y-123290104D01*
X116080255Y-123291967D01*
X116151292Y-123292918D01*
X116246476Y-123293240D01*
X116285492Y-123293257D01*
X116602799Y-123293257D01*
X116617839Y-123217057D01*
X116625995Y-123174663D01*
X116637899Y-123111400D01*
X116652116Y-123034962D01*
X116667210Y-122953043D01*
X116671355Y-122930400D01*
X116686053Y-122854806D01*
X116700505Y-122788953D01*
X116713375Y-122738366D01*
X116723322Y-122708574D01*
X116726287Y-122703612D01*
X116747283Y-122691426D01*
X116787967Y-122673953D01*
X116840322Y-122654577D01*
X116851600Y-122650734D01*
X116921523Y-122625339D01*
X117000418Y-122593817D01*
X117071266Y-122562969D01*
X117071595Y-122562817D01*
X117182733Y-122511447D01*
X117431253Y-122680399D01*
X117679772Y-122849352D01*
X117897058Y-122632429D01*
X117961726Y-122566819D01*
X118018733Y-122506979D01*
X118065033Y-122456267D01*
X118097584Y-122418046D01*
X118113343Y-122395675D01*
X118114343Y-122392466D01*
X118106469Y-122373626D01*
X118084578Y-122335180D01*
X118051267Y-122281330D01*
X118009131Y-122216276D01*
X117961943Y-122145940D01*
X117913810Y-122074555D01*
X117871928Y-122010908D01*
X117838871Y-121959041D01*
X117817218Y-121922995D01*
X117809543Y-121906867D01*
X117816037Y-121887189D01*
X117833150Y-121849875D01*
X117857326Y-121802621D01*
X117860013Y-121797612D01*
X117891927Y-121733977D01*
X117907579Y-121690341D01*
X117907745Y-121663202D01*
X117893204Y-121649057D01*
X117893000Y-121648975D01*
X117875779Y-121641905D01*
X117834899Y-121625042D01*
X117773525Y-121599695D01*
X117694819Y-121567171D01*
X117601947Y-121528778D01*
X117498072Y-121485822D01*
X117397502Y-121444222D01*
X117286516Y-121398504D01*
X117183703Y-121356526D01*
X117092215Y-121319548D01*
X117015201Y-121288827D01*
X116955815Y-121265622D01*
X116917209Y-121251190D01*
X116902800Y-121246743D01*
X116886272Y-121257896D01*
X116859930Y-121287069D01*
X116830887Y-121325971D01*
X116739039Y-121436757D01*
X116633759Y-121523351D01*
X116517266Y-121584716D01*
X116391776Y-121619815D01*
X116259507Y-121627608D01*
X116198457Y-121621943D01*
X116071795Y-121591078D01*
X115959941Y-121537920D01*
X115864001Y-121465767D01*
X115785076Y-121377917D01*
X115724270Y-121277665D01*
X115682687Y-121168310D01*
X115661428Y-121053147D01*
X115661599Y-120935475D01*
X115684301Y-120818590D01*
X115730638Y-120705789D01*
X115801713Y-120600369D01*
X115841911Y-120556368D01*
X115945129Y-120471979D01*
X116057925Y-120413222D01*
X116177010Y-120379704D01*
X116299095Y-120371035D01*
X116420893Y-120386823D01*
X116539116Y-120426678D01*
X116650475Y-120490207D01*
X116751684Y-120577021D01*
X116830887Y-120674029D01*
X116861162Y-120714437D01*
X116887219Y-120742982D01*
X116902825Y-120753257D01*
X116919843Y-120747877D01*
X116960500Y-120732575D01*
X117021642Y-120708612D01*
X117100119Y-120677244D01*
X117192780Y-120639732D01*
X117296472Y-120597333D01*
X117397526Y-120555663D01*
X117508607Y-120509690D01*
X117611541Y-120467107D01*
X117703165Y-120429221D01*
X117780316Y-120397340D01*
X117839831Y-120372771D01*
X117878544Y-120356820D01*
X117893000Y-120350910D01*
X117907685Y-120336948D01*
X117907642Y-120309940D01*
X117892099Y-120266413D01*
X117860284Y-120202890D01*
X117860013Y-120202388D01*
X117835323Y-120154560D01*
X117817338Y-120115897D01*
X117809614Y-120094095D01*
X117809543Y-120093133D01*
X117817378Y-120076721D01*
X117839165Y-120040487D01*
X117872328Y-119988474D01*
X117914291Y-119924725D01*
X117961943Y-119854060D01*
X118010191Y-119782116D01*
X118052151Y-119717274D01*
X118085227Y-119663735D01*
X118106821Y-119625697D01*
X118114343Y-119607533D01*
X118104457Y-119590808D01*
X118076826Y-119557180D01*
X118034495Y-119510010D01*
X117980505Y-119452658D01*
X117917899Y-119388484D01*
X117896983Y-119367497D01*
X117679623Y-119150499D01*
X117437220Y-119315668D01*
X117362781Y-119365864D01*
X117295972Y-119409919D01*
X117240665Y-119445362D01*
X117200729Y-119469719D01*
X117180036Y-119480522D01*
X117178563Y-119480838D01*
X117159058Y-119475143D01*
X117119822Y-119459826D01*
X117067430Y-119437537D01*
X117032355Y-119421893D01*
X116965201Y-119392641D01*
X116897358Y-119365094D01*
X116840034Y-119343737D01*
X116822572Y-119337935D01*
X116775938Y-119321452D01*
X116739905Y-119305340D01*
X116726287Y-119296490D01*
X116717952Y-119276960D01*
X116706137Y-119234334D01*
X116692181Y-119174145D01*
X116677422Y-119101922D01*
X116671355Y-119069600D01*
X116656273Y-118987522D01*
X116641669Y-118908795D01*
X116628980Y-118841109D01*
X116619642Y-118792160D01*
X116617839Y-118782943D01*
X116602799Y-118706743D01*
X116285492Y-118706743D01*
X116181154Y-118706914D01*
X116102213Y-118707616D01*
X116045038Y-118709134D01*
X116005999Y-118711749D01*
X115981465Y-118715746D01*
X115967805Y-118721409D01*
X115961389Y-118729020D01*
X115960199Y-118732143D01*
X115955980Y-118750978D01*
X115947562Y-118792588D01*
X115935961Y-118851630D01*
X115922195Y-118922757D01*
X115907280Y-119000625D01*
X115892232Y-119079887D01*
X115878069Y-119155198D01*
X115865806Y-119221213D01*
X115856461Y-119272587D01*
X115851050Y-119303975D01*
X115850114Y-119310959D01*
X115837596Y-119317285D01*
X115804246Y-119331290D01*
X115756377Y-119350355D01*
X115737629Y-119357634D01*
X115665195Y-119386996D01*
X115585170Y-119421571D01*
X115517728Y-119452537D01*
X115466159Y-119475323D01*
X115423785Y-119490482D01*
X115397834Y-119495542D01*
X115394356Y-119494736D01*
X115377936Y-119484041D01*
X115341417Y-119459620D01*
X115288687Y-119424095D01*
X115223635Y-119380087D01*
X115150151Y-119330217D01*
X115135645Y-119320356D01*
X115049704Y-119262492D01*
X114984261Y-119219956D01*
X114936304Y-119191054D01*
X114902820Y-119174090D01*
X114880795Y-119167367D01*
X114867217Y-119169190D01*
X114867131Y-119169236D01*
X114849297Y-119183586D01*
X114814817Y-119215323D01*
X114767268Y-119261010D01*
X114710222Y-119317204D01*
X114647255Y-119380468D01*
X114640227Y-119387602D01*
X114563020Y-119467330D01*
X114506330Y-119528857D01*
X114469110Y-119573421D01*
X114450315Y-119602257D01*
X114447889Y-119614958D01*
X114458471Y-119633494D01*
X114482916Y-119671961D01*
X114518612Y-119726386D01*
X114562947Y-119792798D01*
X114613311Y-119867225D01*
X114625160Y-119884601D01*
X114793626Y-120131297D01*
X114743062Y-120242706D01*
X114713595Y-120310457D01*
X114683959Y-120383183D01*
X114660330Y-120445703D01*
X114659358Y-120448457D01*
X114641457Y-120497360D01*
X114626320Y-120535057D01*
X114617210Y-120553425D01*
X114617184Y-120553456D01*
X114600717Y-120559285D01*
X114560219Y-120569192D01*
X114500242Y-120582195D01*
X114425340Y-120597309D01*
X114340064Y-120613552D01*
X114332875Y-120614881D01*
X114245014Y-120631175D01*
X114165260Y-120646133D01*
X114098681Y-120658791D01*
X114050347Y-120668186D01*
X114025325Y-120673354D01*
X114024943Y-120673444D01*
X114014299Y-120676589D01*
X114006262Y-120682704D01*
X114000467Y-120695453D01*
X113996547Y-120718500D01*
X113994135Y-120755509D01*
X113992865Y-120810144D01*
X113992371Y-120886067D01*
X113992286Y-120986944D01*
X113992286Y-121000000D01*
X113992348Y-121103910D01*
G37*
X113992348Y-121103910D02*
X113992778Y-121182454D01*
X113993942Y-121239298D01*
X113996207Y-121278105D01*
X113999940Y-121302538D01*
X114005506Y-121316262D01*
X114013273Y-121322940D01*
X114023605Y-121326236D01*
X114024943Y-121326556D01*
X114049079Y-121331562D01*
X114096701Y-121340829D01*
X114162741Y-121353392D01*
X114242128Y-121368287D01*
X114329796Y-121384551D01*
X114332875Y-121385119D01*
X114418789Y-121401410D01*
X114494696Y-121416652D01*
X114556045Y-121429861D01*
X114598282Y-121440054D01*
X114616855Y-121446248D01*
X114617184Y-121446543D01*
X114626253Y-121464788D01*
X114641367Y-121502405D01*
X114659262Y-121551271D01*
X114659358Y-121551543D01*
X114682493Y-121613093D01*
X114711965Y-121685657D01*
X114741597Y-121754057D01*
X114743062Y-121757294D01*
X114793626Y-121868702D01*
X114625160Y-122115399D01*
X114573803Y-122191077D01*
X114527889Y-122259631D01*
X114490030Y-122317088D01*
X114462837Y-122359476D01*
X114448921Y-122382825D01*
X114447889Y-122385042D01*
X114452484Y-122402010D01*
X114474655Y-122433701D01*
X114515447Y-122481352D01*
X114575905Y-122546198D01*
X114640227Y-122612397D01*
X114703612Y-122676214D01*
X114761451Y-122733329D01*
X114810175Y-122780305D01*
X114846210Y-122813703D01*
X114865984Y-122830085D01*
X114867002Y-122830694D01*
X114880572Y-122832505D01*
X114902733Y-122825683D01*
X114936478Y-122808540D01*
X114984800Y-122779393D01*
X115050692Y-122736555D01*
X115135517Y-122679448D01*
X115210177Y-122628766D01*
X115277140Y-122583461D01*
X115332516Y-122546150D01*
X115372420Y-122519452D01*
X115392962Y-122505985D01*
X115394356Y-122505137D01*
X115414038Y-122506781D01*
X115452293Y-122519245D01*
X115501889Y-122540048D01*
X115517728Y-122547462D01*
X115588290Y-122579814D01*
X115668353Y-122614328D01*
X115737629Y-122642365D01*
X115789045Y-122662568D01*
X115828119Y-122678615D01*
X115848541Y-122687888D01*
X115850114Y-122689041D01*
X115852721Y-122706096D01*
X115859863Y-122746298D01*
X115870523Y-122804302D01*
X115883685Y-122874763D01*
X115898333Y-122952335D01*
X115913449Y-123031672D01*
X115928018Y-123107431D01*
X115941022Y-123174264D01*
X115951445Y-123226828D01*
X115958270Y-123259776D01*
X115960199Y-123267857D01*
X115964962Y-123276205D01*
X115975718Y-123282506D01*
X115996098Y-123287045D01*
X116029734Y-123290104D01*
X116080255Y-123291967D01*
X116151292Y-123292918D01*
X116246476Y-123293240D01*
X116285492Y-123293257D01*
X116602799Y-123293257D01*
X116617839Y-123217057D01*
X116625995Y-123174663D01*
X116637899Y-123111400D01*
X116652116Y-123034962D01*
X116667210Y-122953043D01*
X116671355Y-122930400D01*
X116686053Y-122854806D01*
X116700505Y-122788953D01*
X116713375Y-122738366D01*
X116723322Y-122708574D01*
X116726287Y-122703612D01*
X116747283Y-122691426D01*
X116787967Y-122673953D01*
X116840322Y-122654577D01*
X116851600Y-122650734D01*
X116921523Y-122625339D01*
X117000418Y-122593817D01*
X117071266Y-122562969D01*
X117071595Y-122562817D01*
X117182733Y-122511447D01*
X117431253Y-122680399D01*
X117679772Y-122849352D01*
X117897058Y-122632429D01*
X117961726Y-122566819D01*
X118018733Y-122506979D01*
X118065033Y-122456267D01*
X118097584Y-122418046D01*
X118113343Y-122395675D01*
X118114343Y-122392466D01*
X118106469Y-122373626D01*
X118084578Y-122335180D01*
X118051267Y-122281330D01*
X118009131Y-122216276D01*
X117961943Y-122145940D01*
X117913810Y-122074555D01*
X117871928Y-122010908D01*
X117838871Y-121959041D01*
X117817218Y-121922995D01*
X117809543Y-121906867D01*
X117816037Y-121887189D01*
X117833150Y-121849875D01*
X117857326Y-121802621D01*
X117860013Y-121797612D01*
X117891927Y-121733977D01*
X117907579Y-121690341D01*
X117907745Y-121663202D01*
X117893204Y-121649057D01*
X117893000Y-121648975D01*
X117875779Y-121641905D01*
X117834899Y-121625042D01*
X117773525Y-121599695D01*
X117694819Y-121567171D01*
X117601947Y-121528778D01*
X117498072Y-121485822D01*
X117397502Y-121444222D01*
X117286516Y-121398504D01*
X117183703Y-121356526D01*
X117092215Y-121319548D01*
X117015201Y-121288827D01*
X116955815Y-121265622D01*
X116917209Y-121251190D01*
X116902800Y-121246743D01*
X116886272Y-121257896D01*
X116859930Y-121287069D01*
X116830887Y-121325971D01*
X116739039Y-121436757D01*
X116633759Y-121523351D01*
X116517266Y-121584716D01*
X116391776Y-121619815D01*
X116259507Y-121627608D01*
X116198457Y-121621943D01*
X116071795Y-121591078D01*
X115959941Y-121537920D01*
X115864001Y-121465767D01*
X115785076Y-121377917D01*
X115724270Y-121277665D01*
X115682687Y-121168310D01*
X115661428Y-121053147D01*
X115661599Y-120935475D01*
X115684301Y-120818590D01*
X115730638Y-120705789D01*
X115801713Y-120600369D01*
X115841911Y-120556368D01*
X115945129Y-120471979D01*
X116057925Y-120413222D01*
X116177010Y-120379704D01*
X116299095Y-120371035D01*
X116420893Y-120386823D01*
X116539116Y-120426678D01*
X116650475Y-120490207D01*
X116751684Y-120577021D01*
X116830887Y-120674029D01*
X116861162Y-120714437D01*
X116887219Y-120742982D01*
X116902825Y-120753257D01*
X116919843Y-120747877D01*
X116960500Y-120732575D01*
X117021642Y-120708612D01*
X117100119Y-120677244D01*
X117192780Y-120639732D01*
X117296472Y-120597333D01*
X117397526Y-120555663D01*
X117508607Y-120509690D01*
X117611541Y-120467107D01*
X117703165Y-120429221D01*
X117780316Y-120397340D01*
X117839831Y-120372771D01*
X117878544Y-120356820D01*
X117893000Y-120350910D01*
X117907685Y-120336948D01*
X117907642Y-120309940D01*
X117892099Y-120266413D01*
X117860284Y-120202890D01*
X117860013Y-120202388D01*
X117835323Y-120154560D01*
X117817338Y-120115897D01*
X117809614Y-120094095D01*
X117809543Y-120093133D01*
X117817378Y-120076721D01*
X117839165Y-120040487D01*
X117872328Y-119988474D01*
X117914291Y-119924725D01*
X117961943Y-119854060D01*
X118010191Y-119782116D01*
X118052151Y-119717274D01*
X118085227Y-119663735D01*
X118106821Y-119625697D01*
X118114343Y-119607533D01*
X118104457Y-119590808D01*
X118076826Y-119557180D01*
X118034495Y-119510010D01*
X117980505Y-119452658D01*
X117917899Y-119388484D01*
X117896983Y-119367497D01*
X117679623Y-119150499D01*
X117437220Y-119315668D01*
X117362781Y-119365864D01*
X117295972Y-119409919D01*
X117240665Y-119445362D01*
X117200729Y-119469719D01*
X117180036Y-119480522D01*
X117178563Y-119480838D01*
X117159058Y-119475143D01*
X117119822Y-119459826D01*
X117067430Y-119437537D01*
X117032355Y-119421893D01*
X116965201Y-119392641D01*
X116897358Y-119365094D01*
X116840034Y-119343737D01*
X116822572Y-119337935D01*
X116775938Y-119321452D01*
X116739905Y-119305340D01*
X116726287Y-119296490D01*
X116717952Y-119276960D01*
X116706137Y-119234334D01*
X116692181Y-119174145D01*
X116677422Y-119101922D01*
X116671355Y-119069600D01*
X116656273Y-118987522D01*
X116641669Y-118908795D01*
X116628980Y-118841109D01*
X116619642Y-118792160D01*
X116617839Y-118782943D01*
X116602799Y-118706743D01*
X116285492Y-118706743D01*
X116181154Y-118706914D01*
X116102213Y-118707616D01*
X116045038Y-118709134D01*
X116005999Y-118711749D01*
X115981465Y-118715746D01*
X115967805Y-118721409D01*
X115961389Y-118729020D01*
X115960199Y-118732143D01*
X115955980Y-118750978D01*
X115947562Y-118792588D01*
X115935961Y-118851630D01*
X115922195Y-118922757D01*
X115907280Y-119000625D01*
X115892232Y-119079887D01*
X115878069Y-119155198D01*
X115865806Y-119221213D01*
X115856461Y-119272587D01*
X115851050Y-119303975D01*
X115850114Y-119310959D01*
X115837596Y-119317285D01*
X115804246Y-119331290D01*
X115756377Y-119350355D01*
X115737629Y-119357634D01*
X115665195Y-119386996D01*
X115585170Y-119421571D01*
X115517728Y-119452537D01*
X115466159Y-119475323D01*
X115423785Y-119490482D01*
X115397834Y-119495542D01*
X115394356Y-119494736D01*
X115377936Y-119484041D01*
X115341417Y-119459620D01*
X115288687Y-119424095D01*
X115223635Y-119380087D01*
X115150151Y-119330217D01*
X115135645Y-119320356D01*
X115049704Y-119262492D01*
X114984261Y-119219956D01*
X114936304Y-119191054D01*
X114902820Y-119174090D01*
X114880795Y-119167367D01*
X114867217Y-119169190D01*
X114867131Y-119169236D01*
X114849297Y-119183586D01*
X114814817Y-119215323D01*
X114767268Y-119261010D01*
X114710222Y-119317204D01*
X114647255Y-119380468D01*
X114640227Y-119387602D01*
X114563020Y-119467330D01*
X114506330Y-119528857D01*
X114469110Y-119573421D01*
X114450315Y-119602257D01*
X114447889Y-119614958D01*
X114458471Y-119633494D01*
X114482916Y-119671961D01*
X114518612Y-119726386D01*
X114562947Y-119792798D01*
X114613311Y-119867225D01*
X114625160Y-119884601D01*
X114793626Y-120131297D01*
X114743062Y-120242706D01*
X114713595Y-120310457D01*
X114683959Y-120383183D01*
X114660330Y-120445703D01*
X114659358Y-120448457D01*
X114641457Y-120497360D01*
X114626320Y-120535057D01*
X114617210Y-120553425D01*
X114617184Y-120553456D01*
X114600717Y-120559285D01*
X114560219Y-120569192D01*
X114500242Y-120582195D01*
X114425340Y-120597309D01*
X114340064Y-120613552D01*
X114332875Y-120614881D01*
X114245014Y-120631175D01*
X114165260Y-120646133D01*
X114098681Y-120658791D01*
X114050347Y-120668186D01*
X114025325Y-120673354D01*
X114024943Y-120673444D01*
X114014299Y-120676589D01*
X114006262Y-120682704D01*
X114000467Y-120695453D01*
X113996547Y-120718500D01*
X113994135Y-120755509D01*
X113992865Y-120810144D01*
X113992371Y-120886067D01*
X113992286Y-120986944D01*
X113992286Y-121000000D01*
X113992348Y-121103910D01*
D11*
%TO.C,D3*%
X114951903Y-130366117D02*
X116366117Y-128951903D01*
X116366117Y-128951903D02*
X119123833Y-131709619D01*
X114951903Y-130366117D02*
X117709619Y-133123833D01*
%TO.C,Q6*%
X98080000Y-107510000D02*
X98080000Y-106050000D01*
X94920000Y-107510000D02*
X94920000Y-105350000D01*
X94920000Y-107510000D02*
X95850000Y-107510000D01*
X98080000Y-107510000D02*
X97150000Y-107510000D01*
%TO.C,C9*%
X114011252Y-82235000D02*
X113488748Y-82235000D01*
X114011252Y-80765000D02*
X113488748Y-80765000D01*
%TO.C,C12*%
X110735000Y-95988748D02*
X110735000Y-96511252D01*
X109265000Y-95988748D02*
X109265000Y-96511252D01*
%TO.C,C13*%
X110735000Y-79488748D02*
X110735000Y-80011252D01*
X109265000Y-79488748D02*
X109265000Y-80011252D01*
%TO.C,C15*%
X119985000Y-87761252D02*
X119985000Y-87238748D01*
X118515000Y-87761252D02*
X118515000Y-87238748D01*
%TO.C,C16*%
X113761252Y-69515000D02*
X113238748Y-69515000D01*
X113761252Y-70985000D02*
X113238748Y-70985000D01*
%TO.C,C19*%
X110735000Y-92261252D02*
X110735000Y-91738748D01*
X109265000Y-92261252D02*
X109265000Y-91738748D01*
%TO.C,C20*%
X110735000Y-75761252D02*
X110735000Y-75238748D01*
X109265000Y-75761252D02*
X109265000Y-75238748D01*
%TO.C,D2*%
X112500000Y-145500000D02*
X116400000Y-145500000D01*
X112500000Y-143500000D02*
X116400000Y-143500000D01*
X112500000Y-145500000D02*
X112500000Y-143500000D01*
%TO.C,Q7*%
X112170000Y-95990000D02*
X112170000Y-97450000D01*
X115330000Y-95990000D02*
X115330000Y-98150000D01*
X115330000Y-95990000D02*
X114400000Y-95990000D01*
X112170000Y-95990000D02*
X113100000Y-95990000D01*
%TO.C,Q8*%
X111920000Y-77240000D02*
X112850000Y-77240000D01*
X115080000Y-77240000D02*
X114150000Y-77240000D01*
X115080000Y-77240000D02*
X115080000Y-79400000D01*
X111920000Y-77240000D02*
X111920000Y-78700000D01*
%TO.C,Q9*%
X112170000Y-91240000D02*
X112170000Y-92700000D01*
X115330000Y-91240000D02*
X115330000Y-93400000D01*
X115330000Y-91240000D02*
X114400000Y-91240000D01*
X112170000Y-91240000D02*
X113100000Y-91240000D01*
%TO.C,Q10*%
X116420000Y-91240000D02*
X117350000Y-91240000D01*
X119580000Y-91240000D02*
X118650000Y-91240000D01*
X119580000Y-91240000D02*
X119580000Y-93400000D01*
X116420000Y-91240000D02*
X116420000Y-92700000D01*
%TO.C,Q11*%
X111920000Y-72990000D02*
X112850000Y-72990000D01*
X115080000Y-72990000D02*
X114150000Y-72990000D01*
X115080000Y-72990000D02*
X115080000Y-75150000D01*
X111920000Y-72990000D02*
X111920000Y-74450000D01*
%TO.C,Q12*%
X116920000Y-72990000D02*
X117850000Y-72990000D01*
X120080000Y-72990000D02*
X119150000Y-72990000D01*
X120080000Y-72990000D02*
X120080000Y-75150000D01*
X116920000Y-72990000D02*
X116920000Y-74450000D01*
%TO.C,R22*%
X113522936Y-84015000D02*
X113977064Y-84015000D01*
X113522936Y-85485000D02*
X113977064Y-85485000D01*
%TO.C,R23*%
X118272936Y-84485000D02*
X118727064Y-84485000D01*
X118272936Y-83015000D02*
X118727064Y-83015000D01*
%TO.C,R25*%
X118727064Y-80015000D02*
X118272936Y-80015000D01*
X118727064Y-81485000D02*
X118272936Y-81485000D01*
%TO.C,R26*%
X117977064Y-95765000D02*
X117522936Y-95765000D01*
X117977064Y-97235000D02*
X117522936Y-97235000D01*
%TO.C,R27*%
X118727064Y-78485000D02*
X118272936Y-78485000D01*
X118727064Y-77015000D02*
X118272936Y-77015000D01*
%TO.C,R32*%
X115227064Y-88735000D02*
X114772936Y-88735000D01*
X115227064Y-87265000D02*
X114772936Y-87265000D01*
%TO.C,R33*%
X118727064Y-69515000D02*
X118272936Y-69515000D01*
X118727064Y-70985000D02*
X118272936Y-70985000D01*
%TO.C,R34*%
X110977064Y-87265000D02*
X110522936Y-87265000D01*
X110977064Y-88735000D02*
X110522936Y-88735000D01*
%TO.C,R35*%
X110735000Y-70772936D02*
X110735000Y-71227064D01*
X109265000Y-70772936D02*
X109265000Y-71227064D01*
%TO.C,C2*%
X115985000Y-107988748D02*
X115985000Y-108511252D01*
X114515000Y-107988748D02*
X114515000Y-108511252D01*
%TO.C,C3*%
X103265000Y-99511252D02*
X103265000Y-98988748D01*
X104735000Y-99511252D02*
X104735000Y-98988748D01*
%TO.C,C6*%
X96761252Y-98765000D02*
X96238748Y-98765000D01*
X96761252Y-100235000D02*
X96238748Y-100235000D01*
%TO.C,C7*%
X103265000Y-108011252D02*
X103265000Y-107488748D01*
X104735000Y-108011252D02*
X104735000Y-107488748D01*
%TO.C,C8*%
X118011252Y-99515000D02*
X117488748Y-99515000D01*
X118011252Y-100985000D02*
X117488748Y-100985000D01*
%TO.C,C10*%
X101485000Y-108011252D02*
X101485000Y-107488748D01*
X100015000Y-108011252D02*
X100015000Y-107488748D01*
%TO.C,C14*%
X100015000Y-103238748D02*
X100015000Y-103761252D01*
X101485000Y-103238748D02*
X101485000Y-103761252D01*
%TO.C,C17*%
X104235000Y-77011252D02*
X104235000Y-76488748D01*
X102765000Y-77011252D02*
X102765000Y-76488748D01*
%TO.C,C18*%
X103265000Y-103238748D02*
X103265000Y-103761252D01*
X104735000Y-103238748D02*
X104735000Y-103761252D01*
%TO.C,C21*%
X97011252Y-78985000D02*
X96488748Y-78985000D01*
X97011252Y-77515000D02*
X96488748Y-77515000D01*
%TO.C,D1*%
X117500000Y-138750000D02*
X117500000Y-134850000D01*
X115500000Y-138750000D02*
X115500000Y-134850000D01*
X117500000Y-138750000D02*
X115500000Y-138750000D01*
%TO.C,Q2*%
X119260000Y-106670000D02*
X117800000Y-106670000D01*
X119260000Y-109830000D02*
X117100000Y-109830000D01*
X119260000Y-109830000D02*
X119260000Y-108900000D01*
X119260000Y-106670000D02*
X119260000Y-107600000D01*
%TO.C,R1*%
X114477064Y-110765000D02*
X114022936Y-110765000D01*
X114477064Y-112235000D02*
X114022936Y-112235000D01*
%TO.C,R2*%
X112015000Y-108477064D02*
X112015000Y-108022936D01*
X113485000Y-108477064D02*
X113485000Y-108022936D01*
%TO.C,R6*%
X101485000Y-99477064D02*
X101485000Y-99022936D01*
X100015000Y-99477064D02*
X100015000Y-99022936D01*
%TO.C,R7*%
X118272936Y-103265000D02*
X118727064Y-103265000D01*
X118272936Y-104735000D02*
X118727064Y-104735000D01*
%TO.C,R13*%
X94272936Y-109015000D02*
X94727064Y-109015000D01*
X94272936Y-110485000D02*
X94727064Y-110485000D01*
%TO.C,R14*%
X96272936Y-103485000D02*
X96727064Y-103485000D01*
X96272936Y-102015000D02*
X96727064Y-102015000D01*
%TO.C,R19*%
X98727064Y-113235000D02*
X98272936Y-113235000D01*
X98727064Y-111765000D02*
X98272936Y-111765000D01*
%TO.C,R20*%
X110735000Y-100272936D02*
X110735000Y-100727064D01*
X109265000Y-100272936D02*
X109265000Y-100727064D01*
%TO.C,R21*%
X110022936Y-104735000D02*
X110477064Y-104735000D01*
X110022936Y-103265000D02*
X110477064Y-103265000D01*
%TO.C,R24*%
X114022936Y-104735000D02*
X114477064Y-104735000D01*
X114022936Y-103265000D02*
X114477064Y-103265000D01*
%TO.C,R36*%
X90735000Y-77772936D02*
X90735000Y-78227064D01*
X89265000Y-77772936D02*
X89265000Y-78227064D01*
%TO.C,R37*%
X92727064Y-85765000D02*
X92272936Y-85765000D01*
X92727064Y-87235000D02*
X92272936Y-87235000D01*
%TO.C,R38*%
X92015000Y-77772936D02*
X92015000Y-78227064D01*
X93485000Y-77772936D02*
X93485000Y-78227064D01*
%TO.C,R39*%
X96985000Y-87227064D02*
X96985000Y-86772936D01*
X95515000Y-87227064D02*
X95515000Y-86772936D01*
%TO.C,R40*%
X99515000Y-79727064D02*
X99515000Y-79272936D01*
X100985000Y-79727064D02*
X100985000Y-79272936D01*
%TO.C,C1*%
X96985000Y-94538748D02*
X96985000Y-95061252D01*
X95515000Y-94538748D02*
X95515000Y-95061252D01*
%TO.C,C11*%
X88511252Y-85765000D02*
X87988748Y-85765000D01*
X88511252Y-87235000D02*
X87988748Y-87235000D01*
%TO.C,D4*%
X110250000Y-125950000D02*
X103750000Y-125950000D01*
X110250000Y-125950000D02*
X110250000Y-134350000D01*
X103750000Y-125950000D02*
X103750000Y-134350000D01*
%TO.C,D5*%
X98250000Y-119000000D02*
X98250000Y-122900000D01*
X100250000Y-119000000D02*
X100250000Y-122900000D01*
X98250000Y-119000000D02*
X100250000Y-119000000D01*
%TO.C,L1*%
X113100378Y-101310000D02*
X113899622Y-101310000D01*
X113100378Y-100190000D02*
X113899622Y-100190000D01*
%TO.C,L2*%
X109440000Y-84649622D02*
X109440000Y-83850378D01*
X110560000Y-84649622D02*
X110560000Y-83850378D01*
%TO.C,R5*%
X113485000Y-121522936D02*
X113485000Y-121977064D01*
X112015000Y-121522936D02*
X112015000Y-121977064D01*
%TO.C,R10*%
X90985000Y-99522936D02*
X90985000Y-99977064D01*
X89515000Y-99522936D02*
X89515000Y-99977064D01*
%TO.C,R11*%
X94272936Y-115515000D02*
X94727064Y-115515000D01*
X94272936Y-116985000D02*
X94727064Y-116985000D01*
%TO.C,R15*%
X94727064Y-112265000D02*
X94272936Y-112265000D01*
X94727064Y-113735000D02*
X94272936Y-113735000D01*
%TO.C,R16*%
X98727064Y-116735000D02*
X98272936Y-116735000D01*
X98727064Y-115265000D02*
X98272936Y-115265000D01*
%TO.C,R41*%
X94727064Y-118765000D02*
X94272936Y-118765000D01*
X94727064Y-120235000D02*
X94272936Y-120235000D01*
%TO.C,R44*%
X110735000Y-121977064D02*
X110735000Y-121522936D01*
X109265000Y-121977064D02*
X109265000Y-121522936D01*
D10*
%TO.C,U1*%
X92425000Y-124925000D02*
X92475000Y-124925000D01*
X92425000Y-129075000D02*
X92570000Y-129075000D01*
X97575000Y-129075000D02*
X97430000Y-129075000D01*
X97575000Y-124925000D02*
X97430000Y-124925000D01*
X92425000Y-124925000D02*
X92425000Y-129075000D01*
X97575000Y-124925000D02*
X97575000Y-129075000D01*
X92475000Y-124925000D02*
X92475000Y-123525000D01*
%TO.C,HS1*%
X92950000Y-125250000D02*
X119550000Y-125250000D01*
X92950000Y-138250000D02*
X119550000Y-138250000D01*
X92950000Y-125250000D02*
X92950000Y-138250000D01*
X119550000Y-138250000D02*
X119550000Y-125250000D01*
D11*
%TO.C,C4*%
X120988748Y-113485000D02*
X121511252Y-113485000D01*
X120988748Y-112015000D02*
X121511252Y-112015000D01*
%TO.C,C5*%
X106735000Y-111988748D02*
X106735000Y-112511252D01*
X105265000Y-111988748D02*
X105265000Y-112511252D01*
%TO.C,D6*%
X103250000Y-123500000D02*
X103250000Y-119600000D01*
X101250000Y-123500000D02*
X101250000Y-119600000D01*
X103250000Y-123500000D02*
X101250000Y-123500000D01*
%TO.C,D7*%
X112500000Y-142000000D02*
X112500000Y-140000000D01*
X112500000Y-140000000D02*
X116400000Y-140000000D01*
X112500000Y-142000000D02*
X116400000Y-142000000D01*
%TO.C,R3*%
X118485000Y-113272936D02*
X118485000Y-113727064D01*
X117015000Y-113272936D02*
X117015000Y-113727064D01*
%TO.C,R4*%
X102272936Y-113235000D02*
X102727064Y-113235000D01*
X102272936Y-111765000D02*
X102727064Y-111765000D01*
%TO.C,R8*%
X102272936Y-116485000D02*
X102727064Y-116485000D01*
X102272936Y-115015000D02*
X102727064Y-115015000D01*
%TO.C,R9*%
X106272936Y-115015000D02*
X106727064Y-115015000D01*
X106272936Y-116485000D02*
X106727064Y-116485000D01*
%TO.C,R12*%
X121022936Y-116985000D02*
X121477064Y-116985000D01*
X121022936Y-115515000D02*
X121477064Y-115515000D01*
%TO.C,R17*%
X110859165Y-117319718D02*
X111180282Y-117640835D01*
X109819718Y-118359165D02*
X110140835Y-118680282D01*
%TO.C,D3*%
D10*
X118702030Y-130591793D02*
X119409137Y-129884687D01*
X119240778Y-129716328D01*
X119106091Y-129648984D01*
X118971404Y-129648984D01*
X118870389Y-129682656D01*
X118702030Y-129783671D01*
X118601015Y-129884687D01*
X118500000Y-130053045D01*
X118466328Y-130154061D01*
X118466328Y-130288748D01*
X118533671Y-130423435D01*
X118702030Y-130591793D01*
X118769374Y-129244923D02*
X118331641Y-128807190D01*
X118297969Y-129312267D01*
X118196954Y-129211251D01*
X118095938Y-129177580D01*
X118028595Y-129177580D01*
X117927580Y-129211251D01*
X117759221Y-129379610D01*
X117725549Y-129480625D01*
X117725549Y-129547969D01*
X117759221Y-129648984D01*
X117961251Y-129851015D01*
X118062267Y-129884687D01*
X118129610Y-129884687D01*
%TO.C,Q6*%
X93845238Y-107047619D02*
X93940476Y-107000000D01*
X94035714Y-106904761D01*
X94178571Y-106761904D01*
X94273809Y-106714285D01*
X94369047Y-106714285D01*
X94321428Y-106952380D02*
X94416666Y-106904761D01*
X94511904Y-106809523D01*
X94559523Y-106619047D01*
X94559523Y-106285714D01*
X94511904Y-106095238D01*
X94416666Y-106000000D01*
X94321428Y-105952380D01*
X94130952Y-105952380D01*
X94035714Y-106000000D01*
X93940476Y-106095238D01*
X93892857Y-106285714D01*
X93892857Y-106619047D01*
X93940476Y-106809523D01*
X94035714Y-106904761D01*
X94130952Y-106952380D01*
X94321428Y-106952380D01*
X93035714Y-105952380D02*
X93226190Y-105952380D01*
X93321428Y-106000000D01*
X93369047Y-106047619D01*
X93464285Y-106190476D01*
X93511904Y-106380952D01*
X93511904Y-106761904D01*
X93464285Y-106857142D01*
X93416666Y-106904761D01*
X93321428Y-106952380D01*
X93130952Y-106952380D01*
X93035714Y-106904761D01*
X92988095Y-106857142D01*
X92940476Y-106761904D01*
X92940476Y-106523809D01*
X92988095Y-106428571D01*
X93035714Y-106380952D01*
X93130952Y-106333333D01*
X93321428Y-106333333D01*
X93416666Y-106380952D01*
X93464285Y-106428571D01*
X93511904Y-106523809D01*
%TO.C,C9*%
X113916666Y-83607142D02*
X113964285Y-83654761D01*
X114107142Y-83702380D01*
X114202380Y-83702380D01*
X114345238Y-83654761D01*
X114440476Y-83559523D01*
X114488095Y-83464285D01*
X114535714Y-83273809D01*
X114535714Y-83130952D01*
X114488095Y-82940476D01*
X114440476Y-82845238D01*
X114345238Y-82750000D01*
X114202380Y-82702380D01*
X114107142Y-82702380D01*
X113964285Y-82750000D01*
X113916666Y-82797619D01*
X113440476Y-83702380D02*
X113250000Y-83702380D01*
X113154761Y-83654761D01*
X113107142Y-83607142D01*
X113011904Y-83464285D01*
X112964285Y-83273809D01*
X112964285Y-82892857D01*
X113011904Y-82797619D01*
X113059523Y-82750000D01*
X113154761Y-82702380D01*
X113345238Y-82702380D01*
X113440476Y-82750000D01*
X113488095Y-82797619D01*
X113535714Y-82892857D01*
X113535714Y-83130952D01*
X113488095Y-83226190D01*
X113440476Y-83273809D01*
X113345238Y-83321428D01*
X113154761Y-83321428D01*
X113059523Y-83273809D01*
X113011904Y-83226190D01*
X112964285Y-83130952D01*
%TO.C,C12*%
X108857142Y-95607142D02*
X108904761Y-95559523D01*
X108952380Y-95416666D01*
X108952380Y-95321428D01*
X108904761Y-95178571D01*
X108809523Y-95083333D01*
X108714285Y-95035714D01*
X108523809Y-94988095D01*
X108380952Y-94988095D01*
X108190476Y-95035714D01*
X108095238Y-95083333D01*
X108000000Y-95178571D01*
X107952380Y-95321428D01*
X107952380Y-95416666D01*
X108000000Y-95559523D01*
X108047619Y-95607142D01*
X108952380Y-96559523D02*
X108952380Y-95988095D01*
X108952380Y-96273809D02*
X107952380Y-96273809D01*
X108095238Y-96178571D01*
X108190476Y-96083333D01*
X108238095Y-95988095D01*
X108047619Y-96940476D02*
X108000000Y-96988095D01*
X107952380Y-97083333D01*
X107952380Y-97321428D01*
X108000000Y-97416666D01*
X108047619Y-97464285D01*
X108142857Y-97511904D01*
X108238095Y-97511904D01*
X108380952Y-97464285D01*
X108952380Y-96892857D01*
X108952380Y-97511904D01*
%TO.C,C13*%
X108857142Y-79107142D02*
X108904761Y-79059523D01*
X108952380Y-78916666D01*
X108952380Y-78821428D01*
X108904761Y-78678571D01*
X108809523Y-78583333D01*
X108714285Y-78535714D01*
X108523809Y-78488095D01*
X108380952Y-78488095D01*
X108190476Y-78535714D01*
X108095238Y-78583333D01*
X108000000Y-78678571D01*
X107952380Y-78821428D01*
X107952380Y-78916666D01*
X108000000Y-79059523D01*
X108047619Y-79107142D01*
X108952380Y-80059523D02*
X108952380Y-79488095D01*
X108952380Y-79773809D02*
X107952380Y-79773809D01*
X108095238Y-79678571D01*
X108190476Y-79583333D01*
X108238095Y-79488095D01*
X107952380Y-80392857D02*
X107952380Y-81011904D01*
X108333333Y-80678571D01*
X108333333Y-80821428D01*
X108380952Y-80916666D01*
X108428571Y-80964285D01*
X108523809Y-81011904D01*
X108761904Y-81011904D01*
X108857142Y-80964285D01*
X108904761Y-80916666D01*
X108952380Y-80821428D01*
X108952380Y-80535714D01*
X108904761Y-80440476D01*
X108857142Y-80392857D01*
%TO.C,C15*%
X117857142Y-86857142D02*
X117904761Y-86809523D01*
X117952380Y-86666666D01*
X117952380Y-86571428D01*
X117904761Y-86428571D01*
X117809523Y-86333333D01*
X117714285Y-86285714D01*
X117523809Y-86238095D01*
X117380952Y-86238095D01*
X117190476Y-86285714D01*
X117095238Y-86333333D01*
X117000000Y-86428571D01*
X116952380Y-86571428D01*
X116952380Y-86666666D01*
X117000000Y-86809523D01*
X117047619Y-86857142D01*
X117952380Y-87809523D02*
X117952380Y-87238095D01*
X117952380Y-87523809D02*
X116952380Y-87523809D01*
X117095238Y-87428571D01*
X117190476Y-87333333D01*
X117238095Y-87238095D01*
X116952380Y-88714285D02*
X116952380Y-88238095D01*
X117428571Y-88190476D01*
X117380952Y-88238095D01*
X117333333Y-88333333D01*
X117333333Y-88571428D01*
X117380952Y-88666666D01*
X117428571Y-88714285D01*
X117523809Y-88761904D01*
X117761904Y-88761904D01*
X117857142Y-88714285D01*
X117904761Y-88666666D01*
X117952380Y-88571428D01*
X117952380Y-88333333D01*
X117904761Y-88238095D01*
X117857142Y-88190476D01*
%TO.C,C16*%
X116357142Y-69357142D02*
X116404761Y-69309523D01*
X116452380Y-69166666D01*
X116452380Y-69071428D01*
X116404761Y-68928571D01*
X116309523Y-68833333D01*
X116214285Y-68785714D01*
X116023809Y-68738095D01*
X115880952Y-68738095D01*
X115690476Y-68785714D01*
X115595238Y-68833333D01*
X115500000Y-68928571D01*
X115452380Y-69071428D01*
X115452380Y-69166666D01*
X115500000Y-69309523D01*
X115547619Y-69357142D01*
X116452380Y-70309523D02*
X116452380Y-69738095D01*
X116452380Y-70023809D02*
X115452380Y-70023809D01*
X115595238Y-69928571D01*
X115690476Y-69833333D01*
X115738095Y-69738095D01*
X115452380Y-71166666D02*
X115452380Y-70976190D01*
X115500000Y-70880952D01*
X115547619Y-70833333D01*
X115690476Y-70738095D01*
X115880952Y-70690476D01*
X116261904Y-70690476D01*
X116357142Y-70738095D01*
X116404761Y-70785714D01*
X116452380Y-70880952D01*
X116452380Y-71071428D01*
X116404761Y-71166666D01*
X116357142Y-71214285D01*
X116261904Y-71261904D01*
X116023809Y-71261904D01*
X115928571Y-71214285D01*
X115880952Y-71166666D01*
X115833333Y-71071428D01*
X115833333Y-70880952D01*
X115880952Y-70785714D01*
X115928571Y-70738095D01*
X116023809Y-70690476D01*
%TO.C,C19*%
X108857142Y-91357142D02*
X108904761Y-91309523D01*
X108952380Y-91166666D01*
X108952380Y-91071428D01*
X108904761Y-90928571D01*
X108809523Y-90833333D01*
X108714285Y-90785714D01*
X108523809Y-90738095D01*
X108380952Y-90738095D01*
X108190476Y-90785714D01*
X108095238Y-90833333D01*
X108000000Y-90928571D01*
X107952380Y-91071428D01*
X107952380Y-91166666D01*
X108000000Y-91309523D01*
X108047619Y-91357142D01*
X108952380Y-92309523D02*
X108952380Y-91738095D01*
X108952380Y-92023809D02*
X107952380Y-92023809D01*
X108095238Y-91928571D01*
X108190476Y-91833333D01*
X108238095Y-91738095D01*
X108952380Y-92785714D02*
X108952380Y-92976190D01*
X108904761Y-93071428D01*
X108857142Y-93119047D01*
X108714285Y-93214285D01*
X108523809Y-93261904D01*
X108142857Y-93261904D01*
X108047619Y-93214285D01*
X108000000Y-93166666D01*
X107952380Y-93071428D01*
X107952380Y-92880952D01*
X108000000Y-92785714D01*
X108047619Y-92738095D01*
X108142857Y-92690476D01*
X108380952Y-92690476D01*
X108476190Y-92738095D01*
X108523809Y-92785714D01*
X108571428Y-92880952D01*
X108571428Y-93071428D01*
X108523809Y-93166666D01*
X108476190Y-93214285D01*
X108380952Y-93261904D01*
%TO.C,C20*%
X108857142Y-74857142D02*
X108904761Y-74809523D01*
X108952380Y-74666666D01*
X108952380Y-74571428D01*
X108904761Y-74428571D01*
X108809523Y-74333333D01*
X108714285Y-74285714D01*
X108523809Y-74238095D01*
X108380952Y-74238095D01*
X108190476Y-74285714D01*
X108095238Y-74333333D01*
X108000000Y-74428571D01*
X107952380Y-74571428D01*
X107952380Y-74666666D01*
X108000000Y-74809523D01*
X108047619Y-74857142D01*
X108047619Y-75238095D02*
X108000000Y-75285714D01*
X107952380Y-75380952D01*
X107952380Y-75619047D01*
X108000000Y-75714285D01*
X108047619Y-75761904D01*
X108142857Y-75809523D01*
X108238095Y-75809523D01*
X108380952Y-75761904D01*
X108952380Y-75190476D01*
X108952380Y-75809523D01*
X107952380Y-76428571D02*
X107952380Y-76523809D01*
X108000000Y-76619047D01*
X108047619Y-76666666D01*
X108142857Y-76714285D01*
X108333333Y-76761904D01*
X108571428Y-76761904D01*
X108761904Y-76714285D01*
X108857142Y-76666666D01*
X108904761Y-76619047D01*
X108952380Y-76523809D01*
X108952380Y-76428571D01*
X108904761Y-76333333D01*
X108857142Y-76285714D01*
X108761904Y-76238095D01*
X108571428Y-76190476D01*
X108333333Y-76190476D01*
X108142857Y-76238095D01*
X108047619Y-76285714D01*
X108000000Y-76333333D01*
X107952380Y-76428571D01*
%TO.C,D2*%
X116488095Y-146702380D02*
X116488095Y-145702380D01*
X116250000Y-145702380D01*
X116107142Y-145750000D01*
X116011904Y-145845238D01*
X115964285Y-145940476D01*
X115916666Y-146130952D01*
X115916666Y-146273809D01*
X115964285Y-146464285D01*
X116011904Y-146559523D01*
X116107142Y-146654761D01*
X116250000Y-146702380D01*
X116488095Y-146702380D01*
X115535714Y-145797619D02*
X115488095Y-145750000D01*
X115392857Y-145702380D01*
X115154761Y-145702380D01*
X115059523Y-145750000D01*
X115011904Y-145797619D01*
X114964285Y-145892857D01*
X114964285Y-145988095D01*
X115011904Y-146130952D01*
X115583333Y-146702380D01*
X114964285Y-146702380D01*
%TO.C,Q7*%
X113845238Y-99647619D02*
X113940476Y-99600000D01*
X114035714Y-99504761D01*
X114178571Y-99361904D01*
X114273809Y-99314285D01*
X114369047Y-99314285D01*
X114321428Y-99552380D02*
X114416666Y-99504761D01*
X114511904Y-99409523D01*
X114559523Y-99219047D01*
X114559523Y-98885714D01*
X114511904Y-98695238D01*
X114416666Y-98600000D01*
X114321428Y-98552380D01*
X114130952Y-98552380D01*
X114035714Y-98600000D01*
X113940476Y-98695238D01*
X113892857Y-98885714D01*
X113892857Y-99219047D01*
X113940476Y-99409523D01*
X114035714Y-99504761D01*
X114130952Y-99552380D01*
X114321428Y-99552380D01*
X113559523Y-98552380D02*
X112892857Y-98552380D01*
X113321428Y-99552380D01*
%TO.C,Q8*%
X116547619Y-77404761D02*
X116500000Y-77309523D01*
X116404761Y-77214285D01*
X116261904Y-77071428D01*
X116214285Y-76976190D01*
X116214285Y-76880952D01*
X116452380Y-76928571D02*
X116404761Y-76833333D01*
X116309523Y-76738095D01*
X116119047Y-76690476D01*
X115785714Y-76690476D01*
X115595238Y-76738095D01*
X115500000Y-76833333D01*
X115452380Y-76928571D01*
X115452380Y-77119047D01*
X115500000Y-77214285D01*
X115595238Y-77309523D01*
X115785714Y-77357142D01*
X116119047Y-77357142D01*
X116309523Y-77309523D01*
X116404761Y-77214285D01*
X116452380Y-77119047D01*
X116452380Y-76928571D01*
X115880952Y-77928571D02*
X115833333Y-77833333D01*
X115785714Y-77785714D01*
X115690476Y-77738095D01*
X115642857Y-77738095D01*
X115547619Y-77785714D01*
X115500000Y-77833333D01*
X115452380Y-77928571D01*
X115452380Y-78119047D01*
X115500000Y-78214285D01*
X115547619Y-78261904D01*
X115642857Y-78309523D01*
X115690476Y-78309523D01*
X115785714Y-78261904D01*
X115833333Y-78214285D01*
X115880952Y-78119047D01*
X115880952Y-77928571D01*
X115928571Y-77833333D01*
X115976190Y-77785714D01*
X116071428Y-77738095D01*
X116261904Y-77738095D01*
X116357142Y-77785714D01*
X116404761Y-77833333D01*
X116452380Y-77928571D01*
X116452380Y-78119047D01*
X116404761Y-78214285D01*
X116357142Y-78261904D01*
X116261904Y-78309523D01*
X116071428Y-78309523D01*
X115976190Y-78261904D01*
X115928571Y-78214285D01*
X115880952Y-78119047D01*
%TO.C,Q9*%
X113845238Y-95047619D02*
X113940476Y-95000000D01*
X114035714Y-94904761D01*
X114178571Y-94761904D01*
X114273809Y-94714285D01*
X114369047Y-94714285D01*
X114321428Y-94952380D02*
X114416666Y-94904761D01*
X114511904Y-94809523D01*
X114559523Y-94619047D01*
X114559523Y-94285714D01*
X114511904Y-94095238D01*
X114416666Y-94000000D01*
X114321428Y-93952380D01*
X114130952Y-93952380D01*
X114035714Y-94000000D01*
X113940476Y-94095238D01*
X113892857Y-94285714D01*
X113892857Y-94619047D01*
X113940476Y-94809523D01*
X114035714Y-94904761D01*
X114130952Y-94952380D01*
X114321428Y-94952380D01*
X113416666Y-94952380D02*
X113226190Y-94952380D01*
X113130952Y-94904761D01*
X113083333Y-94857142D01*
X112988095Y-94714285D01*
X112940476Y-94523809D01*
X112940476Y-94142857D01*
X112988095Y-94047619D01*
X113035714Y-94000000D01*
X113130952Y-93952380D01*
X113321428Y-93952380D01*
X113416666Y-94000000D01*
X113464285Y-94047619D01*
X113511904Y-94142857D01*
X113511904Y-94380952D01*
X113464285Y-94476190D01*
X113416666Y-94523809D01*
X113321428Y-94571428D01*
X113130952Y-94571428D01*
X113035714Y-94523809D01*
X112988095Y-94476190D01*
X112940476Y-94380952D01*
%TO.C,Q10*%
X118471428Y-94997619D02*
X118566666Y-94950000D01*
X118661904Y-94854761D01*
X118804761Y-94711904D01*
X118900000Y-94664285D01*
X118995238Y-94664285D01*
X118947619Y-94902380D02*
X119042857Y-94854761D01*
X119138095Y-94759523D01*
X119185714Y-94569047D01*
X119185714Y-94235714D01*
X119138095Y-94045238D01*
X119042857Y-93950000D01*
X118947619Y-93902380D01*
X118757142Y-93902380D01*
X118661904Y-93950000D01*
X118566666Y-94045238D01*
X118519047Y-94235714D01*
X118519047Y-94569047D01*
X118566666Y-94759523D01*
X118661904Y-94854761D01*
X118757142Y-94902380D01*
X118947619Y-94902380D01*
X117566666Y-94902380D02*
X118138095Y-94902380D01*
X117852380Y-94902380D02*
X117852380Y-93902380D01*
X117947619Y-94045238D01*
X118042857Y-94140476D01*
X118138095Y-94188095D01*
X116947619Y-93902380D02*
X116852380Y-93902380D01*
X116757142Y-93950000D01*
X116709523Y-93997619D01*
X116661904Y-94092857D01*
X116614285Y-94283333D01*
X116614285Y-94521428D01*
X116661904Y-94711904D01*
X116709523Y-94807142D01*
X116757142Y-94854761D01*
X116852380Y-94902380D01*
X116947619Y-94902380D01*
X117042857Y-94854761D01*
X117090476Y-94807142D01*
X117138095Y-94711904D01*
X117185714Y-94521428D01*
X117185714Y-94283333D01*
X117138095Y-94092857D01*
X117090476Y-93997619D01*
X117042857Y-93950000D01*
X116947619Y-93902380D01*
%TO.C,Q11*%
X116547619Y-73178571D02*
X116500000Y-73083333D01*
X116404761Y-72988095D01*
X116261904Y-72845238D01*
X116214285Y-72750000D01*
X116214285Y-72654761D01*
X116452380Y-72702380D02*
X116404761Y-72607142D01*
X116309523Y-72511904D01*
X116119047Y-72464285D01*
X115785714Y-72464285D01*
X115595238Y-72511904D01*
X115500000Y-72607142D01*
X115452380Y-72702380D01*
X115452380Y-72892857D01*
X115500000Y-72988095D01*
X115595238Y-73083333D01*
X115785714Y-73130952D01*
X116119047Y-73130952D01*
X116309523Y-73083333D01*
X116404761Y-72988095D01*
X116452380Y-72892857D01*
X116452380Y-72702380D01*
X116452380Y-74083333D02*
X116452380Y-73511904D01*
X116452380Y-73797619D02*
X115452380Y-73797619D01*
X115595238Y-73702380D01*
X115690476Y-73607142D01*
X115738095Y-73511904D01*
X116452380Y-75035714D02*
X116452380Y-74464285D01*
X116452380Y-74750000D02*
X115452380Y-74750000D01*
X115595238Y-74654761D01*
X115690476Y-74559523D01*
X115738095Y-74464285D01*
%TO.C,Q12*%
X119071428Y-76547619D02*
X119166666Y-76500000D01*
X119261904Y-76404761D01*
X119404761Y-76261904D01*
X119500000Y-76214285D01*
X119595238Y-76214285D01*
X119547619Y-76452380D02*
X119642857Y-76404761D01*
X119738095Y-76309523D01*
X119785714Y-76119047D01*
X119785714Y-75785714D01*
X119738095Y-75595238D01*
X119642857Y-75500000D01*
X119547619Y-75452380D01*
X119357142Y-75452380D01*
X119261904Y-75500000D01*
X119166666Y-75595238D01*
X119119047Y-75785714D01*
X119119047Y-76119047D01*
X119166666Y-76309523D01*
X119261904Y-76404761D01*
X119357142Y-76452380D01*
X119547619Y-76452380D01*
X118166666Y-76452380D02*
X118738095Y-76452380D01*
X118452380Y-76452380D02*
X118452380Y-75452380D01*
X118547619Y-75595238D01*
X118642857Y-75690476D01*
X118738095Y-75738095D01*
X117785714Y-75547619D02*
X117738095Y-75500000D01*
X117642857Y-75452380D01*
X117404761Y-75452380D01*
X117309523Y-75500000D01*
X117261904Y-75547619D01*
X117214285Y-75642857D01*
X117214285Y-75738095D01*
X117261904Y-75880952D01*
X117833333Y-76452380D01*
X117214285Y-76452380D01*
%TO.C,R22*%
X114392857Y-86702380D02*
X114726190Y-86226190D01*
X114964285Y-86702380D02*
X114964285Y-85702380D01*
X114583333Y-85702380D01*
X114488095Y-85750000D01*
X114440476Y-85797619D01*
X114392857Y-85892857D01*
X114392857Y-86035714D01*
X114440476Y-86130952D01*
X114488095Y-86178571D01*
X114583333Y-86226190D01*
X114964285Y-86226190D01*
X114011904Y-85797619D02*
X113964285Y-85750000D01*
X113869047Y-85702380D01*
X113630952Y-85702380D01*
X113535714Y-85750000D01*
X113488095Y-85797619D01*
X113440476Y-85892857D01*
X113440476Y-85988095D01*
X113488095Y-86130952D01*
X114059523Y-86702380D01*
X113440476Y-86702380D01*
X113059523Y-85797619D02*
X113011904Y-85750000D01*
X112916666Y-85702380D01*
X112678571Y-85702380D01*
X112583333Y-85750000D01*
X112535714Y-85797619D01*
X112488095Y-85892857D01*
X112488095Y-85988095D01*
X112535714Y-86130952D01*
X113107142Y-86702380D01*
X112488095Y-86702380D01*
%TO.C,R23*%
X119142857Y-85702380D02*
X119476190Y-85226190D01*
X119714285Y-85702380D02*
X119714285Y-84702380D01*
X119333333Y-84702380D01*
X119238095Y-84750000D01*
X119190476Y-84797619D01*
X119142857Y-84892857D01*
X119142857Y-85035714D01*
X119190476Y-85130952D01*
X119238095Y-85178571D01*
X119333333Y-85226190D01*
X119714285Y-85226190D01*
X118761904Y-84797619D02*
X118714285Y-84750000D01*
X118619047Y-84702380D01*
X118380952Y-84702380D01*
X118285714Y-84750000D01*
X118238095Y-84797619D01*
X118190476Y-84892857D01*
X118190476Y-84988095D01*
X118238095Y-85130952D01*
X118809523Y-85702380D01*
X118190476Y-85702380D01*
X117857142Y-84702380D02*
X117238095Y-84702380D01*
X117571428Y-85083333D01*
X117428571Y-85083333D01*
X117333333Y-85130952D01*
X117285714Y-85178571D01*
X117238095Y-85273809D01*
X117238095Y-85511904D01*
X117285714Y-85607142D01*
X117333333Y-85654761D01*
X117428571Y-85702380D01*
X117714285Y-85702380D01*
X117809523Y-85654761D01*
X117857142Y-85607142D01*
%TO.C,R25*%
X119142857Y-82702380D02*
X119476190Y-82226190D01*
X119714285Y-82702380D02*
X119714285Y-81702380D01*
X119333333Y-81702380D01*
X119238095Y-81750000D01*
X119190476Y-81797619D01*
X119142857Y-81892857D01*
X119142857Y-82035714D01*
X119190476Y-82130952D01*
X119238095Y-82178571D01*
X119333333Y-82226190D01*
X119714285Y-82226190D01*
X118761904Y-81797619D02*
X118714285Y-81750000D01*
X118619047Y-81702380D01*
X118380952Y-81702380D01*
X118285714Y-81750000D01*
X118238095Y-81797619D01*
X118190476Y-81892857D01*
X118190476Y-81988095D01*
X118238095Y-82130952D01*
X118809523Y-82702380D01*
X118190476Y-82702380D01*
X117285714Y-81702380D02*
X117761904Y-81702380D01*
X117809523Y-82178571D01*
X117761904Y-82130952D01*
X117666666Y-82083333D01*
X117428571Y-82083333D01*
X117333333Y-82130952D01*
X117285714Y-82178571D01*
X117238095Y-82273809D01*
X117238095Y-82511904D01*
X117285714Y-82607142D01*
X117333333Y-82654761D01*
X117428571Y-82702380D01*
X117666666Y-82702380D01*
X117761904Y-82654761D01*
X117809523Y-82607142D01*
%TO.C,R26*%
X118292857Y-98652380D02*
X118626190Y-98176190D01*
X118864285Y-98652380D02*
X118864285Y-97652380D01*
X118483333Y-97652380D01*
X118388095Y-97700000D01*
X118340476Y-97747619D01*
X118292857Y-97842857D01*
X118292857Y-97985714D01*
X118340476Y-98080952D01*
X118388095Y-98128571D01*
X118483333Y-98176190D01*
X118864285Y-98176190D01*
X117911904Y-97747619D02*
X117864285Y-97700000D01*
X117769047Y-97652380D01*
X117530952Y-97652380D01*
X117435714Y-97700000D01*
X117388095Y-97747619D01*
X117340476Y-97842857D01*
X117340476Y-97938095D01*
X117388095Y-98080952D01*
X117959523Y-98652380D01*
X117340476Y-98652380D01*
X116483333Y-97652380D02*
X116673809Y-97652380D01*
X116769047Y-97700000D01*
X116816666Y-97747619D01*
X116911904Y-97890476D01*
X116959523Y-98080952D01*
X116959523Y-98461904D01*
X116911904Y-98557142D01*
X116864285Y-98604761D01*
X116769047Y-98652380D01*
X116578571Y-98652380D01*
X116483333Y-98604761D01*
X116435714Y-98557142D01*
X116388095Y-98461904D01*
X116388095Y-98223809D01*
X116435714Y-98128571D01*
X116483333Y-98080952D01*
X116578571Y-98033333D01*
X116769047Y-98033333D01*
X116864285Y-98080952D01*
X116911904Y-98128571D01*
X116959523Y-98223809D01*
%TO.C,R27*%
X119142857Y-79702380D02*
X119476190Y-79226190D01*
X119714285Y-79702380D02*
X119714285Y-78702380D01*
X119333333Y-78702380D01*
X119238095Y-78750000D01*
X119190476Y-78797619D01*
X119142857Y-78892857D01*
X119142857Y-79035714D01*
X119190476Y-79130952D01*
X119238095Y-79178571D01*
X119333333Y-79226190D01*
X119714285Y-79226190D01*
X118761904Y-78797619D02*
X118714285Y-78750000D01*
X118619047Y-78702380D01*
X118380952Y-78702380D01*
X118285714Y-78750000D01*
X118238095Y-78797619D01*
X118190476Y-78892857D01*
X118190476Y-78988095D01*
X118238095Y-79130952D01*
X118809523Y-79702380D01*
X118190476Y-79702380D01*
X117857142Y-78702380D02*
X117190476Y-78702380D01*
X117619047Y-79702380D01*
%TO.C,R32*%
X115642857Y-89952380D02*
X115976190Y-89476190D01*
X116214285Y-89952380D02*
X116214285Y-88952380D01*
X115833333Y-88952380D01*
X115738095Y-89000000D01*
X115690476Y-89047619D01*
X115642857Y-89142857D01*
X115642857Y-89285714D01*
X115690476Y-89380952D01*
X115738095Y-89428571D01*
X115833333Y-89476190D01*
X116214285Y-89476190D01*
X115309523Y-88952380D02*
X114690476Y-88952380D01*
X115023809Y-89333333D01*
X114880952Y-89333333D01*
X114785714Y-89380952D01*
X114738095Y-89428571D01*
X114690476Y-89523809D01*
X114690476Y-89761904D01*
X114738095Y-89857142D01*
X114785714Y-89904761D01*
X114880952Y-89952380D01*
X115166666Y-89952380D01*
X115261904Y-89904761D01*
X115309523Y-89857142D01*
X114309523Y-89047619D02*
X114261904Y-89000000D01*
X114166666Y-88952380D01*
X113928571Y-88952380D01*
X113833333Y-89000000D01*
X113785714Y-89047619D01*
X113738095Y-89142857D01*
X113738095Y-89238095D01*
X113785714Y-89380952D01*
X114357142Y-89952380D01*
X113738095Y-89952380D01*
%TO.C,R33*%
X122392857Y-70702380D02*
X122726190Y-70226190D01*
X122964285Y-70702380D02*
X122964285Y-69702380D01*
X122583333Y-69702380D01*
X122488095Y-69750000D01*
X122440476Y-69797619D01*
X122392857Y-69892857D01*
X122392857Y-70035714D01*
X122440476Y-70130952D01*
X122488095Y-70178571D01*
X122583333Y-70226190D01*
X122964285Y-70226190D01*
X122059523Y-69702380D02*
X121440476Y-69702380D01*
X121773809Y-70083333D01*
X121630952Y-70083333D01*
X121535714Y-70130952D01*
X121488095Y-70178571D01*
X121440476Y-70273809D01*
X121440476Y-70511904D01*
X121488095Y-70607142D01*
X121535714Y-70654761D01*
X121630952Y-70702380D01*
X121916666Y-70702380D01*
X122011904Y-70654761D01*
X122059523Y-70607142D01*
X121107142Y-69702380D02*
X120488095Y-69702380D01*
X120821428Y-70083333D01*
X120678571Y-70083333D01*
X120583333Y-70130952D01*
X120535714Y-70178571D01*
X120488095Y-70273809D01*
X120488095Y-70511904D01*
X120535714Y-70607142D01*
X120583333Y-70654761D01*
X120678571Y-70702380D01*
X120964285Y-70702380D01*
X121059523Y-70654761D01*
X121107142Y-70607142D01*
%TO.C,R34*%
X111392857Y-89952380D02*
X111726190Y-89476190D01*
X111964285Y-89952380D02*
X111964285Y-88952380D01*
X111583333Y-88952380D01*
X111488095Y-89000000D01*
X111440476Y-89047619D01*
X111392857Y-89142857D01*
X111392857Y-89285714D01*
X111440476Y-89380952D01*
X111488095Y-89428571D01*
X111583333Y-89476190D01*
X111964285Y-89476190D01*
X111059523Y-88952380D02*
X110440476Y-88952380D01*
X110773809Y-89333333D01*
X110630952Y-89333333D01*
X110535714Y-89380952D01*
X110488095Y-89428571D01*
X110440476Y-89523809D01*
X110440476Y-89761904D01*
X110488095Y-89857142D01*
X110535714Y-89904761D01*
X110630952Y-89952380D01*
X110916666Y-89952380D01*
X111011904Y-89904761D01*
X111059523Y-89857142D01*
X109583333Y-89285714D02*
X109583333Y-89952380D01*
X109821428Y-88904761D02*
X110059523Y-89619047D01*
X109440476Y-89619047D01*
%TO.C,R35*%
X108952380Y-70357142D02*
X108476190Y-70023809D01*
X108952380Y-69785714D02*
X107952380Y-69785714D01*
X107952380Y-70166666D01*
X108000000Y-70261904D01*
X108047619Y-70309523D01*
X108142857Y-70357142D01*
X108285714Y-70357142D01*
X108380952Y-70309523D01*
X108428571Y-70261904D01*
X108476190Y-70166666D01*
X108476190Y-69785714D01*
X107952380Y-70690476D02*
X107952380Y-71309523D01*
X108333333Y-70976190D01*
X108333333Y-71119047D01*
X108380952Y-71214285D01*
X108428571Y-71261904D01*
X108523809Y-71309523D01*
X108761904Y-71309523D01*
X108857142Y-71261904D01*
X108904761Y-71214285D01*
X108952380Y-71119047D01*
X108952380Y-70833333D01*
X108904761Y-70738095D01*
X108857142Y-70690476D01*
X107952380Y-72214285D02*
X107952380Y-71738095D01*
X108428571Y-71690476D01*
X108380952Y-71738095D01*
X108333333Y-71833333D01*
X108333333Y-72071428D01*
X108380952Y-72166666D01*
X108428571Y-72214285D01*
X108523809Y-72261904D01*
X108761904Y-72261904D01*
X108857142Y-72214285D01*
X108904761Y-72166666D01*
X108952380Y-72071428D01*
X108952380Y-71833333D01*
X108904761Y-71738095D01*
X108857142Y-71690476D01*
%TO.C,C2*%
X111357142Y-108083333D02*
X111404761Y-108035714D01*
X111452380Y-107892857D01*
X111452380Y-107797619D01*
X111404761Y-107654761D01*
X111309523Y-107559523D01*
X111214285Y-107511904D01*
X111023809Y-107464285D01*
X110880952Y-107464285D01*
X110690476Y-107511904D01*
X110595238Y-107559523D01*
X110500000Y-107654761D01*
X110452380Y-107797619D01*
X110452380Y-107892857D01*
X110500000Y-108035714D01*
X110547619Y-108083333D01*
X110547619Y-108464285D02*
X110500000Y-108511904D01*
X110452380Y-108607142D01*
X110452380Y-108845238D01*
X110500000Y-108940476D01*
X110547619Y-108988095D01*
X110642857Y-109035714D01*
X110738095Y-109035714D01*
X110880952Y-108988095D01*
X111452380Y-108416666D01*
X111452380Y-109035714D01*
%TO.C,C3*%
X102857142Y-99083333D02*
X102904761Y-99035714D01*
X102952380Y-98892857D01*
X102952380Y-98797619D01*
X102904761Y-98654761D01*
X102809523Y-98559523D01*
X102714285Y-98511904D01*
X102523809Y-98464285D01*
X102380952Y-98464285D01*
X102190476Y-98511904D01*
X102095238Y-98559523D01*
X102000000Y-98654761D01*
X101952380Y-98797619D01*
X101952380Y-98892857D01*
X102000000Y-99035714D01*
X102047619Y-99083333D01*
X101952380Y-99416666D02*
X101952380Y-100035714D01*
X102333333Y-99702380D01*
X102333333Y-99845238D01*
X102380952Y-99940476D01*
X102428571Y-99988095D01*
X102523809Y-100035714D01*
X102761904Y-100035714D01*
X102857142Y-99988095D01*
X102904761Y-99940476D01*
X102952380Y-99845238D01*
X102952380Y-99559523D01*
X102904761Y-99464285D01*
X102857142Y-99416666D01*
%TO.C,C6*%
X96666666Y-101357142D02*
X96714285Y-101404761D01*
X96857142Y-101452380D01*
X96952380Y-101452380D01*
X97095238Y-101404761D01*
X97190476Y-101309523D01*
X97238095Y-101214285D01*
X97285714Y-101023809D01*
X97285714Y-100880952D01*
X97238095Y-100690476D01*
X97190476Y-100595238D01*
X97095238Y-100500000D01*
X96952380Y-100452380D01*
X96857142Y-100452380D01*
X96714285Y-100500000D01*
X96666666Y-100547619D01*
X95809523Y-100452380D02*
X96000000Y-100452380D01*
X96095238Y-100500000D01*
X96142857Y-100547619D01*
X96238095Y-100690476D01*
X96285714Y-100880952D01*
X96285714Y-101261904D01*
X96238095Y-101357142D01*
X96190476Y-101404761D01*
X96095238Y-101452380D01*
X95904761Y-101452380D01*
X95809523Y-101404761D01*
X95761904Y-101357142D01*
X95714285Y-101261904D01*
X95714285Y-101023809D01*
X95761904Y-100928571D01*
X95809523Y-100880952D01*
X95904761Y-100833333D01*
X96095238Y-100833333D01*
X96190476Y-100880952D01*
X96238095Y-100928571D01*
X96285714Y-101023809D01*
%TO.C,C7*%
X102857142Y-107583333D02*
X102904761Y-107535714D01*
X102952380Y-107392857D01*
X102952380Y-107297619D01*
X102904761Y-107154761D01*
X102809523Y-107059523D01*
X102714285Y-107011904D01*
X102523809Y-106964285D01*
X102380952Y-106964285D01*
X102190476Y-107011904D01*
X102095238Y-107059523D01*
X102000000Y-107154761D01*
X101952380Y-107297619D01*
X101952380Y-107392857D01*
X102000000Y-107535714D01*
X102047619Y-107583333D01*
X101952380Y-107916666D02*
X101952380Y-108583333D01*
X102952380Y-108154761D01*
%TO.C,C8*%
X117966666Y-102107142D02*
X118014285Y-102154761D01*
X118157142Y-102202380D01*
X118252380Y-102202380D01*
X118395238Y-102154761D01*
X118490476Y-102059523D01*
X118538095Y-101964285D01*
X118585714Y-101773809D01*
X118585714Y-101630952D01*
X118538095Y-101440476D01*
X118490476Y-101345238D01*
X118395238Y-101250000D01*
X118252380Y-101202380D01*
X118157142Y-101202380D01*
X118014285Y-101250000D01*
X117966666Y-101297619D01*
X117395238Y-101630952D02*
X117490476Y-101583333D01*
X117538095Y-101535714D01*
X117585714Y-101440476D01*
X117585714Y-101392857D01*
X117538095Y-101297619D01*
X117490476Y-101250000D01*
X117395238Y-101202380D01*
X117204761Y-101202380D01*
X117109523Y-101250000D01*
X117061904Y-101297619D01*
X117014285Y-101392857D01*
X117014285Y-101440476D01*
X117061904Y-101535714D01*
X117109523Y-101583333D01*
X117204761Y-101630952D01*
X117395238Y-101630952D01*
X117490476Y-101678571D01*
X117538095Y-101726190D01*
X117585714Y-101821428D01*
X117585714Y-102011904D01*
X117538095Y-102107142D01*
X117490476Y-102154761D01*
X117395238Y-102202380D01*
X117204761Y-102202380D01*
X117109523Y-102154761D01*
X117061904Y-102107142D01*
X117014285Y-102011904D01*
X117014285Y-101821428D01*
X117061904Y-101726190D01*
X117109523Y-101678571D01*
X117204761Y-101630952D01*
%TO.C,C10*%
X99507142Y-107107142D02*
X99554761Y-107059523D01*
X99602380Y-106916666D01*
X99602380Y-106821428D01*
X99554761Y-106678571D01*
X99459523Y-106583333D01*
X99364285Y-106535714D01*
X99173809Y-106488095D01*
X99030952Y-106488095D01*
X98840476Y-106535714D01*
X98745238Y-106583333D01*
X98650000Y-106678571D01*
X98602380Y-106821428D01*
X98602380Y-106916666D01*
X98650000Y-107059523D01*
X98697619Y-107107142D01*
X99602380Y-108059523D02*
X99602380Y-107488095D01*
X99602380Y-107773809D02*
X98602380Y-107773809D01*
X98745238Y-107678571D01*
X98840476Y-107583333D01*
X98888095Y-107488095D01*
X98602380Y-108678571D02*
X98602380Y-108773809D01*
X98650000Y-108869047D01*
X98697619Y-108916666D01*
X98792857Y-108964285D01*
X98983333Y-109011904D01*
X99221428Y-109011904D01*
X99411904Y-108964285D01*
X99507142Y-108916666D01*
X99554761Y-108869047D01*
X99602380Y-108773809D01*
X99602380Y-108678571D01*
X99554761Y-108583333D01*
X99507142Y-108535714D01*
X99411904Y-108488095D01*
X99221428Y-108440476D01*
X98983333Y-108440476D01*
X98792857Y-108488095D01*
X98697619Y-108535714D01*
X98650000Y-108583333D01*
X98602380Y-108678571D01*
%TO.C,C14*%
X99507142Y-102857142D02*
X99554761Y-102809523D01*
X99602380Y-102666666D01*
X99602380Y-102571428D01*
X99554761Y-102428571D01*
X99459523Y-102333333D01*
X99364285Y-102285714D01*
X99173809Y-102238095D01*
X99030952Y-102238095D01*
X98840476Y-102285714D01*
X98745238Y-102333333D01*
X98650000Y-102428571D01*
X98602380Y-102571428D01*
X98602380Y-102666666D01*
X98650000Y-102809523D01*
X98697619Y-102857142D01*
X99602380Y-103809523D02*
X99602380Y-103238095D01*
X99602380Y-103523809D02*
X98602380Y-103523809D01*
X98745238Y-103428571D01*
X98840476Y-103333333D01*
X98888095Y-103238095D01*
X98935714Y-104666666D02*
X99602380Y-104666666D01*
X98554761Y-104428571D02*
X99269047Y-104190476D01*
X99269047Y-104809523D01*
%TO.C,C17*%
X105607142Y-76107142D02*
X105654761Y-76059523D01*
X105702380Y-75916666D01*
X105702380Y-75821428D01*
X105654761Y-75678571D01*
X105559523Y-75583333D01*
X105464285Y-75535714D01*
X105273809Y-75488095D01*
X105130952Y-75488095D01*
X104940476Y-75535714D01*
X104845238Y-75583333D01*
X104750000Y-75678571D01*
X104702380Y-75821428D01*
X104702380Y-75916666D01*
X104750000Y-76059523D01*
X104797619Y-76107142D01*
X105702380Y-77059523D02*
X105702380Y-76488095D01*
X105702380Y-76773809D02*
X104702380Y-76773809D01*
X104845238Y-76678571D01*
X104940476Y-76583333D01*
X104988095Y-76488095D01*
X104702380Y-77392857D02*
X104702380Y-78059523D01*
X105702380Y-77630952D01*
%TO.C,C18*%
X102857142Y-102857142D02*
X102904761Y-102809523D01*
X102952380Y-102666666D01*
X102952380Y-102571428D01*
X102904761Y-102428571D01*
X102809523Y-102333333D01*
X102714285Y-102285714D01*
X102523809Y-102238095D01*
X102380952Y-102238095D01*
X102190476Y-102285714D01*
X102095238Y-102333333D01*
X102000000Y-102428571D01*
X101952380Y-102571428D01*
X101952380Y-102666666D01*
X102000000Y-102809523D01*
X102047619Y-102857142D01*
X102952380Y-103809523D02*
X102952380Y-103238095D01*
X102952380Y-103523809D02*
X101952380Y-103523809D01*
X102095238Y-103428571D01*
X102190476Y-103333333D01*
X102238095Y-103238095D01*
X102380952Y-104380952D02*
X102333333Y-104285714D01*
X102285714Y-104238095D01*
X102190476Y-104190476D01*
X102142857Y-104190476D01*
X102047619Y-104238095D01*
X102000000Y-104285714D01*
X101952380Y-104380952D01*
X101952380Y-104571428D01*
X102000000Y-104666666D01*
X102047619Y-104714285D01*
X102142857Y-104761904D01*
X102190476Y-104761904D01*
X102285714Y-104714285D01*
X102333333Y-104666666D01*
X102380952Y-104571428D01*
X102380952Y-104380952D01*
X102428571Y-104285714D01*
X102476190Y-104238095D01*
X102571428Y-104190476D01*
X102761904Y-104190476D01*
X102857142Y-104238095D01*
X102904761Y-104285714D01*
X102952380Y-104380952D01*
X102952380Y-104571428D01*
X102904761Y-104666666D01*
X102857142Y-104714285D01*
X102761904Y-104761904D01*
X102571428Y-104761904D01*
X102476190Y-104714285D01*
X102428571Y-104666666D01*
X102380952Y-104571428D01*
%TO.C,C21*%
X97142857Y-76857142D02*
X97190476Y-76904761D01*
X97333333Y-76952380D01*
X97428571Y-76952380D01*
X97571428Y-76904761D01*
X97666666Y-76809523D01*
X97714285Y-76714285D01*
X97761904Y-76523809D01*
X97761904Y-76380952D01*
X97714285Y-76190476D01*
X97666666Y-76095238D01*
X97571428Y-76000000D01*
X97428571Y-75952380D01*
X97333333Y-75952380D01*
X97190476Y-76000000D01*
X97142857Y-76047619D01*
X96761904Y-76047619D02*
X96714285Y-76000000D01*
X96619047Y-75952380D01*
X96380952Y-75952380D01*
X96285714Y-76000000D01*
X96238095Y-76047619D01*
X96190476Y-76142857D01*
X96190476Y-76238095D01*
X96238095Y-76380952D01*
X96809523Y-76952380D01*
X96190476Y-76952380D01*
X95238095Y-76952380D02*
X95809523Y-76952380D01*
X95523809Y-76952380D02*
X95523809Y-75952380D01*
X95619047Y-76095238D01*
X95714285Y-76190476D01*
X95809523Y-76238095D01*
%TO.C,D1*%
X119202380Y-134761904D02*
X118202380Y-134761904D01*
X118202380Y-135000000D01*
X118250000Y-135142857D01*
X118345238Y-135238095D01*
X118440476Y-135285714D01*
X118630952Y-135333333D01*
X118773809Y-135333333D01*
X118964285Y-135285714D01*
X119059523Y-135238095D01*
X119154761Y-135142857D01*
X119202380Y-135000000D01*
X119202380Y-134761904D01*
X119202380Y-136285714D02*
X119202380Y-135714285D01*
X119202380Y-136000000D02*
X118202380Y-136000000D01*
X118345238Y-135904761D01*
X118440476Y-135809523D01*
X118488095Y-135714285D01*
%TO.C,Q2*%
X118595238Y-111297619D02*
X118690476Y-111250000D01*
X118785714Y-111154761D01*
X118928571Y-111011904D01*
X119023809Y-110964285D01*
X119119047Y-110964285D01*
X119071428Y-111202380D02*
X119166666Y-111154761D01*
X119261904Y-111059523D01*
X119309523Y-110869047D01*
X119309523Y-110535714D01*
X119261904Y-110345238D01*
X119166666Y-110250000D01*
X119071428Y-110202380D01*
X118880952Y-110202380D01*
X118785714Y-110250000D01*
X118690476Y-110345238D01*
X118642857Y-110535714D01*
X118642857Y-110869047D01*
X118690476Y-111059523D01*
X118785714Y-111154761D01*
X118880952Y-111202380D01*
X119071428Y-111202380D01*
X118261904Y-110297619D02*
X118214285Y-110250000D01*
X118119047Y-110202380D01*
X117880952Y-110202380D01*
X117785714Y-110250000D01*
X117738095Y-110297619D01*
X117690476Y-110392857D01*
X117690476Y-110488095D01*
X117738095Y-110630952D01*
X118309523Y-111202380D01*
X117690476Y-111202380D01*
%TO.C,R1*%
X114166666Y-113702380D02*
X114500000Y-113226190D01*
X114738095Y-113702380D02*
X114738095Y-112702380D01*
X114357142Y-112702380D01*
X114261904Y-112750000D01*
X114214285Y-112797619D01*
X114166666Y-112892857D01*
X114166666Y-113035714D01*
X114214285Y-113130952D01*
X114261904Y-113178571D01*
X114357142Y-113226190D01*
X114738095Y-113226190D01*
X113214285Y-113702380D02*
X113785714Y-113702380D01*
X113500000Y-113702380D02*
X113500000Y-112702380D01*
X113595238Y-112845238D01*
X113690476Y-112940476D01*
X113785714Y-112988095D01*
%TO.C,R2*%
X109952380Y-108083333D02*
X109476190Y-107750000D01*
X109952380Y-107511904D02*
X108952380Y-107511904D01*
X108952380Y-107892857D01*
X109000000Y-107988095D01*
X109047619Y-108035714D01*
X109142857Y-108083333D01*
X109285714Y-108083333D01*
X109380952Y-108035714D01*
X109428571Y-107988095D01*
X109476190Y-107892857D01*
X109476190Y-107511904D01*
X109047619Y-108464285D02*
X109000000Y-108511904D01*
X108952380Y-108607142D01*
X108952380Y-108845238D01*
X109000000Y-108940476D01*
X109047619Y-108988095D01*
X109142857Y-109035714D01*
X109238095Y-109035714D01*
X109380952Y-108988095D01*
X109952380Y-108416666D01*
X109952380Y-109035714D01*
%TO.C,R6*%
X99452380Y-99083333D02*
X98976190Y-98750000D01*
X99452380Y-98511904D02*
X98452380Y-98511904D01*
X98452380Y-98892857D01*
X98500000Y-98988095D01*
X98547619Y-99035714D01*
X98642857Y-99083333D01*
X98785714Y-99083333D01*
X98880952Y-99035714D01*
X98928571Y-98988095D01*
X98976190Y-98892857D01*
X98976190Y-98511904D01*
X98452380Y-99940476D02*
X98452380Y-99750000D01*
X98500000Y-99654761D01*
X98547619Y-99607142D01*
X98690476Y-99511904D01*
X98880952Y-99464285D01*
X99261904Y-99464285D01*
X99357142Y-99511904D01*
X99404761Y-99559523D01*
X99452380Y-99654761D01*
X99452380Y-99845238D01*
X99404761Y-99940476D01*
X99357142Y-99988095D01*
X99261904Y-100035714D01*
X99023809Y-100035714D01*
X98928571Y-99988095D01*
X98880952Y-99940476D01*
X98833333Y-99845238D01*
X98833333Y-99654761D01*
X98880952Y-99559523D01*
X98928571Y-99511904D01*
X99023809Y-99464285D01*
%TO.C,R7*%
X118916666Y-106202380D02*
X119250000Y-105726190D01*
X119488095Y-106202380D02*
X119488095Y-105202380D01*
X119107142Y-105202380D01*
X119011904Y-105250000D01*
X118964285Y-105297619D01*
X118916666Y-105392857D01*
X118916666Y-105535714D01*
X118964285Y-105630952D01*
X119011904Y-105678571D01*
X119107142Y-105726190D01*
X119488095Y-105726190D01*
X118583333Y-105202380D02*
X117916666Y-105202380D01*
X118345238Y-106202380D01*
%TO.C,R13*%
X98392857Y-110202380D02*
X98726190Y-109726190D01*
X98964285Y-110202380D02*
X98964285Y-109202380D01*
X98583333Y-109202380D01*
X98488095Y-109250000D01*
X98440476Y-109297619D01*
X98392857Y-109392857D01*
X98392857Y-109535714D01*
X98440476Y-109630952D01*
X98488095Y-109678571D01*
X98583333Y-109726190D01*
X98964285Y-109726190D01*
X97440476Y-110202380D02*
X98011904Y-110202380D01*
X97726190Y-110202380D02*
X97726190Y-109202380D01*
X97821428Y-109345238D01*
X97916666Y-109440476D01*
X98011904Y-109488095D01*
X97107142Y-109202380D02*
X96488095Y-109202380D01*
X96821428Y-109583333D01*
X96678571Y-109583333D01*
X96583333Y-109630952D01*
X96535714Y-109678571D01*
X96488095Y-109773809D01*
X96488095Y-110011904D01*
X96535714Y-110107142D01*
X96583333Y-110154761D01*
X96678571Y-110202380D01*
X96964285Y-110202380D01*
X97059523Y-110154761D01*
X97107142Y-110107142D01*
%TO.C,R14*%
X97142857Y-104702380D02*
X97476190Y-104226190D01*
X97714285Y-104702380D02*
X97714285Y-103702380D01*
X97333333Y-103702380D01*
X97238095Y-103750000D01*
X97190476Y-103797619D01*
X97142857Y-103892857D01*
X97142857Y-104035714D01*
X97190476Y-104130952D01*
X97238095Y-104178571D01*
X97333333Y-104226190D01*
X97714285Y-104226190D01*
X96190476Y-104702380D02*
X96761904Y-104702380D01*
X96476190Y-104702380D02*
X96476190Y-103702380D01*
X96571428Y-103845238D01*
X96666666Y-103940476D01*
X96761904Y-103988095D01*
X95333333Y-104035714D02*
X95333333Y-104702380D01*
X95571428Y-103654761D02*
X95809523Y-104369047D01*
X95190476Y-104369047D01*
%TO.C,R19*%
X99142857Y-111452380D02*
X99476190Y-110976190D01*
X99714285Y-111452380D02*
X99714285Y-110452380D01*
X99333333Y-110452380D01*
X99238095Y-110500000D01*
X99190476Y-110547619D01*
X99142857Y-110642857D01*
X99142857Y-110785714D01*
X99190476Y-110880952D01*
X99238095Y-110928571D01*
X99333333Y-110976190D01*
X99714285Y-110976190D01*
X98190476Y-111452380D02*
X98761904Y-111452380D01*
X98476190Y-111452380D02*
X98476190Y-110452380D01*
X98571428Y-110595238D01*
X98666666Y-110690476D01*
X98761904Y-110738095D01*
X97714285Y-111452380D02*
X97523809Y-111452380D01*
X97428571Y-111404761D01*
X97380952Y-111357142D01*
X97285714Y-111214285D01*
X97238095Y-111023809D01*
X97238095Y-110642857D01*
X97285714Y-110547619D01*
X97333333Y-110500000D01*
X97428571Y-110452380D01*
X97619047Y-110452380D01*
X97714285Y-110500000D01*
X97761904Y-110547619D01*
X97809523Y-110642857D01*
X97809523Y-110880952D01*
X97761904Y-110976190D01*
X97714285Y-111023809D01*
X97619047Y-111071428D01*
X97428571Y-111071428D01*
X97333333Y-111023809D01*
X97285714Y-110976190D01*
X97238095Y-110880952D01*
%TO.C,R20*%
X108952380Y-99857142D02*
X108476190Y-99523809D01*
X108952380Y-99285714D02*
X107952380Y-99285714D01*
X107952380Y-99666666D01*
X108000000Y-99761904D01*
X108047619Y-99809523D01*
X108142857Y-99857142D01*
X108285714Y-99857142D01*
X108380952Y-99809523D01*
X108428571Y-99761904D01*
X108476190Y-99666666D01*
X108476190Y-99285714D01*
X108047619Y-100238095D02*
X108000000Y-100285714D01*
X107952380Y-100380952D01*
X107952380Y-100619047D01*
X108000000Y-100714285D01*
X108047619Y-100761904D01*
X108142857Y-100809523D01*
X108238095Y-100809523D01*
X108380952Y-100761904D01*
X108952380Y-100190476D01*
X108952380Y-100809523D01*
X107952380Y-101428571D02*
X107952380Y-101523809D01*
X108000000Y-101619047D01*
X108047619Y-101666666D01*
X108142857Y-101714285D01*
X108333333Y-101761904D01*
X108571428Y-101761904D01*
X108761904Y-101714285D01*
X108857142Y-101666666D01*
X108904761Y-101619047D01*
X108952380Y-101523809D01*
X108952380Y-101428571D01*
X108904761Y-101333333D01*
X108857142Y-101285714D01*
X108761904Y-101238095D01*
X108571428Y-101190476D01*
X108333333Y-101190476D01*
X108142857Y-101238095D01*
X108047619Y-101285714D01*
X108000000Y-101333333D01*
X107952380Y-101428571D01*
%TO.C,R21*%
X110892857Y-106202380D02*
X111226190Y-105726190D01*
X111464285Y-106202380D02*
X111464285Y-105202380D01*
X111083333Y-105202380D01*
X110988095Y-105250000D01*
X110940476Y-105297619D01*
X110892857Y-105392857D01*
X110892857Y-105535714D01*
X110940476Y-105630952D01*
X110988095Y-105678571D01*
X111083333Y-105726190D01*
X111464285Y-105726190D01*
X110511904Y-105297619D02*
X110464285Y-105250000D01*
X110369047Y-105202380D01*
X110130952Y-105202380D01*
X110035714Y-105250000D01*
X109988095Y-105297619D01*
X109940476Y-105392857D01*
X109940476Y-105488095D01*
X109988095Y-105630952D01*
X110559523Y-106202380D01*
X109940476Y-106202380D01*
X108988095Y-106202380D02*
X109559523Y-106202380D01*
X109273809Y-106202380D02*
X109273809Y-105202380D01*
X109369047Y-105345238D01*
X109464285Y-105440476D01*
X109559523Y-105488095D01*
%TO.C,R24*%
X114892857Y-106102380D02*
X115226190Y-105626190D01*
X115464285Y-106102380D02*
X115464285Y-105102380D01*
X115083333Y-105102380D01*
X114988095Y-105150000D01*
X114940476Y-105197619D01*
X114892857Y-105292857D01*
X114892857Y-105435714D01*
X114940476Y-105530952D01*
X114988095Y-105578571D01*
X115083333Y-105626190D01*
X115464285Y-105626190D01*
X114511904Y-105197619D02*
X114464285Y-105150000D01*
X114369047Y-105102380D01*
X114130952Y-105102380D01*
X114035714Y-105150000D01*
X113988095Y-105197619D01*
X113940476Y-105292857D01*
X113940476Y-105388095D01*
X113988095Y-105530952D01*
X114559523Y-106102380D01*
X113940476Y-106102380D01*
X113083333Y-105435714D02*
X113083333Y-106102380D01*
X113321428Y-105054761D02*
X113559523Y-105769047D01*
X112940476Y-105769047D01*
%TO.C,R36*%
X88702380Y-77357142D02*
X88226190Y-77023809D01*
X88702380Y-76785714D02*
X87702380Y-76785714D01*
X87702380Y-77166666D01*
X87750000Y-77261904D01*
X87797619Y-77309523D01*
X87892857Y-77357142D01*
X88035714Y-77357142D01*
X88130952Y-77309523D01*
X88178571Y-77261904D01*
X88226190Y-77166666D01*
X88226190Y-76785714D01*
X87702380Y-77690476D02*
X87702380Y-78309523D01*
X88083333Y-77976190D01*
X88083333Y-78119047D01*
X88130952Y-78214285D01*
X88178571Y-78261904D01*
X88273809Y-78309523D01*
X88511904Y-78309523D01*
X88607142Y-78261904D01*
X88654761Y-78214285D01*
X88702380Y-78119047D01*
X88702380Y-77833333D01*
X88654761Y-77738095D01*
X88607142Y-77690476D01*
X87702380Y-79166666D02*
X87702380Y-78976190D01*
X87750000Y-78880952D01*
X87797619Y-78833333D01*
X87940476Y-78738095D01*
X88130952Y-78690476D01*
X88511904Y-78690476D01*
X88607142Y-78738095D01*
X88654761Y-78785714D01*
X88702380Y-78880952D01*
X88702380Y-79071428D01*
X88654761Y-79166666D01*
X88607142Y-79214285D01*
X88511904Y-79261904D01*
X88273809Y-79261904D01*
X88178571Y-79214285D01*
X88130952Y-79166666D01*
X88083333Y-79071428D01*
X88083333Y-78880952D01*
X88130952Y-78785714D01*
X88178571Y-78738095D01*
X88273809Y-78690476D01*
%TO.C,R37*%
X93142857Y-88702380D02*
X93476190Y-88226190D01*
X93714285Y-88702380D02*
X93714285Y-87702380D01*
X93333333Y-87702380D01*
X93238095Y-87750000D01*
X93190476Y-87797619D01*
X93142857Y-87892857D01*
X93142857Y-88035714D01*
X93190476Y-88130952D01*
X93238095Y-88178571D01*
X93333333Y-88226190D01*
X93714285Y-88226190D01*
X92809523Y-87702380D02*
X92190476Y-87702380D01*
X92523809Y-88083333D01*
X92380952Y-88083333D01*
X92285714Y-88130952D01*
X92238095Y-88178571D01*
X92190476Y-88273809D01*
X92190476Y-88511904D01*
X92238095Y-88607142D01*
X92285714Y-88654761D01*
X92380952Y-88702380D01*
X92666666Y-88702380D01*
X92761904Y-88654761D01*
X92809523Y-88607142D01*
X91857142Y-87702380D02*
X91190476Y-87702380D01*
X91619047Y-88702380D01*
%TO.C,R38*%
X94952380Y-77357142D02*
X94476190Y-77023809D01*
X94952380Y-76785714D02*
X93952380Y-76785714D01*
X93952380Y-77166666D01*
X94000000Y-77261904D01*
X94047619Y-77309523D01*
X94142857Y-77357142D01*
X94285714Y-77357142D01*
X94380952Y-77309523D01*
X94428571Y-77261904D01*
X94476190Y-77166666D01*
X94476190Y-76785714D01*
X93952380Y-77690476D02*
X93952380Y-78309523D01*
X94333333Y-77976190D01*
X94333333Y-78119047D01*
X94380952Y-78214285D01*
X94428571Y-78261904D01*
X94523809Y-78309523D01*
X94761904Y-78309523D01*
X94857142Y-78261904D01*
X94904761Y-78214285D01*
X94952380Y-78119047D01*
X94952380Y-77833333D01*
X94904761Y-77738095D01*
X94857142Y-77690476D01*
X94380952Y-78880952D02*
X94333333Y-78785714D01*
X94285714Y-78738095D01*
X94190476Y-78690476D01*
X94142857Y-78690476D01*
X94047619Y-78738095D01*
X94000000Y-78785714D01*
X93952380Y-78880952D01*
X93952380Y-79071428D01*
X94000000Y-79166666D01*
X94047619Y-79214285D01*
X94142857Y-79261904D01*
X94190476Y-79261904D01*
X94285714Y-79214285D01*
X94333333Y-79166666D01*
X94380952Y-79071428D01*
X94380952Y-78880952D01*
X94428571Y-78785714D01*
X94476190Y-78738095D01*
X94571428Y-78690476D01*
X94761904Y-78690476D01*
X94857142Y-78738095D01*
X94904761Y-78785714D01*
X94952380Y-78880952D01*
X94952380Y-79071428D01*
X94904761Y-79166666D01*
X94857142Y-79214285D01*
X94761904Y-79261904D01*
X94571428Y-79261904D01*
X94476190Y-79214285D01*
X94428571Y-79166666D01*
X94380952Y-79071428D01*
%TO.C,R39*%
X96702380Y-89607142D02*
X96226190Y-89273809D01*
X96702380Y-89035714D02*
X95702380Y-89035714D01*
X95702380Y-89416666D01*
X95750000Y-89511904D01*
X95797619Y-89559523D01*
X95892857Y-89607142D01*
X96035714Y-89607142D01*
X96130952Y-89559523D01*
X96178571Y-89511904D01*
X96226190Y-89416666D01*
X96226190Y-89035714D01*
X95702380Y-89940476D02*
X95702380Y-90559523D01*
X96083333Y-90226190D01*
X96083333Y-90369047D01*
X96130952Y-90464285D01*
X96178571Y-90511904D01*
X96273809Y-90559523D01*
X96511904Y-90559523D01*
X96607142Y-90511904D01*
X96654761Y-90464285D01*
X96702380Y-90369047D01*
X96702380Y-90083333D01*
X96654761Y-89988095D01*
X96607142Y-89940476D01*
X96702380Y-91035714D02*
X96702380Y-91226190D01*
X96654761Y-91321428D01*
X96607142Y-91369047D01*
X96464285Y-91464285D01*
X96273809Y-91511904D01*
X95892857Y-91511904D01*
X95797619Y-91464285D01*
X95750000Y-91416666D01*
X95702380Y-91321428D01*
X95702380Y-91130952D01*
X95750000Y-91035714D01*
X95797619Y-90988095D01*
X95892857Y-90940476D01*
X96130952Y-90940476D01*
X96226190Y-90988095D01*
X96273809Y-91035714D01*
X96321428Y-91130952D01*
X96321428Y-91321428D01*
X96273809Y-91416666D01*
X96226190Y-91464285D01*
X96130952Y-91511904D01*
%TO.C,R40*%
X102452380Y-79107142D02*
X101976190Y-78773809D01*
X102452380Y-78535714D02*
X101452380Y-78535714D01*
X101452380Y-78916666D01*
X101500000Y-79011904D01*
X101547619Y-79059523D01*
X101642857Y-79107142D01*
X101785714Y-79107142D01*
X101880952Y-79059523D01*
X101928571Y-79011904D01*
X101976190Y-78916666D01*
X101976190Y-78535714D01*
X101785714Y-79964285D02*
X102452380Y-79964285D01*
X101404761Y-79726190D02*
X102119047Y-79488095D01*
X102119047Y-80107142D01*
X101452380Y-80678571D02*
X101452380Y-80773809D01*
X101500000Y-80869047D01*
X101547619Y-80916666D01*
X101642857Y-80964285D01*
X101833333Y-81011904D01*
X102071428Y-81011904D01*
X102261904Y-80964285D01*
X102357142Y-80916666D01*
X102404761Y-80869047D01*
X102452380Y-80773809D01*
X102452380Y-80678571D01*
X102404761Y-80583333D01*
X102357142Y-80535714D01*
X102261904Y-80488095D01*
X102071428Y-80440476D01*
X101833333Y-80440476D01*
X101642857Y-80488095D01*
X101547619Y-80535714D01*
X101500000Y-80583333D01*
X101452380Y-80678571D01*
%TO.C,C1*%
X96607142Y-97333333D02*
X96654761Y-97285714D01*
X96702380Y-97142857D01*
X96702380Y-97047619D01*
X96654761Y-96904761D01*
X96559523Y-96809523D01*
X96464285Y-96761904D01*
X96273809Y-96714285D01*
X96130952Y-96714285D01*
X95940476Y-96761904D01*
X95845238Y-96809523D01*
X95750000Y-96904761D01*
X95702380Y-97047619D01*
X95702380Y-97142857D01*
X95750000Y-97285714D01*
X95797619Y-97333333D01*
X96702380Y-98285714D02*
X96702380Y-97714285D01*
X96702380Y-98000000D02*
X95702380Y-98000000D01*
X95845238Y-97904761D01*
X95940476Y-97809523D01*
X95988095Y-97714285D01*
%TO.C,C11*%
X88842857Y-88607142D02*
X88890476Y-88654761D01*
X89033333Y-88702380D01*
X89128571Y-88702380D01*
X89271428Y-88654761D01*
X89366666Y-88559523D01*
X89414285Y-88464285D01*
X89461904Y-88273809D01*
X89461904Y-88130952D01*
X89414285Y-87940476D01*
X89366666Y-87845238D01*
X89271428Y-87750000D01*
X89128571Y-87702380D01*
X89033333Y-87702380D01*
X88890476Y-87750000D01*
X88842857Y-87797619D01*
X87890476Y-88702380D02*
X88461904Y-88702380D01*
X88176190Y-88702380D02*
X88176190Y-87702380D01*
X88271428Y-87845238D01*
X88366666Y-87940476D01*
X88461904Y-87988095D01*
X86938095Y-88702380D02*
X87509523Y-88702380D01*
X87223809Y-88702380D02*
X87223809Y-87702380D01*
X87319047Y-87845238D01*
X87414285Y-87940476D01*
X87509523Y-87988095D01*
%TO.C,D4*%
X103352380Y-130011904D02*
X102352380Y-130011904D01*
X102352380Y-130250000D01*
X102400000Y-130392857D01*
X102495238Y-130488095D01*
X102590476Y-130535714D01*
X102780952Y-130583333D01*
X102923809Y-130583333D01*
X103114285Y-130535714D01*
X103209523Y-130488095D01*
X103304761Y-130392857D01*
X103352380Y-130250000D01*
X103352380Y-130011904D01*
X102685714Y-131440476D02*
X103352380Y-131440476D01*
X102304761Y-131202380D02*
X103019047Y-130964285D01*
X103019047Y-131583333D01*
%TO.C,D5*%
X97702380Y-121261904D02*
X96702380Y-121261904D01*
X96702380Y-121500000D01*
X96750000Y-121642857D01*
X96845238Y-121738095D01*
X96940476Y-121785714D01*
X97130952Y-121833333D01*
X97273809Y-121833333D01*
X97464285Y-121785714D01*
X97559523Y-121738095D01*
X97654761Y-121642857D01*
X97702380Y-121500000D01*
X97702380Y-121261904D01*
X96702380Y-122738095D02*
X96702380Y-122261904D01*
X97178571Y-122214285D01*
X97130952Y-122261904D01*
X97083333Y-122357142D01*
X97083333Y-122595238D01*
X97130952Y-122690476D01*
X97178571Y-122738095D01*
X97273809Y-122785714D01*
X97511904Y-122785714D01*
X97607142Y-122738095D01*
X97654761Y-122690476D01*
X97702380Y-122595238D01*
X97702380Y-122357142D01*
X97654761Y-122261904D01*
X97607142Y-122214285D01*
%TO.C,L1*%
X113666666Y-102752380D02*
X114142857Y-102752380D01*
X114142857Y-101752380D01*
X112809523Y-102752380D02*
X113380952Y-102752380D01*
X113095238Y-102752380D02*
X113095238Y-101752380D01*
X113190476Y-101895238D01*
X113285714Y-101990476D01*
X113380952Y-102038095D01*
%TO.C,L2*%
X108952380Y-84083333D02*
X108952380Y-83607142D01*
X107952380Y-83607142D01*
X108047619Y-84369047D02*
X108000000Y-84416666D01*
X107952380Y-84511904D01*
X107952380Y-84750000D01*
X108000000Y-84845238D01*
X108047619Y-84892857D01*
X108142857Y-84940476D01*
X108238095Y-84940476D01*
X108380952Y-84892857D01*
X108952380Y-84321428D01*
X108952380Y-84940476D01*
%TO.C,R5*%
X112916666Y-124702380D02*
X113250000Y-124226190D01*
X113488095Y-124702380D02*
X113488095Y-123702380D01*
X113107142Y-123702380D01*
X113011904Y-123750000D01*
X112964285Y-123797619D01*
X112916666Y-123892857D01*
X112916666Y-124035714D01*
X112964285Y-124130952D01*
X113011904Y-124178571D01*
X113107142Y-124226190D01*
X113488095Y-124226190D01*
X112011904Y-123702380D02*
X112488095Y-123702380D01*
X112535714Y-124178571D01*
X112488095Y-124130952D01*
X112392857Y-124083333D01*
X112154761Y-124083333D01*
X112059523Y-124130952D01*
X112011904Y-124178571D01*
X111964285Y-124273809D01*
X111964285Y-124511904D01*
X112011904Y-124607142D01*
X112059523Y-124654761D01*
X112154761Y-124702380D01*
X112392857Y-124702380D01*
X112488095Y-124654761D01*
X112535714Y-124607142D01*
%TO.C,R10*%
X92452380Y-99107142D02*
X91976190Y-98773809D01*
X92452380Y-98535714D02*
X91452380Y-98535714D01*
X91452380Y-98916666D01*
X91500000Y-99011904D01*
X91547619Y-99059523D01*
X91642857Y-99107142D01*
X91785714Y-99107142D01*
X91880952Y-99059523D01*
X91928571Y-99011904D01*
X91976190Y-98916666D01*
X91976190Y-98535714D01*
X92452380Y-100059523D02*
X92452380Y-99488095D01*
X92452380Y-99773809D02*
X91452380Y-99773809D01*
X91595238Y-99678571D01*
X91690476Y-99583333D01*
X91738095Y-99488095D01*
X91452380Y-100678571D02*
X91452380Y-100773809D01*
X91500000Y-100869047D01*
X91547619Y-100916666D01*
X91642857Y-100964285D01*
X91833333Y-101011904D01*
X92071428Y-101011904D01*
X92261904Y-100964285D01*
X92357142Y-100916666D01*
X92404761Y-100869047D01*
X92452380Y-100773809D01*
X92452380Y-100678571D01*
X92404761Y-100583333D01*
X92357142Y-100535714D01*
X92261904Y-100488095D01*
X92071428Y-100440476D01*
X91833333Y-100440476D01*
X91642857Y-100488095D01*
X91547619Y-100535714D01*
X91500000Y-100583333D01*
X91452380Y-100678571D01*
%TO.C,R11*%
X95142857Y-115202380D02*
X95476190Y-114726190D01*
X95714285Y-115202380D02*
X95714285Y-114202380D01*
X95333333Y-114202380D01*
X95238095Y-114250000D01*
X95190476Y-114297619D01*
X95142857Y-114392857D01*
X95142857Y-114535714D01*
X95190476Y-114630952D01*
X95238095Y-114678571D01*
X95333333Y-114726190D01*
X95714285Y-114726190D01*
X94190476Y-115202380D02*
X94761904Y-115202380D01*
X94476190Y-115202380D02*
X94476190Y-114202380D01*
X94571428Y-114345238D01*
X94666666Y-114440476D01*
X94761904Y-114488095D01*
X93238095Y-115202380D02*
X93809523Y-115202380D01*
X93523809Y-115202380D02*
X93523809Y-114202380D01*
X93619047Y-114345238D01*
X93714285Y-114440476D01*
X93809523Y-114488095D01*
%TO.C,R15*%
X95142857Y-111952380D02*
X95476190Y-111476190D01*
X95714285Y-111952380D02*
X95714285Y-110952380D01*
X95333333Y-110952380D01*
X95238095Y-111000000D01*
X95190476Y-111047619D01*
X95142857Y-111142857D01*
X95142857Y-111285714D01*
X95190476Y-111380952D01*
X95238095Y-111428571D01*
X95333333Y-111476190D01*
X95714285Y-111476190D01*
X94190476Y-111952380D02*
X94761904Y-111952380D01*
X94476190Y-111952380D02*
X94476190Y-110952380D01*
X94571428Y-111095238D01*
X94666666Y-111190476D01*
X94761904Y-111238095D01*
X93285714Y-110952380D02*
X93761904Y-110952380D01*
X93809523Y-111428571D01*
X93761904Y-111380952D01*
X93666666Y-111333333D01*
X93428571Y-111333333D01*
X93333333Y-111380952D01*
X93285714Y-111428571D01*
X93238095Y-111523809D01*
X93238095Y-111761904D01*
X93285714Y-111857142D01*
X93333333Y-111904761D01*
X93428571Y-111952380D01*
X93666666Y-111952380D01*
X93761904Y-111904761D01*
X93809523Y-111857142D01*
%TO.C,R16*%
X99142857Y-117952380D02*
X99476190Y-117476190D01*
X99714285Y-117952380D02*
X99714285Y-116952380D01*
X99333333Y-116952380D01*
X99238095Y-117000000D01*
X99190476Y-117047619D01*
X99142857Y-117142857D01*
X99142857Y-117285714D01*
X99190476Y-117380952D01*
X99238095Y-117428571D01*
X99333333Y-117476190D01*
X99714285Y-117476190D01*
X98190476Y-117952380D02*
X98761904Y-117952380D01*
X98476190Y-117952380D02*
X98476190Y-116952380D01*
X98571428Y-117095238D01*
X98666666Y-117190476D01*
X98761904Y-117238095D01*
X97333333Y-116952380D02*
X97523809Y-116952380D01*
X97619047Y-117000000D01*
X97666666Y-117047619D01*
X97761904Y-117190476D01*
X97809523Y-117380952D01*
X97809523Y-117761904D01*
X97761904Y-117857142D01*
X97714285Y-117904761D01*
X97619047Y-117952380D01*
X97428571Y-117952380D01*
X97333333Y-117904761D01*
X97285714Y-117857142D01*
X97238095Y-117761904D01*
X97238095Y-117523809D01*
X97285714Y-117428571D01*
X97333333Y-117380952D01*
X97428571Y-117333333D01*
X97619047Y-117333333D01*
X97714285Y-117380952D01*
X97761904Y-117428571D01*
X97809523Y-117523809D01*
%TO.C,R41*%
X95142857Y-118452380D02*
X95476190Y-117976190D01*
X95714285Y-118452380D02*
X95714285Y-117452380D01*
X95333333Y-117452380D01*
X95238095Y-117500000D01*
X95190476Y-117547619D01*
X95142857Y-117642857D01*
X95142857Y-117785714D01*
X95190476Y-117880952D01*
X95238095Y-117928571D01*
X95333333Y-117976190D01*
X95714285Y-117976190D01*
X94285714Y-117785714D02*
X94285714Y-118452380D01*
X94523809Y-117404761D02*
X94761904Y-118119047D01*
X94142857Y-118119047D01*
X93238095Y-118452380D02*
X93809523Y-118452380D01*
X93523809Y-118452380D02*
X93523809Y-117452380D01*
X93619047Y-117595238D01*
X93714285Y-117690476D01*
X93809523Y-117738095D01*
%TO.C,R44*%
X110392857Y-124702380D02*
X110726190Y-124226190D01*
X110964285Y-124702380D02*
X110964285Y-123702380D01*
X110583333Y-123702380D01*
X110488095Y-123750000D01*
X110440476Y-123797619D01*
X110392857Y-123892857D01*
X110392857Y-124035714D01*
X110440476Y-124130952D01*
X110488095Y-124178571D01*
X110583333Y-124226190D01*
X110964285Y-124226190D01*
X109535714Y-124035714D02*
X109535714Y-124702380D01*
X109773809Y-123654761D02*
X110011904Y-124369047D01*
X109392857Y-124369047D01*
X108583333Y-124035714D02*
X108583333Y-124702380D01*
X108821428Y-123654761D02*
X109059523Y-124369047D01*
X108440476Y-124369047D01*
%TO.C,U1*%
X94011904Y-121952380D02*
X94011904Y-122761904D01*
X93964285Y-122857142D01*
X93916666Y-122904761D01*
X93821428Y-122952380D01*
X93630952Y-122952380D01*
X93535714Y-122904761D01*
X93488095Y-122857142D01*
X93440476Y-122761904D01*
X93440476Y-121952380D01*
X92440476Y-122952380D02*
X93011904Y-122952380D01*
X92726190Y-122952380D02*
X92726190Y-121952380D01*
X92821428Y-122095238D01*
X92916666Y-122190476D01*
X93011904Y-122238095D01*
%TO.C,HS1*%
X106988095Y-124702380D02*
X106988095Y-123702380D01*
X106988095Y-124178571D02*
X106416666Y-124178571D01*
X106416666Y-124702380D02*
X106416666Y-123702380D01*
X105988095Y-124654761D02*
X105845238Y-124702380D01*
X105607142Y-124702380D01*
X105511904Y-124654761D01*
X105464285Y-124607142D01*
X105416666Y-124511904D01*
X105416666Y-124416666D01*
X105464285Y-124321428D01*
X105511904Y-124273809D01*
X105607142Y-124226190D01*
X105797619Y-124178571D01*
X105892857Y-124130952D01*
X105940476Y-124083333D01*
X105988095Y-123988095D01*
X105988095Y-123892857D01*
X105940476Y-123797619D01*
X105892857Y-123750000D01*
X105797619Y-123702380D01*
X105559523Y-123702380D01*
X105416666Y-123750000D01*
X104464285Y-124702380D02*
X105035714Y-124702380D01*
X104750000Y-124702380D02*
X104750000Y-123702380D01*
X104845238Y-123845238D01*
X104940476Y-123940476D01*
X105035714Y-123988095D01*
%TO.C,C4*%
X121416666Y-111357142D02*
X121464285Y-111404761D01*
X121607142Y-111452380D01*
X121702380Y-111452380D01*
X121845238Y-111404761D01*
X121940476Y-111309523D01*
X121988095Y-111214285D01*
X122035714Y-111023809D01*
X122035714Y-110880952D01*
X121988095Y-110690476D01*
X121940476Y-110595238D01*
X121845238Y-110500000D01*
X121702380Y-110452380D01*
X121607142Y-110452380D01*
X121464285Y-110500000D01*
X121416666Y-110547619D01*
X120559523Y-110785714D02*
X120559523Y-111452380D01*
X120797619Y-110404761D02*
X121035714Y-111119047D01*
X120416666Y-111119047D01*
%TO.C,C5*%
X108107142Y-112083333D02*
X108154761Y-112035714D01*
X108202380Y-111892857D01*
X108202380Y-111797619D01*
X108154761Y-111654761D01*
X108059523Y-111559523D01*
X107964285Y-111511904D01*
X107773809Y-111464285D01*
X107630952Y-111464285D01*
X107440476Y-111511904D01*
X107345238Y-111559523D01*
X107250000Y-111654761D01*
X107202380Y-111797619D01*
X107202380Y-111892857D01*
X107250000Y-112035714D01*
X107297619Y-112083333D01*
X107202380Y-112988095D02*
X107202380Y-112511904D01*
X107678571Y-112464285D01*
X107630952Y-112511904D01*
X107583333Y-112607142D01*
X107583333Y-112845238D01*
X107630952Y-112940476D01*
X107678571Y-112988095D01*
X107773809Y-113035714D01*
X108011904Y-113035714D01*
X108107142Y-112988095D01*
X108154761Y-112940476D01*
X108202380Y-112845238D01*
X108202380Y-112607142D01*
X108154761Y-112511904D01*
X108107142Y-112464285D01*
%TO.C,D6*%
X104702380Y-121261904D02*
X103702380Y-121261904D01*
X103702380Y-121500000D01*
X103750000Y-121642857D01*
X103845238Y-121738095D01*
X103940476Y-121785714D01*
X104130952Y-121833333D01*
X104273809Y-121833333D01*
X104464285Y-121785714D01*
X104559523Y-121738095D01*
X104654761Y-121642857D01*
X104702380Y-121500000D01*
X104702380Y-121261904D01*
X103702380Y-122690476D02*
X103702380Y-122500000D01*
X103750000Y-122404761D01*
X103797619Y-122357142D01*
X103940476Y-122261904D01*
X104130952Y-122214285D01*
X104511904Y-122214285D01*
X104607142Y-122261904D01*
X104654761Y-122309523D01*
X104702380Y-122404761D01*
X104702380Y-122595238D01*
X104654761Y-122690476D01*
X104607142Y-122738095D01*
X104511904Y-122785714D01*
X104273809Y-122785714D01*
X104178571Y-122738095D01*
X104130952Y-122690476D01*
X104083333Y-122595238D01*
X104083333Y-122404761D01*
X104130952Y-122309523D01*
X104178571Y-122261904D01*
X104273809Y-122214285D01*
%TO.C,D7*%
X116488095Y-143202380D02*
X116488095Y-142202380D01*
X116250000Y-142202380D01*
X116107142Y-142250000D01*
X116011904Y-142345238D01*
X115964285Y-142440476D01*
X115916666Y-142630952D01*
X115916666Y-142773809D01*
X115964285Y-142964285D01*
X116011904Y-143059523D01*
X116107142Y-143154761D01*
X116250000Y-143202380D01*
X116488095Y-143202380D01*
X115583333Y-142202380D02*
X114916666Y-142202380D01*
X115345238Y-143202380D01*
%TO.C,R3*%
X116452380Y-113583333D02*
X115976190Y-113250000D01*
X116452380Y-113011904D02*
X115452380Y-113011904D01*
X115452380Y-113392857D01*
X115500000Y-113488095D01*
X115547619Y-113535714D01*
X115642857Y-113583333D01*
X115785714Y-113583333D01*
X115880952Y-113535714D01*
X115928571Y-113488095D01*
X115976190Y-113392857D01*
X115976190Y-113011904D01*
X115452380Y-113916666D02*
X115452380Y-114535714D01*
X115833333Y-114202380D01*
X115833333Y-114345238D01*
X115880952Y-114440476D01*
X115928571Y-114488095D01*
X116023809Y-114535714D01*
X116261904Y-114535714D01*
X116357142Y-114488095D01*
X116404761Y-114440476D01*
X116452380Y-114345238D01*
X116452380Y-114059523D01*
X116404761Y-113964285D01*
X116357142Y-113916666D01*
%TO.C,R4*%
X103166666Y-111452380D02*
X103500000Y-110976190D01*
X103738095Y-111452380D02*
X103738095Y-110452380D01*
X103357142Y-110452380D01*
X103261904Y-110500000D01*
X103214285Y-110547619D01*
X103166666Y-110642857D01*
X103166666Y-110785714D01*
X103214285Y-110880952D01*
X103261904Y-110928571D01*
X103357142Y-110976190D01*
X103738095Y-110976190D01*
X102309523Y-110785714D02*
X102309523Y-111452380D01*
X102547619Y-110404761D02*
X102785714Y-111119047D01*
X102166666Y-111119047D01*
%TO.C,R8*%
X102666666Y-114702380D02*
X103000000Y-114226190D01*
X103238095Y-114702380D02*
X103238095Y-113702380D01*
X102857142Y-113702380D01*
X102761904Y-113750000D01*
X102714285Y-113797619D01*
X102666666Y-113892857D01*
X102666666Y-114035714D01*
X102714285Y-114130952D01*
X102761904Y-114178571D01*
X102857142Y-114226190D01*
X103238095Y-114226190D01*
X102095238Y-114130952D02*
X102190476Y-114083333D01*
X102238095Y-114035714D01*
X102285714Y-113940476D01*
X102285714Y-113892857D01*
X102238095Y-113797619D01*
X102190476Y-113750000D01*
X102095238Y-113702380D01*
X101904761Y-113702380D01*
X101809523Y-113750000D01*
X101761904Y-113797619D01*
X101714285Y-113892857D01*
X101714285Y-113940476D01*
X101761904Y-114035714D01*
X101809523Y-114083333D01*
X101904761Y-114130952D01*
X102095238Y-114130952D01*
X102190476Y-114178571D01*
X102238095Y-114226190D01*
X102285714Y-114321428D01*
X102285714Y-114511904D01*
X102238095Y-114607142D01*
X102190476Y-114654761D01*
X102095238Y-114702380D01*
X101904761Y-114702380D01*
X101809523Y-114654761D01*
X101761904Y-114607142D01*
X101714285Y-114511904D01*
X101714285Y-114321428D01*
X101761904Y-114226190D01*
X101809523Y-114178571D01*
X101904761Y-114130952D01*
%TO.C,R9*%
X109416666Y-115952380D02*
X109750000Y-115476190D01*
X109988095Y-115952380D02*
X109988095Y-114952380D01*
X109607142Y-114952380D01*
X109511904Y-115000000D01*
X109464285Y-115047619D01*
X109416666Y-115142857D01*
X109416666Y-115285714D01*
X109464285Y-115380952D01*
X109511904Y-115428571D01*
X109607142Y-115476190D01*
X109988095Y-115476190D01*
X108940476Y-115952380D02*
X108750000Y-115952380D01*
X108654761Y-115904761D01*
X108607142Y-115857142D01*
X108511904Y-115714285D01*
X108464285Y-115523809D01*
X108464285Y-115142857D01*
X108511904Y-115047619D01*
X108559523Y-115000000D01*
X108654761Y-114952380D01*
X108845238Y-114952380D01*
X108940476Y-115000000D01*
X108988095Y-115047619D01*
X109035714Y-115142857D01*
X109035714Y-115380952D01*
X108988095Y-115476190D01*
X108940476Y-115523809D01*
X108845238Y-115571428D01*
X108654761Y-115571428D01*
X108559523Y-115523809D01*
X108511904Y-115476190D01*
X108464285Y-115380952D01*
%TO.C,R12*%
X118642857Y-116702380D02*
X118976190Y-116226190D01*
X119214285Y-116702380D02*
X119214285Y-115702380D01*
X118833333Y-115702380D01*
X118738095Y-115750000D01*
X118690476Y-115797619D01*
X118642857Y-115892857D01*
X118642857Y-116035714D01*
X118690476Y-116130952D01*
X118738095Y-116178571D01*
X118833333Y-116226190D01*
X119214285Y-116226190D01*
X117690476Y-116702380D02*
X118261904Y-116702380D01*
X117976190Y-116702380D02*
X117976190Y-115702380D01*
X118071428Y-115845238D01*
X118166666Y-115940476D01*
X118261904Y-115988095D01*
X117309523Y-115797619D02*
X117261904Y-115750000D01*
X117166666Y-115702380D01*
X116928571Y-115702380D01*
X116833333Y-115750000D01*
X116785714Y-115797619D01*
X116738095Y-115892857D01*
X116738095Y-115988095D01*
X116785714Y-116130952D01*
X117357142Y-116702380D01*
X116738095Y-116702380D01*
%TO.C,R17*%
X111884687Y-117524450D02*
X112457106Y-117423435D01*
X112288748Y-117928511D02*
X112995854Y-117221404D01*
X112726480Y-116952030D01*
X112625465Y-116918358D01*
X112558122Y-116918358D01*
X112457106Y-116952030D01*
X112356091Y-117053045D01*
X112322419Y-117154061D01*
X112322419Y-117221404D01*
X112356091Y-117322419D01*
X112625465Y-117591793D01*
X111211251Y-116851015D02*
X111615312Y-117255076D01*
X111413282Y-117053045D02*
X112120389Y-116345938D01*
X112086717Y-116514297D01*
X112086717Y-116648984D01*
X112120389Y-116750000D01*
X111682656Y-115908206D02*
X111211251Y-115436801D01*
X110807190Y-116446954D01*
%TD*%
M02*
