%TF.GenerationSoftware,KiCad,Pcbnew,(5.1.9-0-10_14)*%
%TF.CreationDate,2023-05-28T23:00:20-04:00*%
%TF.ProjectId,LiControl,4c69436f-6e74-4726-9f6c-2e6b69636164,rev?*%
%TF.SameCoordinates,Original*%
%TF.FileFunction,Soldermask,Top*%
%TF.FilePolarity,Negative*%
%FSLAX46Y46*%
G04 Gerber Fmt 4.6, Leading zero omitted, Abs format (unit mm)*
G04 Created by KiCad (PCBNEW (5.1.9-0-10_14)) date 2023-05-28 23:00:20*
%MOMM*%
%LPD*%
G01*
G04 APERTURE LIST*
%ADD10R,1.600000X1.600000*%
%ADD11O,1.600000X1.600000*%
%ADD12C,3.200000*%
%ADD13R,1.500000X1.500000*%
%ADD14C,1.500000*%
%ADD15R,1.700000X1.700000*%
%ADD16O,1.700000X1.700000*%
%ADD17O,3.600000X1.800000*%
G04 APERTURE END LIST*
D10*
%TO.C,A1*%
X122000000Y-108250000D03*
D11*
X106760000Y-75230000D03*
X122000000Y-105710000D03*
X106760000Y-77770000D03*
X122000000Y-103170000D03*
X106760000Y-80310000D03*
X122000000Y-100630000D03*
X106760000Y-82850000D03*
X122000000Y-98090000D03*
X106760000Y-85390000D03*
X122000000Y-95550000D03*
X106760000Y-87930000D03*
X122000000Y-93010000D03*
X106760000Y-90470000D03*
X122000000Y-90470000D03*
X106760000Y-93010000D03*
X122000000Y-87930000D03*
X106760000Y-95550000D03*
X122000000Y-85390000D03*
X106760000Y-98090000D03*
X122000000Y-82850000D03*
X106760000Y-100630000D03*
X122000000Y-80310000D03*
X106760000Y-103170000D03*
X122000000Y-77770000D03*
X106760000Y-105710000D03*
X122000000Y-75230000D03*
X106760000Y-108250000D03*
X122000000Y-72690000D03*
X106760000Y-72690000D03*
%TD*%
D12*
%TO.C,J5*%
X87590000Y-74650000D03*
X99020000Y-74650000D03*
D13*
X97750000Y-81000000D03*
D14*
X96480000Y-83540000D03*
X95210000Y-81000000D03*
X93940000Y-83540000D03*
X92670000Y-81000000D03*
X91400000Y-83540000D03*
X90130000Y-81000000D03*
X88860000Y-83540000D03*
%TD*%
D15*
%TO.C,J6*%
X91750000Y-95750000D03*
D16*
X89210000Y-95750000D03*
X91750000Y-93210000D03*
X89210000Y-93210000D03*
X91750000Y-90670000D03*
X89210000Y-90670000D03*
%TD*%
%TO.C,J1*%
G36*
G01*
X91050000Y-145150000D02*
X87950000Y-145150000D01*
G75*
G02*
X87700000Y-144900000I0J250000D01*
G01*
X87700000Y-143600000D01*
G75*
G02*
X87950000Y-143350000I250000J0D01*
G01*
X91050000Y-143350000D01*
G75*
G02*
X91300000Y-143600000I0J-250000D01*
G01*
X91300000Y-144900000D01*
G75*
G02*
X91050000Y-145150000I-250000J0D01*
G01*
G37*
D17*
X89500000Y-140750000D03*
X89500000Y-137250000D03*
X89500000Y-133750000D03*
X89500000Y-130250000D03*
X89500000Y-126750000D03*
X89500000Y-123250000D03*
X89500000Y-119750000D03*
%TD*%
%TO.C,J4*%
X121500000Y-144250000D03*
X121500000Y-140750000D03*
X121500000Y-137250000D03*
X121500000Y-133750000D03*
X121500000Y-130250000D03*
X121500000Y-126750000D03*
X121500000Y-123250000D03*
G36*
G01*
X119950000Y-118850000D02*
X123050000Y-118850000D01*
G75*
G02*
X123300000Y-119100000I0J-250000D01*
G01*
X123300000Y-120400000D01*
G75*
G02*
X123050000Y-120650000I-250000J0D01*
G01*
X119950000Y-120650000D01*
G75*
G02*
X119700000Y-120400000I0J250000D01*
G01*
X119700000Y-119100000D01*
G75*
G02*
X119950000Y-118850000I250000J0D01*
G01*
G37*
%TD*%
%TO.C,J2*%
G36*
G01*
X91050000Y-115150000D02*
X87950000Y-115150000D01*
G75*
G02*
X87700000Y-114900000I0J250000D01*
G01*
X87700000Y-113600000D01*
G75*
G02*
X87950000Y-113350000I250000J0D01*
G01*
X91050000Y-113350000D01*
G75*
G02*
X91300000Y-113600000I0J-250000D01*
G01*
X91300000Y-114900000D01*
G75*
G02*
X91050000Y-115150000I-250000J0D01*
G01*
G37*
X89500000Y-110750000D03*
X89500000Y-107250000D03*
X89500000Y-103750000D03*
%TD*%
M02*
