%TF.GenerationSoftware,KiCad,Pcbnew,(5.1.9-0-10_14)*%
%TF.CreationDate,2023-05-28T23:00:20-04:00*%
%TF.ProjectId,LiControl,4c69436f-6e74-4726-9f6c-2e6b69636164,rev?*%
%TF.SameCoordinates,Original*%
%TF.FileFunction,Legend,Top*%
%TF.FilePolarity,Positive*%
%FSLAX46Y46*%
G04 Gerber Fmt 4.6, Leading zero omitted, Abs format (unit mm)*
G04 Created by KiCad (PCBNEW (5.1.9-0-10_14)) date 2023-05-28 23:00:20*
%MOMM*%
%LPD*%
G01*
G04 APERTURE LIST*
%ADD10C,0.150000*%
%ADD11C,0.250000*%
%ADD12C,0.200000*%
%ADD13C,0.120000*%
%ADD14C,0.500000*%
G04 APERTURE END LIST*
D10*
X115047619Y-113678571D02*
X115523809Y-113345238D01*
X115047619Y-113107142D02*
X116047619Y-113107142D01*
X116047619Y-113488095D01*
X116000000Y-113583333D01*
X115952380Y-113630952D01*
X115857142Y-113678571D01*
X115714285Y-113678571D01*
X115619047Y-113630952D01*
X115571428Y-113583333D01*
X115523809Y-113488095D01*
X115523809Y-113107142D01*
X115571428Y-114107142D02*
X115571428Y-114440476D01*
X115047619Y-114583333D02*
X115047619Y-114107142D01*
X116047619Y-114107142D01*
X116047619Y-114583333D01*
X115333333Y-114964285D02*
X115333333Y-115440476D01*
X115047619Y-114869047D02*
X116047619Y-115202380D01*
X115047619Y-115535714D01*
X115047619Y-116440476D02*
X115523809Y-116107142D01*
X115047619Y-115869047D02*
X116047619Y-115869047D01*
X116047619Y-116249999D01*
X116000000Y-116345238D01*
X115952380Y-116392857D01*
X115857142Y-116440476D01*
X115714285Y-116440476D01*
X115619047Y-116392857D01*
X115571428Y-116345238D01*
X115523809Y-116249999D01*
X115523809Y-115869047D01*
X111321428Y-113214285D02*
X111321428Y-112880952D01*
X110797619Y-112880952D02*
X111797619Y-112880952D01*
X111797619Y-113357142D01*
X110797619Y-114309523D02*
X111273809Y-113976190D01*
X110797619Y-113738095D02*
X111797619Y-113738095D01*
X111797619Y-114119047D01*
X111750000Y-114214285D01*
X111702380Y-114261904D01*
X111607142Y-114309523D01*
X111464285Y-114309523D01*
X111369047Y-114261904D01*
X111321428Y-114214285D01*
X111273809Y-114119047D01*
X111273809Y-113738095D01*
X111797619Y-114928571D02*
X111797619Y-115119047D01*
X111750000Y-115214285D01*
X111654761Y-115309523D01*
X111464285Y-115357142D01*
X111130952Y-115357142D01*
X110940476Y-115309523D01*
X110845238Y-115214285D01*
X110797619Y-115119047D01*
X110797619Y-114928571D01*
X110845238Y-114833333D01*
X110940476Y-114738095D01*
X111130952Y-114690476D01*
X111464285Y-114690476D01*
X111654761Y-114738095D01*
X111750000Y-114833333D01*
X111797619Y-114928571D01*
X110797619Y-115785714D02*
X111797619Y-115785714D01*
X110797619Y-116357142D01*
X111797619Y-116357142D01*
X111797619Y-116690476D02*
X111797619Y-117261904D01*
X110797619Y-116976190D02*
X111797619Y-116976190D01*
D11*
X126000000Y-117000000D02*
X116500000Y-117000000D01*
X116500000Y-117000000D02*
X116500000Y-112750000D01*
X126000000Y-112750000D02*
X126000000Y-117000000D01*
X116500000Y-112750000D02*
X126000000Y-112750000D01*
X110250000Y-117000000D02*
X100750000Y-117000000D01*
X110250000Y-112750000D02*
X110250000Y-117000000D01*
X100750000Y-112750000D02*
X110250000Y-112750000D01*
X100750000Y-117000000D02*
X100750000Y-112750000D01*
X91750000Y-118250000D02*
X100750000Y-117000000D01*
D10*
X124116666Y-68549999D02*
X125516666Y-68549999D01*
X124850000Y-68549999D02*
X124850000Y-69349999D01*
X124116666Y-69349999D02*
X125516666Y-69349999D01*
X125516666Y-70283333D02*
X125516666Y-70549999D01*
X125450000Y-70683333D01*
X125316666Y-70816666D01*
X125050000Y-70883333D01*
X124583333Y-70883333D01*
X124316666Y-70816666D01*
X124183333Y-70683333D01*
X124116666Y-70549999D01*
X124116666Y-70283333D01*
X124183333Y-70149999D01*
X124316666Y-70016666D01*
X124583333Y-69949999D01*
X125050000Y-69949999D01*
X125316666Y-70016666D01*
X125450000Y-70149999D01*
X125516666Y-70283333D01*
X124116666Y-71483333D02*
X125516666Y-71483333D01*
X124116666Y-72283333D01*
X125516666Y-72283333D01*
X124116666Y-72949999D02*
X125516666Y-72949999D01*
X125516666Y-73283333D01*
X125450000Y-73483333D01*
X125316666Y-73616666D01*
X125183333Y-73683333D01*
X124916666Y-73749999D01*
X124716666Y-73749999D01*
X124450000Y-73683333D01*
X124316666Y-73616666D01*
X124183333Y-73483333D01*
X124116666Y-73283333D01*
X124116666Y-72949999D01*
X124516666Y-74283333D02*
X124516666Y-74949999D01*
X124116666Y-74149999D02*
X125516666Y-74616666D01*
X124116666Y-75083333D01*
X124116666Y-76616666D02*
X125516666Y-76616666D01*
X124116666Y-77283333D02*
X125516666Y-77283333D01*
X124116666Y-78083333D01*
X125516666Y-78083333D01*
X124183333Y-78683333D02*
X124116666Y-78883333D01*
X124116666Y-79216666D01*
X124183333Y-79349999D01*
X124250000Y-79416666D01*
X124383333Y-79483333D01*
X124516666Y-79483333D01*
X124650000Y-79416666D01*
X124716666Y-79349999D01*
X124783333Y-79216666D01*
X124850000Y-78949999D01*
X124916666Y-78816666D01*
X124983333Y-78749999D01*
X125116666Y-78683333D01*
X125250000Y-78683333D01*
X125383333Y-78749999D01*
X125450000Y-78816666D01*
X125516666Y-78949999D01*
X125516666Y-79283333D01*
X125450000Y-79483333D01*
X124116666Y-80083333D02*
X125516666Y-80083333D01*
X125450000Y-81483333D02*
X125516666Y-81349999D01*
X125516666Y-81149999D01*
X125450000Y-80949999D01*
X125316666Y-80816666D01*
X125183333Y-80749999D01*
X124916666Y-80683333D01*
X124716666Y-80683333D01*
X124450000Y-80749999D01*
X124316666Y-80816666D01*
X124183333Y-80949999D01*
X124116666Y-81149999D01*
X124116666Y-81283333D01*
X124183333Y-81483333D01*
X124250000Y-81549999D01*
X124716666Y-81549999D01*
X124716666Y-81283333D01*
X124116666Y-82149999D02*
X125516666Y-82149999D01*
X124850000Y-82149999D02*
X124850000Y-82949999D01*
X124116666Y-82949999D02*
X125516666Y-82949999D01*
X125516666Y-83416666D02*
X125516666Y-84216666D01*
X124116666Y-83816666D02*
X125516666Y-83816666D01*
X124116666Y-85749999D02*
X125516666Y-85749999D01*
X124516666Y-86216666D01*
X125516666Y-86683333D01*
X124116666Y-86683333D01*
X124516666Y-87283333D02*
X124516666Y-87949999D01*
X124116666Y-87149999D02*
X125516666Y-87616666D01*
X124116666Y-88083333D01*
X124116666Y-88549999D02*
X125516666Y-88549999D01*
X124116666Y-89349999D01*
X125516666Y-89349999D01*
X125516666Y-90016666D02*
X124383333Y-90016666D01*
X124250000Y-90083333D01*
X124183333Y-90149999D01*
X124116666Y-90283333D01*
X124116666Y-90549999D01*
X124183333Y-90683333D01*
X124250000Y-90749999D01*
X124383333Y-90816666D01*
X125516666Y-90816666D01*
X124516666Y-91416666D02*
X124516666Y-92083333D01*
X124116666Y-91283333D02*
X125516666Y-91749999D01*
X124116666Y-92216666D01*
X124116666Y-93349999D02*
X124116666Y-92683333D01*
X125516666Y-92683333D01*
X124116666Y-94883333D02*
X125516666Y-94883333D01*
X124116666Y-95549999D02*
X125516666Y-95549999D01*
X124516666Y-96016666D01*
X125516666Y-96483333D01*
X124116666Y-96483333D01*
X124516666Y-97083333D02*
X124516666Y-97749999D01*
X124116666Y-96949999D02*
X125516666Y-97416666D01*
X124116666Y-97883333D01*
X124250000Y-100216666D02*
X124183333Y-100150000D01*
X124116666Y-99950000D01*
X124116666Y-99816666D01*
X124183333Y-99616666D01*
X124316666Y-99483333D01*
X124450000Y-99416666D01*
X124716666Y-99350000D01*
X124916666Y-99350000D01*
X125183333Y-99416666D01*
X125316666Y-99483333D01*
X125450000Y-99616666D01*
X125516666Y-99816666D01*
X125516666Y-99950000D01*
X125450000Y-100150000D01*
X125383333Y-100216666D01*
X125516666Y-101083333D02*
X125516666Y-101350000D01*
X125450000Y-101483333D01*
X125316666Y-101616666D01*
X125050000Y-101683333D01*
X124583333Y-101683333D01*
X124316666Y-101616666D01*
X124183333Y-101483333D01*
X124116666Y-101350000D01*
X124116666Y-101083333D01*
X124183333Y-100950000D01*
X124316666Y-100816666D01*
X124583333Y-100750000D01*
X125050000Y-100750000D01*
X125316666Y-100816666D01*
X125450000Y-100950000D01*
X125516666Y-101083333D01*
X124116666Y-102283333D02*
X125516666Y-102283333D01*
X124116666Y-103083333D01*
X125516666Y-103083333D01*
X125516666Y-103550000D02*
X125516666Y-104350000D01*
X124116666Y-103950000D02*
X125516666Y-103950000D01*
X124116666Y-105616666D02*
X124783333Y-105150000D01*
X124116666Y-104816666D02*
X125516666Y-104816666D01*
X125516666Y-105350000D01*
X125450000Y-105483333D01*
X125383333Y-105550000D01*
X125250000Y-105616666D01*
X125050000Y-105616666D01*
X124916666Y-105550000D01*
X124850000Y-105483333D01*
X124783333Y-105350000D01*
X124783333Y-104816666D01*
X125516666Y-106483333D02*
X125516666Y-106750000D01*
X125450000Y-106883333D01*
X125316666Y-107016666D01*
X125050000Y-107083333D01*
X124583333Y-107083333D01*
X124316666Y-107016666D01*
X124183333Y-106883333D01*
X124116666Y-106750000D01*
X124116666Y-106483333D01*
X124183333Y-106350000D01*
X124316666Y-106216666D01*
X124583333Y-106150000D01*
X125050000Y-106150000D01*
X125316666Y-106216666D01*
X125450000Y-106350000D01*
X125516666Y-106483333D01*
X124116666Y-108350000D02*
X124116666Y-107683333D01*
X125516666Y-107683333D01*
X124116666Y-109483333D02*
X124116666Y-108816666D01*
X125516666Y-108816666D01*
X124850000Y-109950000D02*
X124850000Y-110416666D01*
X124116666Y-110616666D02*
X124116666Y-109950000D01*
X125516666Y-109950000D01*
X125516666Y-110616666D01*
X124116666Y-112016666D02*
X124783333Y-111550000D01*
X124116666Y-111216666D02*
X125516666Y-111216666D01*
X125516666Y-111750000D01*
X125450000Y-111883333D01*
X125383333Y-111950000D01*
X125250000Y-112016666D01*
X125050000Y-112016666D01*
X124916666Y-111950000D01*
X124850000Y-111883333D01*
X124783333Y-111750000D01*
X124783333Y-111216666D01*
D12*
X96192857Y-89342857D02*
X96121428Y-89557142D01*
X96121428Y-89914285D01*
X96192857Y-90057142D01*
X96264285Y-90128571D01*
X96407142Y-90200000D01*
X96550000Y-90200000D01*
X96692857Y-90128571D01*
X96764285Y-90057142D01*
X96835714Y-89914285D01*
X96907142Y-89628571D01*
X96978571Y-89485714D01*
X97050000Y-89414285D01*
X97192857Y-89342857D01*
X97335714Y-89342857D01*
X97478571Y-89414285D01*
X97550000Y-89485714D01*
X97621428Y-89628571D01*
X97621428Y-89985714D01*
X97550000Y-90200000D01*
X96121428Y-90842857D02*
X97621428Y-90842857D01*
X97621428Y-91414285D01*
X97550000Y-91557142D01*
X97478571Y-91628571D01*
X97335714Y-91700000D01*
X97121428Y-91700000D01*
X96978571Y-91628571D01*
X96907142Y-91557142D01*
X96835714Y-91414285D01*
X96835714Y-90842857D01*
X96121428Y-92342857D02*
X97621428Y-92342857D01*
X95550000Y-93485714D02*
X95621428Y-93414285D01*
X95835714Y-93271428D01*
X95978571Y-93200000D01*
X96192857Y-93128571D01*
X96550000Y-93057142D01*
X96835714Y-93057142D01*
X97192857Y-93128571D01*
X97407142Y-93200000D01*
X97550000Y-93271428D01*
X97764285Y-93414285D01*
X97835714Y-93485714D01*
X96121428Y-94771428D02*
X96121428Y-94057142D01*
X97621428Y-94057142D01*
X96121428Y-95271428D02*
X97121428Y-95271428D01*
X97621428Y-95271428D02*
X97550000Y-95200000D01*
X97478571Y-95271428D01*
X97550000Y-95342857D01*
X97621428Y-95271428D01*
X97478571Y-95271428D01*
X96907142Y-96485714D02*
X96835714Y-96700000D01*
X96764285Y-96771428D01*
X96621428Y-96842857D01*
X96407142Y-96842857D01*
X96264285Y-96771428D01*
X96192857Y-96700000D01*
X96121428Y-96557142D01*
X96121428Y-95985714D01*
X97621428Y-95985714D01*
X97621428Y-96485714D01*
X97550000Y-96628571D01*
X97478571Y-96700000D01*
X97335714Y-96771428D01*
X97192857Y-96771428D01*
X97050000Y-96700000D01*
X96978571Y-96628571D01*
X96907142Y-96485714D01*
X96907142Y-95985714D01*
X96264285Y-98342857D02*
X96192857Y-98271428D01*
X96121428Y-98057142D01*
X96121428Y-97914285D01*
X96192857Y-97700000D01*
X96335714Y-97557142D01*
X96478571Y-97485714D01*
X96764285Y-97414285D01*
X96978571Y-97414285D01*
X97264285Y-97485714D01*
X97407142Y-97557142D01*
X97550000Y-97700000D01*
X97621428Y-97914285D01*
X97621428Y-98057142D01*
X97550000Y-98271428D01*
X97478571Y-98342857D01*
X96121428Y-98985714D02*
X97621428Y-98985714D01*
X96550000Y-99485714D01*
X97621428Y-99985714D01*
X96121428Y-99985714D01*
X95550000Y-100557142D02*
X95621428Y-100628571D01*
X95835714Y-100771428D01*
X95978571Y-100842857D01*
X96192857Y-100914285D01*
X96550000Y-100985714D01*
X96835714Y-100985714D01*
X97192857Y-100914285D01*
X97407142Y-100842857D01*
X97550000Y-100771428D01*
X97764285Y-100628571D01*
X97835714Y-100557142D01*
D10*
X104439285Y-81697500D02*
X104153571Y-80935595D01*
X103867857Y-81697500D01*
X103772619Y-82173690D02*
X104772619Y-82173690D01*
X104772619Y-82554642D01*
X104725000Y-82649880D01*
X104677380Y-82697500D01*
X104582142Y-82745119D01*
X104439285Y-82745119D01*
X104344047Y-82697500D01*
X104296428Y-82649880D01*
X104248809Y-82554642D01*
X104248809Y-82173690D01*
X103772619Y-83173690D02*
X104772619Y-83173690D01*
X103772619Y-83649880D02*
X104772619Y-83649880D01*
X103772619Y-84221309D01*
X104772619Y-84221309D01*
X104772619Y-84887976D02*
X104772619Y-85078452D01*
X104725000Y-85173690D01*
X104629761Y-85268928D01*
X104439285Y-85316547D01*
X104105952Y-85316547D01*
X103915476Y-85268928D01*
X103820238Y-85173690D01*
X103772619Y-85078452D01*
X103772619Y-84887976D01*
X103820238Y-84792738D01*
X103915476Y-84697500D01*
X104105952Y-84649880D01*
X104439285Y-84649880D01*
X104629761Y-84697500D01*
X104725000Y-84792738D01*
X104772619Y-84887976D01*
X104772619Y-85745119D02*
X103963095Y-85745119D01*
X103867857Y-85792738D01*
X103820238Y-85840357D01*
X103772619Y-85935595D01*
X103772619Y-86126071D01*
X103820238Y-86221309D01*
X103867857Y-86268928D01*
X103963095Y-86316547D01*
X104772619Y-86316547D01*
X104772619Y-86649880D02*
X104772619Y-87221309D01*
X103772619Y-86935595D02*
X104772619Y-86935595D01*
X101741666Y-81221309D02*
X101789285Y-81173690D01*
X101932142Y-81078452D01*
X102027380Y-81030833D01*
X102170238Y-80983214D01*
X102408333Y-80935595D01*
X102598809Y-80935595D01*
X102836904Y-80983214D01*
X102979761Y-81030833D01*
X103075000Y-81078452D01*
X103217857Y-81173690D01*
X103265476Y-81221309D01*
X103122619Y-81602261D02*
X102313095Y-81602261D01*
X102217857Y-81649880D01*
X102170238Y-81697500D01*
X102122619Y-81792738D01*
X102122619Y-81983214D01*
X102170238Y-82078452D01*
X102217857Y-82126071D01*
X102313095Y-82173690D01*
X103122619Y-82173690D01*
X102122619Y-82649880D02*
X103122619Y-82649880D01*
X103122619Y-83030833D01*
X103075000Y-83126071D01*
X103027380Y-83173690D01*
X102932142Y-83221309D01*
X102789285Y-83221309D01*
X102694047Y-83173690D01*
X102646428Y-83126071D01*
X102598809Y-83030833D01*
X102598809Y-82649880D01*
X102122619Y-83649880D02*
X103122619Y-83649880D01*
X103122619Y-84030833D01*
X103075000Y-84126071D01*
X103027380Y-84173690D01*
X102932142Y-84221309D01*
X102789285Y-84221309D01*
X102694047Y-84173690D01*
X102646428Y-84126071D01*
X102598809Y-84030833D01*
X102598809Y-83649880D01*
X102646428Y-84649880D02*
X102646428Y-84983214D01*
X102122619Y-85126071D02*
X102122619Y-84649880D01*
X103122619Y-84649880D01*
X103122619Y-85126071D01*
X102122619Y-86126071D02*
X102598809Y-85792738D01*
X102122619Y-85554642D02*
X103122619Y-85554642D01*
X103122619Y-85935595D01*
X103075000Y-86030833D01*
X103027380Y-86078452D01*
X102932142Y-86126071D01*
X102789285Y-86126071D01*
X102694047Y-86078452D01*
X102646428Y-86030833D01*
X102598809Y-85935595D01*
X102598809Y-85554642D01*
X101741666Y-86459404D02*
X101789285Y-86507023D01*
X101932142Y-86602261D01*
X102027380Y-86649880D01*
X102170238Y-86697500D01*
X102408333Y-86745119D01*
X102598809Y-86745119D01*
X102836904Y-86697500D01*
X102979761Y-86649880D01*
X103075000Y-86602261D01*
X103217857Y-86507023D01*
X103265476Y-86459404D01*
X102847619Y-77916666D02*
X102847619Y-78583333D01*
X101847619Y-78154761D01*
X102419047Y-76654761D02*
X102466666Y-76559523D01*
X102514285Y-76511904D01*
X102609523Y-76464285D01*
X102657142Y-76464285D01*
X102752380Y-76511904D01*
X102800000Y-76559523D01*
X102847619Y-76654761D01*
X102847619Y-76845238D01*
X102800000Y-76940476D01*
X102752380Y-76988095D01*
X102657142Y-77035714D01*
X102609523Y-77035714D01*
X102514285Y-76988095D01*
X102466666Y-76940476D01*
X102419047Y-76845238D01*
X102419047Y-76654761D01*
X102371428Y-76559523D01*
X102323809Y-76511904D01*
X102228571Y-76464285D01*
X102038095Y-76464285D01*
X101942857Y-76511904D01*
X101895238Y-76559523D01*
X101847619Y-76654761D01*
X101847619Y-76845238D01*
X101895238Y-76940476D01*
X101942857Y-76988095D01*
X102038095Y-77035714D01*
X102228571Y-77035714D01*
X102323809Y-76988095D01*
X102371428Y-76940476D01*
X102419047Y-76845238D01*
X101847619Y-75059523D02*
X101847619Y-75250000D01*
X101895238Y-75345238D01*
X101942857Y-75392857D01*
X102085714Y-75488095D01*
X102276190Y-75535714D01*
X102657142Y-75535714D01*
X102752380Y-75488095D01*
X102800000Y-75440476D01*
X102847619Y-75345238D01*
X102847619Y-75154761D01*
X102800000Y-75059523D01*
X102752380Y-75011904D01*
X102657142Y-74964285D01*
X102419047Y-74964285D01*
X102323809Y-75011904D01*
X102276190Y-75059523D01*
X102228571Y-75154761D01*
X102228571Y-75345238D01*
X102276190Y-75440476D01*
X102323809Y-75488095D01*
X102419047Y-75535714D01*
X101847619Y-73309523D02*
X101847619Y-72738095D01*
X101847619Y-73023809D02*
X102847619Y-73023809D01*
X102704761Y-72928571D01*
X102609523Y-72833333D01*
X102561904Y-72738095D01*
X102847619Y-73928571D02*
X102847619Y-74023809D01*
X102800000Y-74119047D01*
X102752380Y-74166666D01*
X102657142Y-74214285D01*
X102466666Y-74261904D01*
X102228571Y-74261904D01*
X102038095Y-74214285D01*
X101942857Y-74166666D01*
X101895238Y-74119047D01*
X101847619Y-74023809D01*
X101847619Y-73928571D01*
X101895238Y-73833333D01*
X101942857Y-73785714D01*
X102038095Y-73738095D01*
X102228571Y-73690476D01*
X102466666Y-73690476D01*
X102657142Y-73738095D01*
X102752380Y-73785714D01*
X102800000Y-73833333D01*
X102847619Y-73928571D01*
X101847619Y-71309523D02*
X101847619Y-70738095D01*
X101847619Y-71023809D02*
X102847619Y-71023809D01*
X102704761Y-70928571D01*
X102609523Y-70833333D01*
X102561904Y-70738095D01*
X101847619Y-72261904D02*
X101847619Y-71690476D01*
X101847619Y-71976190D02*
X102847619Y-71976190D01*
X102704761Y-71880952D01*
X102609523Y-71785714D01*
X102561904Y-71690476D01*
D13*
X101500000Y-68500000D02*
X105000000Y-68500000D01*
X101500000Y-70500000D02*
X105000000Y-70500000D01*
X101500000Y-72500000D02*
X105000000Y-72500000D01*
X101500000Y-74500000D02*
X105000000Y-74500000D01*
X101500000Y-76000000D02*
X105000000Y-76000000D01*
X101500000Y-77500000D02*
X105000000Y-77500000D01*
X101500000Y-79000000D02*
X105000000Y-79000000D01*
X101500000Y-80500000D02*
X105000000Y-80500000D01*
D10*
X101847619Y-69309523D02*
X101847619Y-68738095D01*
X101847619Y-69023809D02*
X102847619Y-69023809D01*
X102704761Y-68928571D01*
X102609523Y-68833333D01*
X102561904Y-68738095D01*
X102752380Y-69690476D02*
X102800000Y-69738095D01*
X102847619Y-69833333D01*
X102847619Y-70071428D01*
X102800000Y-70166666D01*
X102752380Y-70214285D01*
X102657142Y-70261904D01*
X102561904Y-70261904D01*
X102419047Y-70214285D01*
X101847619Y-69642857D01*
X101847619Y-70261904D01*
X85750000Y-100750000D02*
X95250000Y-100750000D01*
X85750000Y-85500000D02*
X85750000Y-100750000D01*
X95250000Y-85500000D02*
X85750000Y-85500000D01*
X95250000Y-100750000D02*
X95250000Y-85500000D01*
X104597619Y-73166666D02*
X104597619Y-73785714D01*
X104216666Y-73452380D01*
X104216666Y-73595238D01*
X104169047Y-73690476D01*
X104121428Y-73738095D01*
X104026190Y-73785714D01*
X103788095Y-73785714D01*
X103692857Y-73738095D01*
X103645238Y-73690476D01*
X103597619Y-73595238D01*
X103597619Y-73309523D01*
X103645238Y-73214285D01*
X103692857Y-73166666D01*
X102847619Y-79940476D02*
X102847619Y-79750000D01*
X102800000Y-79654761D01*
X102752380Y-79607142D01*
X102609523Y-79511904D01*
X102419047Y-79464285D01*
X102038095Y-79464285D01*
X101942857Y-79511904D01*
X101895238Y-79559523D01*
X101847619Y-79654761D01*
X101847619Y-79845238D01*
X101895238Y-79940476D01*
X101942857Y-79988095D01*
X102038095Y-80035714D01*
X102276190Y-80035714D01*
X102371428Y-79988095D01*
X102419047Y-79940476D01*
X102466666Y-79845238D01*
X102466666Y-79654761D01*
X102419047Y-79559523D01*
X102371428Y-79511904D01*
X102276190Y-79464285D01*
X104597619Y-69738095D02*
X104597619Y-69261904D01*
X104121428Y-69214285D01*
X104169047Y-69261904D01*
X104216666Y-69357142D01*
X104216666Y-69595238D01*
X104169047Y-69690476D01*
X104121428Y-69738095D01*
X104026190Y-69785714D01*
X103788095Y-69785714D01*
X103692857Y-69738095D01*
X103645238Y-69690476D01*
X103597619Y-69595238D01*
X103597619Y-69357142D01*
X103645238Y-69261904D01*
X103692857Y-69214285D01*
X104264285Y-71690476D02*
X103597619Y-71690476D01*
X104645238Y-71452380D02*
X103930952Y-71214285D01*
X103930952Y-71833333D01*
X104502380Y-77964285D02*
X104550000Y-78011904D01*
X104597619Y-78107142D01*
X104597619Y-78345238D01*
X104550000Y-78440476D01*
X104502380Y-78488095D01*
X104407142Y-78535714D01*
X104311904Y-78535714D01*
X104169047Y-78488095D01*
X103597619Y-77916666D01*
X103597619Y-78535714D01*
X103597619Y-80035714D02*
X103597619Y-79464285D01*
X103597619Y-79750000D02*
X104597619Y-79750000D01*
X104454761Y-79654761D01*
X104359523Y-79559523D01*
X104311904Y-79464285D01*
D13*
X103250000Y-68500000D02*
X103250000Y-80500000D01*
X101500000Y-80500000D02*
X101500000Y-68500000D01*
X105000000Y-68500000D02*
X105000000Y-80500000D01*
D12*
X95857142Y-86928571D02*
X95857142Y-85428571D01*
X95857142Y-86142857D02*
X96714285Y-86142857D01*
X96714285Y-86928571D02*
X96714285Y-85428571D01*
X97428571Y-86928571D02*
X97428571Y-85428571D01*
X97928571Y-86500000D01*
X98428571Y-85428571D01*
X98428571Y-86928571D01*
X99142857Y-86928571D02*
X99142857Y-85428571D01*
X93963333Y-105335119D02*
X93963333Y-103185119D01*
X94430000Y-104720833D01*
X94896666Y-103185119D01*
X94896666Y-105335119D01*
X95496666Y-104720833D02*
X96163333Y-104720833D01*
X95363333Y-105335119D02*
X95830000Y-103185119D01*
X96296666Y-105335119D01*
X96763333Y-105335119D02*
X96763333Y-103185119D01*
X97296666Y-103185119D01*
X97430000Y-103287500D01*
X97496666Y-103389880D01*
X97563333Y-103594642D01*
X97563333Y-103901785D01*
X97496666Y-104106547D01*
X97430000Y-104208928D01*
X97296666Y-104311309D01*
X96763333Y-104311309D01*
X93763333Y-106610119D02*
X94563333Y-106610119D01*
X94163333Y-108760119D02*
X94163333Y-106610119D01*
X95030000Y-108760119D02*
X95030000Y-106610119D01*
X95563333Y-106610119D01*
X95696666Y-106712500D01*
X95763333Y-106814880D01*
X95830000Y-107019642D01*
X95830000Y-107326785D01*
X95763333Y-107531547D01*
X95696666Y-107633928D01*
X95563333Y-107736309D01*
X95030000Y-107736309D01*
X96363333Y-108657738D02*
X96563333Y-108760119D01*
X96896666Y-108760119D01*
X97030000Y-108657738D01*
X97096666Y-108555357D01*
X97163333Y-108350595D01*
X97163333Y-108145833D01*
X97096666Y-107941071D01*
X97030000Y-107838690D01*
X96896666Y-107736309D01*
X96630000Y-107633928D01*
X96496666Y-107531547D01*
X96430000Y-107429166D01*
X96363333Y-107224404D01*
X96363333Y-107019642D01*
X96430000Y-106814880D01*
X96496666Y-106712500D01*
X96630000Y-106610119D01*
X96963333Y-106610119D01*
X97163333Y-106712500D01*
X94763333Y-111980357D02*
X94696666Y-112082738D01*
X94496666Y-112185119D01*
X94363333Y-112185119D01*
X94163333Y-112082738D01*
X94030000Y-111877976D01*
X93963333Y-111673214D01*
X93896666Y-111263690D01*
X93896666Y-110956547D01*
X93963333Y-110547023D01*
X94030000Y-110342261D01*
X94163333Y-110137500D01*
X94363333Y-110035119D01*
X94496666Y-110035119D01*
X94696666Y-110137500D01*
X94763333Y-110239880D01*
X96030000Y-112185119D02*
X95363333Y-112185119D01*
X95363333Y-110035119D01*
X96296666Y-110035119D02*
X97096666Y-110035119D01*
X96696666Y-112185119D02*
X96696666Y-110035119D01*
X94430000Y-114483928D02*
X94630000Y-114586309D01*
X94696666Y-114688690D01*
X94763333Y-114893452D01*
X94763333Y-115200595D01*
X94696666Y-115405357D01*
X94630000Y-115507738D01*
X94496666Y-115610119D01*
X93963333Y-115610119D01*
X93963333Y-113460119D01*
X94430000Y-113460119D01*
X94563333Y-113562500D01*
X94630000Y-113664880D01*
X94696666Y-113869642D01*
X94696666Y-114074404D01*
X94630000Y-114279166D01*
X94563333Y-114381547D01*
X94430000Y-114483928D01*
X93963333Y-114483928D01*
X96163333Y-115610119D02*
X95696666Y-114586309D01*
X95363333Y-115610119D02*
X95363333Y-113460119D01*
X95896666Y-113460119D01*
X96030000Y-113562500D01*
X96096666Y-113664880D01*
X96163333Y-113869642D01*
X96163333Y-114176785D01*
X96096666Y-114381547D01*
X96030000Y-114483928D01*
X95896666Y-114586309D01*
X95363333Y-114586309D01*
X96696666Y-114995833D02*
X97363333Y-114995833D01*
X96563333Y-115610119D02*
X97030000Y-113460119D01*
X97496666Y-115610119D01*
X97963333Y-115610119D02*
X97963333Y-113460119D01*
X98763333Y-115610119D02*
X98163333Y-114381547D01*
X98763333Y-113460119D02*
X97963333Y-114688690D01*
X99363333Y-114483928D02*
X99830000Y-114483928D01*
X100030000Y-115610119D02*
X99363333Y-115610119D01*
X99363333Y-113460119D01*
X100030000Y-113460119D01*
D14*
X99738095Y-94871428D02*
X99738095Y-93442857D01*
X104738095Y-93442857D01*
X99738095Y-95871428D02*
X103071428Y-95871428D01*
X104738095Y-95871428D02*
X104500000Y-95728571D01*
X104261904Y-95871428D01*
X104500000Y-96014285D01*
X104738095Y-95871428D01*
X104261904Y-95871428D01*
X100214285Y-99014285D02*
X99976190Y-98871428D01*
X99738095Y-98442857D01*
X99738095Y-98157142D01*
X99976190Y-97728571D01*
X100452380Y-97442857D01*
X100928571Y-97300000D01*
X101880952Y-97157142D01*
X102595238Y-97157142D01*
X103547619Y-97300000D01*
X104023809Y-97442857D01*
X104500000Y-97728571D01*
X104738095Y-98157142D01*
X104738095Y-98442857D01*
X104500000Y-98871428D01*
X104261904Y-99014285D01*
X99738095Y-100728571D02*
X99976190Y-100442857D01*
X100214285Y-100300000D01*
X100690476Y-100157142D01*
X102119047Y-100157142D01*
X102595238Y-100300000D01*
X102833333Y-100442857D01*
X103071428Y-100728571D01*
X103071428Y-101157142D01*
X102833333Y-101442857D01*
X102595238Y-101585714D01*
X102119047Y-101728571D01*
X100690476Y-101728571D01*
X100214285Y-101585714D01*
X99976190Y-101442857D01*
X99738095Y-101157142D01*
X99738095Y-100728571D01*
X103071428Y-103014285D02*
X99738095Y-103014285D01*
X102595238Y-103014285D02*
X102833333Y-103157142D01*
X103071428Y-103442857D01*
X103071428Y-103871428D01*
X102833333Y-104157142D01*
X102357142Y-104300000D01*
X99738095Y-104300000D01*
X103071428Y-105300000D02*
X103071428Y-106442857D01*
X104738095Y-105728571D02*
X100452380Y-105728571D01*
X99976190Y-105871428D01*
X99738095Y-106157142D01*
X99738095Y-106442857D01*
X99738095Y-107442857D02*
X103071428Y-107442857D01*
X102119047Y-107442857D02*
X102595238Y-107585714D01*
X102833333Y-107728571D01*
X103071428Y-108014285D01*
X103071428Y-108300000D01*
X99738095Y-109728571D02*
X99976190Y-109442857D01*
X100214285Y-109300000D01*
X100690476Y-109157142D01*
X102119047Y-109157142D01*
X102595238Y-109300000D01*
X102833333Y-109442857D01*
X103071428Y-109728571D01*
X103071428Y-110157142D01*
X102833333Y-110442857D01*
X102595238Y-110585714D01*
X102119047Y-110728571D01*
X100690476Y-110728571D01*
X100214285Y-110585714D01*
X99976190Y-110442857D01*
X99738095Y-110157142D01*
X99738095Y-109728571D01*
X99738095Y-112442857D02*
X99976190Y-112157142D01*
X100452380Y-112014285D01*
X104738095Y-112014285D01*
X117035714Y-116357142D02*
X117035714Y-113357142D01*
X118035714Y-115500000D01*
X119035714Y-113357142D01*
X119035714Y-116357142D01*
X122178571Y-116071428D02*
X122035714Y-116214285D01*
X121607142Y-116357142D01*
X121321428Y-116357142D01*
X120892857Y-116214285D01*
X120607142Y-115928571D01*
X120464285Y-115642857D01*
X120321428Y-115071428D01*
X120321428Y-114642857D01*
X120464285Y-114071428D01*
X120607142Y-113785714D01*
X120892857Y-113500000D01*
X121321428Y-113357142D01*
X121607142Y-113357142D01*
X122035714Y-113500000D01*
X122178571Y-113642857D01*
X123464285Y-116357142D02*
X123464285Y-113357142D01*
X124464285Y-115500000D01*
X125464285Y-113357142D01*
X125464285Y-116357142D01*
X101642857Y-114785714D02*
X102642857Y-114785714D01*
X103071428Y-116357142D02*
X101642857Y-116357142D01*
X101642857Y-113357142D01*
X103071428Y-113357142D01*
X106071428Y-116071428D02*
X105928571Y-116214285D01*
X105500000Y-116357142D01*
X105214285Y-116357142D01*
X104785714Y-116214285D01*
X104500000Y-115928571D01*
X104357142Y-115642857D01*
X104214285Y-115071428D01*
X104214285Y-114642857D01*
X104357142Y-114071428D01*
X104500000Y-113785714D01*
X104785714Y-113500000D01*
X105214285Y-113357142D01*
X105500000Y-113357142D01*
X105928571Y-113500000D01*
X106071428Y-113642857D01*
X107357142Y-116357142D02*
X107357142Y-113357142D01*
X108357142Y-115500000D01*
X109357142Y-113357142D01*
X109357142Y-116357142D01*
D12*
X94019999Y-120495238D02*
X94019999Y-118295238D01*
X94486666Y-119866666D01*
X94953333Y-118295238D01*
X94953333Y-120495238D01*
X95553333Y-119866666D02*
X96219999Y-119866666D01*
X95419999Y-120495238D02*
X95886666Y-118295238D01*
X96353333Y-120495238D01*
X96819999Y-120495238D02*
X96819999Y-118295238D01*
X97286666Y-119866666D01*
X97753333Y-118295238D01*
X97753333Y-120495238D01*
X98686666Y-118295238D02*
X98953333Y-118295238D01*
X99086666Y-118400000D01*
X99219999Y-118609523D01*
X99286666Y-119028571D01*
X99286666Y-119761904D01*
X99219999Y-120180952D01*
X99086666Y-120390476D01*
X98953333Y-120495238D01*
X98686666Y-120495238D01*
X98553333Y-120390476D01*
X98419999Y-120180952D01*
X98353333Y-119761904D01*
X98353333Y-119028571D01*
X98419999Y-118609523D01*
X98553333Y-118400000D01*
X98686666Y-118295238D01*
X99886666Y-120495238D02*
X99886666Y-118295238D01*
X100219999Y-118295238D01*
X100419999Y-118400000D01*
X100553333Y-118609523D01*
X100619999Y-118819047D01*
X100686666Y-119238095D01*
X100686666Y-119552380D01*
X100619999Y-119971428D01*
X100553333Y-120180952D01*
X100419999Y-120390476D01*
X100219999Y-120495238D01*
X99886666Y-120495238D01*
X101219999Y-118504761D02*
X101286666Y-118400000D01*
X101419999Y-118295238D01*
X101753333Y-118295238D01*
X101886666Y-118400000D01*
X101953333Y-118504761D01*
X102019999Y-118714285D01*
X102019999Y-118923809D01*
X101953333Y-119238095D01*
X101153333Y-120495238D01*
X102019999Y-120495238D01*
X102619999Y-120285714D02*
X102686666Y-120390476D01*
X102619999Y-120495238D01*
X102553333Y-120390476D01*
X102619999Y-120285714D01*
X102619999Y-120495238D01*
X102619999Y-119133333D02*
X102686666Y-119238095D01*
X102619999Y-119342857D01*
X102553333Y-119238095D01*
X102619999Y-119133333D01*
X102619999Y-119342857D01*
X103753333Y-119342857D02*
X103953333Y-119447619D01*
X104019999Y-119552380D01*
X104086666Y-119761904D01*
X104086666Y-120076190D01*
X104019999Y-120285714D01*
X103953333Y-120390476D01*
X103819999Y-120495238D01*
X103286666Y-120495238D01*
X103286666Y-118295238D01*
X103753333Y-118295238D01*
X103886666Y-118400000D01*
X103953333Y-118504761D01*
X104019999Y-118714285D01*
X104019999Y-118923809D01*
X103953333Y-119133333D01*
X103886666Y-119238095D01*
X103753333Y-119342857D01*
X103286666Y-119342857D01*
X105353333Y-120495238D02*
X104686666Y-120495238D01*
X104686666Y-118295238D01*
X105819999Y-120495238D02*
X105819999Y-118295238D01*
X106619999Y-120495238D02*
X106019999Y-119238095D01*
X106619999Y-118295238D02*
X105819999Y-119552380D01*
X108219999Y-118190476D02*
X107019999Y-121019047D01*
X108953333Y-119447619D02*
X108953333Y-120495238D01*
X108486666Y-118295238D02*
X108953333Y-119447619D01*
X109419999Y-118295238D01*
X109886666Y-119342857D02*
X110353333Y-119342857D01*
X110553333Y-120495238D02*
X109886666Y-120495238D01*
X109886666Y-118295238D01*
X110553333Y-118295238D01*
X111819999Y-120495238D02*
X111153333Y-120495238D01*
X111153333Y-118295238D01*
X112686666Y-121228571D02*
X112353333Y-121228571D01*
X112353333Y-118085714D01*
X112686666Y-118085714D01*
X113886666Y-120495238D02*
X113219999Y-120495238D01*
X113219999Y-118295238D01*
X114286666Y-118504761D02*
X114353333Y-118400000D01*
X114486666Y-118295238D01*
X114819999Y-118295238D01*
X114953333Y-118400000D01*
X115019999Y-118504761D01*
X115086666Y-118714285D01*
X115086666Y-118923809D01*
X115019999Y-119238095D01*
X114219999Y-120495238D01*
X115086666Y-120495238D01*
X115619999Y-118504761D02*
X115686666Y-118400000D01*
X115819999Y-118295238D01*
X116153333Y-118295238D01*
X116286666Y-118400000D01*
X116353333Y-118504761D01*
X116419999Y-118714285D01*
X116419999Y-118923809D01*
X116353333Y-119238095D01*
X115553333Y-120495238D01*
X116419999Y-120495238D01*
X116886666Y-121228571D02*
X117219999Y-121228571D01*
X117219999Y-118085714D01*
X116886666Y-118085714D01*
X94620000Y-121900000D02*
X94486666Y-121795238D01*
X94286666Y-121795238D01*
X94086666Y-121900000D01*
X93953333Y-122109523D01*
X93886666Y-122319047D01*
X93820000Y-122738095D01*
X93820000Y-123052380D01*
X93886666Y-123471428D01*
X93953333Y-123680952D01*
X94086666Y-123890476D01*
X94286666Y-123995238D01*
X94420000Y-123995238D01*
X94620000Y-123890476D01*
X94686666Y-123785714D01*
X94686666Y-123052380D01*
X94420000Y-123052380D01*
X95286666Y-123995238D02*
X95286666Y-121795238D01*
X96086666Y-123995238D01*
X96086666Y-121795238D01*
X96753333Y-123995238D02*
X96753333Y-121795238D01*
X97086666Y-121795238D01*
X97286666Y-121900000D01*
X97420000Y-122109523D01*
X97486666Y-122319047D01*
X97553333Y-122738095D01*
X97553333Y-123052380D01*
X97486666Y-123471428D01*
X97420000Y-123680952D01*
X97286666Y-123890476D01*
X97086666Y-123995238D01*
X96753333Y-123995238D01*
X98153333Y-122842857D02*
X98620000Y-122842857D01*
X98820000Y-123995238D02*
X98153333Y-123995238D01*
X98153333Y-121795238D01*
X98820000Y-121795238D01*
X99420000Y-123995238D02*
X99420000Y-121795238D01*
X100220000Y-123995238D01*
X100220000Y-121795238D01*
X101620000Y-121900000D02*
X101486666Y-121795238D01*
X101286666Y-121795238D01*
X101086666Y-121900000D01*
X100953333Y-122109523D01*
X100886666Y-122319047D01*
X100820000Y-122738095D01*
X100820000Y-123052380D01*
X100886666Y-123471428D01*
X100953333Y-123680952D01*
X101086666Y-123890476D01*
X101286666Y-123995238D01*
X101420000Y-123995238D01*
X101620000Y-123890476D01*
X101686666Y-123785714D01*
X101686666Y-123052380D01*
X101420000Y-123052380D01*
X102286666Y-123785714D02*
X102353333Y-123890476D01*
X102286666Y-123995238D01*
X102220000Y-123890476D01*
X102286666Y-123785714D01*
X102286666Y-123995238D01*
X102286666Y-122633333D02*
X102353333Y-122738095D01*
X102286666Y-122842857D01*
X102220000Y-122738095D01*
X102286666Y-122633333D01*
X102286666Y-122842857D01*
X103420000Y-122842857D02*
X103620000Y-122947619D01*
X103686666Y-123052380D01*
X103753333Y-123261904D01*
X103753333Y-123576190D01*
X103686666Y-123785714D01*
X103620000Y-123890476D01*
X103486666Y-123995238D01*
X102953333Y-123995238D01*
X102953333Y-121795238D01*
X103420000Y-121795238D01*
X103553333Y-121900000D01*
X103620000Y-122004761D01*
X103686666Y-122214285D01*
X103686666Y-122423809D01*
X103620000Y-122633333D01*
X103553333Y-122738095D01*
X103420000Y-122842857D01*
X102953333Y-122842857D01*
X105153333Y-123995238D02*
X104686666Y-122947619D01*
X104353333Y-123995238D02*
X104353333Y-121795238D01*
X104886666Y-121795238D01*
X105020000Y-121900000D01*
X105086666Y-122004761D01*
X105153333Y-122214285D01*
X105153333Y-122528571D01*
X105086666Y-122738095D01*
X105020000Y-122842857D01*
X104886666Y-122947619D01*
X104353333Y-122947619D01*
X105753333Y-123995238D02*
X105753333Y-121795238D01*
X106553333Y-123995238D01*
X106553333Y-121795238D01*
X108220000Y-121690476D02*
X107020000Y-124519047D01*
X108953333Y-122947619D02*
X108953333Y-123995238D01*
X108486666Y-121795238D02*
X108953333Y-122947619D01*
X109419999Y-121795238D01*
X109886666Y-122842857D02*
X110353333Y-122842857D01*
X110553333Y-123995238D02*
X109886666Y-123995238D01*
X109886666Y-121795238D01*
X110553333Y-121795238D01*
X111820000Y-123995238D02*
X111153333Y-123995238D01*
X111153333Y-121795238D01*
X112686666Y-124728571D02*
X112353333Y-124728571D01*
X112353333Y-121585714D01*
X112686666Y-121585714D01*
X113886666Y-123995238D02*
X113219999Y-123995238D01*
X113219999Y-121795238D01*
X114286666Y-122004761D02*
X114353333Y-121900000D01*
X114486666Y-121795238D01*
X114819999Y-121795238D01*
X114953333Y-121900000D01*
X115019999Y-122004761D01*
X115086666Y-122214285D01*
X115086666Y-122423809D01*
X115019999Y-122738095D01*
X114219999Y-123995238D01*
X115086666Y-123995238D01*
X115953333Y-121795238D02*
X116086666Y-121795238D01*
X116219999Y-121900000D01*
X116286666Y-122004761D01*
X116353333Y-122214285D01*
X116419999Y-122633333D01*
X116419999Y-123157142D01*
X116353333Y-123576190D01*
X116286666Y-123785714D01*
X116219999Y-123890476D01*
X116086666Y-123995238D01*
X115953333Y-123995238D01*
X115819999Y-123890476D01*
X115753333Y-123785714D01*
X115686666Y-123576190D01*
X115619999Y-123157142D01*
X115619999Y-122633333D01*
X115686666Y-122214285D01*
X115753333Y-122004761D01*
X115819999Y-121900000D01*
X115953333Y-121795238D01*
X116886666Y-124728571D02*
X117219999Y-124728571D01*
X117219999Y-121585714D01*
X116886666Y-121585714D01*
X95886666Y-127495238D02*
X95086666Y-127495238D01*
X95486666Y-127495238D02*
X95486666Y-125295238D01*
X95353333Y-125609523D01*
X95220000Y-125819047D01*
X95086666Y-125923809D01*
X96420000Y-125504761D02*
X96486666Y-125400000D01*
X96620000Y-125295238D01*
X96953333Y-125295238D01*
X97086666Y-125400000D01*
X97153333Y-125504761D01*
X97220000Y-125714285D01*
X97220000Y-125923809D01*
X97153333Y-126238095D01*
X96353333Y-127495238D01*
X97220000Y-127495238D01*
X97620000Y-125295238D02*
X98086666Y-127495238D01*
X98553333Y-125295238D01*
X99020000Y-127495238D02*
X99020000Y-125295238D01*
X99020000Y-126342857D02*
X99820000Y-126342857D01*
X99820000Y-127495238D02*
X99820000Y-125295238D01*
X100753333Y-125295238D02*
X101020000Y-125295238D01*
X101153333Y-125400000D01*
X101286666Y-125609523D01*
X101353333Y-126028571D01*
X101353333Y-126761904D01*
X101286666Y-127180952D01*
X101153333Y-127390476D01*
X101020000Y-127495238D01*
X100753333Y-127495238D01*
X100620000Y-127390476D01*
X100486666Y-127180952D01*
X100420000Y-126761904D01*
X100420000Y-126028571D01*
X100486666Y-125609523D01*
X100620000Y-125400000D01*
X100753333Y-125295238D01*
X101753333Y-125295238D02*
X102553333Y-125295238D01*
X102153333Y-127495238D02*
X102153333Y-125295238D01*
X103020000Y-127285714D02*
X103086666Y-127390476D01*
X103020000Y-127495238D01*
X102953333Y-127390476D01*
X103020000Y-127285714D01*
X103020000Y-127495238D01*
X103020000Y-126133333D02*
X103086666Y-126238095D01*
X103020000Y-126342857D01*
X102953333Y-126238095D01*
X103020000Y-126133333D01*
X103020000Y-126342857D01*
X103553333Y-125295238D02*
X103886666Y-127495238D01*
X104153333Y-125923809D01*
X104420000Y-127495238D01*
X104753333Y-125295238D01*
X105286666Y-127495238D02*
X105286666Y-125295238D01*
X105286666Y-126342857D02*
X106086666Y-126342857D01*
X106086666Y-127495238D02*
X106086666Y-125295238D01*
X106553333Y-125295238D02*
X107353333Y-125295238D01*
X106953333Y-127495238D02*
X106953333Y-125295238D01*
X108820000Y-125190476D02*
X107620000Y-128019047D01*
X109753333Y-126342857D02*
X109953333Y-126447619D01*
X110020000Y-126552380D01*
X110086666Y-126761904D01*
X110086666Y-127076190D01*
X110020000Y-127285714D01*
X109953333Y-127390476D01*
X109820000Y-127495238D01*
X109286666Y-127495238D01*
X109286666Y-125295238D01*
X109753333Y-125295238D01*
X109886666Y-125400000D01*
X109953333Y-125504761D01*
X110020000Y-125714285D01*
X110020000Y-125923809D01*
X109953333Y-126133333D01*
X109886666Y-126238095D01*
X109753333Y-126342857D01*
X109286666Y-126342857D01*
X111353333Y-127495238D02*
X110686666Y-127495238D01*
X110686666Y-125295238D01*
X111820000Y-125295238D02*
X111820000Y-127076190D01*
X111886666Y-127285714D01*
X111953333Y-127390476D01*
X112086666Y-127495238D01*
X112353333Y-127495238D01*
X112486666Y-127390476D01*
X112553333Y-127285714D01*
X112620000Y-127076190D01*
X112620000Y-125295238D01*
X113686666Y-128228571D02*
X113353333Y-128228571D01*
X113353333Y-125085714D01*
X113686666Y-125085714D01*
X114220000Y-125295238D02*
X114220000Y-127076190D01*
X114286666Y-127285714D01*
X114353333Y-127390476D01*
X114486666Y-127495238D01*
X114753333Y-127495238D01*
X114886666Y-127390476D01*
X114953333Y-127285714D01*
X115020000Y-127076190D01*
X115020000Y-125295238D01*
X115753333Y-127495238D02*
X116020000Y-127495238D01*
X116153333Y-127390476D01*
X116220000Y-127285714D01*
X116353333Y-126971428D01*
X116420000Y-126552380D01*
X116420000Y-125714285D01*
X116353333Y-125504761D01*
X116286666Y-125400000D01*
X116153333Y-125295238D01*
X115886666Y-125295238D01*
X115753333Y-125400000D01*
X115686666Y-125504761D01*
X115620000Y-125714285D01*
X115620000Y-126238095D01*
X115686666Y-126447619D01*
X115753333Y-126552380D01*
X115886666Y-126657142D01*
X116153333Y-126657142D01*
X116286666Y-126552380D01*
X116353333Y-126447619D01*
X116420000Y-126238095D01*
X116886666Y-128228571D02*
X117220000Y-128228571D01*
X117220000Y-125085714D01*
X116886666Y-125085714D01*
X98953333Y-128795238D02*
X99420000Y-130995238D01*
X99886666Y-128795238D01*
X100286666Y-130890476D02*
X100486666Y-130995238D01*
X100820000Y-130995238D01*
X100953333Y-130890476D01*
X101020000Y-130785714D01*
X101086666Y-130576190D01*
X101086666Y-130366666D01*
X101020000Y-130157142D01*
X100953333Y-130052380D01*
X100820000Y-129947619D01*
X100553333Y-129842857D01*
X100420000Y-129738095D01*
X100353333Y-129633333D01*
X100286666Y-129423809D01*
X100286666Y-129214285D01*
X100353333Y-129004761D01*
X100420000Y-128900000D01*
X100553333Y-128795238D01*
X100886666Y-128795238D01*
X101086666Y-128900000D01*
X101620000Y-130890476D02*
X101820000Y-130995238D01*
X102153333Y-130995238D01*
X102286666Y-130890476D01*
X102353333Y-130785714D01*
X102420000Y-130576190D01*
X102420000Y-130366666D01*
X102353333Y-130157142D01*
X102286666Y-130052380D01*
X102153333Y-129947619D01*
X101886666Y-129842857D01*
X101753333Y-129738095D01*
X101686666Y-129633333D01*
X101620000Y-129423809D01*
X101620000Y-129214285D01*
X101686666Y-129004761D01*
X101753333Y-128900000D01*
X101886666Y-128795238D01*
X102220000Y-128795238D01*
X102420000Y-128900000D01*
X103020000Y-130785714D02*
X103086666Y-130890476D01*
X103020000Y-130995238D01*
X102953333Y-130890476D01*
X103020000Y-130785714D01*
X103020000Y-130995238D01*
X103020000Y-129633333D02*
X103086666Y-129738095D01*
X103020000Y-129842857D01*
X102953333Y-129738095D01*
X103020000Y-129633333D01*
X103020000Y-129842857D01*
X104153333Y-129842857D02*
X104353333Y-129947619D01*
X104420000Y-130052380D01*
X104486666Y-130261904D01*
X104486666Y-130576190D01*
X104420000Y-130785714D01*
X104353333Y-130890476D01*
X104220000Y-130995238D01*
X103686666Y-130995238D01*
X103686666Y-128795238D01*
X104153333Y-128795238D01*
X104286666Y-128900000D01*
X104353333Y-129004761D01*
X104420000Y-129214285D01*
X104420000Y-129423809D01*
X104353333Y-129633333D01*
X104286666Y-129738095D01*
X104153333Y-129842857D01*
X103686666Y-129842857D01*
X105753333Y-130995238D02*
X105086666Y-130995238D01*
X105086666Y-128795238D01*
X106220000Y-128795238D02*
X106220000Y-130576190D01*
X106286666Y-130785714D01*
X106353333Y-130890476D01*
X106486666Y-130995238D01*
X106753333Y-130995238D01*
X106886666Y-130890476D01*
X106953333Y-130785714D01*
X107020000Y-130576190D01*
X107020000Y-128795238D01*
X108686666Y-128690476D02*
X107486666Y-131519047D01*
X109020000Y-128795238D02*
X109353333Y-130995238D01*
X109620000Y-129423809D01*
X109886666Y-130995238D01*
X110220000Y-128795238D01*
X110753333Y-130995238D02*
X110753333Y-128795238D01*
X110753333Y-129842857D02*
X111553333Y-129842857D01*
X111553333Y-130995238D02*
X111553333Y-128795238D01*
X112020000Y-128795238D02*
X112820000Y-128795238D01*
X112420000Y-130995238D02*
X112420000Y-128795238D01*
X113686666Y-131728571D02*
X113353333Y-131728571D01*
X113353333Y-128585714D01*
X113686666Y-128585714D01*
X114220000Y-128795238D02*
X114220000Y-130576190D01*
X114286666Y-130785714D01*
X114353333Y-130890476D01*
X114486666Y-130995238D01*
X114753333Y-130995238D01*
X114886666Y-130890476D01*
X114953333Y-130785714D01*
X115020000Y-130576190D01*
X115020000Y-128795238D01*
X115886666Y-129738095D02*
X115753333Y-129633333D01*
X115686666Y-129528571D01*
X115620000Y-129319047D01*
X115620000Y-129214285D01*
X115686666Y-129004761D01*
X115753333Y-128900000D01*
X115886666Y-128795238D01*
X116153333Y-128795238D01*
X116286666Y-128900000D01*
X116353333Y-129004761D01*
X116420000Y-129214285D01*
X116420000Y-129319047D01*
X116353333Y-129528571D01*
X116286666Y-129633333D01*
X116153333Y-129738095D01*
X115886666Y-129738095D01*
X115753333Y-129842857D01*
X115686666Y-129947619D01*
X115620000Y-130157142D01*
X115620000Y-130576190D01*
X115686666Y-130785714D01*
X115753333Y-130890476D01*
X115886666Y-130995238D01*
X116153333Y-130995238D01*
X116286666Y-130890476D01*
X116353333Y-130785714D01*
X116420000Y-130576190D01*
X116420000Y-130157142D01*
X116353333Y-129947619D01*
X116286666Y-129842857D01*
X116153333Y-129738095D01*
X116886666Y-131728571D02*
X117220000Y-131728571D01*
X117220000Y-128585714D01*
X116886666Y-128585714D01*
X96620000Y-134495238D02*
X95820000Y-134495238D01*
X96220000Y-134495238D02*
X96220000Y-132295238D01*
X96086666Y-132609523D01*
X95953333Y-132819047D01*
X95820000Y-132923809D01*
X97153333Y-132504761D02*
X97220000Y-132400000D01*
X97353333Y-132295238D01*
X97686666Y-132295238D01*
X97820000Y-132400000D01*
X97886666Y-132504761D01*
X97953333Y-132714285D01*
X97953333Y-132923809D01*
X97886666Y-133238095D01*
X97086666Y-134495238D01*
X97953333Y-134495238D01*
X98353333Y-132295238D02*
X98820000Y-134495238D01*
X99286666Y-132295238D01*
X99753333Y-134495238D02*
X99753333Y-132295238D01*
X100553333Y-134495238D02*
X99953333Y-133238095D01*
X100553333Y-132295238D02*
X99753333Y-133552380D01*
X101153333Y-133342857D02*
X101620000Y-133342857D01*
X101820000Y-134495238D02*
X101153333Y-134495238D01*
X101153333Y-132295238D01*
X101820000Y-132295238D01*
X102686666Y-133447619D02*
X102686666Y-134495238D01*
X102220000Y-132295238D02*
X102686666Y-133447619D01*
X103153333Y-132295238D01*
X103620000Y-134285714D02*
X103686666Y-134390476D01*
X103620000Y-134495238D01*
X103553333Y-134390476D01*
X103620000Y-134285714D01*
X103620000Y-134495238D01*
X103620000Y-133133333D02*
X103686666Y-133238095D01*
X103620000Y-133342857D01*
X103553333Y-133238095D01*
X103620000Y-133133333D01*
X103620000Y-133342857D01*
X104753333Y-133342857D02*
X104953333Y-133447619D01*
X105020000Y-133552380D01*
X105086666Y-133761904D01*
X105086666Y-134076190D01*
X105020000Y-134285714D01*
X104953333Y-134390476D01*
X104820000Y-134495238D01*
X104286666Y-134495238D01*
X104286666Y-132295238D01*
X104753333Y-132295238D01*
X104886666Y-132400000D01*
X104953333Y-132504761D01*
X105020000Y-132714285D01*
X105020000Y-132923809D01*
X104953333Y-133133333D01*
X104886666Y-133238095D01*
X104753333Y-133342857D01*
X104286666Y-133342857D01*
X106353333Y-134495238D02*
X105686666Y-134495238D01*
X105686666Y-132295238D01*
X106820000Y-134495238D02*
X106820000Y-132295238D01*
X107620000Y-134495238D02*
X107020000Y-133238095D01*
X107620000Y-132295238D02*
X106820000Y-133552380D01*
X109220000Y-132190476D02*
X108020000Y-135019047D01*
X109953333Y-133447619D02*
X109953333Y-134495238D01*
X109486666Y-132295238D02*
X109953333Y-133447619D01*
X110420000Y-132295238D01*
X110886666Y-133342857D02*
X111353333Y-133342857D01*
X111553333Y-134495238D02*
X110886666Y-134495238D01*
X110886666Y-132295238D01*
X111553333Y-132295238D01*
X112820000Y-134495238D02*
X112153333Y-134495238D01*
X112153333Y-132295238D01*
X113686666Y-135228571D02*
X113353333Y-135228571D01*
X113353333Y-132085714D01*
X113686666Y-132085714D01*
X114220000Y-132295238D02*
X114220000Y-134076190D01*
X114286666Y-134285714D01*
X114353333Y-134390476D01*
X114486666Y-134495238D01*
X114753333Y-134495238D01*
X114886666Y-134390476D01*
X114953333Y-134285714D01*
X115020000Y-134076190D01*
X115020000Y-132295238D01*
X115553333Y-132295238D02*
X116486666Y-132295238D01*
X115886666Y-134495238D01*
X116886666Y-135228571D02*
X117220000Y-135228571D01*
X117220000Y-132085714D01*
X116886666Y-132085714D01*
X95553333Y-137785714D02*
X95486666Y-137890476D01*
X95286666Y-137995238D01*
X95153333Y-137995238D01*
X94953333Y-137890476D01*
X94820000Y-137680952D01*
X94753333Y-137471428D01*
X94686666Y-137052380D01*
X94686666Y-136738095D01*
X94753333Y-136319047D01*
X94820000Y-136109523D01*
X94953333Y-135900000D01*
X95153333Y-135795238D01*
X95286666Y-135795238D01*
X95486666Y-135900000D01*
X95553333Y-136004761D01*
X96153333Y-137995238D02*
X96153333Y-135795238D01*
X96620000Y-137366666D01*
X97086666Y-135795238D01*
X97086666Y-137995238D01*
X97753333Y-137995238D02*
X97753333Y-135795238D01*
X98086666Y-135795238D01*
X98286666Y-135900000D01*
X98420000Y-136109523D01*
X98486666Y-136319047D01*
X98553333Y-136738095D01*
X98553333Y-137052380D01*
X98486666Y-137471428D01*
X98420000Y-137680952D01*
X98286666Y-137890476D01*
X98086666Y-137995238D01*
X97753333Y-137995238D01*
X99153333Y-137995238D02*
X99153333Y-135795238D01*
X99686666Y-135795238D01*
X99820000Y-135900000D01*
X99886666Y-136004761D01*
X99953333Y-136214285D01*
X99953333Y-136528571D01*
X99886666Y-136738095D01*
X99820000Y-136842857D01*
X99686666Y-136947619D01*
X99153333Y-136947619D01*
X100420000Y-135795238D02*
X100753333Y-137995238D01*
X101020000Y-136423809D01*
X101286666Y-137995238D01*
X101620000Y-135795238D01*
X102953333Y-137995238D02*
X102486666Y-136947619D01*
X102153333Y-137995238D02*
X102153333Y-135795238D01*
X102686666Y-135795238D01*
X102820000Y-135900000D01*
X102886666Y-136004761D01*
X102953333Y-136214285D01*
X102953333Y-136528571D01*
X102886666Y-136738095D01*
X102820000Y-136842857D01*
X102686666Y-136947619D01*
X102153333Y-136947619D01*
X103553333Y-137785714D02*
X103620000Y-137890476D01*
X103553333Y-137995238D01*
X103486666Y-137890476D01*
X103553333Y-137785714D01*
X103553333Y-137995238D01*
X103553333Y-136633333D02*
X103620000Y-136738095D01*
X103553333Y-136842857D01*
X103486666Y-136738095D01*
X103553333Y-136633333D01*
X103553333Y-136842857D01*
X104686666Y-136842857D02*
X104886666Y-136947619D01*
X104953333Y-137052380D01*
X105020000Y-137261904D01*
X105020000Y-137576190D01*
X104953333Y-137785714D01*
X104886666Y-137890476D01*
X104753333Y-137995238D01*
X104220000Y-137995238D01*
X104220000Y-135795238D01*
X104686666Y-135795238D01*
X104820000Y-135900000D01*
X104886666Y-136004761D01*
X104953333Y-136214285D01*
X104953333Y-136423809D01*
X104886666Y-136633333D01*
X104820000Y-136738095D01*
X104686666Y-136842857D01*
X104220000Y-136842857D01*
X106286666Y-137995238D02*
X105620000Y-137995238D01*
X105620000Y-135795238D01*
X106753333Y-135795238D02*
X106753333Y-137576190D01*
X106820000Y-137785714D01*
X106886666Y-137890476D01*
X107020000Y-137995238D01*
X107286666Y-137995238D01*
X107420000Y-137890476D01*
X107486666Y-137785714D01*
X107553333Y-137576190D01*
X107553333Y-135795238D01*
X109220000Y-135690476D02*
X108020000Y-138519047D01*
X110153333Y-136842857D02*
X110353333Y-136947619D01*
X110420000Y-137052380D01*
X110486666Y-137261904D01*
X110486666Y-137576190D01*
X110420000Y-137785714D01*
X110353333Y-137890476D01*
X110220000Y-137995238D01*
X109686666Y-137995238D01*
X109686666Y-135795238D01*
X110153333Y-135795238D01*
X110286666Y-135900000D01*
X110353333Y-136004761D01*
X110420000Y-136214285D01*
X110420000Y-136423809D01*
X110353333Y-136633333D01*
X110286666Y-136738095D01*
X110153333Y-136842857D01*
X109686666Y-136842857D01*
X111753333Y-137995238D02*
X111086666Y-137995238D01*
X111086666Y-135795238D01*
X112220000Y-137995238D02*
X112220000Y-135795238D01*
X113020000Y-137995238D02*
X112420000Y-136738095D01*
X113020000Y-135795238D02*
X112220000Y-137052380D01*
X114020000Y-138728571D02*
X113686666Y-138728571D01*
X113686666Y-135585714D01*
X114020000Y-135585714D01*
X115220000Y-137995238D02*
X114553333Y-137995238D01*
X114553333Y-135795238D01*
X116286666Y-136528571D02*
X116286666Y-137995238D01*
X115953333Y-135690476D02*
X115620000Y-137261904D01*
X116486666Y-137261904D01*
X116886666Y-138728571D02*
X117220000Y-138728571D01*
X117220000Y-135585714D01*
X116886666Y-135585714D01*
X99020000Y-141495238D02*
X99020000Y-139295238D01*
X99820000Y-141495238D01*
X99820000Y-139295238D01*
X100486666Y-140342857D02*
X100953333Y-140342857D01*
X101153333Y-141495238D02*
X100486666Y-141495238D01*
X100486666Y-139295238D01*
X101153333Y-139295238D01*
X101753333Y-141495238D02*
X101753333Y-139295238D01*
X102286666Y-139295238D01*
X102420000Y-139400000D01*
X102486666Y-139504761D01*
X102553333Y-139714285D01*
X102553333Y-140028571D01*
X102486666Y-140238095D01*
X102420000Y-140342857D01*
X102286666Y-140447619D01*
X101753333Y-140447619D01*
X103153333Y-141285714D02*
X103220000Y-141390476D01*
X103153333Y-141495238D01*
X103086666Y-141390476D01*
X103153333Y-141285714D01*
X103153333Y-141495238D01*
X103153333Y-140133333D02*
X103220000Y-140238095D01*
X103153333Y-140342857D01*
X103086666Y-140238095D01*
X103153333Y-140133333D01*
X103153333Y-140342857D01*
X104286666Y-140342857D02*
X104486666Y-140447619D01*
X104553333Y-140552380D01*
X104620000Y-140761904D01*
X104620000Y-141076190D01*
X104553333Y-141285714D01*
X104486666Y-141390476D01*
X104353333Y-141495238D01*
X103820000Y-141495238D01*
X103820000Y-139295238D01*
X104286666Y-139295238D01*
X104420000Y-139400000D01*
X104486666Y-139504761D01*
X104553333Y-139714285D01*
X104553333Y-139923809D01*
X104486666Y-140133333D01*
X104420000Y-140238095D01*
X104286666Y-140342857D01*
X103820000Y-140342857D01*
X105886666Y-141495238D02*
X105220000Y-141495238D01*
X105220000Y-139295238D01*
X106353333Y-139295238D02*
X106353333Y-141076190D01*
X106420000Y-141285714D01*
X106486666Y-141390476D01*
X106620000Y-141495238D01*
X106886666Y-141495238D01*
X107020000Y-141390476D01*
X107086666Y-141285714D01*
X107153333Y-141076190D01*
X107153333Y-139295238D01*
X108820000Y-139190476D02*
X107620000Y-142019047D01*
X109753333Y-140342857D02*
X109953333Y-140447619D01*
X110020000Y-140552380D01*
X110086666Y-140761904D01*
X110086666Y-141076190D01*
X110020000Y-141285714D01*
X109953333Y-141390476D01*
X109820000Y-141495238D01*
X109286666Y-141495238D01*
X109286666Y-139295238D01*
X109753333Y-139295238D01*
X109886666Y-139400000D01*
X109953333Y-139504761D01*
X110020000Y-139714285D01*
X110020000Y-139923809D01*
X109953333Y-140133333D01*
X109886666Y-140238095D01*
X109753333Y-140342857D01*
X109286666Y-140342857D01*
X111353333Y-141495238D02*
X110686666Y-141495238D01*
X110686666Y-139295238D01*
X111820000Y-139295238D02*
X111820000Y-141076190D01*
X111886666Y-141285714D01*
X111953333Y-141390476D01*
X112086666Y-141495238D01*
X112353333Y-141495238D01*
X112486666Y-141390476D01*
X112553333Y-141285714D01*
X112620000Y-141076190D01*
X112620000Y-139295238D01*
X113686666Y-142228571D02*
X113353333Y-142228571D01*
X113353333Y-139085714D01*
X113686666Y-139085714D01*
X114220000Y-139295238D02*
X114220000Y-141076190D01*
X114286666Y-141285714D01*
X114353333Y-141390476D01*
X114486666Y-141495238D01*
X114753333Y-141495238D01*
X114886666Y-141390476D01*
X114953333Y-141285714D01*
X115020000Y-141076190D01*
X115020000Y-139295238D01*
X115620000Y-139504761D02*
X115686666Y-139400000D01*
X115820000Y-139295238D01*
X116153333Y-139295238D01*
X116286666Y-139400000D01*
X116353333Y-139504761D01*
X116420000Y-139714285D01*
X116420000Y-139923809D01*
X116353333Y-140238095D01*
X115553333Y-141495238D01*
X116420000Y-141495238D01*
X116886666Y-142228571D02*
X117220000Y-142228571D01*
X117220000Y-139085714D01*
X116886666Y-139085714D01*
X95219999Y-144995238D02*
X95219999Y-142795238D01*
X95686666Y-144366666D01*
X96153333Y-142795238D01*
X96153333Y-144995238D01*
X96753333Y-144366666D02*
X97419999Y-144366666D01*
X96619999Y-144995238D02*
X97086666Y-142795238D01*
X97553333Y-144995238D01*
X98019999Y-144995238D02*
X98019999Y-142795238D01*
X98486666Y-144366666D01*
X98953333Y-142795238D01*
X98953333Y-144995238D01*
X99886666Y-142795238D02*
X100153333Y-142795238D01*
X100286666Y-142900000D01*
X100419999Y-143109523D01*
X100486666Y-143528571D01*
X100486666Y-144261904D01*
X100419999Y-144680952D01*
X100286666Y-144890476D01*
X100153333Y-144995238D01*
X99886666Y-144995238D01*
X99753333Y-144890476D01*
X99619999Y-144680952D01*
X99553333Y-144261904D01*
X99553333Y-143528571D01*
X99619999Y-143109523D01*
X99753333Y-142900000D01*
X99886666Y-142795238D01*
X101086666Y-144995238D02*
X101086666Y-142795238D01*
X101419999Y-142795238D01*
X101619999Y-142900000D01*
X101753333Y-143109523D01*
X101819999Y-143319047D01*
X101886666Y-143738095D01*
X101886666Y-144052380D01*
X101819999Y-144471428D01*
X101753333Y-144680952D01*
X101619999Y-144890476D01*
X101419999Y-144995238D01*
X101086666Y-144995238D01*
X103219999Y-144995238D02*
X102419999Y-144995238D01*
X102819999Y-144995238D02*
X102819999Y-142795238D01*
X102686666Y-143109523D01*
X102553333Y-143319047D01*
X102419999Y-143423809D01*
X103819999Y-144785714D02*
X103886666Y-144890476D01*
X103819999Y-144995238D01*
X103753333Y-144890476D01*
X103819999Y-144785714D01*
X103819999Y-144995238D01*
X103819999Y-143633333D02*
X103886666Y-143738095D01*
X103819999Y-143842857D01*
X103753333Y-143738095D01*
X103819999Y-143633333D01*
X103819999Y-143842857D01*
X105286666Y-144995238D02*
X104819999Y-143947619D01*
X104486666Y-144995238D02*
X104486666Y-142795238D01*
X105019999Y-142795238D01*
X105153333Y-142900000D01*
X105219999Y-143004761D01*
X105286666Y-143214285D01*
X105286666Y-143528571D01*
X105219999Y-143738095D01*
X105153333Y-143842857D01*
X105019999Y-143947619D01*
X104486666Y-143947619D01*
X105886666Y-143842857D02*
X106353333Y-143842857D01*
X106553333Y-144995238D02*
X105886666Y-144995238D01*
X105886666Y-142795238D01*
X106553333Y-142795238D01*
X107153333Y-144995238D02*
X107153333Y-142795238D01*
X107486666Y-142795238D01*
X107686666Y-142900000D01*
X107819999Y-143109523D01*
X107886666Y-143319047D01*
X107953333Y-143738095D01*
X107953333Y-144052380D01*
X107886666Y-144471428D01*
X107819999Y-144680952D01*
X107686666Y-144890476D01*
X107486666Y-144995238D01*
X107153333Y-144995238D01*
X109553333Y-142690476D02*
X108353333Y-145519047D01*
X110286666Y-143947619D02*
X110286666Y-144995238D01*
X109819999Y-142795238D02*
X110286666Y-143947619D01*
X110753333Y-142795238D01*
X111219999Y-143842857D02*
X111686666Y-143842857D01*
X111886666Y-144995238D02*
X111219999Y-144995238D01*
X111219999Y-142795238D01*
X111886666Y-142795238D01*
X113153333Y-144995238D02*
X112486666Y-144995238D01*
X112486666Y-142795238D01*
X114019999Y-145728571D02*
X113686666Y-145728571D01*
X113686666Y-142585714D01*
X114019999Y-142585714D01*
X115219999Y-144995238D02*
X114553333Y-144995238D01*
X114553333Y-142795238D01*
X116419999Y-144995238D02*
X115619999Y-144995238D01*
X116019999Y-144995238D02*
X116019999Y-142795238D01*
X115886666Y-143109523D01*
X115753333Y-143319047D01*
X115619999Y-143423809D01*
X116886666Y-145728571D02*
X117219999Y-145728571D01*
X117219999Y-142585714D01*
X116886666Y-142585714D01*
D13*
%TO.C,A1*%
X105360000Y-112190000D02*
X123400000Y-112190000D01*
X105360000Y-68750000D02*
X105360000Y-112190000D01*
X123400000Y-68750000D02*
X105360000Y-68750000D01*
X120730000Y-71420000D02*
X123400000Y-71420000D01*
X120730000Y-106980000D02*
X120730000Y-71420000D01*
X120730000Y-106980000D02*
X123400000Y-106980000D01*
X108030000Y-71420000D02*
X105360000Y-71420000D01*
X108030000Y-109520000D02*
X108030000Y-71420000D01*
X108030000Y-109520000D02*
X105360000Y-109520000D01*
X123400000Y-112190000D02*
X123400000Y-109520000D01*
X123400000Y-106980000D02*
X123400000Y-68750000D01*
X120730000Y-109520000D02*
X123400000Y-109520000D01*
X120730000Y-106980000D02*
X120730000Y-109520000D01*
%TO.C,J5*%
X101065000Y-84880000D02*
X101065000Y-66920000D01*
X85545000Y-84880000D02*
X101065000Y-84880000D01*
X85545000Y-84880000D02*
X85545000Y-66920000D01*
X101065000Y-66920000D02*
X85545000Y-66920000D01*
X101250000Y-81000000D02*
X101750000Y-81500000D01*
X101750000Y-81500000D02*
X101750000Y-80500000D01*
X101750000Y-80500000D02*
X101250000Y-81000000D01*
%TO.C,J6*%
X93080000Y-89340000D02*
X87880000Y-89340000D01*
X93080000Y-94480000D02*
X93080000Y-89340000D01*
X87880000Y-97080000D02*
X87880000Y-89340000D01*
X93080000Y-94480000D02*
X90480000Y-94480000D01*
X90480000Y-94480000D02*
X90480000Y-97080000D01*
X90480000Y-97080000D02*
X87880000Y-97080000D01*
X93080000Y-95750000D02*
X93080000Y-97080000D01*
X93080000Y-97080000D02*
X91750000Y-97080000D01*
%TO.C,J1*%
X85140000Y-146810000D02*
X92610000Y-146810000D01*
X92610000Y-146810000D02*
X92610000Y-117190000D01*
X92610000Y-117190000D02*
X85140000Y-117190000D01*
X85140000Y-117190000D02*
X85140000Y-146810000D01*
X91750000Y-145000000D02*
X91750000Y-145750000D01*
X91750000Y-145750000D02*
X87450000Y-145750000D01*
X87450000Y-145750000D02*
X87450000Y-145000000D01*
X87450000Y-145000000D02*
X87100000Y-145000000D01*
X87100000Y-145000000D02*
X87100000Y-145500000D01*
X87100000Y-145500000D02*
X86100000Y-145750000D01*
X86100000Y-145750000D02*
X86100000Y-142750000D01*
X86100000Y-142750000D02*
X87100000Y-143000000D01*
X87100000Y-143000000D02*
X87100000Y-143500000D01*
X87100000Y-143500000D02*
X87450000Y-143500000D01*
X87450000Y-143500000D02*
X87450000Y-142750000D01*
X87450000Y-142750000D02*
X91750000Y-142750000D01*
X91750000Y-142750000D02*
X91750000Y-143500000D01*
X91750000Y-141500000D02*
X91750000Y-142250000D01*
X91750000Y-142250000D02*
X87450000Y-142250000D01*
X87450000Y-142250000D02*
X87450000Y-141500000D01*
X87450000Y-141500000D02*
X87100000Y-141500000D01*
X87100000Y-141500000D02*
X87100000Y-142000000D01*
X87100000Y-142000000D02*
X86100000Y-142250000D01*
X86100000Y-142250000D02*
X86100000Y-139250000D01*
X86100000Y-139250000D02*
X87100000Y-139500000D01*
X87100000Y-139500000D02*
X87100000Y-140000000D01*
X87100000Y-140000000D02*
X87450000Y-140000000D01*
X87450000Y-140000000D02*
X87450000Y-139250000D01*
X87450000Y-139250000D02*
X91750000Y-139250000D01*
X91750000Y-139250000D02*
X91750000Y-140000000D01*
X91750000Y-138000000D02*
X91750000Y-138750000D01*
X91750000Y-138750000D02*
X87450000Y-138750000D01*
X87450000Y-138750000D02*
X87450000Y-138000000D01*
X87450000Y-138000000D02*
X87100000Y-138000000D01*
X87100000Y-138000000D02*
X87100000Y-138500000D01*
X87100000Y-138500000D02*
X86100000Y-138750000D01*
X86100000Y-138750000D02*
X86100000Y-135750000D01*
X86100000Y-135750000D02*
X87100000Y-136000000D01*
X87100000Y-136000000D02*
X87100000Y-136500000D01*
X87100000Y-136500000D02*
X87450000Y-136500000D01*
X87450000Y-136500000D02*
X87450000Y-135750000D01*
X87450000Y-135750000D02*
X91750000Y-135750000D01*
X91750000Y-135750000D02*
X91750000Y-136500000D01*
X91750000Y-134500000D02*
X91750000Y-135250000D01*
X91750000Y-135250000D02*
X87450000Y-135250000D01*
X87450000Y-135250000D02*
X87450000Y-134500000D01*
X87450000Y-134500000D02*
X87100000Y-134500000D01*
X87100000Y-134500000D02*
X87100000Y-135000000D01*
X87100000Y-135000000D02*
X86100000Y-135250000D01*
X86100000Y-135250000D02*
X86100000Y-132250000D01*
X86100000Y-132250000D02*
X87100000Y-132500000D01*
X87100000Y-132500000D02*
X87100000Y-133000000D01*
X87100000Y-133000000D02*
X87450000Y-133000000D01*
X87450000Y-133000000D02*
X87450000Y-132250000D01*
X87450000Y-132250000D02*
X91750000Y-132250000D01*
X91750000Y-132250000D02*
X91750000Y-133000000D01*
X91750000Y-131000000D02*
X91750000Y-131750000D01*
X91750000Y-131750000D02*
X87450000Y-131750000D01*
X87450000Y-131750000D02*
X87450000Y-131000000D01*
X87450000Y-131000000D02*
X87100000Y-131000000D01*
X87100000Y-131000000D02*
X87100000Y-131500000D01*
X87100000Y-131500000D02*
X86100000Y-131750000D01*
X86100000Y-131750000D02*
X86100000Y-128750000D01*
X86100000Y-128750000D02*
X87100000Y-129000000D01*
X87100000Y-129000000D02*
X87100000Y-129500000D01*
X87100000Y-129500000D02*
X87450000Y-129500000D01*
X87450000Y-129500000D02*
X87450000Y-128750000D01*
X87450000Y-128750000D02*
X91750000Y-128750000D01*
X91750000Y-128750000D02*
X91750000Y-129500000D01*
X91750000Y-127500000D02*
X91750000Y-128250000D01*
X91750000Y-128250000D02*
X87450000Y-128250000D01*
X87450000Y-128250000D02*
X87450000Y-127500000D01*
X87450000Y-127500000D02*
X87100000Y-127500000D01*
X87100000Y-127500000D02*
X87100000Y-128000000D01*
X87100000Y-128000000D02*
X86100000Y-128250000D01*
X86100000Y-128250000D02*
X86100000Y-125250000D01*
X86100000Y-125250000D02*
X87100000Y-125500000D01*
X87100000Y-125500000D02*
X87100000Y-126000000D01*
X87100000Y-126000000D02*
X87450000Y-126000000D01*
X87450000Y-126000000D02*
X87450000Y-125250000D01*
X87450000Y-125250000D02*
X91750000Y-125250000D01*
X91750000Y-125250000D02*
X91750000Y-126000000D01*
X91750000Y-124000000D02*
X91750000Y-124750000D01*
X91750000Y-124750000D02*
X87450000Y-124750000D01*
X87450000Y-124750000D02*
X87450000Y-124000000D01*
X87450000Y-124000000D02*
X87100000Y-124000000D01*
X87100000Y-124000000D02*
X87100000Y-124500000D01*
X87100000Y-124500000D02*
X86100000Y-124750000D01*
X86100000Y-124750000D02*
X86100000Y-121750000D01*
X86100000Y-121750000D02*
X87100000Y-122000000D01*
X87100000Y-122000000D02*
X87100000Y-122500000D01*
X87100000Y-122500000D02*
X87450000Y-122500000D01*
X87450000Y-122500000D02*
X87450000Y-121750000D01*
X87450000Y-121750000D02*
X91750000Y-121750000D01*
X91750000Y-121750000D02*
X91750000Y-122500000D01*
X91750000Y-120500000D02*
X91750000Y-121250000D01*
X91750000Y-121250000D02*
X87450000Y-121250000D01*
X87450000Y-121250000D02*
X87450000Y-120500000D01*
X87450000Y-120500000D02*
X87100000Y-120500000D01*
X87100000Y-120500000D02*
X87100000Y-121000000D01*
X87100000Y-121000000D02*
X86100000Y-121250000D01*
X86100000Y-121250000D02*
X86100000Y-118250000D01*
X86100000Y-118250000D02*
X87100000Y-118500000D01*
X87100000Y-118500000D02*
X87100000Y-119000000D01*
X87100000Y-119000000D02*
X87450000Y-119000000D01*
X87450000Y-119000000D02*
X87450000Y-118250000D01*
X87450000Y-118250000D02*
X91750000Y-118250000D01*
X91750000Y-118250000D02*
X91750000Y-119000000D01*
X86000000Y-147200000D02*
X84750000Y-147200000D01*
X84750000Y-147200000D02*
X84750000Y-145200000D01*
X91749845Y-143500353D02*
G75*
G03*
X91750000Y-145000000I1700155J-749647D01*
G01*
X91749845Y-140000353D02*
G75*
G03*
X91750000Y-141500000I1700155J-749647D01*
G01*
X91749845Y-136500353D02*
G75*
G03*
X91750000Y-138000000I1700155J-749647D01*
G01*
X91749845Y-133000353D02*
G75*
G03*
X91750000Y-134500000I1700155J-749647D01*
G01*
X91749845Y-129500353D02*
G75*
G03*
X91750000Y-131000000I1700155J-749647D01*
G01*
X91749845Y-126000353D02*
G75*
G03*
X91750000Y-127500000I1700155J-749647D01*
G01*
X91749845Y-122500353D02*
G75*
G03*
X91750000Y-124000000I1700155J-749647D01*
G01*
X91749845Y-119000353D02*
G75*
G03*
X91750000Y-120500000I1700155J-749647D01*
G01*
%TO.C,J4*%
X126250000Y-116800000D02*
X126250000Y-118800000D01*
X125000000Y-116800000D02*
X126250000Y-116800000D01*
X119250000Y-145750000D02*
X119250000Y-145000000D01*
X123550000Y-145750000D02*
X119250000Y-145750000D01*
X123550000Y-145000000D02*
X123550000Y-145750000D01*
X123900000Y-145000000D02*
X123550000Y-145000000D01*
X123900000Y-145500000D02*
X123900000Y-145000000D01*
X124900000Y-145750000D02*
X123900000Y-145500000D01*
X124900000Y-142750000D02*
X124900000Y-145750000D01*
X123900000Y-143000000D02*
X124900000Y-142750000D01*
X123900000Y-143500000D02*
X123900000Y-143000000D01*
X123550000Y-143500000D02*
X123900000Y-143500000D01*
X123550000Y-142750000D02*
X123550000Y-143500000D01*
X119250000Y-142750000D02*
X123550000Y-142750000D01*
X119250000Y-143500000D02*
X119250000Y-142750000D01*
X119250000Y-142250000D02*
X119250000Y-141500000D01*
X123550000Y-142250000D02*
X119250000Y-142250000D01*
X123550000Y-141500000D02*
X123550000Y-142250000D01*
X123900000Y-141500000D02*
X123550000Y-141500000D01*
X123900000Y-142000000D02*
X123900000Y-141500000D01*
X124900000Y-142250000D02*
X123900000Y-142000000D01*
X124900000Y-139250000D02*
X124900000Y-142250000D01*
X123900000Y-139500000D02*
X124900000Y-139250000D01*
X123900000Y-140000000D02*
X123900000Y-139500000D01*
X123550000Y-140000000D02*
X123900000Y-140000000D01*
X123550000Y-139250000D02*
X123550000Y-140000000D01*
X119250000Y-139250000D02*
X123550000Y-139250000D01*
X119250000Y-140000000D02*
X119250000Y-139250000D01*
X119250000Y-138750000D02*
X119250000Y-138000000D01*
X123550000Y-138750000D02*
X119250000Y-138750000D01*
X123550000Y-138000000D02*
X123550000Y-138750000D01*
X123900000Y-138000000D02*
X123550000Y-138000000D01*
X123900000Y-138500000D02*
X123900000Y-138000000D01*
X124900000Y-138750000D02*
X123900000Y-138500000D01*
X124900000Y-135750000D02*
X124900000Y-138750000D01*
X123900000Y-136000000D02*
X124900000Y-135750000D01*
X123900000Y-136500000D02*
X123900000Y-136000000D01*
X123550000Y-136500000D02*
X123900000Y-136500000D01*
X123550000Y-135750000D02*
X123550000Y-136500000D01*
X119250000Y-135750000D02*
X123550000Y-135750000D01*
X119250000Y-136500000D02*
X119250000Y-135750000D01*
X119250000Y-135250000D02*
X119250000Y-134500000D01*
X123550000Y-135250000D02*
X119250000Y-135250000D01*
X123550000Y-134500000D02*
X123550000Y-135250000D01*
X123900000Y-134500000D02*
X123550000Y-134500000D01*
X123900000Y-135000000D02*
X123900000Y-134500000D01*
X124900000Y-135250000D02*
X123900000Y-135000000D01*
X124900000Y-132250000D02*
X124900000Y-135250000D01*
X123900000Y-132500000D02*
X124900000Y-132250000D01*
X123900000Y-133000000D02*
X123900000Y-132500000D01*
X123550000Y-133000000D02*
X123900000Y-133000000D01*
X123550000Y-132250000D02*
X123550000Y-133000000D01*
X119250000Y-132250000D02*
X123550000Y-132250000D01*
X119250000Y-133000000D02*
X119250000Y-132250000D01*
X119250000Y-131750000D02*
X119250000Y-131000000D01*
X123550000Y-131750000D02*
X119250000Y-131750000D01*
X123550000Y-131000000D02*
X123550000Y-131750000D01*
X123900000Y-131000000D02*
X123550000Y-131000000D01*
X123900000Y-131500000D02*
X123900000Y-131000000D01*
X124900000Y-131750000D02*
X123900000Y-131500000D01*
X124900000Y-128750000D02*
X124900000Y-131750000D01*
X123900000Y-129000000D02*
X124900000Y-128750000D01*
X123900000Y-129500000D02*
X123900000Y-129000000D01*
X123550000Y-129500000D02*
X123900000Y-129500000D01*
X123550000Y-128750000D02*
X123550000Y-129500000D01*
X119250000Y-128750000D02*
X123550000Y-128750000D01*
X119250000Y-129500000D02*
X119250000Y-128750000D01*
X119250000Y-128250000D02*
X119250000Y-127500000D01*
X123550000Y-128250000D02*
X119250000Y-128250000D01*
X123550000Y-127500000D02*
X123550000Y-128250000D01*
X123900000Y-127500000D02*
X123550000Y-127500000D01*
X123900000Y-128000000D02*
X123900000Y-127500000D01*
X124900000Y-128250000D02*
X123900000Y-128000000D01*
X124900000Y-125250000D02*
X124900000Y-128250000D01*
X123900000Y-125500000D02*
X124900000Y-125250000D01*
X123900000Y-126000000D02*
X123900000Y-125500000D01*
X123550000Y-126000000D02*
X123900000Y-126000000D01*
X123550000Y-125250000D02*
X123550000Y-126000000D01*
X119250000Y-125250000D02*
X123550000Y-125250000D01*
X119250000Y-126000000D02*
X119250000Y-125250000D01*
X119250000Y-124750000D02*
X119250000Y-124000000D01*
X123550000Y-124750000D02*
X119250000Y-124750000D01*
X123550000Y-124000000D02*
X123550000Y-124750000D01*
X123900000Y-124000000D02*
X123550000Y-124000000D01*
X123900000Y-124500000D02*
X123900000Y-124000000D01*
X124900000Y-124750000D02*
X123900000Y-124500000D01*
X124900000Y-121750000D02*
X124900000Y-124750000D01*
X123900000Y-122000000D02*
X124900000Y-121750000D01*
X123900000Y-122500000D02*
X123900000Y-122000000D01*
X123550000Y-122500000D02*
X123900000Y-122500000D01*
X123550000Y-121750000D02*
X123550000Y-122500000D01*
X119250000Y-121750000D02*
X123550000Y-121750000D01*
X119250000Y-122500000D02*
X119250000Y-121750000D01*
X119250000Y-121250000D02*
X119250000Y-120500000D01*
X123550000Y-121250000D02*
X119250000Y-121250000D01*
X123550000Y-120500000D02*
X123550000Y-121250000D01*
X123900000Y-120500000D02*
X123550000Y-120500000D01*
X123900000Y-121000000D02*
X123900000Y-120500000D01*
X124900000Y-121250000D02*
X123900000Y-121000000D01*
X124900000Y-118250000D02*
X124900000Y-121250000D01*
X123900000Y-118500000D02*
X124900000Y-118250000D01*
X123900000Y-119000000D02*
X123900000Y-118500000D01*
X123550000Y-119000000D02*
X123900000Y-119000000D01*
X123550000Y-118250000D02*
X123550000Y-119000000D01*
X119250000Y-118250000D02*
X123550000Y-118250000D01*
X119250000Y-119000000D02*
X119250000Y-118250000D01*
X125860000Y-146810000D02*
X125860000Y-117190000D01*
X118390000Y-146810000D02*
X125860000Y-146810000D01*
X118390000Y-117190000D02*
X118390000Y-146810000D01*
X125860000Y-117190000D02*
X118390000Y-117190000D01*
X119250155Y-144999647D02*
G75*
G03*
X119250000Y-143500000I-1700155J749647D01*
G01*
X119250155Y-141499647D02*
G75*
G03*
X119250000Y-140000000I-1700155J749647D01*
G01*
X119250155Y-137999647D02*
G75*
G03*
X119250000Y-136500000I-1700155J749647D01*
G01*
X119250155Y-134499647D02*
G75*
G03*
X119250000Y-133000000I-1700155J749647D01*
G01*
X119250155Y-130999647D02*
G75*
G03*
X119250000Y-129500000I-1700155J749647D01*
G01*
X119250155Y-127499647D02*
G75*
G03*
X119250000Y-126000000I-1700155J749647D01*
G01*
X119250155Y-123999647D02*
G75*
G03*
X119250000Y-122500000I-1700155J749647D01*
G01*
X119250155Y-120499647D02*
G75*
G03*
X119250000Y-119000000I-1700155J749647D01*
G01*
%TO.C,J2*%
X85140000Y-116810000D02*
X92610000Y-116810000D01*
X92610000Y-116810000D02*
X92610000Y-101190000D01*
X92610000Y-101190000D02*
X85140000Y-101190000D01*
X85140000Y-101190000D02*
X85140000Y-116810000D01*
X91750000Y-115000000D02*
X91750000Y-115750000D01*
X91750000Y-115750000D02*
X87450000Y-115750000D01*
X87450000Y-115750000D02*
X87450000Y-115000000D01*
X87450000Y-115000000D02*
X87100000Y-115000000D01*
X87100000Y-115000000D02*
X87100000Y-115500000D01*
X87100000Y-115500000D02*
X86100000Y-115750000D01*
X86100000Y-115750000D02*
X86100000Y-112750000D01*
X86100000Y-112750000D02*
X87100000Y-113000000D01*
X87100000Y-113000000D02*
X87100000Y-113500000D01*
X87100000Y-113500000D02*
X87450000Y-113500000D01*
X87450000Y-113500000D02*
X87450000Y-112750000D01*
X87450000Y-112750000D02*
X91750000Y-112750000D01*
X91750000Y-112750000D02*
X91750000Y-113500000D01*
X91750000Y-111500000D02*
X91750000Y-112250000D01*
X91750000Y-112250000D02*
X87450000Y-112250000D01*
X87450000Y-112250000D02*
X87450000Y-111500000D01*
X87450000Y-111500000D02*
X87100000Y-111500000D01*
X87100000Y-111500000D02*
X87100000Y-112000000D01*
X87100000Y-112000000D02*
X86100000Y-112250000D01*
X86100000Y-112250000D02*
X86100000Y-109250000D01*
X86100000Y-109250000D02*
X87100000Y-109500000D01*
X87100000Y-109500000D02*
X87100000Y-110000000D01*
X87100000Y-110000000D02*
X87450000Y-110000000D01*
X87450000Y-110000000D02*
X87450000Y-109250000D01*
X87450000Y-109250000D02*
X91750000Y-109250000D01*
X91750000Y-109250000D02*
X91750000Y-110000000D01*
X91750000Y-108000000D02*
X91750000Y-108750000D01*
X91750000Y-108750000D02*
X87450000Y-108750000D01*
X87450000Y-108750000D02*
X87450000Y-108000000D01*
X87450000Y-108000000D02*
X87100000Y-108000000D01*
X87100000Y-108000000D02*
X87100000Y-108500000D01*
X87100000Y-108500000D02*
X86100000Y-108750000D01*
X86100000Y-108750000D02*
X86100000Y-105750000D01*
X86100000Y-105750000D02*
X87100000Y-106000000D01*
X87100000Y-106000000D02*
X87100000Y-106500000D01*
X87100000Y-106500000D02*
X87450000Y-106500000D01*
X87450000Y-106500000D02*
X87450000Y-105750000D01*
X87450000Y-105750000D02*
X91750000Y-105750000D01*
X91750000Y-105750000D02*
X91750000Y-106500000D01*
X91750000Y-104500000D02*
X91750000Y-105250000D01*
X91750000Y-105250000D02*
X87450000Y-105250000D01*
X87450000Y-105250000D02*
X87450000Y-104500000D01*
X87450000Y-104500000D02*
X87100000Y-104500000D01*
X87100000Y-104500000D02*
X87100000Y-105000000D01*
X87100000Y-105000000D02*
X86100000Y-105250000D01*
X86100000Y-105250000D02*
X86100000Y-102250000D01*
X86100000Y-102250000D02*
X87100000Y-102500000D01*
X87100000Y-102500000D02*
X87100000Y-103000000D01*
X87100000Y-103000000D02*
X87450000Y-103000000D01*
X87450000Y-103000000D02*
X87450000Y-102250000D01*
X87450000Y-102250000D02*
X91750000Y-102250000D01*
X91750000Y-102250000D02*
X91750000Y-103000000D01*
X86000000Y-117200000D02*
X84750000Y-117200000D01*
X84750000Y-117200000D02*
X84750000Y-115200000D01*
X91749845Y-113500353D02*
G75*
G03*
X91750000Y-115000000I1700155J-749647D01*
G01*
X91749845Y-110000353D02*
G75*
G03*
X91750000Y-111500000I1700155J-749647D01*
G01*
X91749845Y-106500353D02*
G75*
G03*
X91750000Y-108000000I1700155J-749647D01*
G01*
X91749845Y-103000353D02*
G75*
G03*
X91750000Y-104500000I1700155J-749647D01*
G01*
%TO.C,A1*%
D10*
X104766666Y-92114285D02*
X104766666Y-91638095D01*
X105052380Y-92209523D02*
X104052380Y-91876190D01*
X105052380Y-91542857D01*
X105052380Y-90685714D02*
X105052380Y-91257142D01*
X105052380Y-90971428D02*
X104052380Y-90971428D01*
X104195238Y-91066666D01*
X104290476Y-91161904D01*
X104338095Y-91257142D01*
%TO.C,J5*%
X99952380Y-86583333D02*
X100666666Y-86583333D01*
X100809523Y-86630952D01*
X100904761Y-86726190D01*
X100952380Y-86869047D01*
X100952380Y-86964285D01*
X99952380Y-85630952D02*
X99952380Y-86107142D01*
X100428571Y-86154761D01*
X100380952Y-86107142D01*
X100333333Y-86011904D01*
X100333333Y-85773809D01*
X100380952Y-85678571D01*
X100428571Y-85630952D01*
X100523809Y-85583333D01*
X100761904Y-85583333D01*
X100857142Y-85630952D01*
X100904761Y-85678571D01*
X100952380Y-85773809D01*
X100952380Y-86011904D01*
X100904761Y-86107142D01*
X100857142Y-86154761D01*
%TO.C,J6*%
X96166666Y-87452380D02*
X96166666Y-88166666D01*
X96119047Y-88309523D01*
X96023809Y-88404761D01*
X95880952Y-88452380D01*
X95785714Y-88452380D01*
X97071428Y-87452380D02*
X96880952Y-87452380D01*
X96785714Y-87500000D01*
X96738095Y-87547619D01*
X96642857Y-87690476D01*
X96595238Y-87880952D01*
X96595238Y-88261904D01*
X96642857Y-88357142D01*
X96690476Y-88404761D01*
X96785714Y-88452380D01*
X96976190Y-88452380D01*
X97071428Y-88404761D01*
X97119047Y-88357142D01*
X97166666Y-88261904D01*
X97166666Y-88023809D01*
X97119047Y-87928571D01*
X97071428Y-87880952D01*
X96976190Y-87833333D01*
X96785714Y-87833333D01*
X96690476Y-87880952D01*
X96642857Y-87928571D01*
X96595238Y-88023809D01*
%TO.C,J1*%
X94166666Y-145852380D02*
X94166666Y-146566666D01*
X94119047Y-146709523D01*
X94023809Y-146804761D01*
X93880952Y-146852380D01*
X93785714Y-146852380D01*
X95166666Y-146852380D02*
X94595238Y-146852380D01*
X94880952Y-146852380D02*
X94880952Y-145852380D01*
X94785714Y-145995238D01*
X94690476Y-146090476D01*
X94595238Y-146138095D01*
%TO.C,J4*%
X115866666Y-145952380D02*
X115866666Y-146666666D01*
X115819047Y-146809523D01*
X115723809Y-146904761D01*
X115580952Y-146952380D01*
X115485714Y-146952380D01*
X116771428Y-146285714D02*
X116771428Y-146952380D01*
X116533333Y-145904761D02*
X116295238Y-146619047D01*
X116914285Y-146619047D01*
%TO.C,J2*%
X94166666Y-101202380D02*
X94166666Y-101916666D01*
X94119047Y-102059523D01*
X94023809Y-102154761D01*
X93880952Y-102202380D01*
X93785714Y-102202380D01*
X94595238Y-101297619D02*
X94642857Y-101250000D01*
X94738095Y-101202380D01*
X94976190Y-101202380D01*
X95071428Y-101250000D01*
X95119047Y-101297619D01*
X95166666Y-101392857D01*
X95166666Y-101488095D01*
X95119047Y-101630952D01*
X94547619Y-102202380D01*
X95166666Y-102202380D01*
%TD*%
M02*
