%TF.GenerationSoftware,KiCad,Pcbnew,(5.1.9-0-10_14)*%
%TF.CreationDate,2023-05-28T23:00:19-04:00*%
%TF.ProjectId,LiControl,4c69436f-6e74-4726-9f6c-2e6b69636164,rev?*%
%TF.SameCoordinates,Original*%
%TF.FileFunction,Copper,L1,Top*%
%TF.FilePolarity,Positive*%
%FSLAX46Y46*%
G04 Gerber Fmt 4.6, Leading zero omitted, Abs format (unit mm)*
G04 Created by KiCad (PCBNEW (5.1.9-0-10_14)) date 2023-05-28 23:00:19*
%MOMM*%
%LPD*%
G01*
G04 APERTURE LIST*
%TA.AperFunction,ComponentPad*%
%ADD10R,1.600000X1.600000*%
%TD*%
%TA.AperFunction,ComponentPad*%
%ADD11O,1.600000X1.600000*%
%TD*%
%TA.AperFunction,ComponentPad*%
%ADD12R,1.500000X1.500000*%
%TD*%
%TA.AperFunction,ComponentPad*%
%ADD13C,1.500000*%
%TD*%
%TA.AperFunction,ComponentPad*%
%ADD14R,1.700000X1.700000*%
%TD*%
%TA.AperFunction,ComponentPad*%
%ADD15O,1.700000X1.700000*%
%TD*%
%TA.AperFunction,ComponentPad*%
%ADD16O,3.600000X1.800000*%
%TD*%
%TA.AperFunction,ViaPad*%
%ADD17C,0.800000*%
%TD*%
%TA.AperFunction,Conductor*%
%ADD18C,2.000000*%
%TD*%
%TA.AperFunction,Conductor*%
%ADD19C,1.000000*%
%TD*%
%TA.AperFunction,Conductor*%
%ADD20C,1.500000*%
%TD*%
%TA.AperFunction,Conductor*%
%ADD21C,0.500000*%
%TD*%
%TA.AperFunction,Conductor*%
%ADD22C,0.250000*%
%TD*%
%TA.AperFunction,Conductor*%
%ADD23C,0.254000*%
%TD*%
%TA.AperFunction,Conductor*%
%ADD24C,0.100000*%
%TD*%
G04 APERTURE END LIST*
D10*
%TO.P,A1,1*%
%TO.N,N/C*%
X122000000Y-108250000D03*
D11*
%TO.P,A1,17*%
X106760000Y-75230000D03*
%TO.P,A1,2*%
X122000000Y-105710000D03*
%TO.P,A1,18*%
%TO.N,/AREF*%
X106760000Y-77770000D03*
%TO.P,A1,3*%
%TO.N,N/C*%
X122000000Y-103170000D03*
%TO.P,A1,19*%
%TO.N,/POTENTIOMETER*%
X106760000Y-80310000D03*
%TO.P,A1,4*%
%TO.N,GND*%
X122000000Y-100630000D03*
%TO.P,A1,20*%
%TO.N,/MAMODE1_ADC*%
X106760000Y-82850000D03*
%TO.P,A1,5*%
%TO.N,/MAMODE2_MCM*%
X122000000Y-98090000D03*
%TO.P,A1,21*%
%TO.N,/CMDPWR_ADC*%
X106760000Y-85390000D03*
%TO.P,A1,6*%
%TO.N,/MAMODE1_MCM*%
X122000000Y-95550000D03*
%TO.P,A1,22*%
%TO.N,/BUTTON*%
X106760000Y-87930000D03*
%TO.P,A1,7*%
%TO.N,/MAMODE2_ECM_uC*%
X122000000Y-93010000D03*
%TO.P,A1,23*%
%TO.N,/MODE_SEL1*%
X106760000Y-90470000D03*
%TO.P,A1,8*%
%TO.N,/BRAKE_uC*%
X122000000Y-90470000D03*
%TO.P,A1,24*%
%TO.N,/MODE_SEL2*%
X106760000Y-93010000D03*
%TO.P,A1,9*%
%TO.N,/CLUTCH_uC*%
X122000000Y-87930000D03*
%TO.P,A1,25*%
%TO.N,/MAP_uC*%
X106760000Y-95550000D03*
%TO.P,A1,10*%
%TO.N,/VSS_PCINT2*%
X122000000Y-85390000D03*
%TO.P,A1,26*%
%TO.N,/THROTTLE_uC*%
X106760000Y-98090000D03*
%TO.P,A1,11*%
%TO.N,/NEP_PCINT0*%
X122000000Y-82850000D03*
%TO.P,A1,27*%
%TO.N,+5V*%
X106760000Y-100630000D03*
%TO.P,A1,12*%
%TO.N,/CMDPWR_MCM*%
X122000000Y-80310000D03*
%TO.P,A1,28*%
%TO.N,N/C*%
X106760000Y-103170000D03*
%TO.P,A1,13*%
%TO.N,/CS*%
X122000000Y-77770000D03*
%TO.P,A1,29*%
%TO.N,GND*%
X106760000Y-105710000D03*
%TO.P,A1,14*%
%TO.N,/MOSI*%
X122000000Y-75230000D03*
%TO.P,A1,30*%
%TO.N,/12V_VIN*%
X106760000Y-108250000D03*
%TO.P,A1,15*%
%TO.N,/MISO*%
X122000000Y-72690000D03*
%TO.P,A1,16*%
%TO.N,/SCK*%
X106760000Y-72690000D03*
%TD*%
D12*
%TO.P,J5,1*%
%TO.N,GND*%
X97750000Y-81000000D03*
D13*
%TO.P,J5,2*%
%TO.N,/POTENTIOMETER*%
X96480000Y-83540000D03*
%TO.P,J5,3*%
%TO.N,+5V*%
X95210000Y-81000000D03*
%TO.P,J5,4*%
%TO.N,GND*%
X93940000Y-83540000D03*
%TO.P,J5,5*%
%TO.N,/BUTTON*%
X92670000Y-81000000D03*
%TO.P,J5,6*%
%TO.N,/MODE_SEL1*%
X91400000Y-83540000D03*
%TO.P,J5,7*%
%TO.N,/MODE_SEL2*%
X90130000Y-81000000D03*
%TO.P,J5,8*%
%TO.N,GND*%
X88860000Y-83540000D03*
%TD*%
D14*
%TO.P,J6,1*%
%TO.N,/MISO*%
X91750000Y-95750000D03*
D15*
%TO.P,J6,2*%
%TO.N,+5V*%
X89210000Y-95750000D03*
%TO.P,J6,3*%
%TO.N,/SCK*%
X91750000Y-93210000D03*
%TO.P,J6,4*%
%TO.N,/MOSI*%
X89210000Y-93210000D03*
%TO.P,J6,5*%
%TO.N,/CS*%
X91750000Y-90670000D03*
%TO.P,J6,6*%
%TO.N,GND*%
X89210000Y-90670000D03*
%TD*%
%TO.P,J1,1*%
%TO.N,/MAMODE1_ECM*%
%TA.AperFunction,ComponentPad*%
G36*
G01*
X91050000Y-145150000D02*
X87950000Y-145150000D01*
G75*
G02*
X87700000Y-144900000I0J250000D01*
G01*
X87700000Y-143600000D01*
G75*
G02*
X87950000Y-143350000I250000J0D01*
G01*
X91050000Y-143350000D01*
G75*
G02*
X91300000Y-143600000I0J-250000D01*
G01*
X91300000Y-144900000D01*
G75*
G02*
X91050000Y-145150000I-250000J0D01*
G01*
G37*
%TD.AperFunction*%
D16*
%TO.P,J1,2*%
%TO.N,/NEP_12V*%
X89500000Y-140750000D03*
%TO.P,J1,3*%
%TO.N,/CMDPWR_ECM*%
X89500000Y-137250000D03*
%TO.P,J1,4*%
%TO.N,/12V_KEYON*%
X89500000Y-133750000D03*
%TO.P,J1,5*%
%TO.N,/VSS*%
X89500000Y-130250000D03*
%TO.P,J1,6*%
%TO.N,/12V_ALWAYS*%
X89500000Y-126750000D03*
%TO.P,J1,7*%
%TO.N,GND*%
X89500000Y-123250000D03*
%TO.P,J1,8*%
%TO.N,/MAMODE2_ECM_RAW*%
X89500000Y-119750000D03*
%TD*%
%TO.P,J4,8*%
%TO.N,/MAMODE1_MCM*%
X121500000Y-144250000D03*
%TO.P,J4,7*%
%TO.N,/NEP_12V*%
X121500000Y-140750000D03*
%TO.P,J4,6*%
%TO.N,/CMDPWR_MCM*%
X121500000Y-137250000D03*
%TO.P,J4,5*%
%TO.N,/12V_KEYON*%
X121500000Y-133750000D03*
%TO.P,J4,4*%
%TO.N,/VSS*%
X121500000Y-130250000D03*
%TO.P,J4,3*%
%TO.N,/12V_ALWAYS*%
X121500000Y-126750000D03*
%TO.P,J4,2*%
%TO.N,GND*%
X121500000Y-123250000D03*
%TO.P,J4,1*%
%TO.N,/MAMODE2_MCM*%
%TA.AperFunction,ComponentPad*%
G36*
G01*
X119950000Y-118850000D02*
X123050000Y-118850000D01*
G75*
G02*
X123300000Y-119100000I0J-250000D01*
G01*
X123300000Y-120400000D01*
G75*
G02*
X123050000Y-120650000I-250000J0D01*
G01*
X119950000Y-120650000D01*
G75*
G02*
X119700000Y-120400000I0J250000D01*
G01*
X119700000Y-119100000D01*
G75*
G02*
X119950000Y-118850000I250000J0D01*
G01*
G37*
%TD.AperFunction*%
%TD*%
%TO.P,J2,1*%
%TO.N,/BRAKE_RAW*%
%TA.AperFunction,ComponentPad*%
G36*
G01*
X91050000Y-115150000D02*
X87950000Y-115150000D01*
G75*
G02*
X87700000Y-114900000I0J250000D01*
G01*
X87700000Y-113600000D01*
G75*
G02*
X87950000Y-113350000I250000J0D01*
G01*
X91050000Y-113350000D01*
G75*
G02*
X91300000Y-113600000I0J-250000D01*
G01*
X91300000Y-114900000D01*
G75*
G02*
X91050000Y-115150000I-250000J0D01*
G01*
G37*
%TD.AperFunction*%
%TO.P,J2,2*%
%TO.N,/CLUTCH_RAW*%
X89500000Y-110750000D03*
%TO.P,J2,3*%
%TO.N,/THROTTLE_RAW*%
X89500000Y-107250000D03*
%TO.P,J2,4*%
%TO.N,/MAP_RAW*%
X89500000Y-103750000D03*
%TD*%
D17*
%TO.N,GND*%
X116750000Y-122750000D03*
X102750000Y-101000000D03*
X95750000Y-92750000D03*
X100500000Y-123750000D03*
X104000000Y-110500000D03*
X114000000Y-107250000D03*
X120000000Y-111250000D03*
X115750000Y-96500000D03*
X111000000Y-94250000D03*
X116250000Y-92250000D03*
X119500000Y-89500000D03*
X116750000Y-78750000D03*
X116500000Y-74500000D03*
X116000000Y-71750000D03*
X110500000Y-77750000D03*
X116750000Y-121500000D03*
X111750000Y-83000000D03*
X116000000Y-82750000D03*
X100500000Y-72500000D03*
X96000000Y-74750000D03*
X86750000Y-70000000D03*
X94250000Y-69250000D03*
%TO.N,/MAMODE1_ADC*%
X110000000Y-73500000D03*
%TO.N,/NEP_PCINT0*%
X122200000Y-115000000D03*
%TO.N,+5V*%
X97750000Y-88500000D03*
X101950000Y-102550000D03*
X102000000Y-110250000D03*
X111500000Y-99750000D03*
X117000000Y-105250000D03*
X117000000Y-110500000D03*
X111437500Y-85312500D03*
%TO.N,/CMDPWR_ECM*%
X117500000Y-137250000D03*
%TO.N,/MAMODE1_ECM*%
X112250000Y-145500000D03*
%TO.N,/NEP_12V*%
X112250000Y-142000000D03*
%TO.N,/BRAKE_RAW*%
X106000000Y-117500000D03*
X104750000Y-117500000D03*
X103500000Y-117500000D03*
X102250000Y-117500000D03*
X107000000Y-119750000D03*
X105250000Y-118750000D03*
X107250000Y-118500000D03*
%TO.N,/MAMODE2_ECM_uC*%
X98750000Y-114250000D03*
%TO.N,/BRAKE_uC*%
X112500000Y-119500000D03*
%TO.N,/CLUTCH_uC*%
X97500000Y-113750002D03*
%TO.N,/MAP_uC*%
X92500000Y-102000000D03*
X108500000Y-119750000D03*
%TO.N,/NEP_D*%
X117500000Y-142250000D03*
X120750000Y-117500000D03*
%TO.N,/BRAKE_EN*%
X95500000Y-121250000D03*
X108250000Y-121250000D03*
%TD*%
D18*
%TO.N,GND*%
X113500000Y-123250000D02*
X121500000Y-123250000D01*
D19*
X88860000Y-83540000D02*
X88860000Y-85110000D01*
X88860000Y-85110000D02*
X89750000Y-86000000D01*
X89750000Y-86000000D02*
X93000000Y-86000000D01*
X93940000Y-85060000D02*
X93940000Y-83540000D01*
X93000000Y-86000000D02*
X93940000Y-85060000D01*
X97750000Y-86000000D02*
X99250000Y-84500000D01*
X99250000Y-84500000D02*
X99250000Y-82250000D01*
X98000000Y-81000000D02*
X97750000Y-81000000D01*
X99250000Y-82250000D02*
X98000000Y-81000000D01*
X93000000Y-86000000D02*
X94500000Y-86000000D01*
X94500000Y-86000000D02*
X97750000Y-86000000D01*
X94500000Y-92750000D02*
X94500000Y-86000000D01*
X104000000Y-102250000D02*
X102750000Y-101000000D01*
X104000000Y-104250000D02*
X104000000Y-102250000D01*
X105460000Y-105710000D02*
X104000000Y-104250000D01*
X106760000Y-105710000D02*
X105460000Y-105710000D01*
X95250000Y-93500000D02*
X94500000Y-92750000D01*
X102750000Y-101000000D02*
X95250000Y-93500000D01*
D18*
X98750000Y-123250000D02*
X113500000Y-123250000D01*
X89500000Y-123250000D02*
X98750000Y-123250000D01*
D19*
X104000000Y-104250000D02*
X104000000Y-110500000D01*
X119250000Y-101750000D02*
X120370000Y-100630000D01*
X120370000Y-100630000D02*
X122000000Y-100630000D01*
X119250000Y-110500000D02*
X119250000Y-101750000D01*
X120000000Y-111250000D02*
X119250000Y-110500000D01*
X119250000Y-100000000D02*
X115750000Y-96500000D01*
X119250000Y-101750000D02*
X119250000Y-100000000D01*
X115750000Y-92750000D02*
X116250000Y-92250000D01*
X115750000Y-96500000D02*
X115750000Y-92750000D01*
X113250000Y-96500000D02*
X111000000Y-94250000D01*
X115750000Y-96500000D02*
X113250000Y-96500000D01*
X116750000Y-92250000D02*
X119500000Y-89500000D01*
X116250000Y-92250000D02*
X116750000Y-92250000D01*
X119500000Y-81500000D02*
X116750000Y-78750000D01*
X119500000Y-89500000D02*
X119500000Y-81500000D01*
X116750000Y-74750000D02*
X116500000Y-74500000D01*
X116750000Y-78750000D02*
X116750000Y-74750000D01*
X116500000Y-72250000D02*
X116000000Y-71750000D01*
X116500000Y-74500000D02*
X116500000Y-72250000D01*
X111500000Y-78750000D02*
X110500000Y-77750000D01*
X116750000Y-78750000D02*
X111500000Y-78750000D01*
D20*
X116750000Y-121500000D02*
X116750000Y-122750000D01*
D19*
X112460000Y-105710000D02*
X114000000Y-107250000D01*
X106760000Y-105710000D02*
X112460000Y-105710000D01*
D21*
X95750000Y-92750000D02*
X94500000Y-92750000D01*
D19*
X116000000Y-112800000D02*
X118450000Y-112800000D01*
X114000000Y-110800000D02*
X116000000Y-112800000D01*
X118450000Y-112800000D02*
X120000000Y-111250000D01*
X114000000Y-107250000D02*
X114000000Y-110800000D01*
D21*
%TO.N,/MAMODE1_ADC*%
X106760000Y-82850000D02*
X107150000Y-82850000D01*
X107150000Y-82850000D02*
X108500000Y-81500000D01*
X110000000Y-73500000D02*
X108500000Y-75000000D01*
X108500000Y-75000000D02*
X108500000Y-75500000D01*
X108500000Y-81500000D02*
X108500000Y-75500000D01*
D22*
%TO.N,/BUTTON*%
X100750000Y-77000000D02*
X105250000Y-81500000D01*
X92670000Y-79580000D02*
X95250000Y-77000000D01*
X95250000Y-77000000D02*
X100750000Y-77000000D01*
X106680000Y-87930000D02*
X106760000Y-87930000D01*
X105250000Y-81500000D02*
X105250000Y-86500000D01*
X105250000Y-86500000D02*
X106680000Y-87930000D01*
X92670000Y-81000000D02*
X92670000Y-79580000D01*
%TO.N,/MODE_SEL2*%
X105250000Y-91750000D02*
X106510000Y-93010000D01*
X105250000Y-87687500D02*
X105250000Y-91750000D01*
X104500000Y-86937500D02*
X105250000Y-87687500D01*
X94000000Y-81500000D02*
X94000000Y-79500000D01*
X104500000Y-82000000D02*
X104500000Y-86937500D01*
X106510000Y-93010000D02*
X106760000Y-93010000D01*
X100250000Y-77750000D02*
X104500000Y-82000000D01*
X95750000Y-77750000D02*
X100250000Y-77750000D01*
X94000000Y-79500000D02*
X95750000Y-77750000D01*
X93250000Y-82250000D02*
X94000000Y-81500000D01*
X91500000Y-82250000D02*
X93250000Y-82250000D01*
X90250000Y-81000000D02*
X91500000Y-82250000D01*
X90130000Y-81000000D02*
X90250000Y-81000000D01*
%TO.N,/NEP_PCINT0*%
X125500000Y-111750000D02*
X122200000Y-115050000D01*
X125500000Y-86350000D02*
X125500000Y-111750000D01*
X122000000Y-82850000D02*
X125500000Y-86350000D01*
D19*
%TO.N,+5V*%
X95210000Y-79790000D02*
X95210000Y-81000000D01*
X99500000Y-78750000D02*
X96250000Y-78750000D01*
X101250000Y-80500000D02*
X99500000Y-78750000D01*
X96250000Y-78750000D02*
X95210000Y-79790000D01*
X97750000Y-88500000D02*
X97750000Y-88500000D01*
X101250000Y-85000000D02*
X101250000Y-80500000D01*
X97750000Y-88500000D02*
X101250000Y-85000000D01*
X97750000Y-92750000D02*
X97750000Y-88500000D01*
X105630000Y-100630000D02*
X97750000Y-92750000D01*
X106760000Y-100630000D02*
X105630000Y-100630000D01*
X101950000Y-110200000D02*
X102000000Y-110250000D01*
X101950000Y-102550000D02*
X101950000Y-110200000D01*
X110620000Y-100630000D02*
X111500000Y-99750000D01*
X110620000Y-100630000D02*
X111630000Y-100630000D01*
X111630000Y-100630000D02*
X112380000Y-100630000D01*
X106760000Y-100630000D02*
X109380000Y-100630000D01*
X109380000Y-100630000D02*
X110620000Y-100630000D01*
X109000000Y-99750000D02*
X109000000Y-87750000D01*
X109380000Y-100130000D02*
X109000000Y-99750000D01*
X109000000Y-87750000D02*
X111437500Y-85312500D01*
X109380000Y-100630000D02*
X109380000Y-100130000D01*
X117000000Y-105250000D02*
X117000000Y-110500000D01*
X112380000Y-100630000D02*
X117000000Y-105250000D01*
D18*
%TO.N,/12V_KEYON*%
X89500000Y-133750000D02*
X121500000Y-133750000D01*
D21*
%TO.N,/CMDPWR_ECM*%
X115500000Y-137250000D02*
X116000000Y-137250000D01*
X89500000Y-137250000D02*
X115500000Y-137250000D01*
X117500000Y-137250000D02*
X115500000Y-137250000D01*
%TO.N,/MAMODE1_ECM*%
X89500000Y-144250000D02*
X111000000Y-144250000D01*
X111000000Y-144250000D02*
X112250000Y-145500000D01*
%TO.N,/NEP_12V*%
X113500000Y-140750000D02*
X121500000Y-140750000D01*
X112250000Y-142000000D02*
X113500000Y-140750000D01*
X111000000Y-140750000D02*
X112250000Y-142000000D01*
X89500000Y-140750000D02*
X111000000Y-140750000D01*
%TO.N,/VSS*%
X121000000Y-130750000D02*
X121500000Y-130250000D01*
X90000000Y-130750000D02*
X121000000Y-130750000D01*
X89500000Y-130250000D02*
X90000000Y-130750000D01*
D18*
%TO.N,/BRAKE_RAW*%
X105500000Y-117750000D02*
X95750000Y-117750000D01*
X91750000Y-114250000D02*
X89500000Y-114250000D01*
X96750000Y-119250000D02*
X91750000Y-114250000D01*
X105750000Y-119250000D02*
X96750000Y-119250000D01*
D22*
%TO.N,/MAMODE2_ECM_uC*%
X99000000Y-114500000D02*
X98750000Y-114250000D01*
X107000000Y-114500000D02*
X99000000Y-114500000D01*
X123600000Y-94610000D02*
X123600000Y-109900000D01*
X115000000Y-118500000D02*
X111000000Y-118500000D01*
X111000000Y-118500000D02*
X107000000Y-114500000D01*
X123600000Y-109900000D02*
X115000000Y-118500000D01*
X122000000Y-93010000D02*
X123600000Y-94610000D01*
%TO.N,/CLUTCH_uC*%
X97500000Y-114250000D02*
X97500000Y-114250000D01*
%TO.N,/BRAKE_uC*%
X122000000Y-90470000D02*
X122110000Y-90470000D01*
X115000000Y-119500000D02*
X112500000Y-119500000D01*
X124200000Y-110300000D02*
X115000000Y-119500000D01*
X124195000Y-92555000D02*
X124200000Y-92560000D01*
X124195000Y-92445000D02*
X124195000Y-92555000D01*
X122220000Y-90470000D02*
X124195000Y-92445000D01*
X124200000Y-92560000D02*
X124200000Y-110300000D01*
X122000000Y-90470000D02*
X122220000Y-90470000D01*
%TO.N,/CLUTCH_uC*%
X97500000Y-114500000D02*
X97500000Y-113750002D01*
X98250000Y-115250000D02*
X97500000Y-114500000D01*
X124850000Y-90780000D02*
X124850000Y-110650000D01*
X106750000Y-115250000D02*
X98250000Y-115250000D01*
X112000000Y-120500000D02*
X106750000Y-115250000D01*
X115000000Y-120500000D02*
X112000000Y-120500000D01*
X124850000Y-110650000D02*
X115000000Y-120500000D01*
X122000000Y-87930000D02*
X124850000Y-90780000D01*
%TO.N,/MAP_uC*%
X97500000Y-116000000D02*
X92500000Y-111000000D01*
X92500000Y-111000000D02*
X92500000Y-102000000D01*
X106500000Y-116000000D02*
X97500000Y-116000000D01*
X108500000Y-118000000D02*
X106500000Y-116000000D01*
X108500000Y-119750000D02*
X108500000Y-118000000D01*
%TO.N,/CS*%
X89500000Y-89250000D02*
X90250000Y-89250000D01*
X91670000Y-90670000D02*
X91750000Y-90670000D01*
X87000000Y-80750000D02*
X87000000Y-86750000D01*
X87000000Y-86750000D02*
X89500000Y-89250000D01*
X119750000Y-72500000D02*
X118000000Y-70750000D01*
X97000000Y-70750000D02*
X87000000Y-80750000D01*
X90250000Y-89250000D02*
X91670000Y-90670000D01*
X119750000Y-75520000D02*
X119750000Y-72500000D01*
X118000000Y-70750000D02*
X97000000Y-70750000D01*
X122000000Y-77770000D02*
X119750000Y-75520000D01*
%TO.N,/MOSI*%
X121730000Y-75230000D02*
X122000000Y-75230000D01*
X120500000Y-74000000D02*
X121730000Y-75230000D01*
X120500000Y-72250000D02*
X120500000Y-74000000D01*
X118250000Y-70000000D02*
X120500000Y-72250000D01*
X86500000Y-80250000D02*
X96750000Y-70000000D01*
X96750000Y-70000000D02*
X118250000Y-70000000D01*
X86500000Y-91000000D02*
X86500000Y-80250000D01*
X88710000Y-93210000D02*
X86500000Y-91000000D01*
X89210000Y-93210000D02*
X88710000Y-93210000D01*
%TO.N,/MISO*%
X86000000Y-79750000D02*
X86000000Y-92250000D01*
X96500000Y-69250000D02*
X86000000Y-79750000D01*
X118560000Y-69250000D02*
X96500000Y-69250000D01*
X122000000Y-72690000D02*
X118560000Y-69250000D01*
X86000000Y-95500000D02*
X86000000Y-92250000D01*
X88000000Y-97500000D02*
X86000000Y-95500000D01*
X90000000Y-97500000D02*
X88000000Y-97500000D01*
X91750000Y-95750000D02*
X90000000Y-97500000D01*
%TO.N,/SCK*%
X97250000Y-71500000D02*
X105500000Y-71500000D01*
X89750000Y-88500000D02*
X87500000Y-86250000D01*
X91750000Y-88500000D02*
X89750000Y-88500000D01*
X93250000Y-90000000D02*
X91750000Y-88500000D01*
X93250000Y-92000000D02*
X93250000Y-90000000D01*
X106690000Y-72690000D02*
X106760000Y-72690000D01*
X105500000Y-71500000D02*
X106690000Y-72690000D01*
X87500000Y-81250000D02*
X97250000Y-71500000D01*
X92040000Y-93210000D02*
X93250000Y-92000000D01*
X87500000Y-86250000D02*
X87500000Y-81250000D01*
X91750000Y-93210000D02*
X92040000Y-93210000D01*
D18*
%TO.N,/12V_ALWAYS*%
X89500000Y-126750000D02*
X121500000Y-126750000D01*
D22*
%TO.N,/NEP_D*%
X123500000Y-117500000D02*
X120750000Y-117500000D01*
X125500000Y-119500000D02*
X123500000Y-117500000D01*
X125500000Y-140750000D02*
X125500000Y-119500000D01*
X123750000Y-142500000D02*
X125500000Y-140750000D01*
X117750000Y-142500000D02*
X123750000Y-142500000D01*
X117500000Y-142250000D02*
X117750000Y-142500000D01*
%TO.N,/BRAKE_EN*%
X108250000Y-121250000D02*
X108250000Y-121250000D01*
D21*
X108250000Y-121250000D02*
X95500000Y-121250000D01*
%TD*%
D23*
%TO.N,GND*%
X118990001Y-72814803D02*
X118990000Y-75482677D01*
X118986324Y-75520000D01*
X118990000Y-75557322D01*
X118990000Y-75557332D01*
X119000997Y-75668985D01*
X119038858Y-75793799D01*
X119044454Y-75812246D01*
X119115026Y-75944276D01*
X119143526Y-75979003D01*
X119209999Y-76060001D01*
X119239003Y-76083804D01*
X120601312Y-77446114D01*
X120565000Y-77628665D01*
X120565000Y-77911335D01*
X120620147Y-78188574D01*
X120728320Y-78449727D01*
X120885363Y-78684759D01*
X121085241Y-78884637D01*
X121317759Y-79040000D01*
X121085241Y-79195363D01*
X120885363Y-79395241D01*
X120728320Y-79630273D01*
X120620147Y-79891426D01*
X120565000Y-80168665D01*
X120565000Y-80451335D01*
X120620147Y-80728574D01*
X120728320Y-80989727D01*
X120885363Y-81224759D01*
X121085241Y-81424637D01*
X121317759Y-81580000D01*
X121085241Y-81735363D01*
X120885363Y-81935241D01*
X120728320Y-82170273D01*
X120620147Y-82431426D01*
X120565000Y-82708665D01*
X120565000Y-82991335D01*
X120620147Y-83268574D01*
X120728320Y-83529727D01*
X120885363Y-83764759D01*
X121085241Y-83964637D01*
X121317759Y-84120000D01*
X121085241Y-84275363D01*
X120885363Y-84475241D01*
X120728320Y-84710273D01*
X120620147Y-84971426D01*
X120565000Y-85248665D01*
X120565000Y-85531335D01*
X120620147Y-85808574D01*
X120728320Y-86069727D01*
X120885363Y-86304759D01*
X121085241Y-86504637D01*
X121317759Y-86660000D01*
X121085241Y-86815363D01*
X120885363Y-87015241D01*
X120728320Y-87250273D01*
X120620147Y-87511426D01*
X120565000Y-87788665D01*
X120565000Y-88071335D01*
X120620147Y-88348574D01*
X120728320Y-88609727D01*
X120885363Y-88844759D01*
X121085241Y-89044637D01*
X121317759Y-89200000D01*
X121085241Y-89355363D01*
X120885363Y-89555241D01*
X120728320Y-89790273D01*
X120620147Y-90051426D01*
X120565000Y-90328665D01*
X120565000Y-90611335D01*
X120620147Y-90888574D01*
X120728320Y-91149727D01*
X120885363Y-91384759D01*
X121085241Y-91584637D01*
X121317759Y-91740000D01*
X121085241Y-91895363D01*
X120885363Y-92095241D01*
X120728320Y-92330273D01*
X120620147Y-92591426D01*
X120565000Y-92868665D01*
X120565000Y-93151335D01*
X120620147Y-93428574D01*
X120728320Y-93689727D01*
X120885363Y-93924759D01*
X121085241Y-94124637D01*
X121317759Y-94280000D01*
X121085241Y-94435363D01*
X120885363Y-94635241D01*
X120728320Y-94870273D01*
X120620147Y-95131426D01*
X120565000Y-95408665D01*
X120565000Y-95691335D01*
X120620147Y-95968574D01*
X120728320Y-96229727D01*
X120885363Y-96464759D01*
X121085241Y-96664637D01*
X121317759Y-96820000D01*
X121085241Y-96975363D01*
X120885363Y-97175241D01*
X120728320Y-97410273D01*
X120620147Y-97671426D01*
X120565000Y-97948665D01*
X120565000Y-98231335D01*
X120620147Y-98508574D01*
X120728320Y-98769727D01*
X120885363Y-99004759D01*
X121085241Y-99204637D01*
X121320273Y-99361680D01*
X121581426Y-99469853D01*
X121858665Y-99525000D01*
X122141335Y-99525000D01*
X122418574Y-99469853D01*
X122679727Y-99361680D01*
X122840000Y-99254589D01*
X122840000Y-102005411D01*
X122679727Y-101898320D01*
X122418574Y-101790147D01*
X122141335Y-101735000D01*
X121858665Y-101735000D01*
X121581426Y-101790147D01*
X121320273Y-101898320D01*
X121085241Y-102055363D01*
X120885363Y-102255241D01*
X120728320Y-102490273D01*
X120620147Y-102751426D01*
X120565000Y-103028665D01*
X120565000Y-103311335D01*
X120620147Y-103588574D01*
X120728320Y-103849727D01*
X120885363Y-104084759D01*
X121085241Y-104284637D01*
X121317759Y-104440000D01*
X121085241Y-104595363D01*
X120885363Y-104795241D01*
X120728320Y-105030273D01*
X120620147Y-105291426D01*
X120565000Y-105568665D01*
X120565000Y-105851335D01*
X120620147Y-106128574D01*
X120728320Y-106389727D01*
X120885363Y-106624759D01*
X121083961Y-106823357D01*
X121075518Y-106824188D01*
X120955820Y-106860498D01*
X120845506Y-106919463D01*
X120748815Y-106998815D01*
X120669463Y-107095506D01*
X120610498Y-107205820D01*
X120574188Y-107325518D01*
X120561928Y-107450000D01*
X120561928Y-109050000D01*
X120574188Y-109174482D01*
X120610498Y-109294180D01*
X120669463Y-109404494D01*
X120748815Y-109501185D01*
X120845506Y-109580537D01*
X120955820Y-109639502D01*
X121075518Y-109675812D01*
X121200000Y-109688072D01*
X122737126Y-109688072D01*
X114685199Y-117740000D01*
X111314802Y-117740000D01*
X107563804Y-113989003D01*
X107540001Y-113959999D01*
X107424276Y-113865026D01*
X107292247Y-113794454D01*
X107148986Y-113750997D01*
X107037333Y-113740000D01*
X107037322Y-113740000D01*
X107000000Y-113736324D01*
X106962678Y-113740000D01*
X99654013Y-113740000D01*
X99553937Y-113590226D01*
X99409774Y-113446063D01*
X99240256Y-113332795D01*
X99051898Y-113254774D01*
X98851939Y-113215000D01*
X98648061Y-113215000D01*
X98448102Y-113254774D01*
X98419972Y-113266426D01*
X98417205Y-113259746D01*
X98303937Y-113090228D01*
X98159774Y-112946065D01*
X97990256Y-112832797D01*
X97801898Y-112754776D01*
X97601939Y-112715002D01*
X97398061Y-112715002D01*
X97198102Y-112754776D01*
X97009744Y-112832797D01*
X96840226Y-112946065D01*
X96696063Y-113090228D01*
X96582795Y-113259746D01*
X96504774Y-113448104D01*
X96465000Y-113648063D01*
X96465000Y-113851941D01*
X96474499Y-113899698D01*
X93260000Y-110685199D01*
X93260000Y-110200000D01*
X100809509Y-110200000D01*
X100831423Y-110422498D01*
X100896324Y-110636446D01*
X100923050Y-110686447D01*
X101001717Y-110833623D01*
X101143552Y-111006449D01*
X101186857Y-111041988D01*
X101236857Y-111091989D01*
X101366378Y-111198284D01*
X101563554Y-111303676D01*
X101777502Y-111368577D01*
X102000000Y-111390491D01*
X102222499Y-111368577D01*
X102436447Y-111303676D01*
X102633623Y-111198284D01*
X102806449Y-111056449D01*
X102948284Y-110883623D01*
X103053676Y-110686447D01*
X103118577Y-110472499D01*
X103140491Y-110250000D01*
X103118577Y-110027502D01*
X103085000Y-109916814D01*
X103085000Y-108108665D01*
X105325000Y-108108665D01*
X105325000Y-108391335D01*
X105380147Y-108668574D01*
X105488320Y-108929727D01*
X105645363Y-109164759D01*
X105845241Y-109364637D01*
X106080273Y-109521680D01*
X106341426Y-109629853D01*
X106618665Y-109685000D01*
X106901335Y-109685000D01*
X107178574Y-109629853D01*
X107439727Y-109521680D01*
X107674759Y-109364637D01*
X107874637Y-109164759D01*
X108031680Y-108929727D01*
X108139853Y-108668574D01*
X108195000Y-108391335D01*
X108195000Y-108108665D01*
X108139853Y-107831426D01*
X108031680Y-107570273D01*
X107874637Y-107335241D01*
X107674759Y-107135363D01*
X107439727Y-106978320D01*
X107178574Y-106870147D01*
X106901335Y-106815000D01*
X106618665Y-106815000D01*
X106341426Y-106870147D01*
X106080273Y-106978320D01*
X105845241Y-107135363D01*
X105645363Y-107335241D01*
X105488320Y-107570273D01*
X105380147Y-107831426D01*
X105325000Y-108108665D01*
X103085000Y-108108665D01*
X103085000Y-102494248D01*
X103068577Y-102327501D01*
X103003676Y-102113553D01*
X102898284Y-101916377D01*
X102756449Y-101743551D01*
X102583623Y-101601716D01*
X102386446Y-101496324D01*
X102172498Y-101431423D01*
X101950000Y-101409509D01*
X101727501Y-101431423D01*
X101513553Y-101496324D01*
X101316377Y-101601716D01*
X101143551Y-101743551D01*
X101001716Y-101916377D01*
X100896324Y-102113554D01*
X100831423Y-102327502D01*
X100815000Y-102494249D01*
X100815001Y-110144239D01*
X100809509Y-110200000D01*
X93260000Y-110200000D01*
X93260000Y-102703711D01*
X93303937Y-102659774D01*
X93417205Y-102490256D01*
X93495226Y-102301898D01*
X93535000Y-102101939D01*
X93535000Y-101898061D01*
X93495226Y-101698102D01*
X93417205Y-101509744D01*
X93303937Y-101340226D01*
X93159774Y-101196063D01*
X92990256Y-101082795D01*
X92801898Y-101004774D01*
X92601939Y-100965000D01*
X92398061Y-100965000D01*
X92198102Y-101004774D01*
X92009744Y-101082795D01*
X91840226Y-101196063D01*
X91696063Y-101340226D01*
X91582795Y-101509744D01*
X91504774Y-101698102D01*
X91465000Y-101898061D01*
X91465000Y-102101939D01*
X91504774Y-102301898D01*
X91582795Y-102490256D01*
X91696063Y-102659774D01*
X91740001Y-102703712D01*
X91740001Y-103000685D01*
X91682481Y-102893073D01*
X91490661Y-102659339D01*
X91256927Y-102467519D01*
X90990261Y-102324983D01*
X90700913Y-102237210D01*
X90475408Y-102215000D01*
X88524592Y-102215000D01*
X88299087Y-102237210D01*
X88009739Y-102324983D01*
X87743073Y-102467519D01*
X87509339Y-102659339D01*
X87317519Y-102893073D01*
X87174983Y-103159739D01*
X87087210Y-103449087D01*
X87057573Y-103750000D01*
X87087210Y-104050913D01*
X87174983Y-104340261D01*
X87317519Y-104606927D01*
X87509339Y-104840661D01*
X87743073Y-105032481D01*
X88009739Y-105175017D01*
X88299087Y-105262790D01*
X88524592Y-105285000D01*
X90475408Y-105285000D01*
X90700913Y-105262790D01*
X90990261Y-105175017D01*
X91256927Y-105032481D01*
X91490661Y-104840661D01*
X91682481Y-104606927D01*
X91740001Y-104499315D01*
X91740000Y-106500684D01*
X91682481Y-106393073D01*
X91490661Y-106159339D01*
X91256927Y-105967519D01*
X90990261Y-105824983D01*
X90700913Y-105737210D01*
X90475408Y-105715000D01*
X88524592Y-105715000D01*
X88299087Y-105737210D01*
X88009739Y-105824983D01*
X87743073Y-105967519D01*
X87509339Y-106159339D01*
X87317519Y-106393073D01*
X87174983Y-106659739D01*
X87087210Y-106949087D01*
X87057573Y-107250000D01*
X87087210Y-107550913D01*
X87174983Y-107840261D01*
X87317519Y-108106927D01*
X87509339Y-108340661D01*
X87743073Y-108532481D01*
X88009739Y-108675017D01*
X88299087Y-108762790D01*
X88524592Y-108785000D01*
X90475408Y-108785000D01*
X90700913Y-108762790D01*
X90990261Y-108675017D01*
X91256927Y-108532481D01*
X91490661Y-108340661D01*
X91682481Y-108106927D01*
X91740000Y-107999316D01*
X91740000Y-110000684D01*
X91682481Y-109893073D01*
X91490661Y-109659339D01*
X91256927Y-109467519D01*
X90990261Y-109324983D01*
X90700913Y-109237210D01*
X90475408Y-109215000D01*
X88524592Y-109215000D01*
X88299087Y-109237210D01*
X88009739Y-109324983D01*
X87743073Y-109467519D01*
X87509339Y-109659339D01*
X87317519Y-109893073D01*
X87174983Y-110159739D01*
X87087210Y-110449087D01*
X87057573Y-110750000D01*
X87087210Y-111050913D01*
X87174983Y-111340261D01*
X87317519Y-111606927D01*
X87509339Y-111840661D01*
X87743073Y-112032481D01*
X88009739Y-112175017D01*
X88299087Y-112262790D01*
X88524592Y-112285000D01*
X90475408Y-112285000D01*
X90700913Y-112262790D01*
X90990261Y-112175017D01*
X91256927Y-112032481D01*
X91490661Y-111840661D01*
X91682481Y-111606927D01*
X91822568Y-111344843D01*
X91865026Y-111424276D01*
X91884729Y-111448284D01*
X91959999Y-111540001D01*
X91989003Y-111563804D01*
X93290199Y-112865000D01*
X92627264Y-112865000D01*
X92378715Y-112732148D01*
X92070516Y-112638657D01*
X91830322Y-112615000D01*
X91830319Y-112615000D01*
X91750000Y-112607089D01*
X91669681Y-112615000D01*
X89419678Y-112615000D01*
X89179484Y-112638657D01*
X88937942Y-112711928D01*
X87950000Y-112711928D01*
X87776746Y-112728992D01*
X87610150Y-112779528D01*
X87456614Y-112861595D01*
X87322038Y-112972038D01*
X87211595Y-113106614D01*
X87129528Y-113260150D01*
X87078992Y-113426746D01*
X87061928Y-113600000D01*
X87061928Y-114900000D01*
X87078992Y-115073254D01*
X87115000Y-115191957D01*
X87115000Y-115750000D01*
X87127201Y-115873882D01*
X87163336Y-115993004D01*
X87222017Y-116102787D01*
X87300987Y-116199013D01*
X89316974Y-118215000D01*
X88524592Y-118215000D01*
X88299087Y-118237210D01*
X88009739Y-118324983D01*
X87743073Y-118467519D01*
X87509339Y-118659339D01*
X87317519Y-118893073D01*
X87174983Y-119159739D01*
X87087210Y-119449087D01*
X87057573Y-119750000D01*
X87087210Y-120050913D01*
X87174983Y-120340261D01*
X87317519Y-120606927D01*
X87509339Y-120840661D01*
X87743073Y-121032481D01*
X88009739Y-121175017D01*
X88299087Y-121262790D01*
X88524592Y-121285000D01*
X90475408Y-121285000D01*
X90700913Y-121262790D01*
X90990261Y-121175017D01*
X91256927Y-121032481D01*
X91490661Y-120840661D01*
X91682481Y-120606927D01*
X91691684Y-120589710D01*
X92300987Y-121199013D01*
X92397213Y-121277983D01*
X92506996Y-121336664D01*
X92626118Y-121372799D01*
X92750000Y-121385000D01*
X94471576Y-121385000D01*
X94504774Y-121551898D01*
X94582795Y-121740256D01*
X94696063Y-121909774D01*
X94840226Y-122053937D01*
X95009744Y-122167205D01*
X95198102Y-122245226D01*
X95398061Y-122285000D01*
X95601939Y-122285000D01*
X95801898Y-122245226D01*
X95990256Y-122167205D01*
X96038454Y-122135000D01*
X107711546Y-122135000D01*
X107759744Y-122167205D01*
X107948102Y-122245226D01*
X108148061Y-122285000D01*
X108351939Y-122285000D01*
X108551898Y-122245226D01*
X108740256Y-122167205D01*
X108909774Y-122053937D01*
X109053937Y-121909774D01*
X109167205Y-121740256D01*
X109245226Y-121551898D01*
X109285000Y-121351939D01*
X109285000Y-121148061D01*
X109245226Y-120948102D01*
X109167205Y-120759744D01*
X109069841Y-120614028D01*
X109159774Y-120553937D01*
X109303937Y-120409774D01*
X109417205Y-120240256D01*
X109495226Y-120051898D01*
X109535000Y-119851939D01*
X109535000Y-119648061D01*
X109495226Y-119448102D01*
X109417205Y-119259744D01*
X109303937Y-119090226D01*
X109260000Y-119046289D01*
X109260000Y-118834802D01*
X111436201Y-121011003D01*
X111459999Y-121040001D01*
X111575724Y-121134974D01*
X111707753Y-121205546D01*
X111851014Y-121249003D01*
X111962667Y-121260000D01*
X111962676Y-121260000D01*
X111999999Y-121263676D01*
X112037322Y-121260000D01*
X114962678Y-121260000D01*
X115000000Y-121263676D01*
X115037322Y-121260000D01*
X115037333Y-121260000D01*
X115148986Y-121249003D01*
X115292247Y-121205546D01*
X115424276Y-121134974D01*
X115540001Y-121040001D01*
X115563804Y-121010997D01*
X121224729Y-115350073D01*
X121282795Y-115490256D01*
X121396063Y-115659774D01*
X121540226Y-115803937D01*
X121709744Y-115917205D01*
X121898102Y-115995226D01*
X122098061Y-116035000D01*
X122301939Y-116035000D01*
X122501898Y-115995226D01*
X122690256Y-115917205D01*
X122859774Y-115803937D01*
X123003937Y-115659774D01*
X123117205Y-115490256D01*
X123195226Y-115301898D01*
X123235000Y-115101939D01*
X123235000Y-115089801D01*
X125590000Y-112734801D01*
X125590000Y-118515199D01*
X124063804Y-116989003D01*
X124040001Y-116959999D01*
X123924276Y-116865026D01*
X123792247Y-116794454D01*
X123648986Y-116750997D01*
X123537333Y-116740000D01*
X123537322Y-116740000D01*
X123500000Y-116736324D01*
X123462678Y-116740000D01*
X121453711Y-116740000D01*
X121409774Y-116696063D01*
X121240256Y-116582795D01*
X121051898Y-116504774D01*
X120851939Y-116465000D01*
X120648061Y-116465000D01*
X120448102Y-116504774D01*
X120259744Y-116582795D01*
X120090226Y-116696063D01*
X119946063Y-116840226D01*
X119832795Y-117009744D01*
X119754774Y-117198102D01*
X119715000Y-117398061D01*
X119715000Y-117601939D01*
X119754774Y-117801898D01*
X119832795Y-117990256D01*
X119946063Y-118159774D01*
X119998217Y-118211928D01*
X119950000Y-118211928D01*
X119776746Y-118228992D01*
X119610150Y-118279528D01*
X119456614Y-118361595D01*
X119322038Y-118472038D01*
X119211595Y-118606614D01*
X119129528Y-118760150D01*
X119078992Y-118926746D01*
X119061928Y-119100000D01*
X119061928Y-120400000D01*
X119078992Y-120573254D01*
X119129528Y-120739850D01*
X119211595Y-120893386D01*
X119322038Y-121027962D01*
X119456614Y-121138405D01*
X119610150Y-121220472D01*
X119776746Y-121271008D01*
X119950000Y-121288072D01*
X123050000Y-121288072D01*
X123223254Y-121271008D01*
X123389850Y-121220472D01*
X123543386Y-121138405D01*
X123677962Y-121027962D01*
X123788405Y-120893386D01*
X123870472Y-120739850D01*
X123921008Y-120573254D01*
X123938072Y-120400000D01*
X123938072Y-119100000D01*
X123928553Y-119003355D01*
X124740001Y-119814803D01*
X124740000Y-140435198D01*
X123813625Y-141361573D01*
X123825017Y-141340261D01*
X123912790Y-141050913D01*
X123942427Y-140750000D01*
X123912790Y-140449087D01*
X123825017Y-140159739D01*
X123682481Y-139893073D01*
X123490661Y-139659339D01*
X123256927Y-139467519D01*
X122990261Y-139324983D01*
X122700913Y-139237210D01*
X122475408Y-139215000D01*
X120524592Y-139215000D01*
X120299087Y-139237210D01*
X120009739Y-139324983D01*
X119743073Y-139467519D01*
X119509339Y-139659339D01*
X119340558Y-139865000D01*
X113543469Y-139865000D01*
X113500000Y-139860719D01*
X113456531Y-139865000D01*
X113456523Y-139865000D01*
X113341306Y-139876348D01*
X113326509Y-139877805D01*
X113276179Y-139893073D01*
X113159687Y-139928411D01*
X113005941Y-140010589D01*
X113005939Y-140010590D01*
X113005940Y-140010590D01*
X112904953Y-140093468D01*
X112904951Y-140093470D01*
X112871183Y-140121183D01*
X112843470Y-140154951D01*
X112250000Y-140748421D01*
X111656534Y-140154956D01*
X111628817Y-140121183D01*
X111494059Y-140010589D01*
X111340313Y-139928411D01*
X111173490Y-139877805D01*
X111043477Y-139865000D01*
X111043469Y-139865000D01*
X111000000Y-139860719D01*
X110956531Y-139865000D01*
X91659442Y-139865000D01*
X91490661Y-139659339D01*
X91256927Y-139467519D01*
X90990261Y-139324983D01*
X90700913Y-139237210D01*
X90475408Y-139215000D01*
X88524592Y-139215000D01*
X88299087Y-139237210D01*
X88009739Y-139324983D01*
X87743073Y-139467519D01*
X87509339Y-139659339D01*
X87317519Y-139893073D01*
X87174983Y-140159739D01*
X87087210Y-140449087D01*
X87057573Y-140750000D01*
X87087210Y-141050913D01*
X87174983Y-141340261D01*
X87317519Y-141606927D01*
X87509339Y-141840661D01*
X87743073Y-142032481D01*
X88009739Y-142175017D01*
X88299087Y-142262790D01*
X88524592Y-142285000D01*
X90475408Y-142285000D01*
X90700913Y-142262790D01*
X90990261Y-142175017D01*
X91256927Y-142032481D01*
X91490661Y-141840661D01*
X91659442Y-141635000D01*
X110633422Y-141635000D01*
X111243465Y-142245044D01*
X111254774Y-142301898D01*
X111332795Y-142490256D01*
X111446063Y-142659774D01*
X111590226Y-142803937D01*
X111759744Y-142917205D01*
X111948102Y-142995226D01*
X112148061Y-143035000D01*
X112351939Y-143035000D01*
X112551898Y-142995226D01*
X112740256Y-142917205D01*
X112909774Y-142803937D01*
X113053937Y-142659774D01*
X113167205Y-142490256D01*
X113245226Y-142301898D01*
X113256535Y-142245043D01*
X113866579Y-141635000D01*
X116666146Y-141635000D01*
X116582795Y-141759744D01*
X116504774Y-141948102D01*
X116465000Y-142148061D01*
X116465000Y-142351939D01*
X116504774Y-142551898D01*
X116582795Y-142740256D01*
X116696063Y-142909774D01*
X116840226Y-143053937D01*
X117009744Y-143167205D01*
X117198102Y-143245226D01*
X117398061Y-143285000D01*
X117601939Y-143285000D01*
X117722673Y-143260985D01*
X117749999Y-143263676D01*
X117787322Y-143260000D01*
X119426729Y-143260000D01*
X119317519Y-143393073D01*
X119174983Y-143659739D01*
X119087210Y-143949087D01*
X119057573Y-144250000D01*
X119087210Y-144550913D01*
X119174983Y-144840261D01*
X119317519Y-145106927D01*
X119509339Y-145340661D01*
X119743073Y-145532481D01*
X120009739Y-145675017D01*
X120299087Y-145762790D01*
X120524592Y-145785000D01*
X122475408Y-145785000D01*
X122700913Y-145762790D01*
X122990261Y-145675017D01*
X123256927Y-145532481D01*
X123490661Y-145340661D01*
X123682481Y-145106927D01*
X123825017Y-144840261D01*
X123912790Y-144550913D01*
X123942427Y-144250000D01*
X123912790Y-143949087D01*
X123825017Y-143659739D01*
X123682481Y-143393073D01*
X123573271Y-143260000D01*
X123712678Y-143260000D01*
X123750000Y-143263676D01*
X123787322Y-143260000D01*
X123787333Y-143260000D01*
X123898986Y-143249003D01*
X124042247Y-143205546D01*
X124174276Y-143134974D01*
X124290001Y-143040001D01*
X124313804Y-143010997D01*
X125590000Y-141734802D01*
X125590000Y-146590000D01*
X85910000Y-146590000D01*
X85910000Y-143600000D01*
X87061928Y-143600000D01*
X87061928Y-144900000D01*
X87078992Y-145073254D01*
X87129528Y-145239850D01*
X87211595Y-145393386D01*
X87322038Y-145527962D01*
X87456614Y-145638405D01*
X87610150Y-145720472D01*
X87776746Y-145771008D01*
X87950000Y-145788072D01*
X91050000Y-145788072D01*
X91223254Y-145771008D01*
X91389850Y-145720472D01*
X91543386Y-145638405D01*
X91677962Y-145527962D01*
X91788405Y-145393386D01*
X91870472Y-145239850D01*
X91902278Y-145135000D01*
X110633422Y-145135000D01*
X111243465Y-145745044D01*
X111254774Y-145801898D01*
X111332795Y-145990256D01*
X111446063Y-146159774D01*
X111590226Y-146303937D01*
X111759744Y-146417205D01*
X111948102Y-146495226D01*
X112148061Y-146535000D01*
X112351939Y-146535000D01*
X112551898Y-146495226D01*
X112740256Y-146417205D01*
X112909774Y-146303937D01*
X113053937Y-146159774D01*
X113167205Y-145990256D01*
X113245226Y-145801898D01*
X113285000Y-145601939D01*
X113285000Y-145398061D01*
X113245226Y-145198102D01*
X113167205Y-145009744D01*
X113053937Y-144840226D01*
X112909774Y-144696063D01*
X112740256Y-144582795D01*
X112551898Y-144504774D01*
X112495044Y-144493465D01*
X111656534Y-143654956D01*
X111628817Y-143621183D01*
X111494059Y-143510589D01*
X111340313Y-143428411D01*
X111173490Y-143377805D01*
X111043477Y-143365000D01*
X111043469Y-143365000D01*
X111000000Y-143360719D01*
X110956531Y-143365000D01*
X91902278Y-143365000D01*
X91870472Y-143260150D01*
X91788405Y-143106614D01*
X91677962Y-142972038D01*
X91543386Y-142861595D01*
X91389850Y-142779528D01*
X91223254Y-142728992D01*
X91050000Y-142711928D01*
X87950000Y-142711928D01*
X87776746Y-142728992D01*
X87610150Y-142779528D01*
X87456614Y-142861595D01*
X87322038Y-142972038D01*
X87211595Y-143106614D01*
X87129528Y-143260150D01*
X87078992Y-143426746D01*
X87061928Y-143600000D01*
X85910000Y-143600000D01*
X85910000Y-126750000D01*
X87057573Y-126750000D01*
X87087210Y-127050913D01*
X87174983Y-127340261D01*
X87317519Y-127606927D01*
X87509339Y-127840661D01*
X87743073Y-128032481D01*
X88009739Y-128175017D01*
X88299087Y-128262790D01*
X88371939Y-128269965D01*
X88816974Y-128715000D01*
X88524592Y-128715000D01*
X88299087Y-128737210D01*
X88009739Y-128824983D01*
X87743073Y-128967519D01*
X87509339Y-129159339D01*
X87317519Y-129393073D01*
X87174983Y-129659739D01*
X87087210Y-129949087D01*
X87057573Y-130250000D01*
X87087210Y-130550913D01*
X87174983Y-130840261D01*
X87317519Y-131106927D01*
X87509339Y-131340661D01*
X87743073Y-131532481D01*
X88009739Y-131675017D01*
X88299087Y-131762790D01*
X88524592Y-131785000D01*
X88816974Y-131785000D01*
X88371939Y-132230035D01*
X88299087Y-132237210D01*
X88009739Y-132324983D01*
X87743073Y-132467519D01*
X87509339Y-132659339D01*
X87317519Y-132893073D01*
X87174983Y-133159739D01*
X87087210Y-133449087D01*
X87057573Y-133750000D01*
X87087210Y-134050913D01*
X87174983Y-134340261D01*
X87317519Y-134606927D01*
X87509339Y-134840661D01*
X87743073Y-135032481D01*
X88009739Y-135175017D01*
X88299087Y-135262790D01*
X88371939Y-135269965D01*
X88816974Y-135715000D01*
X88524592Y-135715000D01*
X88299087Y-135737210D01*
X88009739Y-135824983D01*
X87743073Y-135967519D01*
X87509339Y-136159339D01*
X87317519Y-136393073D01*
X87174983Y-136659739D01*
X87087210Y-136949087D01*
X87057573Y-137250000D01*
X87087210Y-137550913D01*
X87174983Y-137840261D01*
X87317519Y-138106927D01*
X87509339Y-138340661D01*
X87743073Y-138532481D01*
X88009739Y-138675017D01*
X88299087Y-138762790D01*
X88524592Y-138785000D01*
X90475408Y-138785000D01*
X90700913Y-138762790D01*
X90990261Y-138675017D01*
X91256927Y-138532481D01*
X91490661Y-138340661D01*
X91659442Y-138135000D01*
X116961546Y-138135000D01*
X117009744Y-138167205D01*
X117198102Y-138245226D01*
X117398061Y-138285000D01*
X117601939Y-138285000D01*
X117801898Y-138245226D01*
X117990256Y-138167205D01*
X118159774Y-138053937D01*
X118303937Y-137909774D01*
X118417205Y-137740256D01*
X118495226Y-137551898D01*
X118535000Y-137351939D01*
X118535000Y-137148061D01*
X118532402Y-137135000D01*
X119068899Y-137135000D01*
X119057573Y-137250000D01*
X119087210Y-137550913D01*
X119174983Y-137840261D01*
X119317519Y-138106927D01*
X119509339Y-138340661D01*
X119743073Y-138532481D01*
X120009739Y-138675017D01*
X120299087Y-138762790D01*
X120524592Y-138785000D01*
X122475408Y-138785000D01*
X122700913Y-138762790D01*
X122990261Y-138675017D01*
X123256927Y-138532481D01*
X123490661Y-138340661D01*
X123682481Y-138106927D01*
X123825017Y-137840261D01*
X123912790Y-137550913D01*
X123942427Y-137250000D01*
X123912790Y-136949087D01*
X123825017Y-136659739D01*
X123682481Y-136393073D01*
X123490661Y-136159339D01*
X123256927Y-135967519D01*
X122990261Y-135824983D01*
X122700913Y-135737210D01*
X122475408Y-135715000D01*
X121933026Y-135715000D01*
X122363026Y-135285000D01*
X122475408Y-135285000D01*
X122700913Y-135262790D01*
X122990261Y-135175017D01*
X123256927Y-135032481D01*
X123490661Y-134840661D01*
X123682481Y-134606927D01*
X123825017Y-134340261D01*
X123912790Y-134050913D01*
X123942427Y-133750000D01*
X123912790Y-133449087D01*
X123825017Y-133159739D01*
X123682481Y-132893073D01*
X123490661Y-132659339D01*
X123256927Y-132467519D01*
X122990261Y-132324983D01*
X122700913Y-132237210D01*
X122475408Y-132215000D01*
X122363026Y-132215000D01*
X121933026Y-131785000D01*
X122475408Y-131785000D01*
X122700913Y-131762790D01*
X122990261Y-131675017D01*
X123256927Y-131532481D01*
X123490661Y-131340661D01*
X123682481Y-131106927D01*
X123825017Y-130840261D01*
X123912790Y-130550913D01*
X123942427Y-130250000D01*
X123912790Y-129949087D01*
X123825017Y-129659739D01*
X123682481Y-129393073D01*
X123490661Y-129159339D01*
X123256927Y-128967519D01*
X122990261Y-128824983D01*
X122700913Y-128737210D01*
X122475408Y-128715000D01*
X122183026Y-128715000D01*
X122628061Y-128269965D01*
X122700913Y-128262790D01*
X122990261Y-128175017D01*
X123256927Y-128032481D01*
X123490661Y-127840661D01*
X123682481Y-127606927D01*
X123825017Y-127340261D01*
X123912790Y-127050913D01*
X123942427Y-126750000D01*
X123912790Y-126449087D01*
X123825017Y-126159739D01*
X123682481Y-125893073D01*
X123490661Y-125659339D01*
X123256927Y-125467519D01*
X122990261Y-125324983D01*
X122700913Y-125237210D01*
X122628061Y-125230035D01*
X121699013Y-124300987D01*
X121602787Y-124222017D01*
X121493004Y-124163336D01*
X121373882Y-124127201D01*
X121250000Y-124115000D01*
X89750000Y-124115000D01*
X89626118Y-124127201D01*
X89506996Y-124163336D01*
X89397213Y-124222017D01*
X89300987Y-124300987D01*
X88371939Y-125230035D01*
X88299087Y-125237210D01*
X88009739Y-125324983D01*
X87743073Y-125467519D01*
X87509339Y-125659339D01*
X87317519Y-125893073D01*
X87174983Y-126159739D01*
X87087210Y-126449087D01*
X87057573Y-126750000D01*
X85910000Y-126750000D01*
X85910000Y-96484801D01*
X87436201Y-98011003D01*
X87459999Y-98040001D01*
X87488997Y-98063799D01*
X87575723Y-98134974D01*
X87707753Y-98205546D01*
X87851014Y-98249003D01*
X87962667Y-98260000D01*
X87962676Y-98260000D01*
X87999999Y-98263676D01*
X88037322Y-98260000D01*
X89962678Y-98260000D01*
X90000000Y-98263676D01*
X90037322Y-98260000D01*
X90037333Y-98260000D01*
X90148986Y-98249003D01*
X90292247Y-98205546D01*
X90424276Y-98134974D01*
X90540001Y-98040001D01*
X90563804Y-98010997D01*
X91336729Y-97238072D01*
X92600000Y-97238072D01*
X92724482Y-97225812D01*
X92844180Y-97189502D01*
X92954494Y-97130537D01*
X93051185Y-97051185D01*
X93130537Y-96954494D01*
X93189502Y-96844180D01*
X93225812Y-96724482D01*
X93238072Y-96600000D01*
X93238072Y-94900000D01*
X93225812Y-94775518D01*
X93189502Y-94655820D01*
X93130537Y-94545506D01*
X93051185Y-94448815D01*
X92954494Y-94369463D01*
X92844180Y-94310498D01*
X92771620Y-94288487D01*
X92903475Y-94156632D01*
X93065990Y-93913411D01*
X93177932Y-93643158D01*
X93235000Y-93356260D01*
X93235000Y-93089802D01*
X93761009Y-92563794D01*
X93790001Y-92540001D01*
X93813795Y-92511008D01*
X93813799Y-92511004D01*
X93884973Y-92424277D01*
X93884974Y-92424276D01*
X93955546Y-92292247D01*
X93999003Y-92148986D01*
X94010000Y-92037333D01*
X94010000Y-92037324D01*
X94013676Y-92000001D01*
X94010000Y-91962678D01*
X94010000Y-90037322D01*
X94013676Y-89999999D01*
X94010000Y-89962676D01*
X94010000Y-89962667D01*
X93999003Y-89851014D01*
X93955546Y-89707753D01*
X93884974Y-89575724D01*
X93790001Y-89459999D01*
X93761003Y-89436201D01*
X92313804Y-87989003D01*
X92290001Y-87959999D01*
X92174276Y-87865026D01*
X92042247Y-87794454D01*
X91898986Y-87750997D01*
X91787333Y-87740000D01*
X91787322Y-87740000D01*
X91750000Y-87736324D01*
X91712678Y-87740000D01*
X90064802Y-87740000D01*
X88260000Y-85935199D01*
X88260000Y-81564801D01*
X88745000Y-81079801D01*
X88745000Y-81136411D01*
X88798225Y-81403989D01*
X88902629Y-81656043D01*
X89054201Y-81882886D01*
X89247114Y-82075799D01*
X89473957Y-82227371D01*
X89726011Y-82331775D01*
X89993589Y-82385000D01*
X90266411Y-82385000D01*
X90511456Y-82336257D01*
X90590419Y-82415220D01*
X90517114Y-82464201D01*
X90324201Y-82657114D01*
X90172629Y-82883957D01*
X90068225Y-83136011D01*
X90015000Y-83403589D01*
X90015000Y-83676411D01*
X90068225Y-83943989D01*
X90172629Y-84196043D01*
X90324201Y-84422886D01*
X90517114Y-84615799D01*
X90743957Y-84767371D01*
X90996011Y-84871775D01*
X91263589Y-84925000D01*
X91536411Y-84925000D01*
X91803989Y-84871775D01*
X92056043Y-84767371D01*
X92282886Y-84615799D01*
X92475799Y-84422886D01*
X92627371Y-84196043D01*
X92731775Y-83943989D01*
X92785000Y-83676411D01*
X92785000Y-83403589D01*
X95095000Y-83403589D01*
X95095000Y-83676411D01*
X95148225Y-83943989D01*
X95252629Y-84196043D01*
X95404201Y-84422886D01*
X95597114Y-84615799D01*
X95823957Y-84767371D01*
X96076011Y-84871775D01*
X96343589Y-84925000D01*
X96616411Y-84925000D01*
X96883989Y-84871775D01*
X97136043Y-84767371D01*
X97362886Y-84615799D01*
X97555799Y-84422886D01*
X97707371Y-84196043D01*
X97811775Y-83943989D01*
X97865000Y-83676411D01*
X97865000Y-83403589D01*
X97811775Y-83136011D01*
X97707371Y-82883957D01*
X97555799Y-82657114D01*
X97362886Y-82464201D01*
X97136043Y-82312629D01*
X96883989Y-82208225D01*
X96616411Y-82155000D01*
X96343589Y-82155000D01*
X96076011Y-82208225D01*
X95823957Y-82312629D01*
X95597114Y-82464201D01*
X95404201Y-82657114D01*
X95252629Y-82883957D01*
X95148225Y-83136011D01*
X95095000Y-83403589D01*
X92785000Y-83403589D01*
X92731775Y-83136011D01*
X92679580Y-83010000D01*
X93212678Y-83010000D01*
X93250000Y-83013676D01*
X93287322Y-83010000D01*
X93287333Y-83010000D01*
X93398986Y-82999003D01*
X93542247Y-82955546D01*
X93674276Y-82884974D01*
X93790001Y-82790001D01*
X93813803Y-82760998D01*
X94430154Y-82144648D01*
X94553957Y-82227371D01*
X94806011Y-82331775D01*
X95073589Y-82385000D01*
X95346411Y-82385000D01*
X95613989Y-82331775D01*
X95866043Y-82227371D01*
X96092886Y-82075799D01*
X96285799Y-81882886D01*
X96437371Y-81656043D01*
X96541775Y-81403989D01*
X96595000Y-81136411D01*
X96595000Y-81053026D01*
X97513026Y-80135000D01*
X98986974Y-80135000D01*
X99865000Y-81013026D01*
X99865000Y-84486974D01*
X96550987Y-87800987D01*
X96472017Y-87897213D01*
X96413336Y-88006996D01*
X96377201Y-88126118D01*
X96365000Y-88250000D01*
X96365000Y-93500000D01*
X96377201Y-93623882D01*
X96413336Y-93743004D01*
X96472017Y-93852787D01*
X96550987Y-93949013D01*
X105375709Y-102773735D01*
X105325000Y-103028665D01*
X105325000Y-103311335D01*
X105380147Y-103588574D01*
X105488320Y-103849727D01*
X105645363Y-104084759D01*
X105845241Y-104284637D01*
X106080273Y-104441680D01*
X106341426Y-104549853D01*
X106618665Y-104605000D01*
X106901335Y-104605000D01*
X107178574Y-104549853D01*
X107439727Y-104441680D01*
X107674759Y-104284637D01*
X107874637Y-104084759D01*
X108031680Y-103849727D01*
X108139853Y-103588574D01*
X108195000Y-103311335D01*
X108195000Y-103135000D01*
X110236974Y-103135000D01*
X115865001Y-108763027D01*
X115865001Y-110555752D01*
X115881424Y-110722499D01*
X115946325Y-110936447D01*
X116051717Y-111133623D01*
X116193552Y-111306449D01*
X116366378Y-111448284D01*
X116563554Y-111553676D01*
X116777502Y-111618577D01*
X117000000Y-111640491D01*
X117222499Y-111618577D01*
X117436447Y-111553676D01*
X117633623Y-111448284D01*
X117806449Y-111306449D01*
X117948284Y-111133623D01*
X118053676Y-110936447D01*
X118118577Y-110722499D01*
X118135000Y-110555752D01*
X118135000Y-105305752D01*
X118140491Y-105250000D01*
X118135000Y-105194248D01*
X118135000Y-102500000D01*
X118122799Y-102376118D01*
X118086664Y-102256996D01*
X118027983Y-102147213D01*
X117949013Y-102050987D01*
X110885000Y-94986974D01*
X110885000Y-94013026D01*
X112449013Y-92449013D01*
X112527983Y-92352787D01*
X112586664Y-92243004D01*
X112622799Y-92123882D01*
X112635000Y-92000000D01*
X112635000Y-85250000D01*
X112622799Y-85126118D01*
X112586664Y-85006996D01*
X112527983Y-84897213D01*
X112454862Y-84808115D01*
X112385784Y-84678877D01*
X112243949Y-84506051D01*
X112071123Y-84364216D01*
X111941885Y-84295138D01*
X111852787Y-84222017D01*
X111743004Y-84163336D01*
X111623882Y-84127201D01*
X111500000Y-84115000D01*
X107500000Y-84115000D01*
X107443139Y-84120600D01*
X107442241Y-84120000D01*
X107674759Y-83964637D01*
X107874637Y-83764759D01*
X108031680Y-83529727D01*
X108139853Y-83268574D01*
X108178800Y-83072779D01*
X109095050Y-82156529D01*
X109128817Y-82128817D01*
X109163691Y-82086324D01*
X109239410Y-81994060D01*
X109239411Y-81994059D01*
X109321589Y-81840313D01*
X109372195Y-81673490D01*
X109385000Y-81543477D01*
X109385000Y-81543467D01*
X109389281Y-81500001D01*
X109385000Y-81456535D01*
X109385000Y-75366578D01*
X110245044Y-74506535D01*
X110301898Y-74495226D01*
X110490256Y-74417205D01*
X110659774Y-74303937D01*
X110803937Y-74159774D01*
X110917205Y-73990256D01*
X110995226Y-73801898D01*
X111035000Y-73601939D01*
X111035000Y-73398061D01*
X110995226Y-73198102D01*
X110917205Y-73009744D01*
X110803937Y-72840226D01*
X110659774Y-72696063D01*
X110490256Y-72582795D01*
X110301898Y-72504774D01*
X110101939Y-72465000D01*
X109898061Y-72465000D01*
X109698102Y-72504774D01*
X109509744Y-72582795D01*
X109340226Y-72696063D01*
X109196063Y-72840226D01*
X109082795Y-73009744D01*
X109004774Y-73198102D01*
X108993465Y-73254956D01*
X107904956Y-74343466D01*
X107897555Y-74349540D01*
X107874637Y-74315241D01*
X107674759Y-74115363D01*
X107442241Y-73960000D01*
X107674759Y-73804637D01*
X107874637Y-73604759D01*
X108031680Y-73369727D01*
X108139853Y-73108574D01*
X108195000Y-72831335D01*
X108195000Y-72548665D01*
X108139853Y-72271426D01*
X108031680Y-72010273D01*
X107874637Y-71775241D01*
X107674759Y-71575363D01*
X107576936Y-71510000D01*
X117685199Y-71510000D01*
X118990001Y-72814803D01*
%TA.AperFunction,Conductor*%
D24*
G36*
X118990001Y-72814803D02*
G01*
X118990000Y-75482677D01*
X118986324Y-75520000D01*
X118990000Y-75557322D01*
X118990000Y-75557332D01*
X119000997Y-75668985D01*
X119038858Y-75793799D01*
X119044454Y-75812246D01*
X119115026Y-75944276D01*
X119143526Y-75979003D01*
X119209999Y-76060001D01*
X119239003Y-76083804D01*
X120601312Y-77446114D01*
X120565000Y-77628665D01*
X120565000Y-77911335D01*
X120620147Y-78188574D01*
X120728320Y-78449727D01*
X120885363Y-78684759D01*
X121085241Y-78884637D01*
X121317759Y-79040000D01*
X121085241Y-79195363D01*
X120885363Y-79395241D01*
X120728320Y-79630273D01*
X120620147Y-79891426D01*
X120565000Y-80168665D01*
X120565000Y-80451335D01*
X120620147Y-80728574D01*
X120728320Y-80989727D01*
X120885363Y-81224759D01*
X121085241Y-81424637D01*
X121317759Y-81580000D01*
X121085241Y-81735363D01*
X120885363Y-81935241D01*
X120728320Y-82170273D01*
X120620147Y-82431426D01*
X120565000Y-82708665D01*
X120565000Y-82991335D01*
X120620147Y-83268574D01*
X120728320Y-83529727D01*
X120885363Y-83764759D01*
X121085241Y-83964637D01*
X121317759Y-84120000D01*
X121085241Y-84275363D01*
X120885363Y-84475241D01*
X120728320Y-84710273D01*
X120620147Y-84971426D01*
X120565000Y-85248665D01*
X120565000Y-85531335D01*
X120620147Y-85808574D01*
X120728320Y-86069727D01*
X120885363Y-86304759D01*
X121085241Y-86504637D01*
X121317759Y-86660000D01*
X121085241Y-86815363D01*
X120885363Y-87015241D01*
X120728320Y-87250273D01*
X120620147Y-87511426D01*
X120565000Y-87788665D01*
X120565000Y-88071335D01*
X120620147Y-88348574D01*
X120728320Y-88609727D01*
X120885363Y-88844759D01*
X121085241Y-89044637D01*
X121317759Y-89200000D01*
X121085241Y-89355363D01*
X120885363Y-89555241D01*
X120728320Y-89790273D01*
X120620147Y-90051426D01*
X120565000Y-90328665D01*
X120565000Y-90611335D01*
X120620147Y-90888574D01*
X120728320Y-91149727D01*
X120885363Y-91384759D01*
X121085241Y-91584637D01*
X121317759Y-91740000D01*
X121085241Y-91895363D01*
X120885363Y-92095241D01*
X120728320Y-92330273D01*
X120620147Y-92591426D01*
X120565000Y-92868665D01*
X120565000Y-93151335D01*
X120620147Y-93428574D01*
X120728320Y-93689727D01*
X120885363Y-93924759D01*
X121085241Y-94124637D01*
X121317759Y-94280000D01*
X121085241Y-94435363D01*
X120885363Y-94635241D01*
X120728320Y-94870273D01*
X120620147Y-95131426D01*
X120565000Y-95408665D01*
X120565000Y-95691335D01*
X120620147Y-95968574D01*
X120728320Y-96229727D01*
X120885363Y-96464759D01*
X121085241Y-96664637D01*
X121317759Y-96820000D01*
X121085241Y-96975363D01*
X120885363Y-97175241D01*
X120728320Y-97410273D01*
X120620147Y-97671426D01*
X120565000Y-97948665D01*
X120565000Y-98231335D01*
X120620147Y-98508574D01*
X120728320Y-98769727D01*
X120885363Y-99004759D01*
X121085241Y-99204637D01*
X121320273Y-99361680D01*
X121581426Y-99469853D01*
X121858665Y-99525000D01*
X122141335Y-99525000D01*
X122418574Y-99469853D01*
X122679727Y-99361680D01*
X122840000Y-99254589D01*
X122840000Y-102005411D01*
X122679727Y-101898320D01*
X122418574Y-101790147D01*
X122141335Y-101735000D01*
X121858665Y-101735000D01*
X121581426Y-101790147D01*
X121320273Y-101898320D01*
X121085241Y-102055363D01*
X120885363Y-102255241D01*
X120728320Y-102490273D01*
X120620147Y-102751426D01*
X120565000Y-103028665D01*
X120565000Y-103311335D01*
X120620147Y-103588574D01*
X120728320Y-103849727D01*
X120885363Y-104084759D01*
X121085241Y-104284637D01*
X121317759Y-104440000D01*
X121085241Y-104595363D01*
X120885363Y-104795241D01*
X120728320Y-105030273D01*
X120620147Y-105291426D01*
X120565000Y-105568665D01*
X120565000Y-105851335D01*
X120620147Y-106128574D01*
X120728320Y-106389727D01*
X120885363Y-106624759D01*
X121083961Y-106823357D01*
X121075518Y-106824188D01*
X120955820Y-106860498D01*
X120845506Y-106919463D01*
X120748815Y-106998815D01*
X120669463Y-107095506D01*
X120610498Y-107205820D01*
X120574188Y-107325518D01*
X120561928Y-107450000D01*
X120561928Y-109050000D01*
X120574188Y-109174482D01*
X120610498Y-109294180D01*
X120669463Y-109404494D01*
X120748815Y-109501185D01*
X120845506Y-109580537D01*
X120955820Y-109639502D01*
X121075518Y-109675812D01*
X121200000Y-109688072D01*
X122737126Y-109688072D01*
X114685199Y-117740000D01*
X111314802Y-117740000D01*
X107563804Y-113989003D01*
X107540001Y-113959999D01*
X107424276Y-113865026D01*
X107292247Y-113794454D01*
X107148986Y-113750997D01*
X107037333Y-113740000D01*
X107037322Y-113740000D01*
X107000000Y-113736324D01*
X106962678Y-113740000D01*
X99654013Y-113740000D01*
X99553937Y-113590226D01*
X99409774Y-113446063D01*
X99240256Y-113332795D01*
X99051898Y-113254774D01*
X98851939Y-113215000D01*
X98648061Y-113215000D01*
X98448102Y-113254774D01*
X98419972Y-113266426D01*
X98417205Y-113259746D01*
X98303937Y-113090228D01*
X98159774Y-112946065D01*
X97990256Y-112832797D01*
X97801898Y-112754776D01*
X97601939Y-112715002D01*
X97398061Y-112715002D01*
X97198102Y-112754776D01*
X97009744Y-112832797D01*
X96840226Y-112946065D01*
X96696063Y-113090228D01*
X96582795Y-113259746D01*
X96504774Y-113448104D01*
X96465000Y-113648063D01*
X96465000Y-113851941D01*
X96474499Y-113899698D01*
X93260000Y-110685199D01*
X93260000Y-110200000D01*
X100809509Y-110200000D01*
X100831423Y-110422498D01*
X100896324Y-110636446D01*
X100923050Y-110686447D01*
X101001717Y-110833623D01*
X101143552Y-111006449D01*
X101186857Y-111041988D01*
X101236857Y-111091989D01*
X101366378Y-111198284D01*
X101563554Y-111303676D01*
X101777502Y-111368577D01*
X102000000Y-111390491D01*
X102222499Y-111368577D01*
X102436447Y-111303676D01*
X102633623Y-111198284D01*
X102806449Y-111056449D01*
X102948284Y-110883623D01*
X103053676Y-110686447D01*
X103118577Y-110472499D01*
X103140491Y-110250000D01*
X103118577Y-110027502D01*
X103085000Y-109916814D01*
X103085000Y-108108665D01*
X105325000Y-108108665D01*
X105325000Y-108391335D01*
X105380147Y-108668574D01*
X105488320Y-108929727D01*
X105645363Y-109164759D01*
X105845241Y-109364637D01*
X106080273Y-109521680D01*
X106341426Y-109629853D01*
X106618665Y-109685000D01*
X106901335Y-109685000D01*
X107178574Y-109629853D01*
X107439727Y-109521680D01*
X107674759Y-109364637D01*
X107874637Y-109164759D01*
X108031680Y-108929727D01*
X108139853Y-108668574D01*
X108195000Y-108391335D01*
X108195000Y-108108665D01*
X108139853Y-107831426D01*
X108031680Y-107570273D01*
X107874637Y-107335241D01*
X107674759Y-107135363D01*
X107439727Y-106978320D01*
X107178574Y-106870147D01*
X106901335Y-106815000D01*
X106618665Y-106815000D01*
X106341426Y-106870147D01*
X106080273Y-106978320D01*
X105845241Y-107135363D01*
X105645363Y-107335241D01*
X105488320Y-107570273D01*
X105380147Y-107831426D01*
X105325000Y-108108665D01*
X103085000Y-108108665D01*
X103085000Y-102494248D01*
X103068577Y-102327501D01*
X103003676Y-102113553D01*
X102898284Y-101916377D01*
X102756449Y-101743551D01*
X102583623Y-101601716D01*
X102386446Y-101496324D01*
X102172498Y-101431423D01*
X101950000Y-101409509D01*
X101727501Y-101431423D01*
X101513553Y-101496324D01*
X101316377Y-101601716D01*
X101143551Y-101743551D01*
X101001716Y-101916377D01*
X100896324Y-102113554D01*
X100831423Y-102327502D01*
X100815000Y-102494249D01*
X100815001Y-110144239D01*
X100809509Y-110200000D01*
X93260000Y-110200000D01*
X93260000Y-102703711D01*
X93303937Y-102659774D01*
X93417205Y-102490256D01*
X93495226Y-102301898D01*
X93535000Y-102101939D01*
X93535000Y-101898061D01*
X93495226Y-101698102D01*
X93417205Y-101509744D01*
X93303937Y-101340226D01*
X93159774Y-101196063D01*
X92990256Y-101082795D01*
X92801898Y-101004774D01*
X92601939Y-100965000D01*
X92398061Y-100965000D01*
X92198102Y-101004774D01*
X92009744Y-101082795D01*
X91840226Y-101196063D01*
X91696063Y-101340226D01*
X91582795Y-101509744D01*
X91504774Y-101698102D01*
X91465000Y-101898061D01*
X91465000Y-102101939D01*
X91504774Y-102301898D01*
X91582795Y-102490256D01*
X91696063Y-102659774D01*
X91740001Y-102703712D01*
X91740001Y-103000685D01*
X91682481Y-102893073D01*
X91490661Y-102659339D01*
X91256927Y-102467519D01*
X90990261Y-102324983D01*
X90700913Y-102237210D01*
X90475408Y-102215000D01*
X88524592Y-102215000D01*
X88299087Y-102237210D01*
X88009739Y-102324983D01*
X87743073Y-102467519D01*
X87509339Y-102659339D01*
X87317519Y-102893073D01*
X87174983Y-103159739D01*
X87087210Y-103449087D01*
X87057573Y-103750000D01*
X87087210Y-104050913D01*
X87174983Y-104340261D01*
X87317519Y-104606927D01*
X87509339Y-104840661D01*
X87743073Y-105032481D01*
X88009739Y-105175017D01*
X88299087Y-105262790D01*
X88524592Y-105285000D01*
X90475408Y-105285000D01*
X90700913Y-105262790D01*
X90990261Y-105175017D01*
X91256927Y-105032481D01*
X91490661Y-104840661D01*
X91682481Y-104606927D01*
X91740001Y-104499315D01*
X91740000Y-106500684D01*
X91682481Y-106393073D01*
X91490661Y-106159339D01*
X91256927Y-105967519D01*
X90990261Y-105824983D01*
X90700913Y-105737210D01*
X90475408Y-105715000D01*
X88524592Y-105715000D01*
X88299087Y-105737210D01*
X88009739Y-105824983D01*
X87743073Y-105967519D01*
X87509339Y-106159339D01*
X87317519Y-106393073D01*
X87174983Y-106659739D01*
X87087210Y-106949087D01*
X87057573Y-107250000D01*
X87087210Y-107550913D01*
X87174983Y-107840261D01*
X87317519Y-108106927D01*
X87509339Y-108340661D01*
X87743073Y-108532481D01*
X88009739Y-108675017D01*
X88299087Y-108762790D01*
X88524592Y-108785000D01*
X90475408Y-108785000D01*
X90700913Y-108762790D01*
X90990261Y-108675017D01*
X91256927Y-108532481D01*
X91490661Y-108340661D01*
X91682481Y-108106927D01*
X91740000Y-107999316D01*
X91740000Y-110000684D01*
X91682481Y-109893073D01*
X91490661Y-109659339D01*
X91256927Y-109467519D01*
X90990261Y-109324983D01*
X90700913Y-109237210D01*
X90475408Y-109215000D01*
X88524592Y-109215000D01*
X88299087Y-109237210D01*
X88009739Y-109324983D01*
X87743073Y-109467519D01*
X87509339Y-109659339D01*
X87317519Y-109893073D01*
X87174983Y-110159739D01*
X87087210Y-110449087D01*
X87057573Y-110750000D01*
X87087210Y-111050913D01*
X87174983Y-111340261D01*
X87317519Y-111606927D01*
X87509339Y-111840661D01*
X87743073Y-112032481D01*
X88009739Y-112175017D01*
X88299087Y-112262790D01*
X88524592Y-112285000D01*
X90475408Y-112285000D01*
X90700913Y-112262790D01*
X90990261Y-112175017D01*
X91256927Y-112032481D01*
X91490661Y-111840661D01*
X91682481Y-111606927D01*
X91822568Y-111344843D01*
X91865026Y-111424276D01*
X91884729Y-111448284D01*
X91959999Y-111540001D01*
X91989003Y-111563804D01*
X93290199Y-112865000D01*
X92627264Y-112865000D01*
X92378715Y-112732148D01*
X92070516Y-112638657D01*
X91830322Y-112615000D01*
X91830319Y-112615000D01*
X91750000Y-112607089D01*
X91669681Y-112615000D01*
X89419678Y-112615000D01*
X89179484Y-112638657D01*
X88937942Y-112711928D01*
X87950000Y-112711928D01*
X87776746Y-112728992D01*
X87610150Y-112779528D01*
X87456614Y-112861595D01*
X87322038Y-112972038D01*
X87211595Y-113106614D01*
X87129528Y-113260150D01*
X87078992Y-113426746D01*
X87061928Y-113600000D01*
X87061928Y-114900000D01*
X87078992Y-115073254D01*
X87115000Y-115191957D01*
X87115000Y-115750000D01*
X87127201Y-115873882D01*
X87163336Y-115993004D01*
X87222017Y-116102787D01*
X87300987Y-116199013D01*
X89316974Y-118215000D01*
X88524592Y-118215000D01*
X88299087Y-118237210D01*
X88009739Y-118324983D01*
X87743073Y-118467519D01*
X87509339Y-118659339D01*
X87317519Y-118893073D01*
X87174983Y-119159739D01*
X87087210Y-119449087D01*
X87057573Y-119750000D01*
X87087210Y-120050913D01*
X87174983Y-120340261D01*
X87317519Y-120606927D01*
X87509339Y-120840661D01*
X87743073Y-121032481D01*
X88009739Y-121175017D01*
X88299087Y-121262790D01*
X88524592Y-121285000D01*
X90475408Y-121285000D01*
X90700913Y-121262790D01*
X90990261Y-121175017D01*
X91256927Y-121032481D01*
X91490661Y-120840661D01*
X91682481Y-120606927D01*
X91691684Y-120589710D01*
X92300987Y-121199013D01*
X92397213Y-121277983D01*
X92506996Y-121336664D01*
X92626118Y-121372799D01*
X92750000Y-121385000D01*
X94471576Y-121385000D01*
X94504774Y-121551898D01*
X94582795Y-121740256D01*
X94696063Y-121909774D01*
X94840226Y-122053937D01*
X95009744Y-122167205D01*
X95198102Y-122245226D01*
X95398061Y-122285000D01*
X95601939Y-122285000D01*
X95801898Y-122245226D01*
X95990256Y-122167205D01*
X96038454Y-122135000D01*
X107711546Y-122135000D01*
X107759744Y-122167205D01*
X107948102Y-122245226D01*
X108148061Y-122285000D01*
X108351939Y-122285000D01*
X108551898Y-122245226D01*
X108740256Y-122167205D01*
X108909774Y-122053937D01*
X109053937Y-121909774D01*
X109167205Y-121740256D01*
X109245226Y-121551898D01*
X109285000Y-121351939D01*
X109285000Y-121148061D01*
X109245226Y-120948102D01*
X109167205Y-120759744D01*
X109069841Y-120614028D01*
X109159774Y-120553937D01*
X109303937Y-120409774D01*
X109417205Y-120240256D01*
X109495226Y-120051898D01*
X109535000Y-119851939D01*
X109535000Y-119648061D01*
X109495226Y-119448102D01*
X109417205Y-119259744D01*
X109303937Y-119090226D01*
X109260000Y-119046289D01*
X109260000Y-118834802D01*
X111436201Y-121011003D01*
X111459999Y-121040001D01*
X111575724Y-121134974D01*
X111707753Y-121205546D01*
X111851014Y-121249003D01*
X111962667Y-121260000D01*
X111962676Y-121260000D01*
X111999999Y-121263676D01*
X112037322Y-121260000D01*
X114962678Y-121260000D01*
X115000000Y-121263676D01*
X115037322Y-121260000D01*
X115037333Y-121260000D01*
X115148986Y-121249003D01*
X115292247Y-121205546D01*
X115424276Y-121134974D01*
X115540001Y-121040001D01*
X115563804Y-121010997D01*
X121224729Y-115350073D01*
X121282795Y-115490256D01*
X121396063Y-115659774D01*
X121540226Y-115803937D01*
X121709744Y-115917205D01*
X121898102Y-115995226D01*
X122098061Y-116035000D01*
X122301939Y-116035000D01*
X122501898Y-115995226D01*
X122690256Y-115917205D01*
X122859774Y-115803937D01*
X123003937Y-115659774D01*
X123117205Y-115490256D01*
X123195226Y-115301898D01*
X123235000Y-115101939D01*
X123235000Y-115089801D01*
X125590000Y-112734801D01*
X125590000Y-118515199D01*
X124063804Y-116989003D01*
X124040001Y-116959999D01*
X123924276Y-116865026D01*
X123792247Y-116794454D01*
X123648986Y-116750997D01*
X123537333Y-116740000D01*
X123537322Y-116740000D01*
X123500000Y-116736324D01*
X123462678Y-116740000D01*
X121453711Y-116740000D01*
X121409774Y-116696063D01*
X121240256Y-116582795D01*
X121051898Y-116504774D01*
X120851939Y-116465000D01*
X120648061Y-116465000D01*
X120448102Y-116504774D01*
X120259744Y-116582795D01*
X120090226Y-116696063D01*
X119946063Y-116840226D01*
X119832795Y-117009744D01*
X119754774Y-117198102D01*
X119715000Y-117398061D01*
X119715000Y-117601939D01*
X119754774Y-117801898D01*
X119832795Y-117990256D01*
X119946063Y-118159774D01*
X119998217Y-118211928D01*
X119950000Y-118211928D01*
X119776746Y-118228992D01*
X119610150Y-118279528D01*
X119456614Y-118361595D01*
X119322038Y-118472038D01*
X119211595Y-118606614D01*
X119129528Y-118760150D01*
X119078992Y-118926746D01*
X119061928Y-119100000D01*
X119061928Y-120400000D01*
X119078992Y-120573254D01*
X119129528Y-120739850D01*
X119211595Y-120893386D01*
X119322038Y-121027962D01*
X119456614Y-121138405D01*
X119610150Y-121220472D01*
X119776746Y-121271008D01*
X119950000Y-121288072D01*
X123050000Y-121288072D01*
X123223254Y-121271008D01*
X123389850Y-121220472D01*
X123543386Y-121138405D01*
X123677962Y-121027962D01*
X123788405Y-120893386D01*
X123870472Y-120739850D01*
X123921008Y-120573254D01*
X123938072Y-120400000D01*
X123938072Y-119100000D01*
X123928553Y-119003355D01*
X124740001Y-119814803D01*
X124740000Y-140435198D01*
X123813625Y-141361573D01*
X123825017Y-141340261D01*
X123912790Y-141050913D01*
X123942427Y-140750000D01*
X123912790Y-140449087D01*
X123825017Y-140159739D01*
X123682481Y-139893073D01*
X123490661Y-139659339D01*
X123256927Y-139467519D01*
X122990261Y-139324983D01*
X122700913Y-139237210D01*
X122475408Y-139215000D01*
X120524592Y-139215000D01*
X120299087Y-139237210D01*
X120009739Y-139324983D01*
X119743073Y-139467519D01*
X119509339Y-139659339D01*
X119340558Y-139865000D01*
X113543469Y-139865000D01*
X113500000Y-139860719D01*
X113456531Y-139865000D01*
X113456523Y-139865000D01*
X113341306Y-139876348D01*
X113326509Y-139877805D01*
X113276179Y-139893073D01*
X113159687Y-139928411D01*
X113005941Y-140010589D01*
X113005939Y-140010590D01*
X113005940Y-140010590D01*
X112904953Y-140093468D01*
X112904951Y-140093470D01*
X112871183Y-140121183D01*
X112843470Y-140154951D01*
X112250000Y-140748421D01*
X111656534Y-140154956D01*
X111628817Y-140121183D01*
X111494059Y-140010589D01*
X111340313Y-139928411D01*
X111173490Y-139877805D01*
X111043477Y-139865000D01*
X111043469Y-139865000D01*
X111000000Y-139860719D01*
X110956531Y-139865000D01*
X91659442Y-139865000D01*
X91490661Y-139659339D01*
X91256927Y-139467519D01*
X90990261Y-139324983D01*
X90700913Y-139237210D01*
X90475408Y-139215000D01*
X88524592Y-139215000D01*
X88299087Y-139237210D01*
X88009739Y-139324983D01*
X87743073Y-139467519D01*
X87509339Y-139659339D01*
X87317519Y-139893073D01*
X87174983Y-140159739D01*
X87087210Y-140449087D01*
X87057573Y-140750000D01*
X87087210Y-141050913D01*
X87174983Y-141340261D01*
X87317519Y-141606927D01*
X87509339Y-141840661D01*
X87743073Y-142032481D01*
X88009739Y-142175017D01*
X88299087Y-142262790D01*
X88524592Y-142285000D01*
X90475408Y-142285000D01*
X90700913Y-142262790D01*
X90990261Y-142175017D01*
X91256927Y-142032481D01*
X91490661Y-141840661D01*
X91659442Y-141635000D01*
X110633422Y-141635000D01*
X111243465Y-142245044D01*
X111254774Y-142301898D01*
X111332795Y-142490256D01*
X111446063Y-142659774D01*
X111590226Y-142803937D01*
X111759744Y-142917205D01*
X111948102Y-142995226D01*
X112148061Y-143035000D01*
X112351939Y-143035000D01*
X112551898Y-142995226D01*
X112740256Y-142917205D01*
X112909774Y-142803937D01*
X113053937Y-142659774D01*
X113167205Y-142490256D01*
X113245226Y-142301898D01*
X113256535Y-142245043D01*
X113866579Y-141635000D01*
X116666146Y-141635000D01*
X116582795Y-141759744D01*
X116504774Y-141948102D01*
X116465000Y-142148061D01*
X116465000Y-142351939D01*
X116504774Y-142551898D01*
X116582795Y-142740256D01*
X116696063Y-142909774D01*
X116840226Y-143053937D01*
X117009744Y-143167205D01*
X117198102Y-143245226D01*
X117398061Y-143285000D01*
X117601939Y-143285000D01*
X117722673Y-143260985D01*
X117749999Y-143263676D01*
X117787322Y-143260000D01*
X119426729Y-143260000D01*
X119317519Y-143393073D01*
X119174983Y-143659739D01*
X119087210Y-143949087D01*
X119057573Y-144250000D01*
X119087210Y-144550913D01*
X119174983Y-144840261D01*
X119317519Y-145106927D01*
X119509339Y-145340661D01*
X119743073Y-145532481D01*
X120009739Y-145675017D01*
X120299087Y-145762790D01*
X120524592Y-145785000D01*
X122475408Y-145785000D01*
X122700913Y-145762790D01*
X122990261Y-145675017D01*
X123256927Y-145532481D01*
X123490661Y-145340661D01*
X123682481Y-145106927D01*
X123825017Y-144840261D01*
X123912790Y-144550913D01*
X123942427Y-144250000D01*
X123912790Y-143949087D01*
X123825017Y-143659739D01*
X123682481Y-143393073D01*
X123573271Y-143260000D01*
X123712678Y-143260000D01*
X123750000Y-143263676D01*
X123787322Y-143260000D01*
X123787333Y-143260000D01*
X123898986Y-143249003D01*
X124042247Y-143205546D01*
X124174276Y-143134974D01*
X124290001Y-143040001D01*
X124313804Y-143010997D01*
X125590000Y-141734802D01*
X125590000Y-146590000D01*
X85910000Y-146590000D01*
X85910000Y-143600000D01*
X87061928Y-143600000D01*
X87061928Y-144900000D01*
X87078992Y-145073254D01*
X87129528Y-145239850D01*
X87211595Y-145393386D01*
X87322038Y-145527962D01*
X87456614Y-145638405D01*
X87610150Y-145720472D01*
X87776746Y-145771008D01*
X87950000Y-145788072D01*
X91050000Y-145788072D01*
X91223254Y-145771008D01*
X91389850Y-145720472D01*
X91543386Y-145638405D01*
X91677962Y-145527962D01*
X91788405Y-145393386D01*
X91870472Y-145239850D01*
X91902278Y-145135000D01*
X110633422Y-145135000D01*
X111243465Y-145745044D01*
X111254774Y-145801898D01*
X111332795Y-145990256D01*
X111446063Y-146159774D01*
X111590226Y-146303937D01*
X111759744Y-146417205D01*
X111948102Y-146495226D01*
X112148061Y-146535000D01*
X112351939Y-146535000D01*
X112551898Y-146495226D01*
X112740256Y-146417205D01*
X112909774Y-146303937D01*
X113053937Y-146159774D01*
X113167205Y-145990256D01*
X113245226Y-145801898D01*
X113285000Y-145601939D01*
X113285000Y-145398061D01*
X113245226Y-145198102D01*
X113167205Y-145009744D01*
X113053937Y-144840226D01*
X112909774Y-144696063D01*
X112740256Y-144582795D01*
X112551898Y-144504774D01*
X112495044Y-144493465D01*
X111656534Y-143654956D01*
X111628817Y-143621183D01*
X111494059Y-143510589D01*
X111340313Y-143428411D01*
X111173490Y-143377805D01*
X111043477Y-143365000D01*
X111043469Y-143365000D01*
X111000000Y-143360719D01*
X110956531Y-143365000D01*
X91902278Y-143365000D01*
X91870472Y-143260150D01*
X91788405Y-143106614D01*
X91677962Y-142972038D01*
X91543386Y-142861595D01*
X91389850Y-142779528D01*
X91223254Y-142728992D01*
X91050000Y-142711928D01*
X87950000Y-142711928D01*
X87776746Y-142728992D01*
X87610150Y-142779528D01*
X87456614Y-142861595D01*
X87322038Y-142972038D01*
X87211595Y-143106614D01*
X87129528Y-143260150D01*
X87078992Y-143426746D01*
X87061928Y-143600000D01*
X85910000Y-143600000D01*
X85910000Y-126750000D01*
X87057573Y-126750000D01*
X87087210Y-127050913D01*
X87174983Y-127340261D01*
X87317519Y-127606927D01*
X87509339Y-127840661D01*
X87743073Y-128032481D01*
X88009739Y-128175017D01*
X88299087Y-128262790D01*
X88371939Y-128269965D01*
X88816974Y-128715000D01*
X88524592Y-128715000D01*
X88299087Y-128737210D01*
X88009739Y-128824983D01*
X87743073Y-128967519D01*
X87509339Y-129159339D01*
X87317519Y-129393073D01*
X87174983Y-129659739D01*
X87087210Y-129949087D01*
X87057573Y-130250000D01*
X87087210Y-130550913D01*
X87174983Y-130840261D01*
X87317519Y-131106927D01*
X87509339Y-131340661D01*
X87743073Y-131532481D01*
X88009739Y-131675017D01*
X88299087Y-131762790D01*
X88524592Y-131785000D01*
X88816974Y-131785000D01*
X88371939Y-132230035D01*
X88299087Y-132237210D01*
X88009739Y-132324983D01*
X87743073Y-132467519D01*
X87509339Y-132659339D01*
X87317519Y-132893073D01*
X87174983Y-133159739D01*
X87087210Y-133449087D01*
X87057573Y-133750000D01*
X87087210Y-134050913D01*
X87174983Y-134340261D01*
X87317519Y-134606927D01*
X87509339Y-134840661D01*
X87743073Y-135032481D01*
X88009739Y-135175017D01*
X88299087Y-135262790D01*
X88371939Y-135269965D01*
X88816974Y-135715000D01*
X88524592Y-135715000D01*
X88299087Y-135737210D01*
X88009739Y-135824983D01*
X87743073Y-135967519D01*
X87509339Y-136159339D01*
X87317519Y-136393073D01*
X87174983Y-136659739D01*
X87087210Y-136949087D01*
X87057573Y-137250000D01*
X87087210Y-137550913D01*
X87174983Y-137840261D01*
X87317519Y-138106927D01*
X87509339Y-138340661D01*
X87743073Y-138532481D01*
X88009739Y-138675017D01*
X88299087Y-138762790D01*
X88524592Y-138785000D01*
X90475408Y-138785000D01*
X90700913Y-138762790D01*
X90990261Y-138675017D01*
X91256927Y-138532481D01*
X91490661Y-138340661D01*
X91659442Y-138135000D01*
X116961546Y-138135000D01*
X117009744Y-138167205D01*
X117198102Y-138245226D01*
X117398061Y-138285000D01*
X117601939Y-138285000D01*
X117801898Y-138245226D01*
X117990256Y-138167205D01*
X118159774Y-138053937D01*
X118303937Y-137909774D01*
X118417205Y-137740256D01*
X118495226Y-137551898D01*
X118535000Y-137351939D01*
X118535000Y-137148061D01*
X118532402Y-137135000D01*
X119068899Y-137135000D01*
X119057573Y-137250000D01*
X119087210Y-137550913D01*
X119174983Y-137840261D01*
X119317519Y-138106927D01*
X119509339Y-138340661D01*
X119743073Y-138532481D01*
X120009739Y-138675017D01*
X120299087Y-138762790D01*
X120524592Y-138785000D01*
X122475408Y-138785000D01*
X122700913Y-138762790D01*
X122990261Y-138675017D01*
X123256927Y-138532481D01*
X123490661Y-138340661D01*
X123682481Y-138106927D01*
X123825017Y-137840261D01*
X123912790Y-137550913D01*
X123942427Y-137250000D01*
X123912790Y-136949087D01*
X123825017Y-136659739D01*
X123682481Y-136393073D01*
X123490661Y-136159339D01*
X123256927Y-135967519D01*
X122990261Y-135824983D01*
X122700913Y-135737210D01*
X122475408Y-135715000D01*
X121933026Y-135715000D01*
X122363026Y-135285000D01*
X122475408Y-135285000D01*
X122700913Y-135262790D01*
X122990261Y-135175017D01*
X123256927Y-135032481D01*
X123490661Y-134840661D01*
X123682481Y-134606927D01*
X123825017Y-134340261D01*
X123912790Y-134050913D01*
X123942427Y-133750000D01*
X123912790Y-133449087D01*
X123825017Y-133159739D01*
X123682481Y-132893073D01*
X123490661Y-132659339D01*
X123256927Y-132467519D01*
X122990261Y-132324983D01*
X122700913Y-132237210D01*
X122475408Y-132215000D01*
X122363026Y-132215000D01*
X121933026Y-131785000D01*
X122475408Y-131785000D01*
X122700913Y-131762790D01*
X122990261Y-131675017D01*
X123256927Y-131532481D01*
X123490661Y-131340661D01*
X123682481Y-131106927D01*
X123825017Y-130840261D01*
X123912790Y-130550913D01*
X123942427Y-130250000D01*
X123912790Y-129949087D01*
X123825017Y-129659739D01*
X123682481Y-129393073D01*
X123490661Y-129159339D01*
X123256927Y-128967519D01*
X122990261Y-128824983D01*
X122700913Y-128737210D01*
X122475408Y-128715000D01*
X122183026Y-128715000D01*
X122628061Y-128269965D01*
X122700913Y-128262790D01*
X122990261Y-128175017D01*
X123256927Y-128032481D01*
X123490661Y-127840661D01*
X123682481Y-127606927D01*
X123825017Y-127340261D01*
X123912790Y-127050913D01*
X123942427Y-126750000D01*
X123912790Y-126449087D01*
X123825017Y-126159739D01*
X123682481Y-125893073D01*
X123490661Y-125659339D01*
X123256927Y-125467519D01*
X122990261Y-125324983D01*
X122700913Y-125237210D01*
X122628061Y-125230035D01*
X121699013Y-124300987D01*
X121602787Y-124222017D01*
X121493004Y-124163336D01*
X121373882Y-124127201D01*
X121250000Y-124115000D01*
X89750000Y-124115000D01*
X89626118Y-124127201D01*
X89506996Y-124163336D01*
X89397213Y-124222017D01*
X89300987Y-124300987D01*
X88371939Y-125230035D01*
X88299087Y-125237210D01*
X88009739Y-125324983D01*
X87743073Y-125467519D01*
X87509339Y-125659339D01*
X87317519Y-125893073D01*
X87174983Y-126159739D01*
X87087210Y-126449087D01*
X87057573Y-126750000D01*
X85910000Y-126750000D01*
X85910000Y-96484801D01*
X87436201Y-98011003D01*
X87459999Y-98040001D01*
X87488997Y-98063799D01*
X87575723Y-98134974D01*
X87707753Y-98205546D01*
X87851014Y-98249003D01*
X87962667Y-98260000D01*
X87962676Y-98260000D01*
X87999999Y-98263676D01*
X88037322Y-98260000D01*
X89962678Y-98260000D01*
X90000000Y-98263676D01*
X90037322Y-98260000D01*
X90037333Y-98260000D01*
X90148986Y-98249003D01*
X90292247Y-98205546D01*
X90424276Y-98134974D01*
X90540001Y-98040001D01*
X90563804Y-98010997D01*
X91336729Y-97238072D01*
X92600000Y-97238072D01*
X92724482Y-97225812D01*
X92844180Y-97189502D01*
X92954494Y-97130537D01*
X93051185Y-97051185D01*
X93130537Y-96954494D01*
X93189502Y-96844180D01*
X93225812Y-96724482D01*
X93238072Y-96600000D01*
X93238072Y-94900000D01*
X93225812Y-94775518D01*
X93189502Y-94655820D01*
X93130537Y-94545506D01*
X93051185Y-94448815D01*
X92954494Y-94369463D01*
X92844180Y-94310498D01*
X92771620Y-94288487D01*
X92903475Y-94156632D01*
X93065990Y-93913411D01*
X93177932Y-93643158D01*
X93235000Y-93356260D01*
X93235000Y-93089802D01*
X93761009Y-92563794D01*
X93790001Y-92540001D01*
X93813795Y-92511008D01*
X93813799Y-92511004D01*
X93884973Y-92424277D01*
X93884974Y-92424276D01*
X93955546Y-92292247D01*
X93999003Y-92148986D01*
X94010000Y-92037333D01*
X94010000Y-92037324D01*
X94013676Y-92000001D01*
X94010000Y-91962678D01*
X94010000Y-90037322D01*
X94013676Y-89999999D01*
X94010000Y-89962676D01*
X94010000Y-89962667D01*
X93999003Y-89851014D01*
X93955546Y-89707753D01*
X93884974Y-89575724D01*
X93790001Y-89459999D01*
X93761003Y-89436201D01*
X92313804Y-87989003D01*
X92290001Y-87959999D01*
X92174276Y-87865026D01*
X92042247Y-87794454D01*
X91898986Y-87750997D01*
X91787333Y-87740000D01*
X91787322Y-87740000D01*
X91750000Y-87736324D01*
X91712678Y-87740000D01*
X90064802Y-87740000D01*
X88260000Y-85935199D01*
X88260000Y-81564801D01*
X88745000Y-81079801D01*
X88745000Y-81136411D01*
X88798225Y-81403989D01*
X88902629Y-81656043D01*
X89054201Y-81882886D01*
X89247114Y-82075799D01*
X89473957Y-82227371D01*
X89726011Y-82331775D01*
X89993589Y-82385000D01*
X90266411Y-82385000D01*
X90511456Y-82336257D01*
X90590419Y-82415220D01*
X90517114Y-82464201D01*
X90324201Y-82657114D01*
X90172629Y-82883957D01*
X90068225Y-83136011D01*
X90015000Y-83403589D01*
X90015000Y-83676411D01*
X90068225Y-83943989D01*
X90172629Y-84196043D01*
X90324201Y-84422886D01*
X90517114Y-84615799D01*
X90743957Y-84767371D01*
X90996011Y-84871775D01*
X91263589Y-84925000D01*
X91536411Y-84925000D01*
X91803989Y-84871775D01*
X92056043Y-84767371D01*
X92282886Y-84615799D01*
X92475799Y-84422886D01*
X92627371Y-84196043D01*
X92731775Y-83943989D01*
X92785000Y-83676411D01*
X92785000Y-83403589D01*
X95095000Y-83403589D01*
X95095000Y-83676411D01*
X95148225Y-83943989D01*
X95252629Y-84196043D01*
X95404201Y-84422886D01*
X95597114Y-84615799D01*
X95823957Y-84767371D01*
X96076011Y-84871775D01*
X96343589Y-84925000D01*
X96616411Y-84925000D01*
X96883989Y-84871775D01*
X97136043Y-84767371D01*
X97362886Y-84615799D01*
X97555799Y-84422886D01*
X97707371Y-84196043D01*
X97811775Y-83943989D01*
X97865000Y-83676411D01*
X97865000Y-83403589D01*
X97811775Y-83136011D01*
X97707371Y-82883957D01*
X97555799Y-82657114D01*
X97362886Y-82464201D01*
X97136043Y-82312629D01*
X96883989Y-82208225D01*
X96616411Y-82155000D01*
X96343589Y-82155000D01*
X96076011Y-82208225D01*
X95823957Y-82312629D01*
X95597114Y-82464201D01*
X95404201Y-82657114D01*
X95252629Y-82883957D01*
X95148225Y-83136011D01*
X95095000Y-83403589D01*
X92785000Y-83403589D01*
X92731775Y-83136011D01*
X92679580Y-83010000D01*
X93212678Y-83010000D01*
X93250000Y-83013676D01*
X93287322Y-83010000D01*
X93287333Y-83010000D01*
X93398986Y-82999003D01*
X93542247Y-82955546D01*
X93674276Y-82884974D01*
X93790001Y-82790001D01*
X93813803Y-82760998D01*
X94430154Y-82144648D01*
X94553957Y-82227371D01*
X94806011Y-82331775D01*
X95073589Y-82385000D01*
X95346411Y-82385000D01*
X95613989Y-82331775D01*
X95866043Y-82227371D01*
X96092886Y-82075799D01*
X96285799Y-81882886D01*
X96437371Y-81656043D01*
X96541775Y-81403989D01*
X96595000Y-81136411D01*
X96595000Y-81053026D01*
X97513026Y-80135000D01*
X98986974Y-80135000D01*
X99865000Y-81013026D01*
X99865000Y-84486974D01*
X96550987Y-87800987D01*
X96472017Y-87897213D01*
X96413336Y-88006996D01*
X96377201Y-88126118D01*
X96365000Y-88250000D01*
X96365000Y-93500000D01*
X96377201Y-93623882D01*
X96413336Y-93743004D01*
X96472017Y-93852787D01*
X96550987Y-93949013D01*
X105375709Y-102773735D01*
X105325000Y-103028665D01*
X105325000Y-103311335D01*
X105380147Y-103588574D01*
X105488320Y-103849727D01*
X105645363Y-104084759D01*
X105845241Y-104284637D01*
X106080273Y-104441680D01*
X106341426Y-104549853D01*
X106618665Y-104605000D01*
X106901335Y-104605000D01*
X107178574Y-104549853D01*
X107439727Y-104441680D01*
X107674759Y-104284637D01*
X107874637Y-104084759D01*
X108031680Y-103849727D01*
X108139853Y-103588574D01*
X108195000Y-103311335D01*
X108195000Y-103135000D01*
X110236974Y-103135000D01*
X115865001Y-108763027D01*
X115865001Y-110555752D01*
X115881424Y-110722499D01*
X115946325Y-110936447D01*
X116051717Y-111133623D01*
X116193552Y-111306449D01*
X116366378Y-111448284D01*
X116563554Y-111553676D01*
X116777502Y-111618577D01*
X117000000Y-111640491D01*
X117222499Y-111618577D01*
X117436447Y-111553676D01*
X117633623Y-111448284D01*
X117806449Y-111306449D01*
X117948284Y-111133623D01*
X118053676Y-110936447D01*
X118118577Y-110722499D01*
X118135000Y-110555752D01*
X118135000Y-105305752D01*
X118140491Y-105250000D01*
X118135000Y-105194248D01*
X118135000Y-102500000D01*
X118122799Y-102376118D01*
X118086664Y-102256996D01*
X118027983Y-102147213D01*
X117949013Y-102050987D01*
X110885000Y-94986974D01*
X110885000Y-94013026D01*
X112449013Y-92449013D01*
X112527983Y-92352787D01*
X112586664Y-92243004D01*
X112622799Y-92123882D01*
X112635000Y-92000000D01*
X112635000Y-85250000D01*
X112622799Y-85126118D01*
X112586664Y-85006996D01*
X112527983Y-84897213D01*
X112454862Y-84808115D01*
X112385784Y-84678877D01*
X112243949Y-84506051D01*
X112071123Y-84364216D01*
X111941885Y-84295138D01*
X111852787Y-84222017D01*
X111743004Y-84163336D01*
X111623882Y-84127201D01*
X111500000Y-84115000D01*
X107500000Y-84115000D01*
X107443139Y-84120600D01*
X107442241Y-84120000D01*
X107674759Y-83964637D01*
X107874637Y-83764759D01*
X108031680Y-83529727D01*
X108139853Y-83268574D01*
X108178800Y-83072779D01*
X109095050Y-82156529D01*
X109128817Y-82128817D01*
X109163691Y-82086324D01*
X109239410Y-81994060D01*
X109239411Y-81994059D01*
X109321589Y-81840313D01*
X109372195Y-81673490D01*
X109385000Y-81543477D01*
X109385000Y-81543467D01*
X109389281Y-81500001D01*
X109385000Y-81456535D01*
X109385000Y-75366578D01*
X110245044Y-74506535D01*
X110301898Y-74495226D01*
X110490256Y-74417205D01*
X110659774Y-74303937D01*
X110803937Y-74159774D01*
X110917205Y-73990256D01*
X110995226Y-73801898D01*
X111035000Y-73601939D01*
X111035000Y-73398061D01*
X110995226Y-73198102D01*
X110917205Y-73009744D01*
X110803937Y-72840226D01*
X110659774Y-72696063D01*
X110490256Y-72582795D01*
X110301898Y-72504774D01*
X110101939Y-72465000D01*
X109898061Y-72465000D01*
X109698102Y-72504774D01*
X109509744Y-72582795D01*
X109340226Y-72696063D01*
X109196063Y-72840226D01*
X109082795Y-73009744D01*
X109004774Y-73198102D01*
X108993465Y-73254956D01*
X107904956Y-74343466D01*
X107897555Y-74349540D01*
X107874637Y-74315241D01*
X107674759Y-74115363D01*
X107442241Y-73960000D01*
X107674759Y-73804637D01*
X107874637Y-73604759D01*
X108031680Y-73369727D01*
X108139853Y-73108574D01*
X108195000Y-72831335D01*
X108195000Y-72548665D01*
X108139853Y-72271426D01*
X108031680Y-72010273D01*
X107874637Y-71775241D01*
X107674759Y-71575363D01*
X107576936Y-71510000D01*
X117685199Y-71510000D01*
X118990001Y-72814803D01*
G37*
%TD.AperFunction*%
D23*
X88936200Y-89761002D02*
X88959999Y-89790001D01*
X88988997Y-89813799D01*
X89075723Y-89884974D01*
X89207753Y-89955546D01*
X89351014Y-89999003D01*
X89462667Y-90010000D01*
X89462677Y-90010000D01*
X89500000Y-90013676D01*
X89537323Y-90010000D01*
X89935199Y-90010000D01*
X90295518Y-90370319D01*
X90265000Y-90523740D01*
X90265000Y-90816260D01*
X90322068Y-91103158D01*
X90434010Y-91373411D01*
X90596525Y-91616632D01*
X90803368Y-91823475D01*
X90977760Y-91940000D01*
X90803368Y-92056525D01*
X90596525Y-92263368D01*
X90480000Y-92437760D01*
X90363475Y-92263368D01*
X90156632Y-92056525D01*
X89913411Y-91894010D01*
X89643158Y-91782068D01*
X89356260Y-91725000D01*
X89063740Y-91725000D01*
X88776842Y-91782068D01*
X88506589Y-91894010D01*
X88483943Y-91909141D01*
X87260000Y-90685199D01*
X87260000Y-88084801D01*
X88936200Y-89761002D01*
%TA.AperFunction,Conductor*%
D24*
G36*
X88936200Y-89761002D02*
G01*
X88959999Y-89790001D01*
X88988997Y-89813799D01*
X89075723Y-89884974D01*
X89207753Y-89955546D01*
X89351014Y-89999003D01*
X89462667Y-90010000D01*
X89462677Y-90010000D01*
X89500000Y-90013676D01*
X89537323Y-90010000D01*
X89935199Y-90010000D01*
X90295518Y-90370319D01*
X90265000Y-90523740D01*
X90265000Y-90816260D01*
X90322068Y-91103158D01*
X90434010Y-91373411D01*
X90596525Y-91616632D01*
X90803368Y-91823475D01*
X90977760Y-91940000D01*
X90803368Y-92056525D01*
X90596525Y-92263368D01*
X90480000Y-92437760D01*
X90363475Y-92263368D01*
X90156632Y-92056525D01*
X89913411Y-91894010D01*
X89643158Y-91782068D01*
X89356260Y-91725000D01*
X89063740Y-91725000D01*
X88776842Y-91782068D01*
X88506589Y-91894010D01*
X88483943Y-91909141D01*
X87260000Y-90685199D01*
X87260000Y-88084801D01*
X88936200Y-89761002D01*
G37*
%TD.AperFunction*%
D23*
X105349698Y-72424500D02*
X105325000Y-72548665D01*
X105325000Y-72831335D01*
X105380147Y-73108574D01*
X105488320Y-73369727D01*
X105645363Y-73604759D01*
X105845241Y-73804637D01*
X106077759Y-73960000D01*
X105845241Y-74115363D01*
X105645363Y-74315241D01*
X105488320Y-74550273D01*
X105380147Y-74811426D01*
X105325000Y-75088665D01*
X105325000Y-75371335D01*
X105380147Y-75648574D01*
X105488320Y-75909727D01*
X105645363Y-76144759D01*
X105845241Y-76344637D01*
X106077759Y-76500000D01*
X105845241Y-76655363D01*
X105645363Y-76855241D01*
X105488320Y-77090273D01*
X105380147Y-77351426D01*
X105325000Y-77628665D01*
X105325000Y-77911335D01*
X105380147Y-78188574D01*
X105488320Y-78449727D01*
X105645363Y-78684759D01*
X105845241Y-78884637D01*
X106077759Y-79040000D01*
X105845241Y-79195363D01*
X105645363Y-79395241D01*
X105488320Y-79630273D01*
X105380147Y-79891426D01*
X105325000Y-80168665D01*
X105325000Y-80451335D01*
X105337133Y-80512331D01*
X101313804Y-76489003D01*
X101290001Y-76459999D01*
X101174276Y-76365026D01*
X101042247Y-76294454D01*
X100898986Y-76250997D01*
X100787333Y-76240000D01*
X100787322Y-76240000D01*
X100750000Y-76236324D01*
X100712678Y-76240000D01*
X100590767Y-76240000D01*
X100756038Y-76074729D01*
X101000631Y-75708669D01*
X101169110Y-75301925D01*
X101255000Y-74870128D01*
X101255000Y-74429872D01*
X101169110Y-73998075D01*
X101000631Y-73591331D01*
X100756038Y-73225271D01*
X100444729Y-72913962D01*
X100078669Y-72669369D01*
X99671925Y-72500890D01*
X99240128Y-72415000D01*
X98799872Y-72415000D01*
X98368075Y-72500890D01*
X97961331Y-72669369D01*
X97595271Y-72913962D01*
X97283962Y-73225271D01*
X97039369Y-73591331D01*
X96870890Y-73998075D01*
X96785000Y-74429872D01*
X96785000Y-74870128D01*
X96870890Y-75301925D01*
X97039369Y-75708669D01*
X97283962Y-76074729D01*
X97449233Y-76240000D01*
X95287322Y-76240000D01*
X95250000Y-76236324D01*
X95212677Y-76240000D01*
X95212667Y-76240000D01*
X95101014Y-76250997D01*
X94993281Y-76283677D01*
X94957753Y-76294454D01*
X94825723Y-76365026D01*
X94742083Y-76433668D01*
X94709999Y-76459999D01*
X94686201Y-76488997D01*
X92158998Y-79016201D01*
X92130000Y-79039999D01*
X92106202Y-79068997D01*
X92106201Y-79068998D01*
X92035026Y-79155724D01*
X91964454Y-79287754D01*
X91945265Y-79351014D01*
X91920998Y-79431014D01*
X91914203Y-79500000D01*
X91906324Y-79580000D01*
X91910001Y-79617332D01*
X91910001Y-79842090D01*
X91787114Y-79924201D01*
X91594201Y-80117114D01*
X91442629Y-80343957D01*
X91400000Y-80446873D01*
X91357371Y-80343957D01*
X91205799Y-80117114D01*
X91012886Y-79924201D01*
X90786043Y-79772629D01*
X90533989Y-79668225D01*
X90266411Y-79615000D01*
X90209801Y-79615000D01*
X97564802Y-72260000D01*
X105185199Y-72260000D01*
X105349698Y-72424500D01*
%TA.AperFunction,Conductor*%
D24*
G36*
X105349698Y-72424500D02*
G01*
X105325000Y-72548665D01*
X105325000Y-72831335D01*
X105380147Y-73108574D01*
X105488320Y-73369727D01*
X105645363Y-73604759D01*
X105845241Y-73804637D01*
X106077759Y-73960000D01*
X105845241Y-74115363D01*
X105645363Y-74315241D01*
X105488320Y-74550273D01*
X105380147Y-74811426D01*
X105325000Y-75088665D01*
X105325000Y-75371335D01*
X105380147Y-75648574D01*
X105488320Y-75909727D01*
X105645363Y-76144759D01*
X105845241Y-76344637D01*
X106077759Y-76500000D01*
X105845241Y-76655363D01*
X105645363Y-76855241D01*
X105488320Y-77090273D01*
X105380147Y-77351426D01*
X105325000Y-77628665D01*
X105325000Y-77911335D01*
X105380147Y-78188574D01*
X105488320Y-78449727D01*
X105645363Y-78684759D01*
X105845241Y-78884637D01*
X106077759Y-79040000D01*
X105845241Y-79195363D01*
X105645363Y-79395241D01*
X105488320Y-79630273D01*
X105380147Y-79891426D01*
X105325000Y-80168665D01*
X105325000Y-80451335D01*
X105337133Y-80512331D01*
X101313804Y-76489003D01*
X101290001Y-76459999D01*
X101174276Y-76365026D01*
X101042247Y-76294454D01*
X100898986Y-76250997D01*
X100787333Y-76240000D01*
X100787322Y-76240000D01*
X100750000Y-76236324D01*
X100712678Y-76240000D01*
X100590767Y-76240000D01*
X100756038Y-76074729D01*
X101000631Y-75708669D01*
X101169110Y-75301925D01*
X101255000Y-74870128D01*
X101255000Y-74429872D01*
X101169110Y-73998075D01*
X101000631Y-73591331D01*
X100756038Y-73225271D01*
X100444729Y-72913962D01*
X100078669Y-72669369D01*
X99671925Y-72500890D01*
X99240128Y-72415000D01*
X98799872Y-72415000D01*
X98368075Y-72500890D01*
X97961331Y-72669369D01*
X97595271Y-72913962D01*
X97283962Y-73225271D01*
X97039369Y-73591331D01*
X96870890Y-73998075D01*
X96785000Y-74429872D01*
X96785000Y-74870128D01*
X96870890Y-75301925D01*
X97039369Y-75708669D01*
X97283962Y-76074729D01*
X97449233Y-76240000D01*
X95287322Y-76240000D01*
X95250000Y-76236324D01*
X95212677Y-76240000D01*
X95212667Y-76240000D01*
X95101014Y-76250997D01*
X94993281Y-76283677D01*
X94957753Y-76294454D01*
X94825723Y-76365026D01*
X94742083Y-76433668D01*
X94709999Y-76459999D01*
X94686201Y-76488997D01*
X92158998Y-79016201D01*
X92130000Y-79039999D01*
X92106202Y-79068997D01*
X92106201Y-79068998D01*
X92035026Y-79155724D01*
X91964454Y-79287754D01*
X91945265Y-79351014D01*
X91920998Y-79431014D01*
X91914203Y-79500000D01*
X91906324Y-79580000D01*
X91910001Y-79617332D01*
X91910001Y-79842090D01*
X91787114Y-79924201D01*
X91594201Y-80117114D01*
X91442629Y-80343957D01*
X91400000Y-80446873D01*
X91357371Y-80343957D01*
X91205799Y-80117114D01*
X91012886Y-79924201D01*
X90786043Y-79772629D01*
X90533989Y-79668225D01*
X90266411Y-79615000D01*
X90209801Y-79615000D01*
X97564802Y-72260000D01*
X105185199Y-72260000D01*
X105349698Y-72424500D01*
G37*
%TD.AperFunction*%
D23*
X95988996Y-68686201D02*
X95988992Y-68686205D01*
X95959999Y-68709999D01*
X95936205Y-68738992D01*
X89825000Y-74850198D01*
X89825000Y-74429872D01*
X89739110Y-73998075D01*
X89570631Y-73591331D01*
X89326038Y-73225271D01*
X89014729Y-72913962D01*
X88648669Y-72669369D01*
X88241925Y-72500890D01*
X87810128Y-72415000D01*
X87369872Y-72415000D01*
X86938075Y-72500890D01*
X86531331Y-72669369D01*
X86165271Y-72913962D01*
X85910000Y-73169233D01*
X85910000Y-68660000D01*
X96020922Y-68660000D01*
X95988996Y-68686201D01*
%TA.AperFunction,Conductor*%
D24*
G36*
X95988996Y-68686201D02*
G01*
X95988992Y-68686205D01*
X95959999Y-68709999D01*
X95936205Y-68738992D01*
X89825000Y-74850198D01*
X89825000Y-74429872D01*
X89739110Y-73998075D01*
X89570631Y-73591331D01*
X89326038Y-73225271D01*
X89014729Y-72913962D01*
X88648669Y-72669369D01*
X88241925Y-72500890D01*
X87810128Y-72415000D01*
X87369872Y-72415000D01*
X86938075Y-72500890D01*
X86531331Y-72669369D01*
X86165271Y-72913962D01*
X85910000Y-73169233D01*
X85910000Y-68660000D01*
X96020922Y-68660000D01*
X95988996Y-68686201D01*
G37*
%TD.AperFunction*%
%TD*%
D23*
%TO.N,+5V*%
X103740000Y-82314802D02*
X103740001Y-86900168D01*
X103736324Y-86937500D01*
X103740001Y-86974833D01*
X103747767Y-87053676D01*
X103750998Y-87086485D01*
X103794454Y-87229746D01*
X103865026Y-87361776D01*
X103911986Y-87418996D01*
X103960000Y-87477501D01*
X103988998Y-87501299D01*
X104490000Y-88002302D01*
X104490000Y-88355274D01*
X104466317Y-88298098D01*
X104130872Y-87796069D01*
X103703931Y-87369128D01*
X103201902Y-87033683D01*
X102644077Y-86802624D01*
X102051893Y-86684831D01*
X101448107Y-86684831D01*
X100855923Y-86802624D01*
X100298098Y-87033683D01*
X99796069Y-87369128D01*
X99369128Y-87796069D01*
X99033683Y-88298098D01*
X98802624Y-88855923D01*
X98684831Y-89448107D01*
X98684831Y-90051893D01*
X98802624Y-90644077D01*
X99033683Y-91201902D01*
X99369128Y-91703931D01*
X99796069Y-92130872D01*
X100298098Y-92466317D01*
X100855923Y-92697376D01*
X101448107Y-92815169D01*
X102051893Y-92815169D01*
X102644077Y-92697376D01*
X103201902Y-92466317D01*
X103703931Y-92130872D01*
X104130872Y-91703931D01*
X104466317Y-91201902D01*
X104490001Y-91144724D01*
X104490001Y-91712668D01*
X104486324Y-91750000D01*
X104490001Y-91787333D01*
X104500998Y-91898986D01*
X104503736Y-91908012D01*
X104544454Y-92042246D01*
X104615026Y-92174276D01*
X104685169Y-92259744D01*
X104710000Y-92290001D01*
X104738998Y-92313799D01*
X105325000Y-92899801D01*
X105325000Y-93151335D01*
X105380147Y-93428574D01*
X105488320Y-93689727D01*
X105645363Y-93924759D01*
X105845241Y-94124637D01*
X105873000Y-94143185D01*
X105873000Y-94416815D01*
X105845241Y-94435363D01*
X105645363Y-94635241D01*
X105488320Y-94870273D01*
X105380147Y-95131426D01*
X105325000Y-95408665D01*
X105325000Y-95691335D01*
X105380147Y-95968574D01*
X105488320Y-96229727D01*
X105645363Y-96464759D01*
X105845241Y-96664637D01*
X105873000Y-96683185D01*
X105873000Y-96956815D01*
X105845241Y-96975363D01*
X105645363Y-97175241D01*
X105488320Y-97410273D01*
X105380147Y-97671426D01*
X105325000Y-97948665D01*
X105325000Y-98231335D01*
X105380147Y-98508574D01*
X105488320Y-98769727D01*
X105645363Y-99004759D01*
X105845241Y-99204637D01*
X106080273Y-99361680D01*
X106341426Y-99469853D01*
X106618665Y-99525000D01*
X106901335Y-99525000D01*
X107178574Y-99469853D01*
X107439727Y-99361680D01*
X107674759Y-99204637D01*
X107874637Y-99004759D01*
X108031680Y-98769727D01*
X108139853Y-98508574D01*
X108195000Y-98231335D01*
X108195000Y-97948665D01*
X108139853Y-97671426D01*
X108031680Y-97410273D01*
X107874637Y-97175241D01*
X107674759Y-96975363D01*
X107627000Y-96943452D01*
X107627000Y-96696548D01*
X107674759Y-96664637D01*
X107874637Y-96464759D01*
X108031680Y-96229727D01*
X108139853Y-95968574D01*
X108195000Y-95691335D01*
X108195000Y-95408665D01*
X108139853Y-95131426D01*
X108031680Y-94870273D01*
X107874637Y-94635241D01*
X107674759Y-94435363D01*
X107627000Y-94403452D01*
X107627000Y-94156548D01*
X107674759Y-94124637D01*
X107874637Y-93924759D01*
X108031680Y-93689727D01*
X108139853Y-93428574D01*
X108195000Y-93151335D01*
X108195000Y-92868665D01*
X108139853Y-92591426D01*
X108031680Y-92330273D01*
X107874637Y-92095241D01*
X107674759Y-91895363D01*
X107627000Y-91863452D01*
X107627000Y-91616548D01*
X107674759Y-91584637D01*
X107874637Y-91384759D01*
X108031680Y-91149727D01*
X108139853Y-90888574D01*
X108195000Y-90611335D01*
X108195000Y-90328665D01*
X108139853Y-90051426D01*
X108031680Y-89790273D01*
X107874637Y-89555241D01*
X107674759Y-89355363D01*
X107627000Y-89323452D01*
X107627000Y-89076548D01*
X107674759Y-89044637D01*
X107874637Y-88844759D01*
X108031680Y-88609727D01*
X108139853Y-88348574D01*
X108195000Y-88071335D01*
X108195000Y-87788665D01*
X108139853Y-87511426D01*
X108031680Y-87250273D01*
X107874637Y-87015241D01*
X107674759Y-86815363D01*
X107627000Y-86783452D01*
X107627000Y-86536548D01*
X107674759Y-86504637D01*
X107874637Y-86304759D01*
X108031680Y-86069727D01*
X108139853Y-85808574D01*
X108195000Y-85531335D01*
X108195000Y-85248665D01*
X108139853Y-84971426D01*
X108100741Y-84877000D01*
X111447394Y-84877000D01*
X111873000Y-85302606D01*
X111873000Y-91947394D01*
X110650421Y-93169973D01*
X110563554Y-93196324D01*
X110366378Y-93301717D01*
X110193552Y-93443552D01*
X110051717Y-93616378D01*
X109946324Y-93813554D01*
X109881423Y-94027502D01*
X109859509Y-94250000D01*
X109881423Y-94472498D01*
X109946324Y-94686446D01*
X110051717Y-94883622D01*
X110123000Y-94970481D01*
X110123000Y-95250000D01*
X110125440Y-95274776D01*
X110132667Y-95298601D01*
X110144403Y-95320557D01*
X110160197Y-95339803D01*
X117373000Y-102552606D01*
X117373000Y-108373000D01*
X116552606Y-108373000D01*
X115080028Y-106900422D01*
X115053676Y-106813553D01*
X114948284Y-106616377D01*
X114866275Y-106516449D01*
X114806449Y-106443551D01*
X114763140Y-106408009D01*
X113301996Y-104946865D01*
X113266449Y-104903551D01*
X113093623Y-104761716D01*
X112896447Y-104656324D01*
X112809578Y-104629972D01*
X110589803Y-102410197D01*
X110570557Y-102394403D01*
X110548601Y-102382667D01*
X110524776Y-102375440D01*
X110500000Y-102373000D01*
X107953321Y-102373000D01*
X107874637Y-102255241D01*
X107674759Y-102055363D01*
X107439727Y-101898320D01*
X107178574Y-101790147D01*
X106901335Y-101735000D01*
X106618665Y-101735000D01*
X106341426Y-101790147D01*
X106080273Y-101898320D01*
X105845241Y-102055363D01*
X105790105Y-102110499D01*
X97127000Y-93447394D01*
X97127000Y-88302606D01*
X100589803Y-84839803D01*
X100605597Y-84820557D01*
X100617333Y-84798601D01*
X100624560Y-84774776D01*
X100627000Y-84750000D01*
X100627000Y-80750000D01*
X100624560Y-80725224D01*
X100617333Y-80701399D01*
X100605597Y-80679443D01*
X100589803Y-80660197D01*
X99339803Y-79410197D01*
X99320557Y-79394403D01*
X99298601Y-79382667D01*
X99274776Y-79375440D01*
X99250000Y-79373000D01*
X97250000Y-79373000D01*
X97225224Y-79375440D01*
X97201399Y-79382667D01*
X97179443Y-79394403D01*
X97160197Y-79410197D01*
X96953929Y-79616465D01*
X96875518Y-79624188D01*
X96755820Y-79660498D01*
X96645506Y-79719463D01*
X96548815Y-79798815D01*
X96469463Y-79895506D01*
X96410498Y-80005820D01*
X96374188Y-80125518D01*
X96366465Y-80203929D01*
X95697394Y-80873000D01*
X94760000Y-80873000D01*
X94760000Y-79814801D01*
X96064802Y-78510000D01*
X99935199Y-78510000D01*
X103740000Y-82314802D01*
%TA.AperFunction,Conductor*%
D24*
G36*
X103740000Y-82314802D02*
G01*
X103740001Y-86900168D01*
X103736324Y-86937500D01*
X103740001Y-86974833D01*
X103747767Y-87053676D01*
X103750998Y-87086485D01*
X103794454Y-87229746D01*
X103865026Y-87361776D01*
X103911986Y-87418996D01*
X103960000Y-87477501D01*
X103988998Y-87501299D01*
X104490000Y-88002302D01*
X104490000Y-88355274D01*
X104466317Y-88298098D01*
X104130872Y-87796069D01*
X103703931Y-87369128D01*
X103201902Y-87033683D01*
X102644077Y-86802624D01*
X102051893Y-86684831D01*
X101448107Y-86684831D01*
X100855923Y-86802624D01*
X100298098Y-87033683D01*
X99796069Y-87369128D01*
X99369128Y-87796069D01*
X99033683Y-88298098D01*
X98802624Y-88855923D01*
X98684831Y-89448107D01*
X98684831Y-90051893D01*
X98802624Y-90644077D01*
X99033683Y-91201902D01*
X99369128Y-91703931D01*
X99796069Y-92130872D01*
X100298098Y-92466317D01*
X100855923Y-92697376D01*
X101448107Y-92815169D01*
X102051893Y-92815169D01*
X102644077Y-92697376D01*
X103201902Y-92466317D01*
X103703931Y-92130872D01*
X104130872Y-91703931D01*
X104466317Y-91201902D01*
X104490001Y-91144724D01*
X104490001Y-91712668D01*
X104486324Y-91750000D01*
X104490001Y-91787333D01*
X104500998Y-91898986D01*
X104503736Y-91908012D01*
X104544454Y-92042246D01*
X104615026Y-92174276D01*
X104685169Y-92259744D01*
X104710000Y-92290001D01*
X104738998Y-92313799D01*
X105325000Y-92899801D01*
X105325000Y-93151335D01*
X105380147Y-93428574D01*
X105488320Y-93689727D01*
X105645363Y-93924759D01*
X105845241Y-94124637D01*
X105873000Y-94143185D01*
X105873000Y-94416815D01*
X105845241Y-94435363D01*
X105645363Y-94635241D01*
X105488320Y-94870273D01*
X105380147Y-95131426D01*
X105325000Y-95408665D01*
X105325000Y-95691335D01*
X105380147Y-95968574D01*
X105488320Y-96229727D01*
X105645363Y-96464759D01*
X105845241Y-96664637D01*
X105873000Y-96683185D01*
X105873000Y-96956815D01*
X105845241Y-96975363D01*
X105645363Y-97175241D01*
X105488320Y-97410273D01*
X105380147Y-97671426D01*
X105325000Y-97948665D01*
X105325000Y-98231335D01*
X105380147Y-98508574D01*
X105488320Y-98769727D01*
X105645363Y-99004759D01*
X105845241Y-99204637D01*
X106080273Y-99361680D01*
X106341426Y-99469853D01*
X106618665Y-99525000D01*
X106901335Y-99525000D01*
X107178574Y-99469853D01*
X107439727Y-99361680D01*
X107674759Y-99204637D01*
X107874637Y-99004759D01*
X108031680Y-98769727D01*
X108139853Y-98508574D01*
X108195000Y-98231335D01*
X108195000Y-97948665D01*
X108139853Y-97671426D01*
X108031680Y-97410273D01*
X107874637Y-97175241D01*
X107674759Y-96975363D01*
X107627000Y-96943452D01*
X107627000Y-96696548D01*
X107674759Y-96664637D01*
X107874637Y-96464759D01*
X108031680Y-96229727D01*
X108139853Y-95968574D01*
X108195000Y-95691335D01*
X108195000Y-95408665D01*
X108139853Y-95131426D01*
X108031680Y-94870273D01*
X107874637Y-94635241D01*
X107674759Y-94435363D01*
X107627000Y-94403452D01*
X107627000Y-94156548D01*
X107674759Y-94124637D01*
X107874637Y-93924759D01*
X108031680Y-93689727D01*
X108139853Y-93428574D01*
X108195000Y-93151335D01*
X108195000Y-92868665D01*
X108139853Y-92591426D01*
X108031680Y-92330273D01*
X107874637Y-92095241D01*
X107674759Y-91895363D01*
X107627000Y-91863452D01*
X107627000Y-91616548D01*
X107674759Y-91584637D01*
X107874637Y-91384759D01*
X108031680Y-91149727D01*
X108139853Y-90888574D01*
X108195000Y-90611335D01*
X108195000Y-90328665D01*
X108139853Y-90051426D01*
X108031680Y-89790273D01*
X107874637Y-89555241D01*
X107674759Y-89355363D01*
X107627000Y-89323452D01*
X107627000Y-89076548D01*
X107674759Y-89044637D01*
X107874637Y-88844759D01*
X108031680Y-88609727D01*
X108139853Y-88348574D01*
X108195000Y-88071335D01*
X108195000Y-87788665D01*
X108139853Y-87511426D01*
X108031680Y-87250273D01*
X107874637Y-87015241D01*
X107674759Y-86815363D01*
X107627000Y-86783452D01*
X107627000Y-86536548D01*
X107674759Y-86504637D01*
X107874637Y-86304759D01*
X108031680Y-86069727D01*
X108139853Y-85808574D01*
X108195000Y-85531335D01*
X108195000Y-85248665D01*
X108139853Y-84971426D01*
X108100741Y-84877000D01*
X111447394Y-84877000D01*
X111873000Y-85302606D01*
X111873000Y-91947394D01*
X110650421Y-93169973D01*
X110563554Y-93196324D01*
X110366378Y-93301717D01*
X110193552Y-93443552D01*
X110051717Y-93616378D01*
X109946324Y-93813554D01*
X109881423Y-94027502D01*
X109859509Y-94250000D01*
X109881423Y-94472498D01*
X109946324Y-94686446D01*
X110051717Y-94883622D01*
X110123000Y-94970481D01*
X110123000Y-95250000D01*
X110125440Y-95274776D01*
X110132667Y-95298601D01*
X110144403Y-95320557D01*
X110160197Y-95339803D01*
X117373000Y-102552606D01*
X117373000Y-108373000D01*
X116552606Y-108373000D01*
X115080028Y-106900422D01*
X115053676Y-106813553D01*
X114948284Y-106616377D01*
X114866275Y-106516449D01*
X114806449Y-106443551D01*
X114763140Y-106408009D01*
X113301996Y-104946865D01*
X113266449Y-104903551D01*
X113093623Y-104761716D01*
X112896447Y-104656324D01*
X112809578Y-104629972D01*
X110589803Y-102410197D01*
X110570557Y-102394403D01*
X110548601Y-102382667D01*
X110524776Y-102375440D01*
X110500000Y-102373000D01*
X107953321Y-102373000D01*
X107874637Y-102255241D01*
X107674759Y-102055363D01*
X107439727Y-101898320D01*
X107178574Y-101790147D01*
X106901335Y-101735000D01*
X106618665Y-101735000D01*
X106341426Y-101790147D01*
X106080273Y-101898320D01*
X105845241Y-102055363D01*
X105790105Y-102110499D01*
X97127000Y-93447394D01*
X97127000Y-88302606D01*
X100589803Y-84839803D01*
X100605597Y-84820557D01*
X100617333Y-84798601D01*
X100624560Y-84774776D01*
X100627000Y-84750000D01*
X100627000Y-80750000D01*
X100624560Y-80725224D01*
X100617333Y-80701399D01*
X100605597Y-80679443D01*
X100589803Y-80660197D01*
X99339803Y-79410197D01*
X99320557Y-79394403D01*
X99298601Y-79382667D01*
X99274776Y-79375440D01*
X99250000Y-79373000D01*
X97250000Y-79373000D01*
X97225224Y-79375440D01*
X97201399Y-79382667D01*
X97179443Y-79394403D01*
X97160197Y-79410197D01*
X96953929Y-79616465D01*
X96875518Y-79624188D01*
X96755820Y-79660498D01*
X96645506Y-79719463D01*
X96548815Y-79798815D01*
X96469463Y-79895506D01*
X96410498Y-80005820D01*
X96374188Y-80125518D01*
X96366465Y-80203929D01*
X95697394Y-80873000D01*
X94760000Y-80873000D01*
X94760000Y-79814801D01*
X96064802Y-78510000D01*
X99935199Y-78510000D01*
X103740000Y-82314802D01*
G37*
%TD.AperFunction*%
%TD*%
D23*
%TO.N,/BRAKE_RAW*%
X96936200Y-116511002D02*
X96959999Y-116540001D01*
X97075724Y-116634974D01*
X97207753Y-116705546D01*
X97351014Y-116749003D01*
X97462667Y-116760000D01*
X97462677Y-116760000D01*
X97500000Y-116763676D01*
X97537323Y-116760000D01*
X106185199Y-116760000D01*
X107623000Y-118197802D01*
X107623000Y-119199573D01*
X107582795Y-119259744D01*
X107504774Y-119448102D01*
X107465000Y-119648061D01*
X107465000Y-119851939D01*
X107465573Y-119854821D01*
X106955394Y-120365000D01*
X96038454Y-120365000D01*
X95990256Y-120332795D01*
X95801898Y-120254774D01*
X95601939Y-120215000D01*
X95398061Y-120215000D01*
X95198102Y-120254774D01*
X95009744Y-120332795D01*
X94840226Y-120446063D01*
X94696063Y-120590226D01*
X94674164Y-120623000D01*
X92802606Y-120623000D01*
X91941277Y-119761671D01*
X91942427Y-119750000D01*
X91912790Y-119449087D01*
X91825017Y-119159739D01*
X91682481Y-118893073D01*
X91490661Y-118659339D01*
X91256927Y-118467519D01*
X90990261Y-118324983D01*
X90700913Y-118237210D01*
X90475408Y-118215000D01*
X90394606Y-118215000D01*
X87877000Y-115697394D01*
X87877000Y-113627000D01*
X94052199Y-113627000D01*
X96936200Y-116511002D01*
%TA.AperFunction,Conductor*%
D24*
G36*
X96936200Y-116511002D02*
G01*
X96959999Y-116540001D01*
X97075724Y-116634974D01*
X97207753Y-116705546D01*
X97351014Y-116749003D01*
X97462667Y-116760000D01*
X97462677Y-116760000D01*
X97500000Y-116763676D01*
X97537323Y-116760000D01*
X106185199Y-116760000D01*
X107623000Y-118197802D01*
X107623000Y-119199573D01*
X107582795Y-119259744D01*
X107504774Y-119448102D01*
X107465000Y-119648061D01*
X107465000Y-119851939D01*
X107465573Y-119854821D01*
X106955394Y-120365000D01*
X96038454Y-120365000D01*
X95990256Y-120332795D01*
X95801898Y-120254774D01*
X95601939Y-120215000D01*
X95398061Y-120215000D01*
X95198102Y-120254774D01*
X95009744Y-120332795D01*
X94840226Y-120446063D01*
X94696063Y-120590226D01*
X94674164Y-120623000D01*
X92802606Y-120623000D01*
X91941277Y-119761671D01*
X91942427Y-119750000D01*
X91912790Y-119449087D01*
X91825017Y-119159739D01*
X91682481Y-118893073D01*
X91490661Y-118659339D01*
X91256927Y-118467519D01*
X90990261Y-118324983D01*
X90700913Y-118237210D01*
X90475408Y-118215000D01*
X90394606Y-118215000D01*
X87877000Y-115697394D01*
X87877000Y-113627000D01*
X94052199Y-113627000D01*
X96936200Y-116511002D01*
G37*
%TD.AperFunction*%
%TD*%
D23*
%TO.N,/12V_ALWAYS*%
X122373000Y-126052606D02*
X122373000Y-127447394D01*
X121105394Y-128715000D01*
X120524592Y-128715000D01*
X120299087Y-128737210D01*
X120009739Y-128824983D01*
X119743073Y-128967519D01*
X119509339Y-129159339D01*
X119317519Y-129393073D01*
X119174983Y-129659739D01*
X119112718Y-129865000D01*
X91887282Y-129865000D01*
X91825017Y-129659739D01*
X91682481Y-129393073D01*
X91490661Y-129159339D01*
X91256927Y-128967519D01*
X90990261Y-128824983D01*
X90700913Y-128737210D01*
X90475408Y-128715000D01*
X89894606Y-128715000D01*
X88627000Y-127447394D01*
X88627000Y-126052606D01*
X89794606Y-124885000D01*
X121205394Y-124885000D01*
X122373000Y-126052606D01*
%TA.AperFunction,Conductor*%
D24*
G36*
X122373000Y-126052606D02*
G01*
X122373000Y-127447394D01*
X121105394Y-128715000D01*
X120524592Y-128715000D01*
X120299087Y-128737210D01*
X120009739Y-128824983D01*
X119743073Y-128967519D01*
X119509339Y-129159339D01*
X119317519Y-129393073D01*
X119174983Y-129659739D01*
X119112718Y-129865000D01*
X91887282Y-129865000D01*
X91825017Y-129659739D01*
X91682481Y-129393073D01*
X91490661Y-129159339D01*
X91256927Y-128967519D01*
X90990261Y-128824983D01*
X90700913Y-128737210D01*
X90475408Y-128715000D01*
X89894606Y-128715000D01*
X88627000Y-127447394D01*
X88627000Y-126052606D01*
X89794606Y-124885000D01*
X121205394Y-124885000D01*
X122373000Y-126052606D01*
G37*
%TD.AperFunction*%
%TD*%
D23*
%TO.N,/12V_KEYON*%
X120009739Y-131675017D02*
X120299087Y-131762790D01*
X120524592Y-131785000D01*
X120855394Y-131785000D01*
X122123000Y-133052606D01*
X122123000Y-134447394D01*
X120855394Y-135715000D01*
X120524592Y-135715000D01*
X120299087Y-135737210D01*
X120009739Y-135824983D01*
X119743073Y-135967519D01*
X119509339Y-136159339D01*
X119333992Y-136373000D01*
X118050427Y-136373000D01*
X117990256Y-136332795D01*
X117801898Y-136254774D01*
X117601939Y-136215000D01*
X117398061Y-136215000D01*
X117198102Y-136254774D01*
X117009744Y-136332795D01*
X116961546Y-136365000D01*
X91659442Y-136365000D01*
X91490661Y-136159339D01*
X91256927Y-135967519D01*
X90990261Y-135824983D01*
X90700913Y-135737210D01*
X90475408Y-135715000D01*
X89894606Y-135715000D01*
X88627000Y-134447394D01*
X88627000Y-133052606D01*
X89894606Y-131785000D01*
X90475408Y-131785000D01*
X90700913Y-131762790D01*
X90990261Y-131675017D01*
X91065128Y-131635000D01*
X119934872Y-131635000D01*
X120009739Y-131675017D01*
%TA.AperFunction,Conductor*%
D24*
G36*
X120009739Y-131675017D02*
G01*
X120299087Y-131762790D01*
X120524592Y-131785000D01*
X120855394Y-131785000D01*
X122123000Y-133052606D01*
X122123000Y-134447394D01*
X120855394Y-135715000D01*
X120524592Y-135715000D01*
X120299087Y-135737210D01*
X120009739Y-135824983D01*
X119743073Y-135967519D01*
X119509339Y-136159339D01*
X119333992Y-136373000D01*
X118050427Y-136373000D01*
X117990256Y-136332795D01*
X117801898Y-136254774D01*
X117601939Y-136215000D01*
X117398061Y-136215000D01*
X117198102Y-136254774D01*
X117009744Y-136332795D01*
X116961546Y-136365000D01*
X91659442Y-136365000D01*
X91490661Y-136159339D01*
X91256927Y-135967519D01*
X90990261Y-135824983D01*
X90700913Y-135737210D01*
X90475408Y-135715000D01*
X89894606Y-135715000D01*
X88627000Y-134447394D01*
X88627000Y-133052606D01*
X89894606Y-131785000D01*
X90475408Y-131785000D01*
X90700913Y-131762790D01*
X90990261Y-131675017D01*
X91065128Y-131635000D01*
X119934872Y-131635000D01*
X120009739Y-131675017D01*
G37*
%TD.AperFunction*%
%TD*%
M02*
